G04 #@! TF.GenerationSoftware,KiCad,Pcbnew,(5.1.0)-1*
G04 #@! TF.CreationDate,2019-10-14T10:16:39-04:00*
G04 #@! TF.ProjectId,MiniDin8Adapter,4d696e69-4469-46e3-9841-646170746572,rev?*
G04 #@! TF.SameCoordinates,Original*
G04 #@! TF.FileFunction,Soldermask,Bot*
G04 #@! TF.FilePolarity,Negative*
%FSLAX46Y46*%
G04 Gerber Fmt 4.6, Leading zero omitted, Abs format (unit mm)*
G04 Created by KiCad (PCBNEW (5.1.0)-1) date 2019-10-14 10:16:39*
%MOMM*%
%LPD*%
G04 APERTURE LIST*
%ADD10C,0.100000*%
G04 APERTURE END LIST*
D10*
G36*
X149204473Y-109225938D02*
G01*
X149332049Y-109278782D01*
X149446859Y-109355495D01*
X149544505Y-109453141D01*
X149621218Y-109567951D01*
X149674062Y-109695527D01*
X149701000Y-109830956D01*
X149701000Y-109969044D01*
X149674062Y-110104473D01*
X149621218Y-110232049D01*
X149544505Y-110346859D01*
X149446859Y-110444505D01*
X149332049Y-110521218D01*
X149204473Y-110574062D01*
X149069044Y-110601000D01*
X148930956Y-110601000D01*
X148795527Y-110574062D01*
X148667951Y-110521218D01*
X148553141Y-110444505D01*
X148455495Y-110346859D01*
X148378782Y-110232049D01*
X148325938Y-110104473D01*
X148299000Y-109969044D01*
X148299000Y-109830956D01*
X148325938Y-109695527D01*
X148378782Y-109567951D01*
X148455495Y-109453141D01*
X148553141Y-109355495D01*
X148667951Y-109278782D01*
X148795527Y-109225938D01*
X148930956Y-109199000D01*
X149069044Y-109199000D01*
X149204473Y-109225938D01*
X149204473Y-109225938D01*
G37*
G36*
X147204473Y-109225938D02*
G01*
X147332049Y-109278782D01*
X147446859Y-109355495D01*
X147544505Y-109453141D01*
X147621218Y-109567951D01*
X147674062Y-109695527D01*
X147701000Y-109830956D01*
X147701000Y-109969044D01*
X147674062Y-110104473D01*
X147621218Y-110232049D01*
X147544505Y-110346859D01*
X147446859Y-110444505D01*
X147332049Y-110521218D01*
X147204473Y-110574062D01*
X147069044Y-110601000D01*
X146930956Y-110601000D01*
X146795527Y-110574062D01*
X146667951Y-110521218D01*
X146553141Y-110444505D01*
X146455495Y-110346859D01*
X146378782Y-110232049D01*
X146325938Y-110104473D01*
X146299000Y-109969044D01*
X146299000Y-109830956D01*
X146325938Y-109695527D01*
X146378782Y-109567951D01*
X146455495Y-109453141D01*
X146553141Y-109355495D01*
X146667951Y-109278782D01*
X146795527Y-109225938D01*
X146930956Y-109199000D01*
X147069044Y-109199000D01*
X147204473Y-109225938D01*
X147204473Y-109225938D01*
G37*
G36*
X145204473Y-109225938D02*
G01*
X145332049Y-109278782D01*
X145446859Y-109355495D01*
X145544505Y-109453141D01*
X145621218Y-109567951D01*
X145674062Y-109695527D01*
X145701000Y-109830956D01*
X145701000Y-109969044D01*
X145674062Y-110104473D01*
X145621218Y-110232049D01*
X145544505Y-110346859D01*
X145446859Y-110444505D01*
X145332049Y-110521218D01*
X145204473Y-110574062D01*
X145069044Y-110601000D01*
X144930956Y-110601000D01*
X144795527Y-110574062D01*
X144667951Y-110521218D01*
X144553141Y-110444505D01*
X144455495Y-110346859D01*
X144378782Y-110232049D01*
X144325938Y-110104473D01*
X144299000Y-109969044D01*
X144299000Y-109830956D01*
X144325938Y-109695527D01*
X144378782Y-109567951D01*
X144455495Y-109453141D01*
X144553141Y-109355495D01*
X144667951Y-109278782D01*
X144795527Y-109225938D01*
X144930956Y-109199000D01*
X145069044Y-109199000D01*
X145204473Y-109225938D01*
X145204473Y-109225938D01*
G37*
G36*
X143204473Y-109225938D02*
G01*
X143332049Y-109278782D01*
X143446859Y-109355495D01*
X143544505Y-109453141D01*
X143621218Y-109567951D01*
X143674062Y-109695527D01*
X143701000Y-109830956D01*
X143701000Y-109969044D01*
X143674062Y-110104473D01*
X143621218Y-110232049D01*
X143544505Y-110346859D01*
X143446859Y-110444505D01*
X143332049Y-110521218D01*
X143204473Y-110574062D01*
X143069044Y-110601000D01*
X142930956Y-110601000D01*
X142795527Y-110574062D01*
X142667951Y-110521218D01*
X142553141Y-110444505D01*
X142455495Y-110346859D01*
X142378782Y-110232049D01*
X142325938Y-110104473D01*
X142299000Y-109969044D01*
X142299000Y-109830956D01*
X142325938Y-109695527D01*
X142378782Y-109567951D01*
X142455495Y-109453141D01*
X142553141Y-109355495D01*
X142667951Y-109278782D01*
X142795527Y-109225938D01*
X142930956Y-109199000D01*
X143069044Y-109199000D01*
X143204473Y-109225938D01*
X143204473Y-109225938D01*
G37*
G36*
X151204473Y-109225938D02*
G01*
X151332049Y-109278782D01*
X151446859Y-109355495D01*
X151544505Y-109453141D01*
X151621218Y-109567951D01*
X151674062Y-109695527D01*
X151701000Y-109830956D01*
X151701000Y-109969044D01*
X151674062Y-110104473D01*
X151621218Y-110232049D01*
X151544505Y-110346859D01*
X151446859Y-110444505D01*
X151332049Y-110521218D01*
X151204473Y-110574062D01*
X151069044Y-110601000D01*
X150930956Y-110601000D01*
X150795527Y-110574062D01*
X150667951Y-110521218D01*
X150553141Y-110444505D01*
X150455495Y-110346859D01*
X150378782Y-110232049D01*
X150325938Y-110104473D01*
X150299000Y-109969044D01*
X150299000Y-109830956D01*
X150325938Y-109695527D01*
X150378782Y-109567951D01*
X150455495Y-109453141D01*
X150553141Y-109355495D01*
X150667951Y-109278782D01*
X150795527Y-109225938D01*
X150930956Y-109199000D01*
X151069044Y-109199000D01*
X151204473Y-109225938D01*
X151204473Y-109225938D01*
G37*
G36*
X151204473Y-106725938D02*
G01*
X151332049Y-106778782D01*
X151446859Y-106855495D01*
X151544505Y-106953141D01*
X151621218Y-107067951D01*
X151674062Y-107195527D01*
X151701000Y-107330956D01*
X151701000Y-107469044D01*
X151674062Y-107604473D01*
X151621218Y-107732049D01*
X151544505Y-107846859D01*
X151446859Y-107944505D01*
X151332049Y-108021218D01*
X151204473Y-108074062D01*
X151069044Y-108101000D01*
X150930956Y-108101000D01*
X150795527Y-108074062D01*
X150667951Y-108021218D01*
X150553141Y-107944505D01*
X150455495Y-107846859D01*
X150378782Y-107732049D01*
X150325938Y-107604473D01*
X150299000Y-107469044D01*
X150299000Y-107330956D01*
X150325938Y-107195527D01*
X150378782Y-107067951D01*
X150455495Y-106953141D01*
X150553141Y-106855495D01*
X150667951Y-106778782D01*
X150795527Y-106725938D01*
X150930956Y-106699000D01*
X151069044Y-106699000D01*
X151204473Y-106725938D01*
X151204473Y-106725938D01*
G37*
G36*
X148504473Y-106725938D02*
G01*
X148632049Y-106778782D01*
X148746859Y-106855495D01*
X148844505Y-106953141D01*
X148921218Y-107067951D01*
X148974062Y-107195527D01*
X149001000Y-107330956D01*
X149001000Y-107469044D01*
X148974062Y-107604473D01*
X148921218Y-107732049D01*
X148844505Y-107846859D01*
X148746859Y-107944505D01*
X148632049Y-108021218D01*
X148504473Y-108074062D01*
X148369044Y-108101000D01*
X148230956Y-108101000D01*
X148095527Y-108074062D01*
X147967951Y-108021218D01*
X147853141Y-107944505D01*
X147755495Y-107846859D01*
X147678782Y-107732049D01*
X147625938Y-107604473D01*
X147599000Y-107469044D01*
X147599000Y-107330956D01*
X147625938Y-107195527D01*
X147678782Y-107067951D01*
X147755495Y-106953141D01*
X147853141Y-106855495D01*
X147967951Y-106778782D01*
X148095527Y-106725938D01*
X148230956Y-106699000D01*
X148369044Y-106699000D01*
X148504473Y-106725938D01*
X148504473Y-106725938D01*
G37*
G36*
X143204473Y-106725938D02*
G01*
X143332049Y-106778782D01*
X143446859Y-106855495D01*
X143544505Y-106953141D01*
X143621218Y-107067951D01*
X143674062Y-107195527D01*
X143701000Y-107330956D01*
X143701000Y-107469044D01*
X143674062Y-107604473D01*
X143621218Y-107732049D01*
X143544505Y-107846859D01*
X143446859Y-107944505D01*
X143332049Y-108021218D01*
X143204473Y-108074062D01*
X143069044Y-108101000D01*
X142930956Y-108101000D01*
X142795527Y-108074062D01*
X142667951Y-108021218D01*
X142553141Y-107944505D01*
X142455495Y-107846859D01*
X142378782Y-107732049D01*
X142325938Y-107604473D01*
X142299000Y-107469044D01*
X142299000Y-107330956D01*
X142325938Y-107195527D01*
X142378782Y-107067951D01*
X142455495Y-106953141D01*
X142553141Y-106855495D01*
X142667951Y-106778782D01*
X142795527Y-106725938D01*
X142930956Y-106699000D01*
X143069044Y-106699000D01*
X143204473Y-106725938D01*
X143204473Y-106725938D01*
G37*
G36*
X146504473Y-106725938D02*
G01*
X146632049Y-106778782D01*
X146746859Y-106855495D01*
X146844505Y-106953141D01*
X146921218Y-107067951D01*
X146974062Y-107195527D01*
X147001000Y-107330956D01*
X147001000Y-107469044D01*
X146974062Y-107604473D01*
X146921218Y-107732049D01*
X146844505Y-107846859D01*
X146746859Y-107944505D01*
X146632049Y-108021218D01*
X146504473Y-108074062D01*
X146369044Y-108101000D01*
X146230956Y-108101000D01*
X146095527Y-108074062D01*
X145967951Y-108021218D01*
X145853141Y-107944505D01*
X145755495Y-107846859D01*
X145678782Y-107732049D01*
X145625938Y-107604473D01*
X145599000Y-107469044D01*
X145599000Y-107330956D01*
X145625938Y-107195527D01*
X145678782Y-107067951D01*
X145755495Y-106953141D01*
X145853141Y-106855495D01*
X145967951Y-106778782D01*
X146095527Y-106725938D01*
X146230956Y-106699000D01*
X146369044Y-106699000D01*
X146504473Y-106725938D01*
X146504473Y-106725938D01*
G37*
G36*
X140129487Y-103148996D02*
G01*
X140366253Y-103247068D01*
X140366255Y-103247069D01*
X140579339Y-103389447D01*
X140760553Y-103570661D01*
X140902932Y-103783747D01*
X141001004Y-104020513D01*
X141051000Y-104271861D01*
X141051000Y-104528139D01*
X141001004Y-104779487D01*
X140902932Y-105016253D01*
X140902931Y-105016255D01*
X140760553Y-105229339D01*
X140579339Y-105410553D01*
X140366255Y-105552931D01*
X140366254Y-105552932D01*
X140366253Y-105552932D01*
X140129487Y-105651004D01*
X139878139Y-105701000D01*
X139621861Y-105701000D01*
X139370513Y-105651004D01*
X139133747Y-105552932D01*
X139133746Y-105552932D01*
X139133745Y-105552931D01*
X138920661Y-105410553D01*
X138739447Y-105229339D01*
X138597069Y-105016255D01*
X138597068Y-105016253D01*
X138498996Y-104779487D01*
X138449000Y-104528139D01*
X138449000Y-104271861D01*
X138498996Y-104020513D01*
X138597068Y-103783747D01*
X138739447Y-103570661D01*
X138920661Y-103389447D01*
X139133745Y-103247069D01*
X139133747Y-103247068D01*
X139370513Y-103148996D01*
X139621861Y-103099000D01*
X139878139Y-103099000D01*
X140129487Y-103148996D01*
X140129487Y-103148996D01*
G37*
G36*
X154629487Y-103148996D02*
G01*
X154866253Y-103247068D01*
X154866255Y-103247069D01*
X155079339Y-103389447D01*
X155260553Y-103570661D01*
X155402932Y-103783747D01*
X155501004Y-104020513D01*
X155551000Y-104271861D01*
X155551000Y-104528139D01*
X155501004Y-104779487D01*
X155402932Y-105016253D01*
X155402931Y-105016255D01*
X155260553Y-105229339D01*
X155079339Y-105410553D01*
X154866255Y-105552931D01*
X154866254Y-105552932D01*
X154866253Y-105552932D01*
X154629487Y-105651004D01*
X154378139Y-105701000D01*
X154121861Y-105701000D01*
X153870513Y-105651004D01*
X153633747Y-105552932D01*
X153633746Y-105552932D01*
X153633745Y-105552931D01*
X153420661Y-105410553D01*
X153239447Y-105229339D01*
X153097069Y-105016255D01*
X153097068Y-105016253D01*
X152998996Y-104779487D01*
X152949000Y-104528139D01*
X152949000Y-104271861D01*
X152998996Y-104020513D01*
X153097068Y-103783747D01*
X153239447Y-103570661D01*
X153420661Y-103389447D01*
X153633745Y-103247069D01*
X153633747Y-103247068D01*
X153870513Y-103148996D01*
X154121861Y-103099000D01*
X154378139Y-103099000D01*
X154629487Y-103148996D01*
X154629487Y-103148996D01*
G37*
G36*
X147379487Y-102348996D02*
G01*
X147616253Y-102447068D01*
X147616255Y-102447069D01*
X147829339Y-102589447D01*
X148010553Y-102770661D01*
X148152932Y-102983747D01*
X148251004Y-103220513D01*
X148301000Y-103471861D01*
X148301000Y-103728139D01*
X148251004Y-103979487D01*
X148234010Y-104020513D01*
X148152931Y-104216255D01*
X148010553Y-104429339D01*
X147829339Y-104610553D01*
X147616255Y-104752931D01*
X147616254Y-104752932D01*
X147616253Y-104752932D01*
X147379487Y-104851004D01*
X147128139Y-104901000D01*
X146871861Y-104901000D01*
X146620513Y-104851004D01*
X146383747Y-104752932D01*
X146383746Y-104752932D01*
X146383745Y-104752931D01*
X146170661Y-104610553D01*
X145989447Y-104429339D01*
X145847069Y-104216255D01*
X145765990Y-104020513D01*
X145748996Y-103979487D01*
X145699000Y-103728139D01*
X145699000Y-103471861D01*
X145748996Y-103220513D01*
X145847068Y-102983747D01*
X145989447Y-102770661D01*
X146170661Y-102589447D01*
X146383745Y-102447069D01*
X146383747Y-102447068D01*
X146620513Y-102348996D01*
X146871861Y-102299000D01*
X147128139Y-102299000D01*
X147379487Y-102348996D01*
X147379487Y-102348996D01*
G37*
M02*
