G04 #@! TF.GenerationSoftware,KiCad,Pcbnew,(5.1.0)-1*
G04 #@! TF.CreationDate,2019-10-14T10:16:39-04:00*
G04 #@! TF.ProjectId,MiniDin8Adapter,4d696e69-4469-46e3-9841-646170746572,rev?*
G04 #@! TF.SameCoordinates,Original*
G04 #@! TF.FileFunction,Copper,L2,Bot*
G04 #@! TF.FilePolarity,Positive*
%FSLAX46Y46*%
G04 Gerber Fmt 4.6, Leading zero omitted, Abs format (unit mm)*
G04 Created by KiCad (PCBNEW (5.1.0)-1) date 2019-10-14 10:16:39*
%MOMM*%
%LPD*%
G04 APERTURE LIST*
%ADD10C,2.500000*%
%ADD11C,1.300000*%
%ADD12C,0.800000*%
%ADD13C,0.254000*%
G04 APERTURE END LIST*
D10*
X147000000Y-103600000D03*
X154250000Y-104400000D03*
X139750000Y-104400000D03*
D11*
X147000000Y-109900000D03*
X145000000Y-109900000D03*
X143000000Y-109900000D03*
X149000000Y-109900000D03*
X151000000Y-109900000D03*
X146300000Y-107400000D03*
X143000000Y-107400000D03*
X148300000Y-107400000D03*
X151000000Y-107400000D03*
D12*
X146150000Y-112850000D03*
D13*
G36*
X155340000Y-102985066D02*
G01*
X155258086Y-102796423D01*
X154925874Y-102630567D01*
X154567688Y-102532710D01*
X154197294Y-102506611D01*
X153828925Y-102553275D01*
X153476738Y-102670906D01*
X153241914Y-102796423D01*
X153116000Y-103086395D01*
X154250000Y-104220395D01*
X154264143Y-104206253D01*
X154443748Y-104385858D01*
X154429605Y-104400000D01*
X154443748Y-104414143D01*
X154264143Y-104593748D01*
X154250000Y-104579605D01*
X153116000Y-105713605D01*
X153241914Y-106003577D01*
X153574126Y-106169433D01*
X153932312Y-106267290D01*
X154302706Y-106293389D01*
X154671075Y-106246725D01*
X155023262Y-106129094D01*
X155258086Y-106003577D01*
X155340000Y-105814934D01*
X155340001Y-111967571D01*
X155336807Y-112000000D01*
X155349550Y-112129383D01*
X155387290Y-112253793D01*
X155448575Y-112368450D01*
X155531052Y-112468948D01*
X155631550Y-112551425D01*
X155746207Y-112612710D01*
X155870617Y-112650450D01*
X155967581Y-112660000D01*
X156000000Y-112663193D01*
X156032419Y-112660000D01*
X157340000Y-112660000D01*
X157340000Y-113873000D01*
X136660000Y-113873000D01*
X136660000Y-112660000D01*
X137967581Y-112660000D01*
X138000000Y-112663193D01*
X138032419Y-112660000D01*
X138129383Y-112650450D01*
X138253793Y-112612710D01*
X138368450Y-112551425D01*
X138468948Y-112468948D01*
X138551425Y-112368450D01*
X138612710Y-112253793D01*
X138650450Y-112129383D01*
X138663193Y-112000000D01*
X138660000Y-111967581D01*
X138660000Y-107273439D01*
X141715000Y-107273439D01*
X141715000Y-107526561D01*
X141764381Y-107774821D01*
X141861247Y-108008676D01*
X142001875Y-108219140D01*
X142180860Y-108398125D01*
X142391324Y-108538753D01*
X142625179Y-108635619D01*
X142697479Y-108650000D01*
X142625179Y-108664381D01*
X142391324Y-108761247D01*
X142180860Y-108901875D01*
X142001875Y-109080860D01*
X141861247Y-109291324D01*
X141764381Y-109525179D01*
X141715000Y-109773439D01*
X141715000Y-110026561D01*
X141764381Y-110274821D01*
X141861247Y-110508676D01*
X142001875Y-110719140D01*
X142180860Y-110898125D01*
X142391324Y-111038753D01*
X142625179Y-111135619D01*
X142873439Y-111185000D01*
X143126561Y-111185000D01*
X143374821Y-111135619D01*
X143608676Y-111038753D01*
X143819140Y-110898125D01*
X143998125Y-110719140D01*
X144000000Y-110716334D01*
X144001875Y-110719140D01*
X144180860Y-110898125D01*
X144391324Y-111038753D01*
X144625179Y-111135619D01*
X144873439Y-111185000D01*
X145126561Y-111185000D01*
X145374821Y-111135619D01*
X145608676Y-111038753D01*
X145819140Y-110898125D01*
X145998125Y-110719140D01*
X146000000Y-110716334D01*
X146001875Y-110719140D01*
X146180860Y-110898125D01*
X146391324Y-111038753D01*
X146625179Y-111135619D01*
X146873439Y-111185000D01*
X147126561Y-111185000D01*
X147374821Y-111135619D01*
X147608676Y-111038753D01*
X147819140Y-110898125D01*
X147998125Y-110719140D01*
X148000000Y-110716334D01*
X148001875Y-110719140D01*
X148180860Y-110898125D01*
X148391324Y-111038753D01*
X148625179Y-111135619D01*
X148873439Y-111185000D01*
X149126561Y-111185000D01*
X149374821Y-111135619D01*
X149608676Y-111038753D01*
X149819140Y-110898125D01*
X149998125Y-110719140D01*
X150000000Y-110716334D01*
X150001875Y-110719140D01*
X150180860Y-110898125D01*
X150391324Y-111038753D01*
X150625179Y-111135619D01*
X150873439Y-111185000D01*
X151126561Y-111185000D01*
X151374821Y-111135619D01*
X151608676Y-111038753D01*
X151819140Y-110898125D01*
X151998125Y-110719140D01*
X152138753Y-110508676D01*
X152235619Y-110274821D01*
X152285000Y-110026561D01*
X152285000Y-109773439D01*
X152235619Y-109525179D01*
X152138753Y-109291324D01*
X151998125Y-109080860D01*
X151819140Y-108901875D01*
X151608676Y-108761247D01*
X151374821Y-108664381D01*
X151302521Y-108650000D01*
X151374821Y-108635619D01*
X151608676Y-108538753D01*
X151819140Y-108398125D01*
X151998125Y-108219140D01*
X152138753Y-108008676D01*
X152235619Y-107774821D01*
X152285000Y-107526561D01*
X152285000Y-107273439D01*
X152235619Y-107025179D01*
X152138753Y-106791324D01*
X151998125Y-106580860D01*
X151819140Y-106401875D01*
X151608676Y-106261247D01*
X151374821Y-106164381D01*
X151126561Y-106115000D01*
X150873439Y-106115000D01*
X150625179Y-106164381D01*
X150391324Y-106261247D01*
X150180860Y-106401875D01*
X150001875Y-106580860D01*
X149861247Y-106791324D01*
X149764381Y-107025179D01*
X149715000Y-107273439D01*
X149715000Y-107526561D01*
X149764381Y-107774821D01*
X149861247Y-108008676D01*
X150001875Y-108219140D01*
X150180860Y-108398125D01*
X150391324Y-108538753D01*
X150625179Y-108635619D01*
X150697479Y-108650000D01*
X150625179Y-108664381D01*
X150391324Y-108761247D01*
X150180860Y-108901875D01*
X150001875Y-109080860D01*
X150000000Y-109083666D01*
X149998125Y-109080860D01*
X149819140Y-108901875D01*
X149608676Y-108761247D01*
X149374821Y-108664381D01*
X149126561Y-108615000D01*
X148873439Y-108615000D01*
X148625179Y-108664381D01*
X148391324Y-108761247D01*
X148180860Y-108901875D01*
X148001875Y-109080860D01*
X148000000Y-109083666D01*
X147998125Y-109080860D01*
X147819140Y-108901875D01*
X147608676Y-108761247D01*
X147374821Y-108664381D01*
X147126561Y-108615000D01*
X146873439Y-108615000D01*
X146625179Y-108664381D01*
X146391324Y-108761247D01*
X146180860Y-108901875D01*
X146001875Y-109080860D01*
X146000000Y-109083666D01*
X145998125Y-109080860D01*
X145819140Y-108901875D01*
X145608676Y-108761247D01*
X145374821Y-108664381D01*
X145126561Y-108615000D01*
X144873439Y-108615000D01*
X144625179Y-108664381D01*
X144391324Y-108761247D01*
X144180860Y-108901875D01*
X144001875Y-109080860D01*
X144000000Y-109083666D01*
X143998125Y-109080860D01*
X143819140Y-108901875D01*
X143608676Y-108761247D01*
X143374821Y-108664381D01*
X143302521Y-108650000D01*
X143374821Y-108635619D01*
X143608676Y-108538753D01*
X143819140Y-108398125D01*
X143998125Y-108219140D01*
X144138753Y-108008676D01*
X144235619Y-107774821D01*
X144285000Y-107526561D01*
X144285000Y-107273439D01*
X145015000Y-107273439D01*
X145015000Y-107526561D01*
X145064381Y-107774821D01*
X145161247Y-108008676D01*
X145301875Y-108219140D01*
X145480860Y-108398125D01*
X145691324Y-108538753D01*
X145925179Y-108635619D01*
X146173439Y-108685000D01*
X146426561Y-108685000D01*
X146674821Y-108635619D01*
X146908676Y-108538753D01*
X147119140Y-108398125D01*
X147298125Y-108219140D01*
X147300000Y-108216334D01*
X147301875Y-108219140D01*
X147480860Y-108398125D01*
X147691324Y-108538753D01*
X147925179Y-108635619D01*
X148173439Y-108685000D01*
X148426561Y-108685000D01*
X148674821Y-108635619D01*
X148908676Y-108538753D01*
X149119140Y-108398125D01*
X149298125Y-108219140D01*
X149438753Y-108008676D01*
X149535619Y-107774821D01*
X149585000Y-107526561D01*
X149585000Y-107273439D01*
X149535619Y-107025179D01*
X149438753Y-106791324D01*
X149298125Y-106580860D01*
X149119140Y-106401875D01*
X148908676Y-106261247D01*
X148674821Y-106164381D01*
X148426561Y-106115000D01*
X148173439Y-106115000D01*
X147925179Y-106164381D01*
X147691324Y-106261247D01*
X147480860Y-106401875D01*
X147301875Y-106580860D01*
X147300000Y-106583666D01*
X147298125Y-106580860D01*
X147119140Y-106401875D01*
X146908676Y-106261247D01*
X146674821Y-106164381D01*
X146426561Y-106115000D01*
X146173439Y-106115000D01*
X145925179Y-106164381D01*
X145691324Y-106261247D01*
X145480860Y-106401875D01*
X145301875Y-106580860D01*
X145161247Y-106791324D01*
X145064381Y-107025179D01*
X145015000Y-107273439D01*
X144285000Y-107273439D01*
X144235619Y-107025179D01*
X144138753Y-106791324D01*
X143998125Y-106580860D01*
X143819140Y-106401875D01*
X143608676Y-106261247D01*
X143374821Y-106164381D01*
X143126561Y-106115000D01*
X142873439Y-106115000D01*
X142625179Y-106164381D01*
X142391324Y-106261247D01*
X142180860Y-106401875D01*
X142001875Y-106580860D01*
X141861247Y-106791324D01*
X141764381Y-107025179D01*
X141715000Y-107273439D01*
X138660000Y-107273439D01*
X138660000Y-105814934D01*
X138741914Y-106003577D01*
X139074126Y-106169433D01*
X139432312Y-106267290D01*
X139802706Y-106293389D01*
X140171075Y-106246725D01*
X140523262Y-106129094D01*
X140758086Y-106003577D01*
X140884000Y-105713605D01*
X139750000Y-104579605D01*
X139735858Y-104593748D01*
X139556253Y-104414143D01*
X139570395Y-104400000D01*
X139929605Y-104400000D01*
X141063605Y-105534000D01*
X141353577Y-105408086D01*
X141519433Y-105075874D01*
X141563765Y-104913605D01*
X145866000Y-104913605D01*
X145991914Y-105203577D01*
X146324126Y-105369433D01*
X146682312Y-105467290D01*
X147052706Y-105493389D01*
X147421075Y-105446725D01*
X147773262Y-105329094D01*
X148008086Y-105203577D01*
X148134000Y-104913605D01*
X147000000Y-103779605D01*
X145866000Y-104913605D01*
X141563765Y-104913605D01*
X141617290Y-104717688D01*
X141643389Y-104347294D01*
X141596725Y-103978925D01*
X141487768Y-103652706D01*
X145106611Y-103652706D01*
X145153275Y-104021075D01*
X145270906Y-104373262D01*
X145396423Y-104608086D01*
X145686395Y-104734000D01*
X146820395Y-103600000D01*
X147179605Y-103600000D01*
X148313605Y-104734000D01*
X148603577Y-104608086D01*
X148681150Y-104452706D01*
X152356611Y-104452706D01*
X152403275Y-104821075D01*
X152520906Y-105173262D01*
X152646423Y-105408086D01*
X152936395Y-105534000D01*
X154070395Y-104400000D01*
X152936395Y-103266000D01*
X152646423Y-103391914D01*
X152480567Y-103724126D01*
X152382710Y-104082312D01*
X152356611Y-104452706D01*
X148681150Y-104452706D01*
X148769433Y-104275874D01*
X148867290Y-103917688D01*
X148893389Y-103547294D01*
X148846725Y-103178925D01*
X148729094Y-102826738D01*
X148603577Y-102591914D01*
X148313605Y-102466000D01*
X147179605Y-103600000D01*
X146820395Y-103600000D01*
X145686395Y-102466000D01*
X145396423Y-102591914D01*
X145230567Y-102924126D01*
X145132710Y-103282312D01*
X145106611Y-103652706D01*
X141487768Y-103652706D01*
X141479094Y-103626738D01*
X141353577Y-103391914D01*
X141063605Y-103266000D01*
X139929605Y-104400000D01*
X139570395Y-104400000D01*
X139556253Y-104385858D01*
X139735858Y-104206253D01*
X139750000Y-104220395D01*
X140884000Y-103086395D01*
X140758086Y-102796423D01*
X140425874Y-102630567D01*
X140067688Y-102532710D01*
X139697294Y-102506611D01*
X139328925Y-102553275D01*
X138976738Y-102670906D01*
X138741914Y-102796423D01*
X138660000Y-102985066D01*
X138660000Y-102286395D01*
X145866000Y-102286395D01*
X147000000Y-103420395D01*
X148134000Y-102286395D01*
X148008086Y-101996423D01*
X147675874Y-101830567D01*
X147317688Y-101732710D01*
X146947294Y-101706611D01*
X146578925Y-101753275D01*
X146226738Y-101870906D01*
X145991914Y-101996423D01*
X145866000Y-102286395D01*
X138660000Y-102286395D01*
X138660000Y-101660000D01*
X155340000Y-101660000D01*
X155340000Y-102985066D01*
X155340000Y-102985066D01*
G37*
X155340000Y-102985066D02*
X155258086Y-102796423D01*
X154925874Y-102630567D01*
X154567688Y-102532710D01*
X154197294Y-102506611D01*
X153828925Y-102553275D01*
X153476738Y-102670906D01*
X153241914Y-102796423D01*
X153116000Y-103086395D01*
X154250000Y-104220395D01*
X154264143Y-104206253D01*
X154443748Y-104385858D01*
X154429605Y-104400000D01*
X154443748Y-104414143D01*
X154264143Y-104593748D01*
X154250000Y-104579605D01*
X153116000Y-105713605D01*
X153241914Y-106003577D01*
X153574126Y-106169433D01*
X153932312Y-106267290D01*
X154302706Y-106293389D01*
X154671075Y-106246725D01*
X155023262Y-106129094D01*
X155258086Y-106003577D01*
X155340000Y-105814934D01*
X155340001Y-111967571D01*
X155336807Y-112000000D01*
X155349550Y-112129383D01*
X155387290Y-112253793D01*
X155448575Y-112368450D01*
X155531052Y-112468948D01*
X155631550Y-112551425D01*
X155746207Y-112612710D01*
X155870617Y-112650450D01*
X155967581Y-112660000D01*
X156000000Y-112663193D01*
X156032419Y-112660000D01*
X157340000Y-112660000D01*
X157340000Y-113873000D01*
X136660000Y-113873000D01*
X136660000Y-112660000D01*
X137967581Y-112660000D01*
X138000000Y-112663193D01*
X138032419Y-112660000D01*
X138129383Y-112650450D01*
X138253793Y-112612710D01*
X138368450Y-112551425D01*
X138468948Y-112468948D01*
X138551425Y-112368450D01*
X138612710Y-112253793D01*
X138650450Y-112129383D01*
X138663193Y-112000000D01*
X138660000Y-111967581D01*
X138660000Y-107273439D01*
X141715000Y-107273439D01*
X141715000Y-107526561D01*
X141764381Y-107774821D01*
X141861247Y-108008676D01*
X142001875Y-108219140D01*
X142180860Y-108398125D01*
X142391324Y-108538753D01*
X142625179Y-108635619D01*
X142697479Y-108650000D01*
X142625179Y-108664381D01*
X142391324Y-108761247D01*
X142180860Y-108901875D01*
X142001875Y-109080860D01*
X141861247Y-109291324D01*
X141764381Y-109525179D01*
X141715000Y-109773439D01*
X141715000Y-110026561D01*
X141764381Y-110274821D01*
X141861247Y-110508676D01*
X142001875Y-110719140D01*
X142180860Y-110898125D01*
X142391324Y-111038753D01*
X142625179Y-111135619D01*
X142873439Y-111185000D01*
X143126561Y-111185000D01*
X143374821Y-111135619D01*
X143608676Y-111038753D01*
X143819140Y-110898125D01*
X143998125Y-110719140D01*
X144000000Y-110716334D01*
X144001875Y-110719140D01*
X144180860Y-110898125D01*
X144391324Y-111038753D01*
X144625179Y-111135619D01*
X144873439Y-111185000D01*
X145126561Y-111185000D01*
X145374821Y-111135619D01*
X145608676Y-111038753D01*
X145819140Y-110898125D01*
X145998125Y-110719140D01*
X146000000Y-110716334D01*
X146001875Y-110719140D01*
X146180860Y-110898125D01*
X146391324Y-111038753D01*
X146625179Y-111135619D01*
X146873439Y-111185000D01*
X147126561Y-111185000D01*
X147374821Y-111135619D01*
X147608676Y-111038753D01*
X147819140Y-110898125D01*
X147998125Y-110719140D01*
X148000000Y-110716334D01*
X148001875Y-110719140D01*
X148180860Y-110898125D01*
X148391324Y-111038753D01*
X148625179Y-111135619D01*
X148873439Y-111185000D01*
X149126561Y-111185000D01*
X149374821Y-111135619D01*
X149608676Y-111038753D01*
X149819140Y-110898125D01*
X149998125Y-110719140D01*
X150000000Y-110716334D01*
X150001875Y-110719140D01*
X150180860Y-110898125D01*
X150391324Y-111038753D01*
X150625179Y-111135619D01*
X150873439Y-111185000D01*
X151126561Y-111185000D01*
X151374821Y-111135619D01*
X151608676Y-111038753D01*
X151819140Y-110898125D01*
X151998125Y-110719140D01*
X152138753Y-110508676D01*
X152235619Y-110274821D01*
X152285000Y-110026561D01*
X152285000Y-109773439D01*
X152235619Y-109525179D01*
X152138753Y-109291324D01*
X151998125Y-109080860D01*
X151819140Y-108901875D01*
X151608676Y-108761247D01*
X151374821Y-108664381D01*
X151302521Y-108650000D01*
X151374821Y-108635619D01*
X151608676Y-108538753D01*
X151819140Y-108398125D01*
X151998125Y-108219140D01*
X152138753Y-108008676D01*
X152235619Y-107774821D01*
X152285000Y-107526561D01*
X152285000Y-107273439D01*
X152235619Y-107025179D01*
X152138753Y-106791324D01*
X151998125Y-106580860D01*
X151819140Y-106401875D01*
X151608676Y-106261247D01*
X151374821Y-106164381D01*
X151126561Y-106115000D01*
X150873439Y-106115000D01*
X150625179Y-106164381D01*
X150391324Y-106261247D01*
X150180860Y-106401875D01*
X150001875Y-106580860D01*
X149861247Y-106791324D01*
X149764381Y-107025179D01*
X149715000Y-107273439D01*
X149715000Y-107526561D01*
X149764381Y-107774821D01*
X149861247Y-108008676D01*
X150001875Y-108219140D01*
X150180860Y-108398125D01*
X150391324Y-108538753D01*
X150625179Y-108635619D01*
X150697479Y-108650000D01*
X150625179Y-108664381D01*
X150391324Y-108761247D01*
X150180860Y-108901875D01*
X150001875Y-109080860D01*
X150000000Y-109083666D01*
X149998125Y-109080860D01*
X149819140Y-108901875D01*
X149608676Y-108761247D01*
X149374821Y-108664381D01*
X149126561Y-108615000D01*
X148873439Y-108615000D01*
X148625179Y-108664381D01*
X148391324Y-108761247D01*
X148180860Y-108901875D01*
X148001875Y-109080860D01*
X148000000Y-109083666D01*
X147998125Y-109080860D01*
X147819140Y-108901875D01*
X147608676Y-108761247D01*
X147374821Y-108664381D01*
X147126561Y-108615000D01*
X146873439Y-108615000D01*
X146625179Y-108664381D01*
X146391324Y-108761247D01*
X146180860Y-108901875D01*
X146001875Y-109080860D01*
X146000000Y-109083666D01*
X145998125Y-109080860D01*
X145819140Y-108901875D01*
X145608676Y-108761247D01*
X145374821Y-108664381D01*
X145126561Y-108615000D01*
X144873439Y-108615000D01*
X144625179Y-108664381D01*
X144391324Y-108761247D01*
X144180860Y-108901875D01*
X144001875Y-109080860D01*
X144000000Y-109083666D01*
X143998125Y-109080860D01*
X143819140Y-108901875D01*
X143608676Y-108761247D01*
X143374821Y-108664381D01*
X143302521Y-108650000D01*
X143374821Y-108635619D01*
X143608676Y-108538753D01*
X143819140Y-108398125D01*
X143998125Y-108219140D01*
X144138753Y-108008676D01*
X144235619Y-107774821D01*
X144285000Y-107526561D01*
X144285000Y-107273439D01*
X145015000Y-107273439D01*
X145015000Y-107526561D01*
X145064381Y-107774821D01*
X145161247Y-108008676D01*
X145301875Y-108219140D01*
X145480860Y-108398125D01*
X145691324Y-108538753D01*
X145925179Y-108635619D01*
X146173439Y-108685000D01*
X146426561Y-108685000D01*
X146674821Y-108635619D01*
X146908676Y-108538753D01*
X147119140Y-108398125D01*
X147298125Y-108219140D01*
X147300000Y-108216334D01*
X147301875Y-108219140D01*
X147480860Y-108398125D01*
X147691324Y-108538753D01*
X147925179Y-108635619D01*
X148173439Y-108685000D01*
X148426561Y-108685000D01*
X148674821Y-108635619D01*
X148908676Y-108538753D01*
X149119140Y-108398125D01*
X149298125Y-108219140D01*
X149438753Y-108008676D01*
X149535619Y-107774821D01*
X149585000Y-107526561D01*
X149585000Y-107273439D01*
X149535619Y-107025179D01*
X149438753Y-106791324D01*
X149298125Y-106580860D01*
X149119140Y-106401875D01*
X148908676Y-106261247D01*
X148674821Y-106164381D01*
X148426561Y-106115000D01*
X148173439Y-106115000D01*
X147925179Y-106164381D01*
X147691324Y-106261247D01*
X147480860Y-106401875D01*
X147301875Y-106580860D01*
X147300000Y-106583666D01*
X147298125Y-106580860D01*
X147119140Y-106401875D01*
X146908676Y-106261247D01*
X146674821Y-106164381D01*
X146426561Y-106115000D01*
X146173439Y-106115000D01*
X145925179Y-106164381D01*
X145691324Y-106261247D01*
X145480860Y-106401875D01*
X145301875Y-106580860D01*
X145161247Y-106791324D01*
X145064381Y-107025179D01*
X145015000Y-107273439D01*
X144285000Y-107273439D01*
X144235619Y-107025179D01*
X144138753Y-106791324D01*
X143998125Y-106580860D01*
X143819140Y-106401875D01*
X143608676Y-106261247D01*
X143374821Y-106164381D01*
X143126561Y-106115000D01*
X142873439Y-106115000D01*
X142625179Y-106164381D01*
X142391324Y-106261247D01*
X142180860Y-106401875D01*
X142001875Y-106580860D01*
X141861247Y-106791324D01*
X141764381Y-107025179D01*
X141715000Y-107273439D01*
X138660000Y-107273439D01*
X138660000Y-105814934D01*
X138741914Y-106003577D01*
X139074126Y-106169433D01*
X139432312Y-106267290D01*
X139802706Y-106293389D01*
X140171075Y-106246725D01*
X140523262Y-106129094D01*
X140758086Y-106003577D01*
X140884000Y-105713605D01*
X139750000Y-104579605D01*
X139735858Y-104593748D01*
X139556253Y-104414143D01*
X139570395Y-104400000D01*
X139929605Y-104400000D01*
X141063605Y-105534000D01*
X141353577Y-105408086D01*
X141519433Y-105075874D01*
X141563765Y-104913605D01*
X145866000Y-104913605D01*
X145991914Y-105203577D01*
X146324126Y-105369433D01*
X146682312Y-105467290D01*
X147052706Y-105493389D01*
X147421075Y-105446725D01*
X147773262Y-105329094D01*
X148008086Y-105203577D01*
X148134000Y-104913605D01*
X147000000Y-103779605D01*
X145866000Y-104913605D01*
X141563765Y-104913605D01*
X141617290Y-104717688D01*
X141643389Y-104347294D01*
X141596725Y-103978925D01*
X141487768Y-103652706D01*
X145106611Y-103652706D01*
X145153275Y-104021075D01*
X145270906Y-104373262D01*
X145396423Y-104608086D01*
X145686395Y-104734000D01*
X146820395Y-103600000D01*
X147179605Y-103600000D01*
X148313605Y-104734000D01*
X148603577Y-104608086D01*
X148681150Y-104452706D01*
X152356611Y-104452706D01*
X152403275Y-104821075D01*
X152520906Y-105173262D01*
X152646423Y-105408086D01*
X152936395Y-105534000D01*
X154070395Y-104400000D01*
X152936395Y-103266000D01*
X152646423Y-103391914D01*
X152480567Y-103724126D01*
X152382710Y-104082312D01*
X152356611Y-104452706D01*
X148681150Y-104452706D01*
X148769433Y-104275874D01*
X148867290Y-103917688D01*
X148893389Y-103547294D01*
X148846725Y-103178925D01*
X148729094Y-102826738D01*
X148603577Y-102591914D01*
X148313605Y-102466000D01*
X147179605Y-103600000D01*
X146820395Y-103600000D01*
X145686395Y-102466000D01*
X145396423Y-102591914D01*
X145230567Y-102924126D01*
X145132710Y-103282312D01*
X145106611Y-103652706D01*
X141487768Y-103652706D01*
X141479094Y-103626738D01*
X141353577Y-103391914D01*
X141063605Y-103266000D01*
X139929605Y-104400000D01*
X139570395Y-104400000D01*
X139556253Y-104385858D01*
X139735858Y-104206253D01*
X139750000Y-104220395D01*
X140884000Y-103086395D01*
X140758086Y-102796423D01*
X140425874Y-102630567D01*
X140067688Y-102532710D01*
X139697294Y-102506611D01*
X139328925Y-102553275D01*
X138976738Y-102670906D01*
X138741914Y-102796423D01*
X138660000Y-102985066D01*
X138660000Y-102286395D01*
X145866000Y-102286395D01*
X147000000Y-103420395D01*
X148134000Y-102286395D01*
X148008086Y-101996423D01*
X147675874Y-101830567D01*
X147317688Y-101732710D01*
X146947294Y-101706611D01*
X146578925Y-101753275D01*
X146226738Y-101870906D01*
X145991914Y-101996423D01*
X145866000Y-102286395D01*
X138660000Y-102286395D01*
X138660000Y-101660000D01*
X155340000Y-101660000D01*
X155340000Y-102985066D01*
M02*
