G04 #@! TF.GenerationSoftware,KiCad,Pcbnew,(5.1.0)-1*
G04 #@! TF.CreationDate,2019-10-14T10:16:39-04:00*
G04 #@! TF.ProjectId,MiniDin8Adapter,4d696e69-4469-46e3-9841-646170746572,rev?*
G04 #@! TF.SameCoordinates,Original*
G04 #@! TF.FileFunction,Legend,Top*
G04 #@! TF.FilePolarity,Positive*
%FSLAX46Y46*%
G04 Gerber Fmt 4.6, Leading zero omitted, Abs format (unit mm)*
G04 Created by KiCad (PCBNEW (5.1.0)-1) date 2019-10-14 10:16:39*
%MOMM*%
%LPD*%
G04 APERTURE LIST*
%ADD10C,0.150000*%
G04 APERTURE END LIST*
D10*
X153611904Y-112500000D02*
X153516666Y-112452380D01*
X153373809Y-112452380D01*
X153230952Y-112500000D01*
X153135714Y-112595238D01*
X153088095Y-112690476D01*
X153040476Y-112880952D01*
X153040476Y-113023809D01*
X153088095Y-113214285D01*
X153135714Y-113309523D01*
X153230952Y-113404761D01*
X153373809Y-113452380D01*
X153469047Y-113452380D01*
X153611904Y-113404761D01*
X153659523Y-113357142D01*
X153659523Y-113023809D01*
X153469047Y-113023809D01*
X145300000Y-113111904D02*
X145252380Y-113207142D01*
X145252380Y-113350000D01*
X145300000Y-113492857D01*
X145395238Y-113588095D01*
X145490476Y-113635714D01*
X145680952Y-113683333D01*
X145823809Y-113683333D01*
X146014285Y-113635714D01*
X146109523Y-113588095D01*
X146204761Y-113492857D01*
X146252380Y-113350000D01*
X146252380Y-113254761D01*
X146204761Y-113111904D01*
X146157142Y-113064285D01*
X145823809Y-113064285D01*
X145823809Y-113254761D01*
X146252380Y-112635714D02*
X145252380Y-112635714D01*
X146252380Y-112064285D01*
X145252380Y-112064285D01*
X146252380Y-111588095D02*
X145252380Y-111588095D01*
X145252380Y-111350000D01*
X145300000Y-111207142D01*
X145395238Y-111111904D01*
X145490476Y-111064285D01*
X145680952Y-111016666D01*
X145823809Y-111016666D01*
X146014285Y-111064285D01*
X146109523Y-111111904D01*
X146204761Y-111207142D01*
X146252380Y-111350000D01*
X146252380Y-111588095D01*
X137261904Y-113066666D02*
X137738095Y-113066666D01*
X137166666Y-113352380D02*
X137500000Y-112352380D01*
X137833333Y-113352380D01*
X138738095Y-113352380D02*
X138404761Y-112876190D01*
X138166666Y-113352380D02*
X138166666Y-112352380D01*
X138547619Y-112352380D01*
X138642857Y-112400000D01*
X138690476Y-112447619D01*
X138738095Y-112542857D01*
X138738095Y-112685714D01*
X138690476Y-112780952D01*
X138642857Y-112828571D01*
X138547619Y-112876190D01*
X138166666Y-112876190D01*
X140007142Y-113066666D02*
X140483333Y-113066666D01*
X139911904Y-113352380D02*
X140245238Y-112352380D01*
X140578571Y-113352380D01*
X141388095Y-113352380D02*
X140911904Y-113352380D01*
X140911904Y-112352380D01*
X142342857Y-112871428D02*
X143104761Y-112871428D01*
X142723809Y-113252380D02*
X142723809Y-112490476D01*
X144057142Y-112252380D02*
X143580952Y-112252380D01*
X143533333Y-112728571D01*
X143580952Y-112680952D01*
X143676190Y-112633333D01*
X143914285Y-112633333D01*
X144009523Y-112680952D01*
X144057142Y-112728571D01*
X144104761Y-112823809D01*
X144104761Y-113061904D01*
X144057142Y-113157142D01*
X144009523Y-113204761D01*
X143914285Y-113252380D01*
X143676190Y-113252380D01*
X143580952Y-113204761D01*
X143533333Y-113157142D01*
X148014285Y-113304761D02*
X148157142Y-113352380D01*
X148395238Y-113352380D01*
X148490476Y-113304761D01*
X148538095Y-113257142D01*
X148585714Y-113161904D01*
X148585714Y-113066666D01*
X148538095Y-112971428D01*
X148490476Y-112923809D01*
X148395238Y-112876190D01*
X148204761Y-112828571D01*
X148109523Y-112780952D01*
X148061904Y-112733333D01*
X148014285Y-112638095D01*
X148014285Y-112542857D01*
X148061904Y-112447619D01*
X148109523Y-112400000D01*
X148204761Y-112352380D01*
X148442857Y-112352380D01*
X148585714Y-112400000D01*
X150821428Y-112828571D02*
X150964285Y-112876190D01*
X151011904Y-112923809D01*
X151059523Y-113019047D01*
X151059523Y-113161904D01*
X151011904Y-113257142D01*
X150964285Y-113304761D01*
X150869047Y-113352380D01*
X150488095Y-113352380D01*
X150488095Y-112352380D01*
X150821428Y-112352380D01*
X150916666Y-112400000D01*
X150964285Y-112447619D01*
X151011904Y-112542857D01*
X151011904Y-112638095D01*
X150964285Y-112733333D01*
X150916666Y-112780952D01*
X150821428Y-112828571D01*
X150488095Y-112828571D01*
X156159523Y-113452380D02*
X155826190Y-112976190D01*
X155588095Y-113452380D02*
X155588095Y-112452380D01*
X155969047Y-112452380D01*
X156064285Y-112500000D01*
X156111904Y-112547619D01*
X156159523Y-112642857D01*
X156159523Y-112785714D01*
X156111904Y-112880952D01*
X156064285Y-112928571D01*
X155969047Y-112976190D01*
X155588095Y-112976190D01*
X154400000Y-112100000D02*
X154400000Y-98900000D01*
X154400000Y-98900000D02*
X139600000Y-98900000D01*
X139600000Y-98900000D02*
X139600000Y-112100000D01*
X149206666Y-88192380D02*
X149206666Y-88906666D01*
X149159047Y-89049523D01*
X149063809Y-89144761D01*
X148920952Y-89192380D01*
X148825714Y-89192380D01*
X149635238Y-88287619D02*
X149682857Y-88240000D01*
X149778095Y-88192380D01*
X150016190Y-88192380D01*
X150111428Y-88240000D01*
X150159047Y-88287619D01*
X150206666Y-88382857D01*
X150206666Y-88478095D01*
X150159047Y-88620952D01*
X149587619Y-89192380D01*
X150206666Y-89192380D01*
X130126666Y-104692380D02*
X130126666Y-105406666D01*
X130079047Y-105549523D01*
X129983809Y-105644761D01*
X129840952Y-105692380D01*
X129745714Y-105692380D01*
X130555238Y-104787619D02*
X130602857Y-104740000D01*
X130698095Y-104692380D01*
X130936190Y-104692380D01*
X131031428Y-104740000D01*
X131079047Y-104787619D01*
X131126666Y-104882857D01*
X131126666Y-104978095D01*
X131079047Y-105120952D01*
X130507619Y-105692380D01*
X131126666Y-105692380D01*
M02*
