G04 #@! TF.GenerationSoftware,KiCad,Pcbnew,(5.1.0)-1*
G04 #@! TF.CreationDate,2019-10-02T17:07:43-04:00*
G04 #@! TF.ProjectId,MiniDin8Adapter,4d696e69-4469-46e3-9841-646170746572,rev?*
G04 #@! TF.SameCoordinates,Original*
G04 #@! TF.FileFunction,Soldermask,Bot*
G04 #@! TF.FilePolarity,Negative*
%FSLAX46Y46*%
G04 Gerber Fmt 4.6, Leading zero omitted, Abs format (unit mm)*
G04 Created by KiCad (PCBNEW (5.1.0)-1) date 2019-10-02 17:07:43*
%MOMM*%
%LPD*%
G04 APERTURE LIST*
%ADD10C,0.100000*%
G04 APERTURE END LIST*
D10*
G36*
X138946000Y-116276000D02*
G01*
X137194000Y-116276000D01*
X137194000Y-114524000D01*
X138946000Y-114524000D01*
X138946000Y-116276000D01*
X138946000Y-116276000D01*
G37*
G36*
X141486000Y-116276000D02*
G01*
X139734000Y-116276000D01*
X139734000Y-114524000D01*
X141486000Y-114524000D01*
X141486000Y-116276000D01*
X141486000Y-116276000D01*
G37*
G36*
X144026000Y-116276000D02*
G01*
X142274000Y-116276000D01*
X142274000Y-114524000D01*
X144026000Y-114524000D01*
X144026000Y-116276000D01*
X144026000Y-116276000D01*
G37*
G36*
X146566000Y-116276000D02*
G01*
X144814000Y-116276000D01*
X144814000Y-114524000D01*
X146566000Y-114524000D01*
X146566000Y-116276000D01*
X146566000Y-116276000D01*
G37*
G36*
X149106000Y-116276000D02*
G01*
X147354000Y-116276000D01*
X147354000Y-114524000D01*
X149106000Y-114524000D01*
X149106000Y-116276000D01*
X149106000Y-116276000D01*
G37*
G36*
X151646000Y-116276000D02*
G01*
X149894000Y-116276000D01*
X149894000Y-114524000D01*
X151646000Y-114524000D01*
X151646000Y-116276000D01*
X151646000Y-116276000D01*
G37*
G36*
X156726000Y-116276000D02*
G01*
X154974000Y-116276000D01*
X154974000Y-114524000D01*
X156726000Y-114524000D01*
X156726000Y-116276000D01*
X156726000Y-116276000D01*
G37*
G36*
X154186000Y-116276000D02*
G01*
X152434000Y-116276000D01*
X152434000Y-114524000D01*
X154186000Y-114524000D01*
X154186000Y-116276000D01*
X154186000Y-116276000D01*
G37*
G36*
X150589890Y-109274017D02*
G01*
X150708364Y-109323091D01*
X150814988Y-109394335D01*
X150905665Y-109485012D01*
X150976909Y-109591636D01*
X151025983Y-109710110D01*
X151051000Y-109835882D01*
X151051000Y-109964118D01*
X151025983Y-110089890D01*
X150976909Y-110208364D01*
X150905665Y-110314988D01*
X150814988Y-110405665D01*
X150708364Y-110476909D01*
X150708363Y-110476910D01*
X150708362Y-110476910D01*
X150589890Y-110525983D01*
X150464119Y-110551000D01*
X150335881Y-110551000D01*
X150210110Y-110525983D01*
X150091638Y-110476910D01*
X150091637Y-110476910D01*
X150091636Y-110476909D01*
X149985012Y-110405665D01*
X149894335Y-110314988D01*
X149823091Y-110208364D01*
X149774017Y-110089890D01*
X149749000Y-109964118D01*
X149749000Y-109835882D01*
X149774017Y-109710110D01*
X149823091Y-109591636D01*
X149894335Y-109485012D01*
X149985012Y-109394335D01*
X150091636Y-109323091D01*
X150210110Y-109274017D01*
X150335881Y-109249000D01*
X150464119Y-109249000D01*
X150589890Y-109274017D01*
X150589890Y-109274017D01*
G37*
G36*
X148089890Y-109274017D02*
G01*
X148208364Y-109323091D01*
X148314988Y-109394335D01*
X148405665Y-109485012D01*
X148476909Y-109591636D01*
X148525983Y-109710110D01*
X148551000Y-109835882D01*
X148551000Y-109964118D01*
X148525983Y-110089890D01*
X148476909Y-110208364D01*
X148405665Y-110314988D01*
X148314988Y-110405665D01*
X148208364Y-110476909D01*
X148208363Y-110476910D01*
X148208362Y-110476910D01*
X148089890Y-110525983D01*
X147964119Y-110551000D01*
X147835881Y-110551000D01*
X147710110Y-110525983D01*
X147591638Y-110476910D01*
X147591637Y-110476910D01*
X147591636Y-110476909D01*
X147485012Y-110405665D01*
X147394335Y-110314988D01*
X147323091Y-110208364D01*
X147274017Y-110089890D01*
X147249000Y-109964118D01*
X147249000Y-109835882D01*
X147274017Y-109710110D01*
X147323091Y-109591636D01*
X147394335Y-109485012D01*
X147485012Y-109394335D01*
X147591636Y-109323091D01*
X147710110Y-109274017D01*
X147835881Y-109249000D01*
X147964119Y-109249000D01*
X148089890Y-109274017D01*
X148089890Y-109274017D01*
G37*
G36*
X143789890Y-109274017D02*
G01*
X143908364Y-109323091D01*
X144014988Y-109394335D01*
X144105665Y-109485012D01*
X144176909Y-109591636D01*
X144225983Y-109710110D01*
X144251000Y-109835882D01*
X144251000Y-109964118D01*
X144225983Y-110089890D01*
X144176909Y-110208364D01*
X144105665Y-110314988D01*
X144014988Y-110405665D01*
X143908364Y-110476909D01*
X143908363Y-110476910D01*
X143908362Y-110476910D01*
X143789890Y-110525983D01*
X143664119Y-110551000D01*
X143535881Y-110551000D01*
X143410110Y-110525983D01*
X143291638Y-110476910D01*
X143291637Y-110476910D01*
X143291636Y-110476909D01*
X143185012Y-110405665D01*
X143094335Y-110314988D01*
X143023091Y-110208364D01*
X142974017Y-110089890D01*
X142949000Y-109964118D01*
X142949000Y-109835882D01*
X142974017Y-109710110D01*
X143023091Y-109591636D01*
X143094335Y-109485012D01*
X143185012Y-109394335D01*
X143291636Y-109323091D01*
X143410110Y-109274017D01*
X143535881Y-109249000D01*
X143664119Y-109249000D01*
X143789890Y-109274017D01*
X143789890Y-109274017D01*
G37*
G36*
X145889890Y-109274017D02*
G01*
X146008364Y-109323091D01*
X146114988Y-109394335D01*
X146205665Y-109485012D01*
X146276909Y-109591636D01*
X146325983Y-109710110D01*
X146351000Y-109835882D01*
X146351000Y-109964118D01*
X146325983Y-110089890D01*
X146276909Y-110208364D01*
X146205665Y-110314988D01*
X146114988Y-110405665D01*
X146008364Y-110476909D01*
X146008363Y-110476910D01*
X146008362Y-110476910D01*
X145889890Y-110525983D01*
X145764119Y-110551000D01*
X145635881Y-110551000D01*
X145510110Y-110525983D01*
X145391638Y-110476910D01*
X145391637Y-110476910D01*
X145391636Y-110476909D01*
X145285012Y-110405665D01*
X145194335Y-110314988D01*
X145123091Y-110208364D01*
X145074017Y-110089890D01*
X145049000Y-109964118D01*
X145049000Y-109835882D01*
X145074017Y-109710110D01*
X145123091Y-109591636D01*
X145194335Y-109485012D01*
X145285012Y-109394335D01*
X145391636Y-109323091D01*
X145510110Y-109274017D01*
X145635881Y-109249000D01*
X145764119Y-109249000D01*
X145889890Y-109274017D01*
X145889890Y-109274017D01*
G37*
G36*
X148489890Y-106774017D02*
G01*
X148608364Y-106823091D01*
X148714988Y-106894335D01*
X148805665Y-106985012D01*
X148876909Y-107091636D01*
X148925983Y-107210110D01*
X148951000Y-107335882D01*
X148951000Y-107464118D01*
X148925983Y-107589890D01*
X148876909Y-107708364D01*
X148805665Y-107814988D01*
X148714988Y-107905665D01*
X148608364Y-107976909D01*
X148608363Y-107976910D01*
X148608362Y-107976910D01*
X148489890Y-108025983D01*
X148364119Y-108051000D01*
X148235881Y-108051000D01*
X148110110Y-108025983D01*
X147991638Y-107976910D01*
X147991637Y-107976910D01*
X147991636Y-107976909D01*
X147885012Y-107905665D01*
X147794335Y-107814988D01*
X147723091Y-107708364D01*
X147674017Y-107589890D01*
X147649000Y-107464118D01*
X147649000Y-107335882D01*
X147674017Y-107210110D01*
X147723091Y-107091636D01*
X147794335Y-106985012D01*
X147885012Y-106894335D01*
X147991636Y-106823091D01*
X148110110Y-106774017D01*
X148235881Y-106749000D01*
X148364119Y-106749000D01*
X148489890Y-106774017D01*
X148489890Y-106774017D01*
G37*
G36*
X145889890Y-106774017D02*
G01*
X146008364Y-106823091D01*
X146114988Y-106894335D01*
X146205665Y-106985012D01*
X146276909Y-107091636D01*
X146325983Y-107210110D01*
X146351000Y-107335882D01*
X146351000Y-107464118D01*
X146325983Y-107589890D01*
X146276909Y-107708364D01*
X146205665Y-107814988D01*
X146114988Y-107905665D01*
X146008364Y-107976909D01*
X146008363Y-107976910D01*
X146008362Y-107976910D01*
X145889890Y-108025983D01*
X145764119Y-108051000D01*
X145635881Y-108051000D01*
X145510110Y-108025983D01*
X145391638Y-107976910D01*
X145391637Y-107976910D01*
X145391636Y-107976909D01*
X145285012Y-107905665D01*
X145194335Y-107814988D01*
X145123091Y-107708364D01*
X145074017Y-107589890D01*
X145049000Y-107464118D01*
X145049000Y-107335882D01*
X145074017Y-107210110D01*
X145123091Y-107091636D01*
X145194335Y-106985012D01*
X145285012Y-106894335D01*
X145391636Y-106823091D01*
X145510110Y-106774017D01*
X145635881Y-106749000D01*
X145764119Y-106749000D01*
X145889890Y-106774017D01*
X145889890Y-106774017D01*
G37*
G36*
X143789890Y-106774017D02*
G01*
X143908364Y-106823091D01*
X144014988Y-106894335D01*
X144105665Y-106985012D01*
X144176909Y-107091636D01*
X144225983Y-107210110D01*
X144251000Y-107335882D01*
X144251000Y-107464118D01*
X144225983Y-107589890D01*
X144176909Y-107708364D01*
X144105665Y-107814988D01*
X144014988Y-107905665D01*
X143908364Y-107976909D01*
X143908363Y-107976910D01*
X143908362Y-107976910D01*
X143789890Y-108025983D01*
X143664119Y-108051000D01*
X143535881Y-108051000D01*
X143410110Y-108025983D01*
X143291638Y-107976910D01*
X143291637Y-107976910D01*
X143291636Y-107976909D01*
X143185012Y-107905665D01*
X143094335Y-107814988D01*
X143023091Y-107708364D01*
X142974017Y-107589890D01*
X142949000Y-107464118D01*
X142949000Y-107335882D01*
X142974017Y-107210110D01*
X143023091Y-107091636D01*
X143094335Y-106985012D01*
X143185012Y-106894335D01*
X143291636Y-106823091D01*
X143410110Y-106774017D01*
X143535881Y-106749000D01*
X143664119Y-106749000D01*
X143789890Y-106774017D01*
X143789890Y-106774017D01*
G37*
G36*
X150589890Y-106774017D02*
G01*
X150708364Y-106823091D01*
X150814988Y-106894335D01*
X150905665Y-106985012D01*
X150976909Y-107091636D01*
X151025983Y-107210110D01*
X151051000Y-107335882D01*
X151051000Y-107464118D01*
X151025983Y-107589890D01*
X150976909Y-107708364D01*
X150905665Y-107814988D01*
X150814988Y-107905665D01*
X150708364Y-107976909D01*
X150708363Y-107976910D01*
X150708362Y-107976910D01*
X150589890Y-108025983D01*
X150464119Y-108051000D01*
X150335881Y-108051000D01*
X150210110Y-108025983D01*
X150091638Y-107976910D01*
X150091637Y-107976910D01*
X150091636Y-107976909D01*
X149985012Y-107905665D01*
X149894335Y-107814988D01*
X149823091Y-107708364D01*
X149774017Y-107589890D01*
X149749000Y-107464118D01*
X149749000Y-107335882D01*
X149774017Y-107210110D01*
X149823091Y-107091636D01*
X149894335Y-106985012D01*
X149985012Y-106894335D01*
X150091636Y-106823091D01*
X150210110Y-106774017D01*
X150335881Y-106749000D01*
X150464119Y-106749000D01*
X150589890Y-106774017D01*
X150589890Y-106774017D01*
G37*
G36*
X140600318Y-103245153D02*
G01*
X140818885Y-103335687D01*
X140818887Y-103335688D01*
X141015593Y-103467122D01*
X141182878Y-103634407D01*
X141314312Y-103831113D01*
X141314313Y-103831115D01*
X141404847Y-104049682D01*
X141451000Y-104281710D01*
X141451000Y-104518290D01*
X141404847Y-104750318D01*
X141314313Y-104968885D01*
X141314312Y-104968887D01*
X141182878Y-105165593D01*
X141015593Y-105332878D01*
X140818887Y-105464312D01*
X140818886Y-105464313D01*
X140818885Y-105464313D01*
X140600318Y-105554847D01*
X140368290Y-105601000D01*
X140131710Y-105601000D01*
X139899682Y-105554847D01*
X139681115Y-105464313D01*
X139681114Y-105464313D01*
X139681113Y-105464312D01*
X139484407Y-105332878D01*
X139317122Y-105165593D01*
X139185688Y-104968887D01*
X139185687Y-104968885D01*
X139095153Y-104750318D01*
X139049000Y-104518290D01*
X139049000Y-104281710D01*
X139095153Y-104049682D01*
X139185687Y-103831115D01*
X139185688Y-103831113D01*
X139317122Y-103634407D01*
X139484407Y-103467122D01*
X139681113Y-103335688D01*
X139681115Y-103335687D01*
X139899682Y-103245153D01*
X140131710Y-103199000D01*
X140368290Y-103199000D01*
X140600318Y-103245153D01*
X140600318Y-103245153D01*
G37*
G36*
X154100318Y-103245153D02*
G01*
X154318885Y-103335687D01*
X154318887Y-103335688D01*
X154515593Y-103467122D01*
X154682878Y-103634407D01*
X154814312Y-103831113D01*
X154814313Y-103831115D01*
X154904847Y-104049682D01*
X154951000Y-104281710D01*
X154951000Y-104518290D01*
X154904847Y-104750318D01*
X154814313Y-104968885D01*
X154814312Y-104968887D01*
X154682878Y-105165593D01*
X154515593Y-105332878D01*
X154318887Y-105464312D01*
X154318886Y-105464313D01*
X154318885Y-105464313D01*
X154100318Y-105554847D01*
X153868290Y-105601000D01*
X153631710Y-105601000D01*
X153399682Y-105554847D01*
X153181115Y-105464313D01*
X153181114Y-105464313D01*
X153181113Y-105464312D01*
X152984407Y-105332878D01*
X152817122Y-105165593D01*
X152685688Y-104968887D01*
X152685687Y-104968885D01*
X152595153Y-104750318D01*
X152549000Y-104518290D01*
X152549000Y-104281710D01*
X152595153Y-104049682D01*
X152685687Y-103831115D01*
X152685688Y-103831113D01*
X152817122Y-103634407D01*
X152984407Y-103467122D01*
X153181113Y-103335688D01*
X153181115Y-103335687D01*
X153399682Y-103245153D01*
X153631710Y-103199000D01*
X153868290Y-103199000D01*
X154100318Y-103245153D01*
X154100318Y-103245153D01*
G37*
G36*
X147350318Y-102445153D02*
G01*
X147568885Y-102535687D01*
X147568887Y-102535688D01*
X147765593Y-102667122D01*
X147932878Y-102834407D01*
X148064312Y-103031113D01*
X148064313Y-103031115D01*
X148154847Y-103249682D01*
X148201000Y-103481710D01*
X148201000Y-103718290D01*
X148154847Y-103950318D01*
X148064313Y-104168885D01*
X148064312Y-104168887D01*
X147932878Y-104365593D01*
X147765593Y-104532878D01*
X147568887Y-104664312D01*
X147568886Y-104664313D01*
X147568885Y-104664313D01*
X147350318Y-104754847D01*
X147118290Y-104801000D01*
X146881710Y-104801000D01*
X146649682Y-104754847D01*
X146431115Y-104664313D01*
X146431114Y-104664313D01*
X146431113Y-104664312D01*
X146234407Y-104532878D01*
X146067122Y-104365593D01*
X145935688Y-104168887D01*
X145935687Y-104168885D01*
X145845153Y-103950318D01*
X145799000Y-103718290D01*
X145799000Y-103481710D01*
X145845153Y-103249682D01*
X145935687Y-103031115D01*
X145935688Y-103031113D01*
X146067122Y-102834407D01*
X146234407Y-102667122D01*
X146431113Y-102535688D01*
X146431115Y-102535687D01*
X146649682Y-102445153D01*
X146881710Y-102399000D01*
X147118290Y-102399000D01*
X147350318Y-102445153D01*
X147350318Y-102445153D01*
G37*
M02*
