G04 #@! TF.GenerationSoftware,KiCad,Pcbnew,(5.1.0)-1*
G04 #@! TF.CreationDate,2019-10-02T17:07:43-04:00*
G04 #@! TF.ProjectId,MiniDin8Adapter,4d696e69-4469-46e3-9841-646170746572,rev?*
G04 #@! TF.SameCoordinates,Original*
G04 #@! TF.FileFunction,Legend,Bot*
G04 #@! TF.FilePolarity,Positive*
%FSLAX46Y46*%
G04 Gerber Fmt 4.6, Leading zero omitted, Abs format (unit mm)*
G04 Created by KiCad (PCBNEW (5.1.0)-1) date 2019-10-02 17:07:43*
%MOMM*%
%LPD*%
G04 APERTURE LIST*
%ADD10C,0.150000*%
G04 APERTURE END LIST*
D10*
X156488095Y-113316666D02*
X156011904Y-113316666D01*
X156583333Y-113602380D02*
X156250000Y-112602380D01*
X155916666Y-113602380D01*
X155011904Y-113602380D02*
X155345238Y-113126190D01*
X155583333Y-113602380D02*
X155583333Y-112602380D01*
X155202380Y-112602380D01*
X155107142Y-112650000D01*
X155059523Y-112697619D01*
X155011904Y-112792857D01*
X155011904Y-112935714D01*
X155059523Y-113030952D01*
X155107142Y-113078571D01*
X155202380Y-113126190D01*
X155583333Y-113126190D01*
X153792857Y-113266666D02*
X153316666Y-113266666D01*
X153888095Y-113552380D02*
X153554761Y-112552380D01*
X153221428Y-113552380D01*
X152411904Y-113552380D02*
X152888095Y-113552380D01*
X152888095Y-112552380D01*
X151657142Y-113221428D02*
X150895238Y-113221428D01*
X151276190Y-113602380D02*
X151276190Y-112840476D01*
X149942857Y-112602380D02*
X150419047Y-112602380D01*
X150466666Y-113078571D01*
X150419047Y-113030952D01*
X150323809Y-112983333D01*
X150085714Y-112983333D01*
X149990476Y-113030952D01*
X149942857Y-113078571D01*
X149895238Y-113173809D01*
X149895238Y-113411904D01*
X149942857Y-113507142D01*
X149990476Y-113554761D01*
X150085714Y-113602380D01*
X150323809Y-113602380D01*
X150419047Y-113554761D01*
X150466666Y-113507142D01*
X147750000Y-111788095D02*
X147702380Y-111692857D01*
X147702380Y-111550000D01*
X147750000Y-111407142D01*
X147845238Y-111311904D01*
X147940476Y-111264285D01*
X148130952Y-111216666D01*
X148273809Y-111216666D01*
X148464285Y-111264285D01*
X148559523Y-111311904D01*
X148654761Y-111407142D01*
X148702380Y-111550000D01*
X148702380Y-111645238D01*
X148654761Y-111788095D01*
X148607142Y-111835714D01*
X148273809Y-111835714D01*
X148273809Y-111645238D01*
X148702380Y-112264285D02*
X147702380Y-112264285D01*
X148702380Y-112835714D01*
X147702380Y-112835714D01*
X148702380Y-113311904D02*
X147702380Y-113311904D01*
X147702380Y-113550000D01*
X147750000Y-113692857D01*
X147845238Y-113788095D01*
X147940476Y-113835714D01*
X148130952Y-113883333D01*
X148273809Y-113883333D01*
X148464285Y-113835714D01*
X148559523Y-113788095D01*
X148654761Y-113692857D01*
X148702380Y-113550000D01*
X148702380Y-113311904D01*
X145935714Y-113604761D02*
X145792857Y-113652380D01*
X145554761Y-113652380D01*
X145459523Y-113604761D01*
X145411904Y-113557142D01*
X145364285Y-113461904D01*
X145364285Y-113366666D01*
X145411904Y-113271428D01*
X145459523Y-113223809D01*
X145554761Y-113176190D01*
X145745238Y-113128571D01*
X145840476Y-113080952D01*
X145888095Y-113033333D01*
X145935714Y-112938095D01*
X145935714Y-112842857D01*
X145888095Y-112747619D01*
X145840476Y-112700000D01*
X145745238Y-112652380D01*
X145507142Y-112652380D01*
X145364285Y-112700000D01*
X143028571Y-113128571D02*
X142885714Y-113176190D01*
X142838095Y-113223809D01*
X142790476Y-113319047D01*
X142790476Y-113461904D01*
X142838095Y-113557142D01*
X142885714Y-113604761D01*
X142980952Y-113652380D01*
X143361904Y-113652380D01*
X143361904Y-112652380D01*
X143028571Y-112652380D01*
X142933333Y-112700000D01*
X142885714Y-112747619D01*
X142838095Y-112842857D01*
X142838095Y-112938095D01*
X142885714Y-113033333D01*
X142933333Y-113080952D01*
X143028571Y-113128571D01*
X143361904Y-113128571D01*
X140338095Y-112700000D02*
X140433333Y-112652380D01*
X140576190Y-112652380D01*
X140719047Y-112700000D01*
X140814285Y-112795238D01*
X140861904Y-112890476D01*
X140909523Y-113080952D01*
X140909523Y-113223809D01*
X140861904Y-113414285D01*
X140814285Y-113509523D01*
X140719047Y-113604761D01*
X140576190Y-113652380D01*
X140480952Y-113652380D01*
X140338095Y-113604761D01*
X140290476Y-113557142D01*
X140290476Y-113223809D01*
X140480952Y-113223809D01*
X137790476Y-113652380D02*
X138123809Y-113176190D01*
X138361904Y-113652380D02*
X138361904Y-112652380D01*
X137980952Y-112652380D01*
X137885714Y-112700000D01*
X137838095Y-112747619D01*
X137790476Y-112842857D01*
X137790476Y-112985714D01*
X137838095Y-113080952D01*
X137885714Y-113128571D01*
X137980952Y-113176190D01*
X138361904Y-113176190D01*
X163803333Y-104692380D02*
X163803333Y-105406666D01*
X163850952Y-105549523D01*
X163946190Y-105644761D01*
X164089047Y-105692380D01*
X164184285Y-105692380D01*
X163374761Y-104787619D02*
X163327142Y-104740000D01*
X163231904Y-104692380D01*
X162993809Y-104692380D01*
X162898571Y-104740000D01*
X162850952Y-104787619D01*
X162803333Y-104882857D01*
X162803333Y-104978095D01*
X162850952Y-105120952D01*
X163422380Y-105692380D01*
X162803333Y-105692380D01*
M02*
