G04 #@! TF.GenerationSoftware,KiCad,Pcbnew,(5.1.0)-1*
G04 #@! TF.CreationDate,2019-09-23T13:55:02-04:00*
G04 #@! TF.ProjectId,RGBMount,5247424d-6f75-46e7-942e-6b696361645f,rev?*
G04 #@! TF.SameCoordinates,Original*
G04 #@! TF.FileFunction,Soldermask,Bot*
G04 #@! TF.FilePolarity,Negative*
%FSLAX46Y46*%
G04 Gerber Fmt 4.6, Leading zero omitted, Abs format (unit mm)*
G04 Created by KiCad (PCBNEW (5.1.0)-1) date 2019-09-23 13:55:02*
%MOMM*%
%LPD*%
G04 APERTURE LIST*
%ADD10C,0.100000*%
G04 APERTURE END LIST*
D10*
G36*
X129525331Y-96768211D02*
G01*
X129853092Y-96903974D01*
X130148070Y-97101072D01*
X130398928Y-97351930D01*
X130596026Y-97646908D01*
X130731789Y-97974669D01*
X130801000Y-98322616D01*
X130801000Y-98677384D01*
X130731789Y-99025331D01*
X130596026Y-99353092D01*
X130398928Y-99648070D01*
X130148070Y-99898928D01*
X129853092Y-100096026D01*
X129525331Y-100231789D01*
X129177384Y-100301000D01*
X128822616Y-100301000D01*
X128474669Y-100231789D01*
X128146908Y-100096026D01*
X127851930Y-99898928D01*
X127601072Y-99648070D01*
X127403974Y-99353092D01*
X127268211Y-99025331D01*
X127199000Y-98677384D01*
X127199000Y-98322616D01*
X127268211Y-97974669D01*
X127403974Y-97646908D01*
X127601072Y-97351930D01*
X127851930Y-97101072D01*
X128146908Y-96903974D01*
X128474669Y-96768211D01*
X128822616Y-96699000D01*
X129177384Y-96699000D01*
X129525331Y-96768211D01*
X129525331Y-96768211D01*
G37*
G36*
X100525331Y-96768211D02*
G01*
X100853092Y-96903974D01*
X101148070Y-97101072D01*
X101398928Y-97351930D01*
X101596026Y-97646908D01*
X101731789Y-97974669D01*
X101801000Y-98322616D01*
X101801000Y-98677384D01*
X101731789Y-99025331D01*
X101596026Y-99353092D01*
X101398928Y-99648070D01*
X101148070Y-99898928D01*
X100853092Y-100096026D01*
X100525331Y-100231789D01*
X100177384Y-100301000D01*
X99822616Y-100301000D01*
X99474669Y-100231789D01*
X99146908Y-100096026D01*
X98851930Y-99898928D01*
X98601072Y-99648070D01*
X98403974Y-99353092D01*
X98268211Y-99025331D01*
X98199000Y-98677384D01*
X98199000Y-98322616D01*
X98268211Y-97974669D01*
X98403974Y-97646908D01*
X98601072Y-97351930D01*
X98851930Y-97101072D01*
X99146908Y-96903974D01*
X99474669Y-96768211D01*
X99822616Y-96699000D01*
X100177384Y-96699000D01*
X100525331Y-96768211D01*
X100525331Y-96768211D01*
G37*
M02*
