G04 #@! TF.GenerationSoftware,KiCad,Pcbnew,(5.1.0)-1*
G04 #@! TF.CreationDate,2019-09-23T13:55:02-04:00*
G04 #@! TF.ProjectId,RGBMount,5247424d-6f75-46e7-942e-6b696361645f,rev?*
G04 #@! TF.SameCoordinates,Original*
G04 #@! TF.FileFunction,Copper,L2,Bot*
G04 #@! TF.FilePolarity,Positive*
%FSLAX46Y46*%
G04 Gerber Fmt 4.6, Leading zero omitted, Abs format (unit mm)*
G04 Created by KiCad (PCBNEW (5.1.0)-1) date 2019-09-23 13:55:02*
%MOMM*%
%LPD*%
G04 APERTURE LIST*
%ADD10C,3.500000*%
%ADD11C,0.250000*%
%ADD12C,0.254000*%
G04 APERTURE END LIST*
D10*
X100000000Y-98500000D03*
X129000000Y-98500000D03*
D11*
X100500000Y-99000000D02*
X100350010Y-98850010D01*
X107000000Y-99000000D02*
X100500000Y-99000000D01*
X128500000Y-99000000D02*
X128649990Y-98850010D01*
X107000000Y-99000000D02*
X128500000Y-99000000D01*
D12*
G36*
X128340001Y-99967581D02*
G01*
X128340000Y-112340000D01*
X112660000Y-112340000D01*
X112660000Y-108032418D01*
X112663193Y-108000000D01*
X112650450Y-107870617D01*
X112612710Y-107746207D01*
X112551425Y-107631550D01*
X112468948Y-107531052D01*
X112368450Y-107448575D01*
X112253793Y-107387290D01*
X112129383Y-107349550D01*
X112032419Y-107340000D01*
X112000000Y-107336807D01*
X111967581Y-107340000D01*
X100660000Y-107340000D01*
X100660000Y-94660000D01*
X128340000Y-94660000D01*
X128340001Y-99967581D01*
X128340001Y-99967581D01*
G37*
X128340001Y-99967581D02*
X128340000Y-112340000D01*
X112660000Y-112340000D01*
X112660000Y-108032418D01*
X112663193Y-108000000D01*
X112650450Y-107870617D01*
X112612710Y-107746207D01*
X112551425Y-107631550D01*
X112468948Y-107531052D01*
X112368450Y-107448575D01*
X112253793Y-107387290D01*
X112129383Y-107349550D01*
X112032419Y-107340000D01*
X112000000Y-107336807D01*
X111967581Y-107340000D01*
X100660000Y-107340000D01*
X100660000Y-94660000D01*
X128340000Y-94660000D01*
X128340001Y-99967581D01*
M02*
