G04 #@! TF.GenerationSoftware,KiCad,Pcbnew,(5.1.0)-1*
G04 #@! TF.CreationDate,2019-09-23T14:02:08-04:00*
G04 #@! TF.ProjectId,RGBMount,5247424d-6f75-46e7-942e-6b696361645f,rev?*
G04 #@! TF.SameCoordinates,Original*
G04 #@! TF.FileFunction,Copper,L1,Top*
G04 #@! TF.FilePolarity,Positive*
%FSLAX46Y46*%
G04 Gerber Fmt 4.6, Leading zero omitted, Abs format (unit mm)*
G04 Created by KiCad (PCBNEW (5.1.0)-1) date 2019-09-23 14:02:08*
%MOMM*%
%LPD*%
G04 APERTURE LIST*
%ADD10C,3.500000*%
%ADD11R,1.650000X1.650000*%
%ADD12C,1.100000*%
%ADD13C,1.800000*%
%ADD14C,0.800000*%
%ADD15C,0.250000*%
%ADD16C,0.025400*%
%ADD17C,0.254000*%
G04 APERTURE END LIST*
D10*
X100000000Y-98500000D03*
X129000000Y-98500000D03*
D11*
X105500000Y-95900000D03*
D12*
X103530000Y-110700000D03*
X105530000Y-110700000D03*
X107530000Y-110700000D03*
D13*
X109630000Y-110700000D03*
X101430000Y-110700000D03*
D14*
X119000000Y-96000000D03*
X122000000Y-96000000D03*
X125000000Y-96000000D03*
X102000000Y-101000000D03*
X102000000Y-103000000D03*
X102000000Y-105000000D03*
D15*
X105530000Y-110700000D02*
X105530000Y-96000000D01*
D16*
G36*
X128962301Y-99962300D02*
G01*
X115001847Y-99962300D01*
X115000000Y-99962118D01*
X114998153Y-99962300D01*
X114992610Y-99962846D01*
X114985503Y-99965002D01*
X114978954Y-99968502D01*
X114973213Y-99973213D01*
X114968502Y-99978954D01*
X114965002Y-99985503D01*
X114962846Y-99992610D01*
X114962118Y-100000000D01*
X114962301Y-100001858D01*
X114962300Y-112962300D01*
X112512700Y-112962300D01*
X112512700Y-97512700D01*
X128962301Y-97512700D01*
X128962301Y-99962300D01*
X128962301Y-99962300D01*
G37*
X128962301Y-99962300D02*
X115001847Y-99962300D01*
X115000000Y-99962118D01*
X114998153Y-99962300D01*
X114992610Y-99962846D01*
X114985503Y-99965002D01*
X114978954Y-99968502D01*
X114973213Y-99973213D01*
X114968502Y-99978954D01*
X114965002Y-99985503D01*
X114962846Y-99992610D01*
X114962118Y-100000000D01*
X114962301Y-100001858D01*
X114962300Y-112962300D01*
X112512700Y-112962300D01*
X112512700Y-97512700D01*
X128962301Y-97512700D01*
X128962301Y-99962300D01*
D17*
G36*
X102873000Y-98000000D02*
G01*
X102875440Y-98024776D01*
X102882667Y-98048601D01*
X102894403Y-98070557D01*
X102910197Y-98089803D01*
X102929443Y-98105597D01*
X102951399Y-98117333D01*
X102975224Y-98124560D01*
X103000000Y-98127000D01*
X104770001Y-98127000D01*
X104770000Y-109784156D01*
X104609550Y-109944606D01*
X104508013Y-110096567D01*
X104343979Y-110065626D01*
X103709605Y-110700000D01*
X104343979Y-111334374D01*
X104508013Y-111303433D01*
X104609550Y-111455394D01*
X104774606Y-111620450D01*
X104968692Y-111750134D01*
X105184348Y-111839461D01*
X105413288Y-111885000D01*
X105646712Y-111885000D01*
X105875652Y-111839461D01*
X106091308Y-111750134D01*
X106285394Y-111620450D01*
X106450450Y-111455394D01*
X106530000Y-111336339D01*
X106609550Y-111455394D01*
X106774606Y-111620450D01*
X106968692Y-111750134D01*
X107184348Y-111839461D01*
X107413288Y-111885000D01*
X107646712Y-111885000D01*
X107875652Y-111839461D01*
X108057639Y-111764080D01*
X108745525Y-111764080D01*
X108829208Y-112018261D01*
X109101775Y-112149158D01*
X109394642Y-112224365D01*
X109696553Y-112240991D01*
X109995907Y-112198397D01*
X110281199Y-112098222D01*
X110430792Y-112018261D01*
X110514475Y-111764080D01*
X109630000Y-110879605D01*
X108745525Y-111764080D01*
X108057639Y-111764080D01*
X108091308Y-111750134D01*
X108285394Y-111620450D01*
X108381940Y-111523904D01*
X108565920Y-111584475D01*
X109450395Y-110700000D01*
X109809605Y-110700000D01*
X110694080Y-111584475D01*
X110948261Y-111500792D01*
X111079158Y-111228225D01*
X111154365Y-110935358D01*
X111170991Y-110633447D01*
X111128397Y-110334093D01*
X111028222Y-110048801D01*
X110948261Y-109899208D01*
X110694080Y-109815525D01*
X109809605Y-110700000D01*
X109450395Y-110700000D01*
X108565920Y-109815525D01*
X108381940Y-109876096D01*
X108285394Y-109779550D01*
X108091308Y-109649866D01*
X108057640Y-109635920D01*
X108745525Y-109635920D01*
X109630000Y-110520395D01*
X110514475Y-109635920D01*
X110430792Y-109381739D01*
X110158225Y-109250842D01*
X109865358Y-109175635D01*
X109563447Y-109159009D01*
X109264093Y-109201603D01*
X108978801Y-109301778D01*
X108829208Y-109381739D01*
X108745525Y-109635920D01*
X108057640Y-109635920D01*
X107875652Y-109560539D01*
X107646712Y-109515000D01*
X107413288Y-109515000D01*
X107184348Y-109560539D01*
X106968692Y-109649866D01*
X106774606Y-109779550D01*
X106609550Y-109944606D01*
X106530000Y-110063661D01*
X106450450Y-109944606D01*
X106290000Y-109784156D01*
X106290000Y-98127000D01*
X108000000Y-98127000D01*
X108024776Y-98124560D01*
X108048601Y-98117333D01*
X108070557Y-98105597D01*
X108089803Y-98089803D01*
X108105597Y-98070557D01*
X108117333Y-98048601D01*
X108124560Y-98024776D01*
X108127000Y-98000000D01*
X108127000Y-94660000D01*
X128340000Y-94660000D01*
X128340001Y-99340000D01*
X115032419Y-99340000D01*
X115000000Y-99336807D01*
X114967581Y-99340000D01*
X114870617Y-99349550D01*
X114746207Y-99387290D01*
X114631550Y-99448575D01*
X114531052Y-99531052D01*
X114448575Y-99631550D01*
X114387290Y-99746207D01*
X114349550Y-99870617D01*
X114336807Y-100000000D01*
X114340001Y-100032429D01*
X114340000Y-112340000D01*
X100660000Y-112340000D01*
X100660000Y-112033048D01*
X100901775Y-112149158D01*
X101194642Y-112224365D01*
X101496553Y-112240991D01*
X101795907Y-112198397D01*
X102081199Y-112098222D01*
X102230792Y-112018261D01*
X102314475Y-111764080D01*
X101430000Y-110879605D01*
X101415858Y-110893748D01*
X101236253Y-110714143D01*
X101250395Y-110700000D01*
X101609605Y-110700000D01*
X102494080Y-111584475D01*
X102708206Y-111513979D01*
X102895626Y-111513979D01*
X102936841Y-111732478D01*
X103149665Y-111828359D01*
X103377105Y-111880878D01*
X103610421Y-111888016D01*
X103840646Y-111849500D01*
X104058934Y-111766808D01*
X104123159Y-111732478D01*
X104164374Y-111513979D01*
X103530000Y-110879605D01*
X102895626Y-111513979D01*
X102708206Y-111513979D01*
X102748261Y-111500792D01*
X102879158Y-111228225D01*
X102898849Y-111151546D01*
X103350395Y-110700000D01*
X102898044Y-110247649D01*
X102828222Y-110048801D01*
X102748261Y-109899208D01*
X102708207Y-109886021D01*
X102895626Y-109886021D01*
X103530000Y-110520395D01*
X104164374Y-109886021D01*
X104123159Y-109667522D01*
X103910335Y-109571641D01*
X103682895Y-109519122D01*
X103449579Y-109511984D01*
X103219354Y-109550500D01*
X103001066Y-109633192D01*
X102936841Y-109667522D01*
X102895626Y-109886021D01*
X102708207Y-109886021D01*
X102494080Y-109815525D01*
X101609605Y-110700000D01*
X101250395Y-110700000D01*
X101236253Y-110685858D01*
X101415858Y-110506253D01*
X101430000Y-110520395D01*
X102314475Y-109635920D01*
X102230792Y-109381739D01*
X101958225Y-109250842D01*
X101665358Y-109175635D01*
X101363447Y-109159009D01*
X101064093Y-109201603D01*
X100778801Y-109301778D01*
X100660000Y-109365280D01*
X100660000Y-94660000D01*
X102873000Y-94660000D01*
X102873000Y-98000000D01*
X102873000Y-98000000D01*
G37*
X102873000Y-98000000D02*
X102875440Y-98024776D01*
X102882667Y-98048601D01*
X102894403Y-98070557D01*
X102910197Y-98089803D01*
X102929443Y-98105597D01*
X102951399Y-98117333D01*
X102975224Y-98124560D01*
X103000000Y-98127000D01*
X104770001Y-98127000D01*
X104770000Y-109784156D01*
X104609550Y-109944606D01*
X104508013Y-110096567D01*
X104343979Y-110065626D01*
X103709605Y-110700000D01*
X104343979Y-111334374D01*
X104508013Y-111303433D01*
X104609550Y-111455394D01*
X104774606Y-111620450D01*
X104968692Y-111750134D01*
X105184348Y-111839461D01*
X105413288Y-111885000D01*
X105646712Y-111885000D01*
X105875652Y-111839461D01*
X106091308Y-111750134D01*
X106285394Y-111620450D01*
X106450450Y-111455394D01*
X106530000Y-111336339D01*
X106609550Y-111455394D01*
X106774606Y-111620450D01*
X106968692Y-111750134D01*
X107184348Y-111839461D01*
X107413288Y-111885000D01*
X107646712Y-111885000D01*
X107875652Y-111839461D01*
X108057639Y-111764080D01*
X108745525Y-111764080D01*
X108829208Y-112018261D01*
X109101775Y-112149158D01*
X109394642Y-112224365D01*
X109696553Y-112240991D01*
X109995907Y-112198397D01*
X110281199Y-112098222D01*
X110430792Y-112018261D01*
X110514475Y-111764080D01*
X109630000Y-110879605D01*
X108745525Y-111764080D01*
X108057639Y-111764080D01*
X108091308Y-111750134D01*
X108285394Y-111620450D01*
X108381940Y-111523904D01*
X108565920Y-111584475D01*
X109450395Y-110700000D01*
X109809605Y-110700000D01*
X110694080Y-111584475D01*
X110948261Y-111500792D01*
X111079158Y-111228225D01*
X111154365Y-110935358D01*
X111170991Y-110633447D01*
X111128397Y-110334093D01*
X111028222Y-110048801D01*
X110948261Y-109899208D01*
X110694080Y-109815525D01*
X109809605Y-110700000D01*
X109450395Y-110700000D01*
X108565920Y-109815525D01*
X108381940Y-109876096D01*
X108285394Y-109779550D01*
X108091308Y-109649866D01*
X108057640Y-109635920D01*
X108745525Y-109635920D01*
X109630000Y-110520395D01*
X110514475Y-109635920D01*
X110430792Y-109381739D01*
X110158225Y-109250842D01*
X109865358Y-109175635D01*
X109563447Y-109159009D01*
X109264093Y-109201603D01*
X108978801Y-109301778D01*
X108829208Y-109381739D01*
X108745525Y-109635920D01*
X108057640Y-109635920D01*
X107875652Y-109560539D01*
X107646712Y-109515000D01*
X107413288Y-109515000D01*
X107184348Y-109560539D01*
X106968692Y-109649866D01*
X106774606Y-109779550D01*
X106609550Y-109944606D01*
X106530000Y-110063661D01*
X106450450Y-109944606D01*
X106290000Y-109784156D01*
X106290000Y-98127000D01*
X108000000Y-98127000D01*
X108024776Y-98124560D01*
X108048601Y-98117333D01*
X108070557Y-98105597D01*
X108089803Y-98089803D01*
X108105597Y-98070557D01*
X108117333Y-98048601D01*
X108124560Y-98024776D01*
X108127000Y-98000000D01*
X108127000Y-94660000D01*
X128340000Y-94660000D01*
X128340001Y-99340000D01*
X115032419Y-99340000D01*
X115000000Y-99336807D01*
X114967581Y-99340000D01*
X114870617Y-99349550D01*
X114746207Y-99387290D01*
X114631550Y-99448575D01*
X114531052Y-99531052D01*
X114448575Y-99631550D01*
X114387290Y-99746207D01*
X114349550Y-99870617D01*
X114336807Y-100000000D01*
X114340001Y-100032429D01*
X114340000Y-112340000D01*
X100660000Y-112340000D01*
X100660000Y-112033048D01*
X100901775Y-112149158D01*
X101194642Y-112224365D01*
X101496553Y-112240991D01*
X101795907Y-112198397D01*
X102081199Y-112098222D01*
X102230792Y-112018261D01*
X102314475Y-111764080D01*
X101430000Y-110879605D01*
X101415858Y-110893748D01*
X101236253Y-110714143D01*
X101250395Y-110700000D01*
X101609605Y-110700000D01*
X102494080Y-111584475D01*
X102708206Y-111513979D01*
X102895626Y-111513979D01*
X102936841Y-111732478D01*
X103149665Y-111828359D01*
X103377105Y-111880878D01*
X103610421Y-111888016D01*
X103840646Y-111849500D01*
X104058934Y-111766808D01*
X104123159Y-111732478D01*
X104164374Y-111513979D01*
X103530000Y-110879605D01*
X102895626Y-111513979D01*
X102708206Y-111513979D01*
X102748261Y-111500792D01*
X102879158Y-111228225D01*
X102898849Y-111151546D01*
X103350395Y-110700000D01*
X102898044Y-110247649D01*
X102828222Y-110048801D01*
X102748261Y-109899208D01*
X102708207Y-109886021D01*
X102895626Y-109886021D01*
X103530000Y-110520395D01*
X104164374Y-109886021D01*
X104123159Y-109667522D01*
X103910335Y-109571641D01*
X103682895Y-109519122D01*
X103449579Y-109511984D01*
X103219354Y-109550500D01*
X103001066Y-109633192D01*
X102936841Y-109667522D01*
X102895626Y-109886021D01*
X102708207Y-109886021D01*
X102494080Y-109815525D01*
X101609605Y-110700000D01*
X101250395Y-110700000D01*
X101236253Y-110685858D01*
X101415858Y-110506253D01*
X101430000Y-110520395D01*
X102314475Y-109635920D01*
X102230792Y-109381739D01*
X101958225Y-109250842D01*
X101665358Y-109175635D01*
X101363447Y-109159009D01*
X101064093Y-109201603D01*
X100778801Y-109301778D01*
X100660000Y-109365280D01*
X100660000Y-94660000D01*
X102873000Y-94660000D01*
X102873000Y-98000000D01*
M02*
