G04 #@! TF.GenerationSoftware,KiCad,Pcbnew,(5.1.0)-1*
G04 #@! TF.CreationDate,2019-09-23T14:02:08-04:00*
G04 #@! TF.ProjectId,RGBMount,5247424d-6f75-46e7-942e-6b696361645f,rev?*
G04 #@! TF.SameCoordinates,Original*
G04 #@! TF.FileFunction,Legend,Top*
G04 #@! TF.FilePolarity,Positive*
%FSLAX46Y46*%
G04 Gerber Fmt 4.6, Leading zero omitted, Abs format (unit mm)*
G04 Created by KiCad (PCBNEW (5.1.0)-1) date 2019-09-23 14:02:08*
%MOMM*%
%LPD*%
G04 APERTURE LIST*
%ADD10C,0.150000*%
G04 APERTURE END LIST*
D10*
X104261904Y-98547619D02*
X104309523Y-98500000D01*
X104404761Y-98452380D01*
X104642857Y-98452380D01*
X104738095Y-98500000D01*
X104785714Y-98547619D01*
X104833333Y-98642857D01*
X104833333Y-98738095D01*
X104785714Y-98880952D01*
X104214285Y-99452380D01*
X104833333Y-99452380D01*
X105690476Y-98785714D02*
X105690476Y-99452380D01*
X105452380Y-98404761D02*
X105214285Y-99119047D01*
X105833333Y-99119047D01*
X106404761Y-98452380D02*
X106500000Y-98452380D01*
X106595238Y-98500000D01*
X106642857Y-98547619D01*
X106690476Y-98642857D01*
X106738095Y-98833333D01*
X106738095Y-99071428D01*
X106690476Y-99261904D01*
X106642857Y-99357142D01*
X106595238Y-99404761D01*
X106500000Y-99452380D01*
X106404761Y-99452380D01*
X106309523Y-99404761D01*
X106261904Y-99357142D01*
X106214285Y-99261904D01*
X106166666Y-99071428D01*
X106166666Y-98833333D01*
X106214285Y-98642857D01*
X106261904Y-98547619D01*
X106309523Y-98500000D01*
X106404761Y-98452380D01*
X101330000Y-112900000D02*
X101330000Y-108500000D01*
X101330000Y-108500000D02*
X109930000Y-108500000D01*
X109930000Y-108500000D02*
X109930000Y-112900000D01*
X109930000Y-112900000D02*
X101330000Y-112900000D01*
X131066666Y-95752380D02*
X130733333Y-95276190D01*
X130495238Y-95752380D02*
X130495238Y-94752380D01*
X130876190Y-94752380D01*
X130971428Y-94800000D01*
X131019047Y-94847619D01*
X131066666Y-94942857D01*
X131066666Y-95085714D01*
X131019047Y-95180952D01*
X130971428Y-95228571D01*
X130876190Y-95276190D01*
X130495238Y-95276190D01*
X131495238Y-95228571D02*
X131828571Y-95228571D01*
X131971428Y-95752380D02*
X131495238Y-95752380D01*
X131495238Y-94752380D01*
X131971428Y-94752380D01*
X132733333Y-95228571D02*
X132400000Y-95228571D01*
X132400000Y-95752380D02*
X132400000Y-94752380D01*
X132876190Y-94752380D01*
X133400000Y-94752380D02*
X133400000Y-94990476D01*
X133161904Y-94895238D02*
X133400000Y-94990476D01*
X133638095Y-94895238D01*
X133257142Y-95180952D02*
X133400000Y-94990476D01*
X133542857Y-95180952D01*
X134161904Y-94752380D02*
X134161904Y-94990476D01*
X133923809Y-94895238D02*
X134161904Y-94990476D01*
X134400000Y-94895238D01*
X134019047Y-95180952D02*
X134161904Y-94990476D01*
X134304761Y-95180952D01*
X98866666Y-91652380D02*
X98866666Y-92366666D01*
X98819047Y-92509523D01*
X98723809Y-92604761D01*
X98580952Y-92652380D01*
X98485714Y-92652380D01*
X99295238Y-91747619D02*
X99342857Y-91700000D01*
X99438095Y-91652380D01*
X99676190Y-91652380D01*
X99771428Y-91700000D01*
X99819047Y-91747619D01*
X99866666Y-91842857D01*
X99866666Y-91938095D01*
X99819047Y-92080952D01*
X99247619Y-92652380D01*
X99866666Y-92652380D01*
X99396666Y-114504761D02*
X99539523Y-114552380D01*
X99777619Y-114552380D01*
X99872857Y-114504761D01*
X99920476Y-114457142D01*
X99968095Y-114361904D01*
X99968095Y-114266666D01*
X99920476Y-114171428D01*
X99872857Y-114123809D01*
X99777619Y-114076190D01*
X99587142Y-114028571D01*
X99491904Y-113980952D01*
X99444285Y-113933333D01*
X99396666Y-113838095D01*
X99396666Y-113742857D01*
X99444285Y-113647619D01*
X99491904Y-113600000D01*
X99587142Y-113552380D01*
X99825238Y-113552380D01*
X99968095Y-113600000D01*
X100301428Y-113552380D02*
X100539523Y-114552380D01*
X100730000Y-113838095D01*
X100920476Y-114552380D01*
X101158571Y-113552380D01*
X102063333Y-114552380D02*
X101491904Y-114552380D01*
X101777619Y-114552380D02*
X101777619Y-113552380D01*
X101682380Y-113695238D01*
X101587142Y-113790476D01*
X101491904Y-113838095D01*
M02*
