G04 #@! TF.GenerationSoftware,KiCad,Pcbnew,(5.1.0)-1*
G04 #@! TF.CreationDate,2019-10-02T17:07:43-04:00*
G04 #@! TF.ProjectId,MiniDin8Adapter,4d696e69-4469-46e3-9841-646170746572,rev?*
G04 #@! TF.SameCoordinates,Original*
G04 #@! TF.FileFunction,Copper,L1,Top*
G04 #@! TF.FilePolarity,Positive*
%FSLAX46Y46*%
G04 Gerber Fmt 4.6, Leading zero omitted, Abs format (unit mm)*
G04 Created by KiCad (PCBNEW (5.1.0)-1) date 2019-10-02 17:07:43*
%MOMM*%
%LPD*%
G04 APERTURE LIST*
%ADD10C,2.300000*%
%ADD11C,1.200000*%
%ADD12C,0.800000*%
%ADD13C,0.250000*%
%ADD14C,0.254000*%
G04 APERTURE END LIST*
D10*
X147000000Y-103600000D03*
X153750000Y-104400000D03*
X140250000Y-104400000D03*
D11*
X148300000Y-107400000D03*
X145700000Y-107400000D03*
X143600000Y-107400000D03*
X150400000Y-107400000D03*
X147900000Y-109900000D03*
X150400000Y-109900000D03*
X145700000Y-109900000D03*
X143600000Y-109900000D03*
D12*
X141100000Y-111600000D03*
X138950000Y-113200000D03*
D13*
X146200000Y-111600000D02*
X147900000Y-109900000D01*
X141100000Y-111600000D02*
X146200000Y-111600000D01*
X147100000Y-113200000D02*
X150400000Y-109900000D01*
X138950000Y-113200000D02*
X147100000Y-113200000D01*
D14*
G36*
X155340000Y-103578170D02*
G01*
X155272090Y-103451118D01*
X154992349Y-103337256D01*
X153929605Y-104400000D01*
X154992349Y-105462744D01*
X155272090Y-105348882D01*
X155340000Y-105211564D01*
X155340001Y-111967571D01*
X155336807Y-112000000D01*
X155349550Y-112129383D01*
X155387290Y-112253793D01*
X155448575Y-112368450D01*
X155531052Y-112468948D01*
X155631550Y-112551425D01*
X155746207Y-112612710D01*
X155870617Y-112650450D01*
X155967581Y-112660000D01*
X156000000Y-112663193D01*
X156032419Y-112660000D01*
X157340000Y-112660000D01*
X157340000Y-113873000D01*
X147453135Y-113873000D01*
X147524276Y-113834974D01*
X147640001Y-113740001D01*
X147663804Y-113710997D01*
X150246199Y-111128602D01*
X150278363Y-111135000D01*
X150521637Y-111135000D01*
X150760236Y-111087540D01*
X150984992Y-110994443D01*
X151187267Y-110859287D01*
X151359287Y-110687267D01*
X151494443Y-110484992D01*
X151587540Y-110260236D01*
X151635000Y-110021637D01*
X151635000Y-109778363D01*
X151587540Y-109539764D01*
X151494443Y-109315008D01*
X151359287Y-109112733D01*
X151187267Y-108940713D01*
X150984992Y-108805557D01*
X150760236Y-108712460D01*
X150521637Y-108665000D01*
X150278363Y-108665000D01*
X150039764Y-108712460D01*
X149815008Y-108805557D01*
X149612733Y-108940713D01*
X149440713Y-109112733D01*
X149305557Y-109315008D01*
X149212460Y-109539764D01*
X149165000Y-109778363D01*
X149165000Y-110021637D01*
X149171398Y-110053801D01*
X149117976Y-110107222D01*
X149135000Y-110021637D01*
X149135000Y-109778363D01*
X149087540Y-109539764D01*
X148994443Y-109315008D01*
X148859287Y-109112733D01*
X148687267Y-108940713D01*
X148484992Y-108805557D01*
X148260236Y-108712460D01*
X148021637Y-108665000D01*
X147778363Y-108665000D01*
X147539764Y-108712460D01*
X147315008Y-108805557D01*
X147112733Y-108940713D01*
X146940713Y-109112733D01*
X146805557Y-109315008D01*
X146800330Y-109327628D01*
X146773348Y-109277148D01*
X146549764Y-109229841D01*
X145879605Y-109900000D01*
X145893748Y-109914143D01*
X145714143Y-110093748D01*
X145700000Y-110079605D01*
X145029841Y-110749764D01*
X145048934Y-110840000D01*
X144406554Y-110840000D01*
X144559287Y-110687267D01*
X144663882Y-110530729D01*
X144850236Y-110570159D01*
X145520395Y-109900000D01*
X144850236Y-109229841D01*
X144663882Y-109269271D01*
X144559287Y-109112733D01*
X144496790Y-109050236D01*
X145029841Y-109050236D01*
X145700000Y-109720395D01*
X146370159Y-109050236D01*
X146322852Y-108826652D01*
X146101484Y-108725763D01*
X145864687Y-108670000D01*
X145621562Y-108661505D01*
X145381451Y-108700605D01*
X145153582Y-108785798D01*
X145077148Y-108826652D01*
X145029841Y-109050236D01*
X144496790Y-109050236D01*
X144387267Y-108940713D01*
X144184992Y-108805557D01*
X143960236Y-108712460D01*
X143721637Y-108665000D01*
X143478363Y-108665000D01*
X143239764Y-108712460D01*
X143015008Y-108805557D01*
X142812733Y-108940713D01*
X142640713Y-109112733D01*
X142505557Y-109315008D01*
X142412460Y-109539764D01*
X142365000Y-109778363D01*
X142365000Y-110021637D01*
X142412460Y-110260236D01*
X142505557Y-110484992D01*
X142640713Y-110687267D01*
X142793446Y-110840000D01*
X141803711Y-110840000D01*
X141759774Y-110796063D01*
X141590256Y-110682795D01*
X141401898Y-110604774D01*
X141201939Y-110565000D01*
X140998061Y-110565000D01*
X140798102Y-110604774D01*
X140609744Y-110682795D01*
X140440226Y-110796063D01*
X140296063Y-110940226D01*
X140182795Y-111109744D01*
X140104774Y-111298102D01*
X140065000Y-111498061D01*
X140065000Y-111701939D01*
X140104774Y-111901898D01*
X140182795Y-112090256D01*
X140296063Y-112259774D01*
X140440226Y-112403937D01*
X140494198Y-112440000D01*
X139653711Y-112440000D01*
X139609774Y-112396063D01*
X139440256Y-112282795D01*
X139251898Y-112204774D01*
X139051939Y-112165000D01*
X138848061Y-112165000D01*
X138648102Y-112204774D01*
X138624631Y-112214496D01*
X138650450Y-112129383D01*
X138663193Y-112000000D01*
X138660000Y-111967581D01*
X138660000Y-107278363D01*
X142365000Y-107278363D01*
X142365000Y-107521637D01*
X142412460Y-107760236D01*
X142505557Y-107984992D01*
X142640713Y-108187267D01*
X142812733Y-108359287D01*
X143015008Y-108494443D01*
X143239764Y-108587540D01*
X143478363Y-108635000D01*
X143721637Y-108635000D01*
X143960236Y-108587540D01*
X144184992Y-108494443D01*
X144387267Y-108359287D01*
X144559287Y-108187267D01*
X144650000Y-108051506D01*
X144740713Y-108187267D01*
X144912733Y-108359287D01*
X145115008Y-108494443D01*
X145339764Y-108587540D01*
X145578363Y-108635000D01*
X145821637Y-108635000D01*
X146060236Y-108587540D01*
X146284992Y-108494443D01*
X146487267Y-108359287D01*
X146659287Y-108187267D01*
X146794443Y-107984992D01*
X146887540Y-107760236D01*
X146935000Y-107521637D01*
X146935000Y-107278363D01*
X147065000Y-107278363D01*
X147065000Y-107521637D01*
X147112460Y-107760236D01*
X147205557Y-107984992D01*
X147340713Y-108187267D01*
X147512733Y-108359287D01*
X147715008Y-108494443D01*
X147939764Y-108587540D01*
X148178363Y-108635000D01*
X148421637Y-108635000D01*
X148660236Y-108587540D01*
X148884992Y-108494443D01*
X149087267Y-108359287D01*
X149259287Y-108187267D01*
X149350000Y-108051506D01*
X149440713Y-108187267D01*
X149612733Y-108359287D01*
X149815008Y-108494443D01*
X150039764Y-108587540D01*
X150278363Y-108635000D01*
X150521637Y-108635000D01*
X150760236Y-108587540D01*
X150984992Y-108494443D01*
X151187267Y-108359287D01*
X151359287Y-108187267D01*
X151494443Y-107984992D01*
X151587540Y-107760236D01*
X151635000Y-107521637D01*
X151635000Y-107278363D01*
X151587540Y-107039764D01*
X151494443Y-106815008D01*
X151359287Y-106612733D01*
X151187267Y-106440713D01*
X150984992Y-106305557D01*
X150760236Y-106212460D01*
X150521637Y-106165000D01*
X150278363Y-106165000D01*
X150039764Y-106212460D01*
X149815008Y-106305557D01*
X149612733Y-106440713D01*
X149440713Y-106612733D01*
X149350000Y-106748494D01*
X149259287Y-106612733D01*
X149087267Y-106440713D01*
X148884992Y-106305557D01*
X148660236Y-106212460D01*
X148421637Y-106165000D01*
X148178363Y-106165000D01*
X147939764Y-106212460D01*
X147715008Y-106305557D01*
X147512733Y-106440713D01*
X147340713Y-106612733D01*
X147205557Y-106815008D01*
X147112460Y-107039764D01*
X147065000Y-107278363D01*
X146935000Y-107278363D01*
X146887540Y-107039764D01*
X146794443Y-106815008D01*
X146659287Y-106612733D01*
X146487267Y-106440713D01*
X146284992Y-106305557D01*
X146060236Y-106212460D01*
X145821637Y-106165000D01*
X145578363Y-106165000D01*
X145339764Y-106212460D01*
X145115008Y-106305557D01*
X144912733Y-106440713D01*
X144740713Y-106612733D01*
X144650000Y-106748494D01*
X144559287Y-106612733D01*
X144387267Y-106440713D01*
X144184992Y-106305557D01*
X143960236Y-106212460D01*
X143721637Y-106165000D01*
X143478363Y-106165000D01*
X143239764Y-106212460D01*
X143015008Y-106305557D01*
X142812733Y-106440713D01*
X142640713Y-106612733D01*
X142505557Y-106815008D01*
X142412460Y-107039764D01*
X142365000Y-107278363D01*
X138660000Y-107278363D01*
X138660000Y-105642349D01*
X139187256Y-105642349D01*
X139301118Y-105922090D01*
X139616296Y-106077961D01*
X139955826Y-106169349D01*
X140306661Y-106192741D01*
X140655319Y-106147240D01*
X140988400Y-106034594D01*
X141198882Y-105922090D01*
X141312744Y-105642349D01*
X152687256Y-105642349D01*
X152801118Y-105922090D01*
X153116296Y-106077961D01*
X153455826Y-106169349D01*
X153806661Y-106192741D01*
X154155319Y-106147240D01*
X154488400Y-106034594D01*
X154698882Y-105922090D01*
X154812744Y-105642349D01*
X153750000Y-104579605D01*
X152687256Y-105642349D01*
X141312744Y-105642349D01*
X140250000Y-104579605D01*
X139187256Y-105642349D01*
X138660000Y-105642349D01*
X138660000Y-105221830D01*
X138727910Y-105348882D01*
X139007651Y-105462744D01*
X140070395Y-104400000D01*
X140429605Y-104400000D01*
X141492349Y-105462744D01*
X141772090Y-105348882D01*
X141927961Y-105033704D01*
X141979466Y-104842349D01*
X145937256Y-104842349D01*
X146051118Y-105122090D01*
X146366296Y-105277961D01*
X146705826Y-105369349D01*
X147056661Y-105392741D01*
X147405319Y-105347240D01*
X147738400Y-105234594D01*
X147948882Y-105122090D01*
X148062744Y-104842349D01*
X147000000Y-103779605D01*
X145937256Y-104842349D01*
X141979466Y-104842349D01*
X142019349Y-104694174D01*
X142042741Y-104343339D01*
X141997240Y-103994681D01*
X141884594Y-103661600D01*
X141881955Y-103656661D01*
X145207259Y-103656661D01*
X145252760Y-104005319D01*
X145365406Y-104338400D01*
X145477910Y-104548882D01*
X145757651Y-104662744D01*
X146820395Y-103600000D01*
X147179605Y-103600000D01*
X148242349Y-104662744D01*
X148522090Y-104548882D01*
X148567697Y-104456661D01*
X151957259Y-104456661D01*
X152002760Y-104805319D01*
X152115406Y-105138400D01*
X152227910Y-105348882D01*
X152507651Y-105462744D01*
X153570395Y-104400000D01*
X152507651Y-103337256D01*
X152227910Y-103451118D01*
X152072039Y-103766296D01*
X151980651Y-104105826D01*
X151957259Y-104456661D01*
X148567697Y-104456661D01*
X148677961Y-104233704D01*
X148769349Y-103894174D01*
X148792741Y-103543339D01*
X148747240Y-103194681D01*
X148734717Y-103157651D01*
X152687256Y-103157651D01*
X153750000Y-104220395D01*
X154812744Y-103157651D01*
X154698882Y-102877910D01*
X154383704Y-102722039D01*
X154044174Y-102630651D01*
X153693339Y-102607259D01*
X153344681Y-102652760D01*
X153011600Y-102765406D01*
X152801118Y-102877910D01*
X152687256Y-103157651D01*
X148734717Y-103157651D01*
X148634594Y-102861600D01*
X148522090Y-102651118D01*
X148242349Y-102537256D01*
X147179605Y-103600000D01*
X146820395Y-103600000D01*
X145757651Y-102537256D01*
X145477910Y-102651118D01*
X145322039Y-102966296D01*
X145230651Y-103305826D01*
X145207259Y-103656661D01*
X141881955Y-103656661D01*
X141772090Y-103451118D01*
X141492349Y-103337256D01*
X140429605Y-104400000D01*
X140070395Y-104400000D01*
X139007651Y-103337256D01*
X138727910Y-103451118D01*
X138660000Y-103588435D01*
X138660000Y-103157651D01*
X139187256Y-103157651D01*
X140250000Y-104220395D01*
X141312744Y-103157651D01*
X141198882Y-102877910D01*
X140883704Y-102722039D01*
X140544174Y-102630651D01*
X140193339Y-102607259D01*
X139844681Y-102652760D01*
X139511600Y-102765406D01*
X139301118Y-102877910D01*
X139187256Y-103157651D01*
X138660000Y-103157651D01*
X138660000Y-102357651D01*
X145937256Y-102357651D01*
X147000000Y-103420395D01*
X148062744Y-102357651D01*
X147948882Y-102077910D01*
X147633704Y-101922039D01*
X147294174Y-101830651D01*
X146943339Y-101807259D01*
X146594681Y-101852760D01*
X146261600Y-101965406D01*
X146051118Y-102077910D01*
X145937256Y-102357651D01*
X138660000Y-102357651D01*
X138660000Y-101660000D01*
X155340000Y-101660000D01*
X155340000Y-103578170D01*
X155340000Y-103578170D01*
G37*
X155340000Y-103578170D02*
X155272090Y-103451118D01*
X154992349Y-103337256D01*
X153929605Y-104400000D01*
X154992349Y-105462744D01*
X155272090Y-105348882D01*
X155340000Y-105211564D01*
X155340001Y-111967571D01*
X155336807Y-112000000D01*
X155349550Y-112129383D01*
X155387290Y-112253793D01*
X155448575Y-112368450D01*
X155531052Y-112468948D01*
X155631550Y-112551425D01*
X155746207Y-112612710D01*
X155870617Y-112650450D01*
X155967581Y-112660000D01*
X156000000Y-112663193D01*
X156032419Y-112660000D01*
X157340000Y-112660000D01*
X157340000Y-113873000D01*
X147453135Y-113873000D01*
X147524276Y-113834974D01*
X147640001Y-113740001D01*
X147663804Y-113710997D01*
X150246199Y-111128602D01*
X150278363Y-111135000D01*
X150521637Y-111135000D01*
X150760236Y-111087540D01*
X150984992Y-110994443D01*
X151187267Y-110859287D01*
X151359287Y-110687267D01*
X151494443Y-110484992D01*
X151587540Y-110260236D01*
X151635000Y-110021637D01*
X151635000Y-109778363D01*
X151587540Y-109539764D01*
X151494443Y-109315008D01*
X151359287Y-109112733D01*
X151187267Y-108940713D01*
X150984992Y-108805557D01*
X150760236Y-108712460D01*
X150521637Y-108665000D01*
X150278363Y-108665000D01*
X150039764Y-108712460D01*
X149815008Y-108805557D01*
X149612733Y-108940713D01*
X149440713Y-109112733D01*
X149305557Y-109315008D01*
X149212460Y-109539764D01*
X149165000Y-109778363D01*
X149165000Y-110021637D01*
X149171398Y-110053801D01*
X149117976Y-110107222D01*
X149135000Y-110021637D01*
X149135000Y-109778363D01*
X149087540Y-109539764D01*
X148994443Y-109315008D01*
X148859287Y-109112733D01*
X148687267Y-108940713D01*
X148484992Y-108805557D01*
X148260236Y-108712460D01*
X148021637Y-108665000D01*
X147778363Y-108665000D01*
X147539764Y-108712460D01*
X147315008Y-108805557D01*
X147112733Y-108940713D01*
X146940713Y-109112733D01*
X146805557Y-109315008D01*
X146800330Y-109327628D01*
X146773348Y-109277148D01*
X146549764Y-109229841D01*
X145879605Y-109900000D01*
X145893748Y-109914143D01*
X145714143Y-110093748D01*
X145700000Y-110079605D01*
X145029841Y-110749764D01*
X145048934Y-110840000D01*
X144406554Y-110840000D01*
X144559287Y-110687267D01*
X144663882Y-110530729D01*
X144850236Y-110570159D01*
X145520395Y-109900000D01*
X144850236Y-109229841D01*
X144663882Y-109269271D01*
X144559287Y-109112733D01*
X144496790Y-109050236D01*
X145029841Y-109050236D01*
X145700000Y-109720395D01*
X146370159Y-109050236D01*
X146322852Y-108826652D01*
X146101484Y-108725763D01*
X145864687Y-108670000D01*
X145621562Y-108661505D01*
X145381451Y-108700605D01*
X145153582Y-108785798D01*
X145077148Y-108826652D01*
X145029841Y-109050236D01*
X144496790Y-109050236D01*
X144387267Y-108940713D01*
X144184992Y-108805557D01*
X143960236Y-108712460D01*
X143721637Y-108665000D01*
X143478363Y-108665000D01*
X143239764Y-108712460D01*
X143015008Y-108805557D01*
X142812733Y-108940713D01*
X142640713Y-109112733D01*
X142505557Y-109315008D01*
X142412460Y-109539764D01*
X142365000Y-109778363D01*
X142365000Y-110021637D01*
X142412460Y-110260236D01*
X142505557Y-110484992D01*
X142640713Y-110687267D01*
X142793446Y-110840000D01*
X141803711Y-110840000D01*
X141759774Y-110796063D01*
X141590256Y-110682795D01*
X141401898Y-110604774D01*
X141201939Y-110565000D01*
X140998061Y-110565000D01*
X140798102Y-110604774D01*
X140609744Y-110682795D01*
X140440226Y-110796063D01*
X140296063Y-110940226D01*
X140182795Y-111109744D01*
X140104774Y-111298102D01*
X140065000Y-111498061D01*
X140065000Y-111701939D01*
X140104774Y-111901898D01*
X140182795Y-112090256D01*
X140296063Y-112259774D01*
X140440226Y-112403937D01*
X140494198Y-112440000D01*
X139653711Y-112440000D01*
X139609774Y-112396063D01*
X139440256Y-112282795D01*
X139251898Y-112204774D01*
X139051939Y-112165000D01*
X138848061Y-112165000D01*
X138648102Y-112204774D01*
X138624631Y-112214496D01*
X138650450Y-112129383D01*
X138663193Y-112000000D01*
X138660000Y-111967581D01*
X138660000Y-107278363D01*
X142365000Y-107278363D01*
X142365000Y-107521637D01*
X142412460Y-107760236D01*
X142505557Y-107984992D01*
X142640713Y-108187267D01*
X142812733Y-108359287D01*
X143015008Y-108494443D01*
X143239764Y-108587540D01*
X143478363Y-108635000D01*
X143721637Y-108635000D01*
X143960236Y-108587540D01*
X144184992Y-108494443D01*
X144387267Y-108359287D01*
X144559287Y-108187267D01*
X144650000Y-108051506D01*
X144740713Y-108187267D01*
X144912733Y-108359287D01*
X145115008Y-108494443D01*
X145339764Y-108587540D01*
X145578363Y-108635000D01*
X145821637Y-108635000D01*
X146060236Y-108587540D01*
X146284992Y-108494443D01*
X146487267Y-108359287D01*
X146659287Y-108187267D01*
X146794443Y-107984992D01*
X146887540Y-107760236D01*
X146935000Y-107521637D01*
X146935000Y-107278363D01*
X147065000Y-107278363D01*
X147065000Y-107521637D01*
X147112460Y-107760236D01*
X147205557Y-107984992D01*
X147340713Y-108187267D01*
X147512733Y-108359287D01*
X147715008Y-108494443D01*
X147939764Y-108587540D01*
X148178363Y-108635000D01*
X148421637Y-108635000D01*
X148660236Y-108587540D01*
X148884992Y-108494443D01*
X149087267Y-108359287D01*
X149259287Y-108187267D01*
X149350000Y-108051506D01*
X149440713Y-108187267D01*
X149612733Y-108359287D01*
X149815008Y-108494443D01*
X150039764Y-108587540D01*
X150278363Y-108635000D01*
X150521637Y-108635000D01*
X150760236Y-108587540D01*
X150984992Y-108494443D01*
X151187267Y-108359287D01*
X151359287Y-108187267D01*
X151494443Y-107984992D01*
X151587540Y-107760236D01*
X151635000Y-107521637D01*
X151635000Y-107278363D01*
X151587540Y-107039764D01*
X151494443Y-106815008D01*
X151359287Y-106612733D01*
X151187267Y-106440713D01*
X150984992Y-106305557D01*
X150760236Y-106212460D01*
X150521637Y-106165000D01*
X150278363Y-106165000D01*
X150039764Y-106212460D01*
X149815008Y-106305557D01*
X149612733Y-106440713D01*
X149440713Y-106612733D01*
X149350000Y-106748494D01*
X149259287Y-106612733D01*
X149087267Y-106440713D01*
X148884992Y-106305557D01*
X148660236Y-106212460D01*
X148421637Y-106165000D01*
X148178363Y-106165000D01*
X147939764Y-106212460D01*
X147715008Y-106305557D01*
X147512733Y-106440713D01*
X147340713Y-106612733D01*
X147205557Y-106815008D01*
X147112460Y-107039764D01*
X147065000Y-107278363D01*
X146935000Y-107278363D01*
X146887540Y-107039764D01*
X146794443Y-106815008D01*
X146659287Y-106612733D01*
X146487267Y-106440713D01*
X146284992Y-106305557D01*
X146060236Y-106212460D01*
X145821637Y-106165000D01*
X145578363Y-106165000D01*
X145339764Y-106212460D01*
X145115008Y-106305557D01*
X144912733Y-106440713D01*
X144740713Y-106612733D01*
X144650000Y-106748494D01*
X144559287Y-106612733D01*
X144387267Y-106440713D01*
X144184992Y-106305557D01*
X143960236Y-106212460D01*
X143721637Y-106165000D01*
X143478363Y-106165000D01*
X143239764Y-106212460D01*
X143015008Y-106305557D01*
X142812733Y-106440713D01*
X142640713Y-106612733D01*
X142505557Y-106815008D01*
X142412460Y-107039764D01*
X142365000Y-107278363D01*
X138660000Y-107278363D01*
X138660000Y-105642349D01*
X139187256Y-105642349D01*
X139301118Y-105922090D01*
X139616296Y-106077961D01*
X139955826Y-106169349D01*
X140306661Y-106192741D01*
X140655319Y-106147240D01*
X140988400Y-106034594D01*
X141198882Y-105922090D01*
X141312744Y-105642349D01*
X152687256Y-105642349D01*
X152801118Y-105922090D01*
X153116296Y-106077961D01*
X153455826Y-106169349D01*
X153806661Y-106192741D01*
X154155319Y-106147240D01*
X154488400Y-106034594D01*
X154698882Y-105922090D01*
X154812744Y-105642349D01*
X153750000Y-104579605D01*
X152687256Y-105642349D01*
X141312744Y-105642349D01*
X140250000Y-104579605D01*
X139187256Y-105642349D01*
X138660000Y-105642349D01*
X138660000Y-105221830D01*
X138727910Y-105348882D01*
X139007651Y-105462744D01*
X140070395Y-104400000D01*
X140429605Y-104400000D01*
X141492349Y-105462744D01*
X141772090Y-105348882D01*
X141927961Y-105033704D01*
X141979466Y-104842349D01*
X145937256Y-104842349D01*
X146051118Y-105122090D01*
X146366296Y-105277961D01*
X146705826Y-105369349D01*
X147056661Y-105392741D01*
X147405319Y-105347240D01*
X147738400Y-105234594D01*
X147948882Y-105122090D01*
X148062744Y-104842349D01*
X147000000Y-103779605D01*
X145937256Y-104842349D01*
X141979466Y-104842349D01*
X142019349Y-104694174D01*
X142042741Y-104343339D01*
X141997240Y-103994681D01*
X141884594Y-103661600D01*
X141881955Y-103656661D01*
X145207259Y-103656661D01*
X145252760Y-104005319D01*
X145365406Y-104338400D01*
X145477910Y-104548882D01*
X145757651Y-104662744D01*
X146820395Y-103600000D01*
X147179605Y-103600000D01*
X148242349Y-104662744D01*
X148522090Y-104548882D01*
X148567697Y-104456661D01*
X151957259Y-104456661D01*
X152002760Y-104805319D01*
X152115406Y-105138400D01*
X152227910Y-105348882D01*
X152507651Y-105462744D01*
X153570395Y-104400000D01*
X152507651Y-103337256D01*
X152227910Y-103451118D01*
X152072039Y-103766296D01*
X151980651Y-104105826D01*
X151957259Y-104456661D01*
X148567697Y-104456661D01*
X148677961Y-104233704D01*
X148769349Y-103894174D01*
X148792741Y-103543339D01*
X148747240Y-103194681D01*
X148734717Y-103157651D01*
X152687256Y-103157651D01*
X153750000Y-104220395D01*
X154812744Y-103157651D01*
X154698882Y-102877910D01*
X154383704Y-102722039D01*
X154044174Y-102630651D01*
X153693339Y-102607259D01*
X153344681Y-102652760D01*
X153011600Y-102765406D01*
X152801118Y-102877910D01*
X152687256Y-103157651D01*
X148734717Y-103157651D01*
X148634594Y-102861600D01*
X148522090Y-102651118D01*
X148242349Y-102537256D01*
X147179605Y-103600000D01*
X146820395Y-103600000D01*
X145757651Y-102537256D01*
X145477910Y-102651118D01*
X145322039Y-102966296D01*
X145230651Y-103305826D01*
X145207259Y-103656661D01*
X141881955Y-103656661D01*
X141772090Y-103451118D01*
X141492349Y-103337256D01*
X140429605Y-104400000D01*
X140070395Y-104400000D01*
X139007651Y-103337256D01*
X138727910Y-103451118D01*
X138660000Y-103588435D01*
X138660000Y-103157651D01*
X139187256Y-103157651D01*
X140250000Y-104220395D01*
X141312744Y-103157651D01*
X141198882Y-102877910D01*
X140883704Y-102722039D01*
X140544174Y-102630651D01*
X140193339Y-102607259D01*
X139844681Y-102652760D01*
X139511600Y-102765406D01*
X139301118Y-102877910D01*
X139187256Y-103157651D01*
X138660000Y-103157651D01*
X138660000Y-102357651D01*
X145937256Y-102357651D01*
X147000000Y-103420395D01*
X148062744Y-102357651D01*
X147948882Y-102077910D01*
X147633704Y-101922039D01*
X147294174Y-101830651D01*
X146943339Y-101807259D01*
X146594681Y-101852760D01*
X146261600Y-101965406D01*
X146051118Y-102077910D01*
X145937256Y-102357651D01*
X138660000Y-102357651D01*
X138660000Y-101660000D01*
X155340000Y-101660000D01*
X155340000Y-103578170D01*
M02*
