G04 #@! TF.GenerationSoftware,KiCad,Pcbnew,(5.1.0)-1*
G04 #@! TF.CreationDate,2019-10-02T17:07:43-04:00*
G04 #@! TF.ProjectId,MiniDin8Adapter,4d696e69-4469-46e3-9841-646170746572,rev?*
G04 #@! TF.SameCoordinates,Original*
G04 #@! TF.FileFunction,Copper,L2,Bot*
G04 #@! TF.FilePolarity,Positive*
%FSLAX46Y46*%
G04 Gerber Fmt 4.6, Leading zero omitted, Abs format (unit mm)*
G04 Created by KiCad (PCBNEW (5.1.0)-1) date 2019-10-02 17:07:43*
%MOMM*%
%LPD*%
G04 APERTURE LIST*
%ADD10C,2.300000*%
%ADD11C,1.200000*%
%ADD12R,1.650000X1.650000*%
%ADD13C,0.800000*%
%ADD14C,0.800000*%
%ADD15C,0.250000*%
%ADD16C,0.254000*%
G04 APERTURE END LIST*
D10*
X147000000Y-103600000D03*
X153750000Y-104400000D03*
X140250000Y-104400000D03*
D11*
X148300000Y-107400000D03*
X145700000Y-107400000D03*
X143600000Y-107400000D03*
X150400000Y-107400000D03*
X147900000Y-109900000D03*
X150400000Y-109900000D03*
X145700000Y-109900000D03*
X143600000Y-109900000D03*
D12*
X155850000Y-115400000D03*
X153310000Y-115400000D03*
X150770000Y-115400000D03*
X148230000Y-115400000D03*
X145690000Y-115400000D03*
X143150000Y-115400000D03*
X140610000Y-115400000D03*
X138070000Y-115400000D03*
D13*
X141100000Y-111600000D03*
X138950000Y-113200000D03*
D14*
X148230000Y-112430000D02*
X145700000Y-109900000D01*
X148230000Y-115400000D02*
X148230000Y-112430000D01*
D15*
X148300000Y-107400000D02*
X149350000Y-106350000D01*
X149350000Y-106350000D02*
X151750000Y-106350000D01*
X151750000Y-106350000D02*
X152750000Y-107350000D01*
X152750000Y-107350000D02*
X152750000Y-112500000D01*
X153310000Y-113060000D02*
X153310000Y-115400000D01*
X152750000Y-112500000D02*
X153310000Y-113060000D01*
X155850000Y-115400000D02*
X155850000Y-113400000D01*
X155850000Y-113400000D02*
X153450000Y-111000000D01*
X153450000Y-111000000D02*
X153450000Y-107150000D01*
X153450000Y-107150000D02*
X152050000Y-105750000D01*
X147350000Y-105750000D02*
X145700000Y-107400000D01*
X152050000Y-105750000D02*
X147350000Y-105750000D01*
X143600000Y-107400000D02*
X143600000Y-107950000D01*
X143600000Y-107950000D02*
X144600000Y-108950000D01*
X144600000Y-108950000D02*
X144600000Y-111550000D01*
X145690000Y-112640000D02*
X145690000Y-115400000D01*
X144600000Y-111550000D02*
X145690000Y-112640000D01*
X150770000Y-115400000D02*
X150770000Y-112880000D01*
X150770000Y-112880000D02*
X151900000Y-111750000D01*
X151900000Y-108900000D02*
X150400000Y-107400000D01*
X151900000Y-111750000D02*
X151900000Y-108900000D01*
X140610000Y-115400000D02*
X140610000Y-112090000D01*
X140610000Y-112090000D02*
X141100000Y-111600000D01*
X138070000Y-115400000D02*
X138070000Y-114080000D01*
X138070000Y-114080000D02*
X138950000Y-113200000D01*
X143150000Y-110350000D02*
X143600000Y-109900000D01*
X143150000Y-115400000D02*
X143150000Y-110350000D01*
D16*
G36*
X155340000Y-103578170D02*
G01*
X155272090Y-103451118D01*
X154992349Y-103337256D01*
X153929605Y-104400000D01*
X154992349Y-105462744D01*
X155272090Y-105348882D01*
X155340000Y-105211564D01*
X155340001Y-111815199D01*
X154210000Y-110685199D01*
X154210000Y-107187322D01*
X154213676Y-107150000D01*
X154210000Y-107112677D01*
X154210000Y-107112667D01*
X154199003Y-107001014D01*
X154155546Y-106857753D01*
X154130021Y-106809999D01*
X154084974Y-106725723D01*
X154013799Y-106638997D01*
X153990001Y-106609999D01*
X153961003Y-106586201D01*
X153550460Y-106175659D01*
X153806661Y-106192741D01*
X154155319Y-106147240D01*
X154488400Y-106034594D01*
X154698882Y-105922090D01*
X154812744Y-105642349D01*
X153750000Y-104579605D01*
X153735858Y-104593748D01*
X153556253Y-104414143D01*
X153570395Y-104400000D01*
X152507651Y-103337256D01*
X152227910Y-103451118D01*
X152072039Y-103766296D01*
X151980651Y-104105826D01*
X151957259Y-104456661D01*
X152002760Y-104805319D01*
X152064456Y-104987748D01*
X152050000Y-104986324D01*
X152012678Y-104990000D01*
X148002646Y-104990000D01*
X148062744Y-104842349D01*
X147000000Y-103779605D01*
X145937256Y-104842349D01*
X146051118Y-105122090D01*
X146366296Y-105277961D01*
X146666447Y-105358750D01*
X145853800Y-106171398D01*
X145821637Y-106165000D01*
X145578363Y-106165000D01*
X145339764Y-106212460D01*
X145115008Y-106305557D01*
X144912733Y-106440713D01*
X144740713Y-106612733D01*
X144650000Y-106748494D01*
X144559287Y-106612733D01*
X144387267Y-106440713D01*
X144184992Y-106305557D01*
X143960236Y-106212460D01*
X143721637Y-106165000D01*
X143478363Y-106165000D01*
X143239764Y-106212460D01*
X143015008Y-106305557D01*
X142812733Y-106440713D01*
X142640713Y-106612733D01*
X142505557Y-106815008D01*
X142412460Y-107039764D01*
X142365000Y-107278363D01*
X142365000Y-107521637D01*
X142412460Y-107760236D01*
X142505557Y-107984992D01*
X142640713Y-108187267D01*
X142812733Y-108359287D01*
X143015008Y-108494443D01*
X143108274Y-108533075D01*
X143279713Y-108704514D01*
X143239764Y-108712460D01*
X143015008Y-108805557D01*
X142812733Y-108940713D01*
X142640713Y-109112733D01*
X142505557Y-109315008D01*
X142412460Y-109539764D01*
X142365000Y-109778363D01*
X142365000Y-110021637D01*
X142400893Y-110202083D01*
X142386324Y-110350000D01*
X142390001Y-110387332D01*
X142390000Y-113873000D01*
X141370000Y-113873000D01*
X141370000Y-112601571D01*
X141401898Y-112595226D01*
X141590256Y-112517205D01*
X141759774Y-112403937D01*
X141903937Y-112259774D01*
X142017205Y-112090256D01*
X142095226Y-111901898D01*
X142135000Y-111701939D01*
X142135000Y-111498061D01*
X142095226Y-111298102D01*
X142017205Y-111109744D01*
X141903937Y-110940226D01*
X141759774Y-110796063D01*
X141590256Y-110682795D01*
X141401898Y-110604774D01*
X141201939Y-110565000D01*
X140998061Y-110565000D01*
X140798102Y-110604774D01*
X140609744Y-110682795D01*
X140440226Y-110796063D01*
X140296063Y-110940226D01*
X140182795Y-111109744D01*
X140104774Y-111298102D01*
X140065000Y-111498061D01*
X140065000Y-111556092D01*
X140046202Y-111578997D01*
X140046201Y-111578998D01*
X139975026Y-111665724D01*
X139904454Y-111797754D01*
X139860998Y-111941015D01*
X139846324Y-112090000D01*
X139850001Y-112127332D01*
X139850001Y-112683996D01*
X139753937Y-112540226D01*
X139609774Y-112396063D01*
X139440256Y-112282795D01*
X139251898Y-112204774D01*
X139051939Y-112165000D01*
X138848061Y-112165000D01*
X138648102Y-112204774D01*
X138624631Y-112214496D01*
X138650450Y-112129383D01*
X138663193Y-112000000D01*
X138660000Y-111967581D01*
X138660000Y-105642349D01*
X139187256Y-105642349D01*
X139301118Y-105922090D01*
X139616296Y-106077961D01*
X139955826Y-106169349D01*
X140306661Y-106192741D01*
X140655319Y-106147240D01*
X140988400Y-106034594D01*
X141198882Y-105922090D01*
X141312744Y-105642349D01*
X140250000Y-104579605D01*
X139187256Y-105642349D01*
X138660000Y-105642349D01*
X138660000Y-105221830D01*
X138727910Y-105348882D01*
X139007651Y-105462744D01*
X140070395Y-104400000D01*
X140429605Y-104400000D01*
X141492349Y-105462744D01*
X141772090Y-105348882D01*
X141927961Y-105033704D01*
X142019349Y-104694174D01*
X142042741Y-104343339D01*
X141997240Y-103994681D01*
X141884594Y-103661600D01*
X141881955Y-103656661D01*
X145207259Y-103656661D01*
X145252760Y-104005319D01*
X145365406Y-104338400D01*
X145477910Y-104548882D01*
X145757651Y-104662744D01*
X146820395Y-103600000D01*
X147179605Y-103600000D01*
X148242349Y-104662744D01*
X148522090Y-104548882D01*
X148677961Y-104233704D01*
X148769349Y-103894174D01*
X148792741Y-103543339D01*
X148747240Y-103194681D01*
X148734717Y-103157651D01*
X152687256Y-103157651D01*
X153750000Y-104220395D01*
X154812744Y-103157651D01*
X154698882Y-102877910D01*
X154383704Y-102722039D01*
X154044174Y-102630651D01*
X153693339Y-102607259D01*
X153344681Y-102652760D01*
X153011600Y-102765406D01*
X152801118Y-102877910D01*
X152687256Y-103157651D01*
X148734717Y-103157651D01*
X148634594Y-102861600D01*
X148522090Y-102651118D01*
X148242349Y-102537256D01*
X147179605Y-103600000D01*
X146820395Y-103600000D01*
X145757651Y-102537256D01*
X145477910Y-102651118D01*
X145322039Y-102966296D01*
X145230651Y-103305826D01*
X145207259Y-103656661D01*
X141881955Y-103656661D01*
X141772090Y-103451118D01*
X141492349Y-103337256D01*
X140429605Y-104400000D01*
X140070395Y-104400000D01*
X139007651Y-103337256D01*
X138727910Y-103451118D01*
X138660000Y-103588435D01*
X138660000Y-103157651D01*
X139187256Y-103157651D01*
X140250000Y-104220395D01*
X141312744Y-103157651D01*
X141198882Y-102877910D01*
X140883704Y-102722039D01*
X140544174Y-102630651D01*
X140193339Y-102607259D01*
X139844681Y-102652760D01*
X139511600Y-102765406D01*
X139301118Y-102877910D01*
X139187256Y-103157651D01*
X138660000Y-103157651D01*
X138660000Y-102357651D01*
X145937256Y-102357651D01*
X147000000Y-103420395D01*
X148062744Y-102357651D01*
X147948882Y-102077910D01*
X147633704Y-101922039D01*
X147294174Y-101830651D01*
X146943339Y-101807259D01*
X146594681Y-101852760D01*
X146261600Y-101965406D01*
X146051118Y-102077910D01*
X145937256Y-102357651D01*
X138660000Y-102357651D01*
X138660000Y-101660000D01*
X155340000Y-101660000D01*
X155340000Y-103578170D01*
X155340000Y-103578170D01*
G37*
X155340000Y-103578170D02*
X155272090Y-103451118D01*
X154992349Y-103337256D01*
X153929605Y-104400000D01*
X154992349Y-105462744D01*
X155272090Y-105348882D01*
X155340000Y-105211564D01*
X155340001Y-111815199D01*
X154210000Y-110685199D01*
X154210000Y-107187322D01*
X154213676Y-107150000D01*
X154210000Y-107112677D01*
X154210000Y-107112667D01*
X154199003Y-107001014D01*
X154155546Y-106857753D01*
X154130021Y-106809999D01*
X154084974Y-106725723D01*
X154013799Y-106638997D01*
X153990001Y-106609999D01*
X153961003Y-106586201D01*
X153550460Y-106175659D01*
X153806661Y-106192741D01*
X154155319Y-106147240D01*
X154488400Y-106034594D01*
X154698882Y-105922090D01*
X154812744Y-105642349D01*
X153750000Y-104579605D01*
X153735858Y-104593748D01*
X153556253Y-104414143D01*
X153570395Y-104400000D01*
X152507651Y-103337256D01*
X152227910Y-103451118D01*
X152072039Y-103766296D01*
X151980651Y-104105826D01*
X151957259Y-104456661D01*
X152002760Y-104805319D01*
X152064456Y-104987748D01*
X152050000Y-104986324D01*
X152012678Y-104990000D01*
X148002646Y-104990000D01*
X148062744Y-104842349D01*
X147000000Y-103779605D01*
X145937256Y-104842349D01*
X146051118Y-105122090D01*
X146366296Y-105277961D01*
X146666447Y-105358750D01*
X145853800Y-106171398D01*
X145821637Y-106165000D01*
X145578363Y-106165000D01*
X145339764Y-106212460D01*
X145115008Y-106305557D01*
X144912733Y-106440713D01*
X144740713Y-106612733D01*
X144650000Y-106748494D01*
X144559287Y-106612733D01*
X144387267Y-106440713D01*
X144184992Y-106305557D01*
X143960236Y-106212460D01*
X143721637Y-106165000D01*
X143478363Y-106165000D01*
X143239764Y-106212460D01*
X143015008Y-106305557D01*
X142812733Y-106440713D01*
X142640713Y-106612733D01*
X142505557Y-106815008D01*
X142412460Y-107039764D01*
X142365000Y-107278363D01*
X142365000Y-107521637D01*
X142412460Y-107760236D01*
X142505557Y-107984992D01*
X142640713Y-108187267D01*
X142812733Y-108359287D01*
X143015008Y-108494443D01*
X143108274Y-108533075D01*
X143279713Y-108704514D01*
X143239764Y-108712460D01*
X143015008Y-108805557D01*
X142812733Y-108940713D01*
X142640713Y-109112733D01*
X142505557Y-109315008D01*
X142412460Y-109539764D01*
X142365000Y-109778363D01*
X142365000Y-110021637D01*
X142400893Y-110202083D01*
X142386324Y-110350000D01*
X142390001Y-110387332D01*
X142390000Y-113873000D01*
X141370000Y-113873000D01*
X141370000Y-112601571D01*
X141401898Y-112595226D01*
X141590256Y-112517205D01*
X141759774Y-112403937D01*
X141903937Y-112259774D01*
X142017205Y-112090256D01*
X142095226Y-111901898D01*
X142135000Y-111701939D01*
X142135000Y-111498061D01*
X142095226Y-111298102D01*
X142017205Y-111109744D01*
X141903937Y-110940226D01*
X141759774Y-110796063D01*
X141590256Y-110682795D01*
X141401898Y-110604774D01*
X141201939Y-110565000D01*
X140998061Y-110565000D01*
X140798102Y-110604774D01*
X140609744Y-110682795D01*
X140440226Y-110796063D01*
X140296063Y-110940226D01*
X140182795Y-111109744D01*
X140104774Y-111298102D01*
X140065000Y-111498061D01*
X140065000Y-111556092D01*
X140046202Y-111578997D01*
X140046201Y-111578998D01*
X139975026Y-111665724D01*
X139904454Y-111797754D01*
X139860998Y-111941015D01*
X139846324Y-112090000D01*
X139850001Y-112127332D01*
X139850001Y-112683996D01*
X139753937Y-112540226D01*
X139609774Y-112396063D01*
X139440256Y-112282795D01*
X139251898Y-112204774D01*
X139051939Y-112165000D01*
X138848061Y-112165000D01*
X138648102Y-112204774D01*
X138624631Y-112214496D01*
X138650450Y-112129383D01*
X138663193Y-112000000D01*
X138660000Y-111967581D01*
X138660000Y-105642349D01*
X139187256Y-105642349D01*
X139301118Y-105922090D01*
X139616296Y-106077961D01*
X139955826Y-106169349D01*
X140306661Y-106192741D01*
X140655319Y-106147240D01*
X140988400Y-106034594D01*
X141198882Y-105922090D01*
X141312744Y-105642349D01*
X140250000Y-104579605D01*
X139187256Y-105642349D01*
X138660000Y-105642349D01*
X138660000Y-105221830D01*
X138727910Y-105348882D01*
X139007651Y-105462744D01*
X140070395Y-104400000D01*
X140429605Y-104400000D01*
X141492349Y-105462744D01*
X141772090Y-105348882D01*
X141927961Y-105033704D01*
X142019349Y-104694174D01*
X142042741Y-104343339D01*
X141997240Y-103994681D01*
X141884594Y-103661600D01*
X141881955Y-103656661D01*
X145207259Y-103656661D01*
X145252760Y-104005319D01*
X145365406Y-104338400D01*
X145477910Y-104548882D01*
X145757651Y-104662744D01*
X146820395Y-103600000D01*
X147179605Y-103600000D01*
X148242349Y-104662744D01*
X148522090Y-104548882D01*
X148677961Y-104233704D01*
X148769349Y-103894174D01*
X148792741Y-103543339D01*
X148747240Y-103194681D01*
X148734717Y-103157651D01*
X152687256Y-103157651D01*
X153750000Y-104220395D01*
X154812744Y-103157651D01*
X154698882Y-102877910D01*
X154383704Y-102722039D01*
X154044174Y-102630651D01*
X153693339Y-102607259D01*
X153344681Y-102652760D01*
X153011600Y-102765406D01*
X152801118Y-102877910D01*
X152687256Y-103157651D01*
X148734717Y-103157651D01*
X148634594Y-102861600D01*
X148522090Y-102651118D01*
X148242349Y-102537256D01*
X147179605Y-103600000D01*
X146820395Y-103600000D01*
X145757651Y-102537256D01*
X145477910Y-102651118D01*
X145322039Y-102966296D01*
X145230651Y-103305826D01*
X145207259Y-103656661D01*
X141881955Y-103656661D01*
X141772090Y-103451118D01*
X141492349Y-103337256D01*
X140429605Y-104400000D01*
X140070395Y-104400000D01*
X139007651Y-103337256D01*
X138727910Y-103451118D01*
X138660000Y-103588435D01*
X138660000Y-103157651D01*
X139187256Y-103157651D01*
X140250000Y-104220395D01*
X141312744Y-103157651D01*
X141198882Y-102877910D01*
X140883704Y-102722039D01*
X140544174Y-102630651D01*
X140193339Y-102607259D01*
X139844681Y-102652760D01*
X139511600Y-102765406D01*
X139301118Y-102877910D01*
X139187256Y-103157651D01*
X138660000Y-103157651D01*
X138660000Y-102357651D01*
X145937256Y-102357651D01*
X147000000Y-103420395D01*
X148062744Y-102357651D01*
X147948882Y-102077910D01*
X147633704Y-101922039D01*
X147294174Y-101830651D01*
X146943339Y-101807259D01*
X146594681Y-101852760D01*
X146261600Y-101965406D01*
X146051118Y-102077910D01*
X145937256Y-102357651D01*
X138660000Y-102357651D01*
X138660000Y-101660000D01*
X155340000Y-101660000D01*
X155340000Y-103578170D01*
G36*
X147065000Y-107278363D02*
G01*
X147065000Y-107521637D01*
X147112460Y-107760236D01*
X147205557Y-107984992D01*
X147340713Y-108187267D01*
X147512733Y-108359287D01*
X147715008Y-108494443D01*
X147939764Y-108587540D01*
X148178363Y-108635000D01*
X148421637Y-108635000D01*
X148660236Y-108587540D01*
X148884992Y-108494443D01*
X149087267Y-108359287D01*
X149259287Y-108187267D01*
X149350000Y-108051506D01*
X149440713Y-108187267D01*
X149612733Y-108359287D01*
X149815008Y-108494443D01*
X150039764Y-108587540D01*
X150278363Y-108635000D01*
X150521637Y-108635000D01*
X150553801Y-108628602D01*
X150607222Y-108682024D01*
X150521637Y-108665000D01*
X150278363Y-108665000D01*
X150039764Y-108712460D01*
X149815008Y-108805557D01*
X149612733Y-108940713D01*
X149440713Y-109112733D01*
X149305557Y-109315008D01*
X149212460Y-109539764D01*
X149165000Y-109778363D01*
X149165000Y-110021637D01*
X149212460Y-110260236D01*
X149305557Y-110484992D01*
X149440713Y-110687267D01*
X149612733Y-110859287D01*
X149815008Y-110994443D01*
X150039764Y-111087540D01*
X150278363Y-111135000D01*
X150521637Y-111135000D01*
X150760236Y-111087540D01*
X150984992Y-110994443D01*
X151140000Y-110890870D01*
X151140000Y-111435198D01*
X150258998Y-112316201D01*
X150230000Y-112339999D01*
X150206202Y-112368997D01*
X150206201Y-112368998D01*
X150135026Y-112455724D01*
X150064454Y-112587754D01*
X150042540Y-112659999D01*
X150020998Y-112731014D01*
X150017379Y-112767754D01*
X150006324Y-112880000D01*
X150010001Y-112917332D01*
X150010001Y-113873000D01*
X146450000Y-113873000D01*
X146450000Y-112677325D01*
X146453676Y-112640000D01*
X146450000Y-112602675D01*
X146450000Y-112602667D01*
X146439003Y-112491014D01*
X146395546Y-112347753D01*
X146324974Y-112215724D01*
X146230001Y-112099999D01*
X146201004Y-112076202D01*
X145360000Y-111235199D01*
X145360000Y-111088716D01*
X145535313Y-111130000D01*
X145778438Y-111138495D01*
X146018549Y-111099395D01*
X146246418Y-111014202D01*
X146322852Y-110973348D01*
X146370159Y-110749764D01*
X145700000Y-110079605D01*
X145685858Y-110093748D01*
X145506253Y-109914143D01*
X145520395Y-109900000D01*
X145879605Y-109900000D01*
X146549764Y-110570159D01*
X146773348Y-110522852D01*
X146798437Y-110467803D01*
X146805557Y-110484992D01*
X146940713Y-110687267D01*
X147112733Y-110859287D01*
X147315008Y-110994443D01*
X147539764Y-111087540D01*
X147778363Y-111135000D01*
X148021637Y-111135000D01*
X148260236Y-111087540D01*
X148484992Y-110994443D01*
X148687267Y-110859287D01*
X148859287Y-110687267D01*
X148994443Y-110484992D01*
X149087540Y-110260236D01*
X149135000Y-110021637D01*
X149135000Y-109778363D01*
X149087540Y-109539764D01*
X148994443Y-109315008D01*
X148859287Y-109112733D01*
X148687267Y-108940713D01*
X148484992Y-108805557D01*
X148260236Y-108712460D01*
X148021637Y-108665000D01*
X147778363Y-108665000D01*
X147539764Y-108712460D01*
X147315008Y-108805557D01*
X147112733Y-108940713D01*
X146940713Y-109112733D01*
X146805557Y-109315008D01*
X146800330Y-109327628D01*
X146773348Y-109277148D01*
X146549764Y-109229841D01*
X145879605Y-109900000D01*
X145520395Y-109900000D01*
X145506253Y-109885858D01*
X145685858Y-109706253D01*
X145700000Y-109720395D01*
X146370159Y-109050236D01*
X146322852Y-108826652D01*
X146101484Y-108725763D01*
X145864687Y-108670000D01*
X145621562Y-108661505D01*
X145381451Y-108700605D01*
X145324952Y-108721728D01*
X145305546Y-108657753D01*
X145247613Y-108549370D01*
X145339764Y-108587540D01*
X145578363Y-108635000D01*
X145821637Y-108635000D01*
X146060236Y-108587540D01*
X146284992Y-108494443D01*
X146487267Y-108359287D01*
X146659287Y-108187267D01*
X146794443Y-107984992D01*
X146887540Y-107760236D01*
X146935000Y-107521637D01*
X146935000Y-107278363D01*
X146928602Y-107246200D01*
X147106854Y-107067948D01*
X147065000Y-107278363D01*
X147065000Y-107278363D01*
G37*
X147065000Y-107278363D02*
X147065000Y-107521637D01*
X147112460Y-107760236D01*
X147205557Y-107984992D01*
X147340713Y-108187267D01*
X147512733Y-108359287D01*
X147715008Y-108494443D01*
X147939764Y-108587540D01*
X148178363Y-108635000D01*
X148421637Y-108635000D01*
X148660236Y-108587540D01*
X148884992Y-108494443D01*
X149087267Y-108359287D01*
X149259287Y-108187267D01*
X149350000Y-108051506D01*
X149440713Y-108187267D01*
X149612733Y-108359287D01*
X149815008Y-108494443D01*
X150039764Y-108587540D01*
X150278363Y-108635000D01*
X150521637Y-108635000D01*
X150553801Y-108628602D01*
X150607222Y-108682024D01*
X150521637Y-108665000D01*
X150278363Y-108665000D01*
X150039764Y-108712460D01*
X149815008Y-108805557D01*
X149612733Y-108940713D01*
X149440713Y-109112733D01*
X149305557Y-109315008D01*
X149212460Y-109539764D01*
X149165000Y-109778363D01*
X149165000Y-110021637D01*
X149212460Y-110260236D01*
X149305557Y-110484992D01*
X149440713Y-110687267D01*
X149612733Y-110859287D01*
X149815008Y-110994443D01*
X150039764Y-111087540D01*
X150278363Y-111135000D01*
X150521637Y-111135000D01*
X150760236Y-111087540D01*
X150984992Y-110994443D01*
X151140000Y-110890870D01*
X151140000Y-111435198D01*
X150258998Y-112316201D01*
X150230000Y-112339999D01*
X150206202Y-112368997D01*
X150206201Y-112368998D01*
X150135026Y-112455724D01*
X150064454Y-112587754D01*
X150042540Y-112659999D01*
X150020998Y-112731014D01*
X150017379Y-112767754D01*
X150006324Y-112880000D01*
X150010001Y-112917332D01*
X150010001Y-113873000D01*
X146450000Y-113873000D01*
X146450000Y-112677325D01*
X146453676Y-112640000D01*
X146450000Y-112602675D01*
X146450000Y-112602667D01*
X146439003Y-112491014D01*
X146395546Y-112347753D01*
X146324974Y-112215724D01*
X146230001Y-112099999D01*
X146201004Y-112076202D01*
X145360000Y-111235199D01*
X145360000Y-111088716D01*
X145535313Y-111130000D01*
X145778438Y-111138495D01*
X146018549Y-111099395D01*
X146246418Y-111014202D01*
X146322852Y-110973348D01*
X146370159Y-110749764D01*
X145700000Y-110079605D01*
X145685858Y-110093748D01*
X145506253Y-109914143D01*
X145520395Y-109900000D01*
X145879605Y-109900000D01*
X146549764Y-110570159D01*
X146773348Y-110522852D01*
X146798437Y-110467803D01*
X146805557Y-110484992D01*
X146940713Y-110687267D01*
X147112733Y-110859287D01*
X147315008Y-110994443D01*
X147539764Y-111087540D01*
X147778363Y-111135000D01*
X148021637Y-111135000D01*
X148260236Y-111087540D01*
X148484992Y-110994443D01*
X148687267Y-110859287D01*
X148859287Y-110687267D01*
X148994443Y-110484992D01*
X149087540Y-110260236D01*
X149135000Y-110021637D01*
X149135000Y-109778363D01*
X149087540Y-109539764D01*
X148994443Y-109315008D01*
X148859287Y-109112733D01*
X148687267Y-108940713D01*
X148484992Y-108805557D01*
X148260236Y-108712460D01*
X148021637Y-108665000D01*
X147778363Y-108665000D01*
X147539764Y-108712460D01*
X147315008Y-108805557D01*
X147112733Y-108940713D01*
X146940713Y-109112733D01*
X146805557Y-109315008D01*
X146800330Y-109327628D01*
X146773348Y-109277148D01*
X146549764Y-109229841D01*
X145879605Y-109900000D01*
X145520395Y-109900000D01*
X145506253Y-109885858D01*
X145685858Y-109706253D01*
X145700000Y-109720395D01*
X146370159Y-109050236D01*
X146322852Y-108826652D01*
X146101484Y-108725763D01*
X145864687Y-108670000D01*
X145621562Y-108661505D01*
X145381451Y-108700605D01*
X145324952Y-108721728D01*
X145305546Y-108657753D01*
X145247613Y-108549370D01*
X145339764Y-108587540D01*
X145578363Y-108635000D01*
X145821637Y-108635000D01*
X146060236Y-108587540D01*
X146284992Y-108494443D01*
X146487267Y-108359287D01*
X146659287Y-108187267D01*
X146794443Y-107984992D01*
X146887540Y-107760236D01*
X146935000Y-107521637D01*
X146935000Y-107278363D01*
X146928602Y-107246200D01*
X147106854Y-107067948D01*
X147065000Y-107278363D01*
M02*
