M48
INCH,TZ
T1C0.0079
T2C0.0098
%
G90
G05
T1
X48031Y-53858
X48110Y-49055
X49094Y-49055
X50079Y-49055
X51260Y-49055
X52165Y-48937
X53150Y-48937
X53150Y-53858
X53740Y-53858
X54213Y-49173
X45570Y-47036
X45570Y-47233
X45570Y-47430
X46850Y-48622
X47047Y-48622
X47244Y-48622
X47441Y-48622
X47638Y-48622
X47835Y-48622
X48031Y-48622
X48228Y-48622
X48425Y-48622
X48622Y-48622
X48819Y-48622
X49016Y-48622
X49213Y-48622
X49409Y-48622
X49606Y-48622
X49803Y-48622
X50000Y-48622
X50197Y-48622
X50394Y-48622
X50591Y-48622
X50787Y-48622
X50984Y-48622
X51181Y-48622
X51378Y-48622
X51575Y-48622
X51772Y-48622
X51969Y-48622
X52165Y-48622
X52362Y-48622
X52559Y-48622
X52756Y-48622
X52953Y-48622
X53150Y-48622
X53346Y-48622
X53543Y-48622
X53740Y-48622
X53937Y-48622
X54134Y-48622
X54331Y-48622
X54528Y-48622
X54724Y-48622
X54921Y-48622
X55118Y-48622
T2
X45767Y-47036
X45767Y-47233
X45767Y-47430
X46850Y-48425
X47047Y-48425
X47244Y-48425
X47441Y-48425
X47638Y-48425
X47835Y-48425
X48031Y-48425
X48228Y-48425
X48425Y-48425
X48622Y-48425
X48819Y-48425
X49016Y-48425
X49213Y-48425
X49409Y-48425
X49606Y-48425
X49803Y-48425
X50000Y-48425
X50197Y-48425
X50394Y-48425
X50591Y-48425
X50787Y-48425
X50984Y-48425
X51181Y-48425
X51378Y-48425
X51575Y-48425
X51772Y-48425
X51969Y-48425
X52165Y-48425
X52362Y-48425
X52559Y-48425
X52756Y-48425
X52953Y-48425
X53150Y-48425
X53346Y-48425
X53543Y-48425
X53740Y-48425
X53937Y-48425
X54134Y-48425
X54331Y-48425
X54528Y-48425
X54724Y-48425
X54921Y-48425
X55118Y-48425
T0
M30
