G04 #@! TF.GenerationSoftware,KiCad,Pcbnew,(5.1.0)-1*
G04 #@! TF.CreationDate,2020-06-02T11:48:08-04:00*
G04 #@! TF.ProjectId,NewBaseVP,4e657742-6173-4655-9650-2e6b69636164,rev?*
G04 #@! TF.SameCoordinates,Original*
G04 #@! TF.FileFunction,Soldermask,Bot*
G04 #@! TF.FilePolarity,Negative*
%FSLAX46Y46*%
G04 Gerber Fmt 4.6, Leading zero omitted, Abs format (unit mm)*
G04 Created by KiCad (PCBNEW (5.1.0)-1) date 2020-06-02 11:48:08*
%MOMM*%
%LPD*%
G04 APERTURE LIST*
%ADD10C,0.100000*%
G04 APERTURE END LIST*
D10*
G36*
X119044084Y-122778341D02*
G01*
X119044086Y-122778341D01*
X119044098Y-122778344D01*
X119065922Y-122782685D01*
X119086485Y-122791202D01*
X119086489Y-122791204D01*
X119107051Y-122799721D01*
X119144067Y-122824454D01*
X119161623Y-122842010D01*
X119163661Y-122843683D01*
X119169030Y-122848541D01*
X119169041Y-122848550D01*
X119169262Y-122848279D01*
X119180554Y-122857546D01*
X119202165Y-122869097D01*
X119225614Y-122876210D01*
X119250000Y-122878612D01*
X119274386Y-122876210D01*
X119297835Y-122869097D01*
X119319446Y-122857546D01*
X119330738Y-122848279D01*
X119330959Y-122848550D01*
X119330970Y-122848541D01*
X119336339Y-122843683D01*
X119338377Y-122842010D01*
X119355933Y-122824454D01*
X119392949Y-122799721D01*
X119413511Y-122791204D01*
X119413515Y-122791202D01*
X119434078Y-122782685D01*
X119455902Y-122778344D01*
X119455914Y-122778341D01*
X119455916Y-122778341D01*
X119477740Y-122774000D01*
X119522260Y-122774000D01*
X119544084Y-122778341D01*
X119544086Y-122778341D01*
X119544098Y-122778344D01*
X119565922Y-122782685D01*
X119586485Y-122791202D01*
X119586489Y-122791204D01*
X119607051Y-122799721D01*
X119644067Y-122824454D01*
X119661623Y-122842010D01*
X119663661Y-122843683D01*
X119669030Y-122848541D01*
X119669041Y-122848550D01*
X119669262Y-122848279D01*
X119680554Y-122857546D01*
X119702165Y-122869097D01*
X119725614Y-122876210D01*
X119750000Y-122878612D01*
X119774386Y-122876210D01*
X119797835Y-122869097D01*
X119819446Y-122857546D01*
X119830738Y-122848279D01*
X119830959Y-122848550D01*
X119830970Y-122848541D01*
X119836339Y-122843683D01*
X119838377Y-122842010D01*
X119855933Y-122824454D01*
X119892949Y-122799721D01*
X119913511Y-122791204D01*
X119913515Y-122791202D01*
X119934078Y-122782685D01*
X119955902Y-122778344D01*
X119955914Y-122778341D01*
X119955916Y-122778341D01*
X119977740Y-122774000D01*
X120022260Y-122774000D01*
X120044084Y-122778341D01*
X120044086Y-122778341D01*
X120044098Y-122778344D01*
X120065922Y-122782685D01*
X120086485Y-122791202D01*
X120086489Y-122791204D01*
X120107051Y-122799721D01*
X120144067Y-122824454D01*
X120161623Y-122842010D01*
X120163661Y-122843683D01*
X120169030Y-122848541D01*
X120169041Y-122848550D01*
X120169262Y-122848279D01*
X120180554Y-122857546D01*
X120202165Y-122869097D01*
X120225614Y-122876210D01*
X120250000Y-122878612D01*
X120274386Y-122876210D01*
X120297835Y-122869097D01*
X120319446Y-122857546D01*
X120330738Y-122848279D01*
X120330959Y-122848550D01*
X120330970Y-122848541D01*
X120336339Y-122843683D01*
X120338377Y-122842010D01*
X120355933Y-122824454D01*
X120392949Y-122799721D01*
X120413511Y-122791204D01*
X120413515Y-122791202D01*
X120434078Y-122782685D01*
X120455902Y-122778344D01*
X120455914Y-122778341D01*
X120455916Y-122778341D01*
X120477740Y-122774000D01*
X120522260Y-122774000D01*
X120544084Y-122778341D01*
X120544086Y-122778341D01*
X120544098Y-122778344D01*
X120565922Y-122782685D01*
X120586485Y-122791202D01*
X120586489Y-122791204D01*
X120607051Y-122799721D01*
X120644067Y-122824454D01*
X120661623Y-122842010D01*
X120663661Y-122843683D01*
X120669030Y-122848541D01*
X120669041Y-122848550D01*
X120669262Y-122848279D01*
X120680554Y-122857546D01*
X120702165Y-122869097D01*
X120725614Y-122876210D01*
X120750000Y-122878612D01*
X120774386Y-122876210D01*
X120797835Y-122869097D01*
X120819446Y-122857546D01*
X120830738Y-122848279D01*
X120830959Y-122848550D01*
X120830970Y-122848541D01*
X120836339Y-122843683D01*
X120838377Y-122842010D01*
X120855933Y-122824454D01*
X120892949Y-122799721D01*
X120913511Y-122791204D01*
X120913515Y-122791202D01*
X120934078Y-122782685D01*
X120955902Y-122778344D01*
X120955914Y-122778341D01*
X120955916Y-122778341D01*
X120977740Y-122774000D01*
X121022260Y-122774000D01*
X121044084Y-122778341D01*
X121044086Y-122778341D01*
X121044098Y-122778344D01*
X121065922Y-122782685D01*
X121086485Y-122791202D01*
X121086489Y-122791204D01*
X121107051Y-122799721D01*
X121144067Y-122824454D01*
X121161623Y-122842010D01*
X121163661Y-122843683D01*
X121169030Y-122848541D01*
X121169041Y-122848550D01*
X121169262Y-122848279D01*
X121180554Y-122857546D01*
X121202165Y-122869097D01*
X121225614Y-122876210D01*
X121250000Y-122878612D01*
X121274386Y-122876210D01*
X121297835Y-122869097D01*
X121319446Y-122857546D01*
X121330738Y-122848279D01*
X121330959Y-122848550D01*
X121330970Y-122848541D01*
X121336339Y-122843683D01*
X121338377Y-122842010D01*
X121355933Y-122824454D01*
X121392949Y-122799721D01*
X121413511Y-122791204D01*
X121413515Y-122791202D01*
X121434078Y-122782685D01*
X121455902Y-122778344D01*
X121455914Y-122778341D01*
X121455916Y-122778341D01*
X121477740Y-122774000D01*
X121522260Y-122774000D01*
X121544084Y-122778341D01*
X121544086Y-122778341D01*
X121544098Y-122778344D01*
X121565922Y-122782685D01*
X121586485Y-122791202D01*
X121586489Y-122791204D01*
X121607051Y-122799721D01*
X121644067Y-122824454D01*
X121661623Y-122842010D01*
X121663661Y-122843683D01*
X121669030Y-122848541D01*
X121669041Y-122848550D01*
X121669262Y-122848279D01*
X121680554Y-122857546D01*
X121702165Y-122869097D01*
X121725614Y-122876210D01*
X121750000Y-122878612D01*
X121774386Y-122876210D01*
X121797835Y-122869097D01*
X121819446Y-122857546D01*
X121830738Y-122848279D01*
X121830959Y-122848550D01*
X121830970Y-122848541D01*
X121836339Y-122843683D01*
X121838377Y-122842010D01*
X121855933Y-122824454D01*
X121892949Y-122799721D01*
X121913511Y-122791204D01*
X121913515Y-122791202D01*
X121934078Y-122782685D01*
X121955902Y-122778344D01*
X121955914Y-122778341D01*
X121955916Y-122778341D01*
X121977740Y-122774000D01*
X122022260Y-122774000D01*
X122044084Y-122778341D01*
X122044086Y-122778341D01*
X122044098Y-122778344D01*
X122065922Y-122782685D01*
X122086485Y-122791202D01*
X122086489Y-122791204D01*
X122107051Y-122799721D01*
X122144067Y-122824454D01*
X122161623Y-122842010D01*
X122163661Y-122843683D01*
X122169030Y-122848541D01*
X122169041Y-122848550D01*
X122169262Y-122848279D01*
X122180554Y-122857546D01*
X122202165Y-122869097D01*
X122225614Y-122876210D01*
X122250000Y-122878612D01*
X122274386Y-122876210D01*
X122297835Y-122869097D01*
X122319446Y-122857546D01*
X122330738Y-122848279D01*
X122330959Y-122848550D01*
X122330970Y-122848541D01*
X122336339Y-122843683D01*
X122338377Y-122842010D01*
X122355933Y-122824454D01*
X122392949Y-122799721D01*
X122413511Y-122791204D01*
X122413515Y-122791202D01*
X122434078Y-122782685D01*
X122455902Y-122778344D01*
X122455914Y-122778341D01*
X122455916Y-122778341D01*
X122477740Y-122774000D01*
X122522260Y-122774000D01*
X122544084Y-122778341D01*
X122544086Y-122778341D01*
X122544098Y-122778344D01*
X122565922Y-122782685D01*
X122586485Y-122791202D01*
X122586489Y-122791204D01*
X122607051Y-122799721D01*
X122644067Y-122824454D01*
X122661623Y-122842010D01*
X122663661Y-122843683D01*
X122669030Y-122848541D01*
X122669041Y-122848550D01*
X122669262Y-122848279D01*
X122680554Y-122857546D01*
X122702165Y-122869097D01*
X122725614Y-122876210D01*
X122750000Y-122878612D01*
X122774386Y-122876210D01*
X122797835Y-122869097D01*
X122819446Y-122857546D01*
X122830738Y-122848279D01*
X122830959Y-122848550D01*
X122830970Y-122848541D01*
X122836339Y-122843683D01*
X122838377Y-122842010D01*
X122855933Y-122824454D01*
X122892949Y-122799721D01*
X122913511Y-122791204D01*
X122913515Y-122791202D01*
X122934078Y-122782685D01*
X122955902Y-122778344D01*
X122955914Y-122778341D01*
X122955916Y-122778341D01*
X122977740Y-122774000D01*
X123022260Y-122774000D01*
X123044084Y-122778341D01*
X123044086Y-122778341D01*
X123044098Y-122778344D01*
X123065922Y-122782685D01*
X123086485Y-122791202D01*
X123086489Y-122791204D01*
X123107051Y-122799721D01*
X123144067Y-122824454D01*
X123161623Y-122842010D01*
X123163661Y-122843683D01*
X123169030Y-122848541D01*
X123169041Y-122848550D01*
X123169262Y-122848279D01*
X123180554Y-122857546D01*
X123202165Y-122869097D01*
X123225614Y-122876210D01*
X123250000Y-122878612D01*
X123274386Y-122876210D01*
X123297835Y-122869097D01*
X123319446Y-122857546D01*
X123330738Y-122848279D01*
X123330959Y-122848550D01*
X123330970Y-122848541D01*
X123336339Y-122843683D01*
X123338377Y-122842010D01*
X123355933Y-122824454D01*
X123392949Y-122799721D01*
X123413511Y-122791204D01*
X123413515Y-122791202D01*
X123434078Y-122782685D01*
X123455902Y-122778344D01*
X123455914Y-122778341D01*
X123455916Y-122778341D01*
X123477740Y-122774000D01*
X123522260Y-122774000D01*
X123544084Y-122778341D01*
X123544086Y-122778341D01*
X123544098Y-122778344D01*
X123565922Y-122782685D01*
X123586485Y-122791202D01*
X123586489Y-122791204D01*
X123607051Y-122799721D01*
X123644067Y-122824454D01*
X123661623Y-122842010D01*
X123663661Y-122843683D01*
X123669030Y-122848541D01*
X123669041Y-122848550D01*
X123669262Y-122848279D01*
X123680554Y-122857546D01*
X123702165Y-122869097D01*
X123725614Y-122876210D01*
X123750000Y-122878612D01*
X123774386Y-122876210D01*
X123797835Y-122869097D01*
X123819446Y-122857546D01*
X123830738Y-122848279D01*
X123830959Y-122848550D01*
X123830970Y-122848541D01*
X123836339Y-122843683D01*
X123838377Y-122842010D01*
X123855933Y-122824454D01*
X123892949Y-122799721D01*
X123913511Y-122791204D01*
X123913515Y-122791202D01*
X123934078Y-122782685D01*
X123955902Y-122778344D01*
X123955914Y-122778341D01*
X123955916Y-122778341D01*
X123977740Y-122774000D01*
X124022260Y-122774000D01*
X124044084Y-122778341D01*
X124044086Y-122778341D01*
X124044098Y-122778344D01*
X124065922Y-122782685D01*
X124086485Y-122791202D01*
X124086489Y-122791204D01*
X124107051Y-122799721D01*
X124144067Y-122824454D01*
X124161623Y-122842010D01*
X124163661Y-122843683D01*
X124169030Y-122848541D01*
X124169041Y-122848550D01*
X124169262Y-122848279D01*
X124180554Y-122857546D01*
X124202165Y-122869097D01*
X124225614Y-122876210D01*
X124250000Y-122878612D01*
X124274386Y-122876210D01*
X124297835Y-122869097D01*
X124319446Y-122857546D01*
X124330738Y-122848279D01*
X124330959Y-122848550D01*
X124330970Y-122848541D01*
X124336339Y-122843683D01*
X124338377Y-122842010D01*
X124355933Y-122824454D01*
X124392949Y-122799721D01*
X124413511Y-122791204D01*
X124413515Y-122791202D01*
X124434078Y-122782685D01*
X124455902Y-122778344D01*
X124455914Y-122778341D01*
X124455916Y-122778341D01*
X124477740Y-122774000D01*
X124522260Y-122774000D01*
X124544084Y-122778341D01*
X124544086Y-122778341D01*
X124544098Y-122778344D01*
X124565922Y-122782685D01*
X124586485Y-122791202D01*
X124586489Y-122791204D01*
X124607051Y-122799721D01*
X124644067Y-122824454D01*
X124661623Y-122842010D01*
X124663661Y-122843683D01*
X124669030Y-122848541D01*
X124669041Y-122848550D01*
X124669262Y-122848279D01*
X124680554Y-122857546D01*
X124702165Y-122869097D01*
X124725614Y-122876210D01*
X124750000Y-122878612D01*
X124774386Y-122876210D01*
X124797835Y-122869097D01*
X124819446Y-122857546D01*
X124830738Y-122848279D01*
X124830959Y-122848550D01*
X124830970Y-122848541D01*
X124836339Y-122843683D01*
X124838377Y-122842010D01*
X124855933Y-122824454D01*
X124892949Y-122799721D01*
X124913511Y-122791204D01*
X124913515Y-122791202D01*
X124934078Y-122782685D01*
X124955902Y-122778344D01*
X124955914Y-122778341D01*
X124955916Y-122778341D01*
X124977740Y-122774000D01*
X125022260Y-122774000D01*
X125044084Y-122778341D01*
X125044086Y-122778341D01*
X125044098Y-122778344D01*
X125065922Y-122782685D01*
X125086485Y-122791202D01*
X125086489Y-122791204D01*
X125107051Y-122799721D01*
X125144067Y-122824454D01*
X125161623Y-122842010D01*
X125163661Y-122843683D01*
X125169030Y-122848541D01*
X125169041Y-122848550D01*
X125169262Y-122848279D01*
X125180554Y-122857546D01*
X125202165Y-122869097D01*
X125225614Y-122876210D01*
X125250000Y-122878612D01*
X125274386Y-122876210D01*
X125297835Y-122869097D01*
X125319446Y-122857546D01*
X125330738Y-122848279D01*
X125330959Y-122848550D01*
X125330970Y-122848541D01*
X125336339Y-122843683D01*
X125338377Y-122842010D01*
X125355933Y-122824454D01*
X125392949Y-122799721D01*
X125413511Y-122791204D01*
X125413515Y-122791202D01*
X125434078Y-122782685D01*
X125455902Y-122778344D01*
X125455914Y-122778341D01*
X125455916Y-122778341D01*
X125477740Y-122774000D01*
X125522260Y-122774000D01*
X125544084Y-122778341D01*
X125544086Y-122778341D01*
X125544098Y-122778344D01*
X125565922Y-122782685D01*
X125586485Y-122791202D01*
X125586489Y-122791204D01*
X125607051Y-122799721D01*
X125644067Y-122824454D01*
X125661623Y-122842010D01*
X125663661Y-122843683D01*
X125669030Y-122848541D01*
X125669041Y-122848550D01*
X125669262Y-122848279D01*
X125680554Y-122857546D01*
X125702165Y-122869097D01*
X125725614Y-122876210D01*
X125750000Y-122878612D01*
X125774386Y-122876210D01*
X125797835Y-122869097D01*
X125819446Y-122857546D01*
X125830738Y-122848279D01*
X125830959Y-122848550D01*
X125830970Y-122848541D01*
X125836339Y-122843683D01*
X125838377Y-122842010D01*
X125855933Y-122824454D01*
X125892949Y-122799721D01*
X125913511Y-122791204D01*
X125913515Y-122791202D01*
X125934078Y-122782685D01*
X125955902Y-122778344D01*
X125955914Y-122778341D01*
X125955916Y-122778341D01*
X125977740Y-122774000D01*
X126022260Y-122774000D01*
X126044084Y-122778341D01*
X126044086Y-122778341D01*
X126044098Y-122778344D01*
X126065922Y-122782685D01*
X126086485Y-122791202D01*
X126086489Y-122791204D01*
X126107051Y-122799721D01*
X126144067Y-122824454D01*
X126161623Y-122842010D01*
X126163661Y-122843683D01*
X126169030Y-122848541D01*
X126169041Y-122848550D01*
X126169262Y-122848279D01*
X126180554Y-122857546D01*
X126202165Y-122869097D01*
X126225614Y-122876210D01*
X126250000Y-122878612D01*
X126274386Y-122876210D01*
X126297835Y-122869097D01*
X126319446Y-122857546D01*
X126330738Y-122848279D01*
X126330959Y-122848550D01*
X126330970Y-122848541D01*
X126336339Y-122843683D01*
X126338377Y-122842010D01*
X126355933Y-122824454D01*
X126392949Y-122799721D01*
X126413511Y-122791204D01*
X126413515Y-122791202D01*
X126434078Y-122782685D01*
X126455902Y-122778344D01*
X126455914Y-122778341D01*
X126455916Y-122778341D01*
X126477740Y-122774000D01*
X126522260Y-122774000D01*
X126544084Y-122778341D01*
X126544086Y-122778341D01*
X126544098Y-122778344D01*
X126565922Y-122782685D01*
X126586485Y-122791202D01*
X126586489Y-122791204D01*
X126607051Y-122799721D01*
X126644067Y-122824454D01*
X126661623Y-122842010D01*
X126663661Y-122843683D01*
X126669030Y-122848541D01*
X126669041Y-122848550D01*
X126669262Y-122848279D01*
X126680554Y-122857546D01*
X126702165Y-122869097D01*
X126725614Y-122876210D01*
X126750000Y-122878612D01*
X126774386Y-122876210D01*
X126797835Y-122869097D01*
X126819446Y-122857546D01*
X126830738Y-122848279D01*
X126830959Y-122848550D01*
X126830970Y-122848541D01*
X126836339Y-122843683D01*
X126838377Y-122842010D01*
X126855933Y-122824454D01*
X126892949Y-122799721D01*
X126913511Y-122791204D01*
X126913515Y-122791202D01*
X126934078Y-122782685D01*
X126955902Y-122778344D01*
X126955914Y-122778341D01*
X126955916Y-122778341D01*
X126977740Y-122774000D01*
X127022260Y-122774000D01*
X127044084Y-122778341D01*
X127044086Y-122778341D01*
X127044098Y-122778344D01*
X127065922Y-122782685D01*
X127086485Y-122791202D01*
X127086489Y-122791204D01*
X127107051Y-122799721D01*
X127144067Y-122824454D01*
X127161623Y-122842010D01*
X127163661Y-122843683D01*
X127169030Y-122848541D01*
X127169041Y-122848550D01*
X127169262Y-122848279D01*
X127180554Y-122857546D01*
X127202165Y-122869097D01*
X127225614Y-122876210D01*
X127250000Y-122878612D01*
X127274386Y-122876210D01*
X127297835Y-122869097D01*
X127319446Y-122857546D01*
X127330738Y-122848279D01*
X127330959Y-122848550D01*
X127330970Y-122848541D01*
X127336339Y-122843683D01*
X127338377Y-122842010D01*
X127355933Y-122824454D01*
X127392949Y-122799721D01*
X127413511Y-122791204D01*
X127413515Y-122791202D01*
X127434078Y-122782685D01*
X127455902Y-122778344D01*
X127455914Y-122778341D01*
X127455916Y-122778341D01*
X127477740Y-122774000D01*
X127522260Y-122774000D01*
X127544084Y-122778341D01*
X127544086Y-122778341D01*
X127544098Y-122778344D01*
X127565922Y-122782685D01*
X127586485Y-122791202D01*
X127586489Y-122791204D01*
X127607051Y-122799721D01*
X127644067Y-122824454D01*
X127661623Y-122842010D01*
X127663661Y-122843683D01*
X127669030Y-122848541D01*
X127669041Y-122848550D01*
X127669262Y-122848279D01*
X127680554Y-122857546D01*
X127702165Y-122869097D01*
X127725614Y-122876210D01*
X127750000Y-122878612D01*
X127774386Y-122876210D01*
X127797835Y-122869097D01*
X127819446Y-122857546D01*
X127830738Y-122848279D01*
X127830959Y-122848550D01*
X127830970Y-122848541D01*
X127836339Y-122843683D01*
X127838377Y-122842010D01*
X127855933Y-122824454D01*
X127892949Y-122799721D01*
X127913511Y-122791204D01*
X127913515Y-122791202D01*
X127934078Y-122782685D01*
X127955902Y-122778344D01*
X127955914Y-122778341D01*
X127955916Y-122778341D01*
X127977740Y-122774000D01*
X128022260Y-122774000D01*
X128044084Y-122778341D01*
X128044086Y-122778341D01*
X128044098Y-122778344D01*
X128065922Y-122782685D01*
X128086485Y-122791202D01*
X128086489Y-122791204D01*
X128107051Y-122799721D01*
X128144067Y-122824454D01*
X128161623Y-122842010D01*
X128163661Y-122843683D01*
X128169030Y-122848541D01*
X128169041Y-122848550D01*
X128169262Y-122848279D01*
X128180554Y-122857546D01*
X128202165Y-122869097D01*
X128225614Y-122876210D01*
X128250000Y-122878612D01*
X128274386Y-122876210D01*
X128297835Y-122869097D01*
X128319446Y-122857546D01*
X128330738Y-122848279D01*
X128330959Y-122848550D01*
X128330970Y-122848541D01*
X128336339Y-122843683D01*
X128338377Y-122842010D01*
X128355933Y-122824454D01*
X128392949Y-122799721D01*
X128413511Y-122791204D01*
X128413515Y-122791202D01*
X128434078Y-122782685D01*
X128455902Y-122778344D01*
X128455914Y-122778341D01*
X128455916Y-122778341D01*
X128477740Y-122774000D01*
X128522260Y-122774000D01*
X128544084Y-122778341D01*
X128544086Y-122778341D01*
X128544098Y-122778344D01*
X128565922Y-122782685D01*
X128586485Y-122791202D01*
X128586489Y-122791204D01*
X128607051Y-122799721D01*
X128644067Y-122824454D01*
X128661623Y-122842010D01*
X128663661Y-122843683D01*
X128669030Y-122848541D01*
X128669041Y-122848550D01*
X128669262Y-122848279D01*
X128680554Y-122857546D01*
X128702165Y-122869097D01*
X128725614Y-122876210D01*
X128750000Y-122878612D01*
X128774386Y-122876210D01*
X128797835Y-122869097D01*
X128819446Y-122857546D01*
X128830738Y-122848279D01*
X128830959Y-122848550D01*
X128830970Y-122848541D01*
X128836339Y-122843683D01*
X128838377Y-122842010D01*
X128855933Y-122824454D01*
X128892949Y-122799721D01*
X128913511Y-122791204D01*
X128913515Y-122791202D01*
X128934078Y-122782685D01*
X128955902Y-122778344D01*
X128955914Y-122778341D01*
X128955916Y-122778341D01*
X128977740Y-122774000D01*
X129022260Y-122774000D01*
X129044084Y-122778341D01*
X129044086Y-122778341D01*
X129044098Y-122778344D01*
X129065922Y-122782685D01*
X129086485Y-122791202D01*
X129086489Y-122791204D01*
X129107051Y-122799721D01*
X129144067Y-122824454D01*
X129161623Y-122842010D01*
X129163661Y-122843683D01*
X129169030Y-122848541D01*
X129169041Y-122848550D01*
X129169262Y-122848279D01*
X129180554Y-122857546D01*
X129202165Y-122869097D01*
X129225614Y-122876210D01*
X129250000Y-122878612D01*
X129274386Y-122876210D01*
X129297835Y-122869097D01*
X129319446Y-122857546D01*
X129330738Y-122848279D01*
X129330959Y-122848550D01*
X129330970Y-122848541D01*
X129336339Y-122843683D01*
X129338377Y-122842010D01*
X129355933Y-122824454D01*
X129392949Y-122799721D01*
X129413511Y-122791204D01*
X129413515Y-122791202D01*
X129434078Y-122782685D01*
X129455902Y-122778344D01*
X129455914Y-122778341D01*
X129455916Y-122778341D01*
X129477740Y-122774000D01*
X129522260Y-122774000D01*
X129544084Y-122778341D01*
X129544086Y-122778341D01*
X129544098Y-122778344D01*
X129565922Y-122782685D01*
X129586485Y-122791202D01*
X129586489Y-122791204D01*
X129607051Y-122799721D01*
X129644067Y-122824454D01*
X129661623Y-122842010D01*
X129663661Y-122843683D01*
X129669030Y-122848541D01*
X129669041Y-122848550D01*
X129669262Y-122848279D01*
X129680554Y-122857546D01*
X129702165Y-122869097D01*
X129725614Y-122876210D01*
X129750000Y-122878612D01*
X129774386Y-122876210D01*
X129797835Y-122869097D01*
X129819446Y-122857546D01*
X129830738Y-122848279D01*
X129830959Y-122848550D01*
X129830970Y-122848541D01*
X129836339Y-122843683D01*
X129838377Y-122842010D01*
X129855933Y-122824454D01*
X129892949Y-122799721D01*
X129913511Y-122791204D01*
X129913515Y-122791202D01*
X129934078Y-122782685D01*
X129955902Y-122778344D01*
X129955914Y-122778341D01*
X129955916Y-122778341D01*
X129977740Y-122774000D01*
X130022260Y-122774000D01*
X130044084Y-122778341D01*
X130044086Y-122778341D01*
X130044098Y-122778344D01*
X130065922Y-122782685D01*
X130086485Y-122791202D01*
X130086489Y-122791204D01*
X130107051Y-122799721D01*
X130144067Y-122824454D01*
X130161623Y-122842010D01*
X130163661Y-122843683D01*
X130169030Y-122848541D01*
X130169041Y-122848550D01*
X130169262Y-122848279D01*
X130180554Y-122857546D01*
X130202165Y-122869097D01*
X130225614Y-122876210D01*
X130250000Y-122878612D01*
X130274386Y-122876210D01*
X130297835Y-122869097D01*
X130319446Y-122857546D01*
X130330738Y-122848279D01*
X130330959Y-122848550D01*
X130330970Y-122848541D01*
X130336339Y-122843683D01*
X130338377Y-122842010D01*
X130355933Y-122824454D01*
X130392949Y-122799721D01*
X130413511Y-122791204D01*
X130413515Y-122791202D01*
X130434078Y-122782685D01*
X130455902Y-122778344D01*
X130455914Y-122778341D01*
X130455916Y-122778341D01*
X130477740Y-122774000D01*
X130522260Y-122774000D01*
X130544084Y-122778341D01*
X130544086Y-122778341D01*
X130544098Y-122778344D01*
X130565922Y-122782685D01*
X130586485Y-122791202D01*
X130586489Y-122791204D01*
X130607051Y-122799721D01*
X130644067Y-122824454D01*
X130661623Y-122842010D01*
X130663661Y-122843683D01*
X130669030Y-122848541D01*
X130669041Y-122848550D01*
X130669262Y-122848279D01*
X130680554Y-122857546D01*
X130702165Y-122869097D01*
X130725614Y-122876210D01*
X130750000Y-122878612D01*
X130774386Y-122876210D01*
X130797835Y-122869097D01*
X130819446Y-122857546D01*
X130830738Y-122848279D01*
X130830959Y-122848550D01*
X130830970Y-122848541D01*
X130836339Y-122843683D01*
X130838377Y-122842010D01*
X130855933Y-122824454D01*
X130892949Y-122799721D01*
X130913511Y-122791204D01*
X130913515Y-122791202D01*
X130934078Y-122782685D01*
X130955902Y-122778344D01*
X130955914Y-122778341D01*
X130955916Y-122778341D01*
X130977740Y-122774000D01*
X131022260Y-122774000D01*
X131044084Y-122778341D01*
X131044086Y-122778341D01*
X131044098Y-122778344D01*
X131065922Y-122782685D01*
X131086485Y-122791202D01*
X131086489Y-122791204D01*
X131107051Y-122799721D01*
X131144067Y-122824454D01*
X131161623Y-122842010D01*
X131163661Y-122843683D01*
X131169030Y-122848541D01*
X131169041Y-122848550D01*
X131169262Y-122848279D01*
X131180554Y-122857546D01*
X131202165Y-122869097D01*
X131225614Y-122876210D01*
X131250000Y-122878612D01*
X131274386Y-122876210D01*
X131297835Y-122869097D01*
X131319446Y-122857546D01*
X131330738Y-122848279D01*
X131330959Y-122848550D01*
X131330970Y-122848541D01*
X131336339Y-122843683D01*
X131338377Y-122842010D01*
X131355933Y-122824454D01*
X131392949Y-122799721D01*
X131413511Y-122791204D01*
X131413515Y-122791202D01*
X131434078Y-122782685D01*
X131455902Y-122778344D01*
X131455914Y-122778341D01*
X131455916Y-122778341D01*
X131477740Y-122774000D01*
X131522260Y-122774000D01*
X131544084Y-122778341D01*
X131544086Y-122778341D01*
X131544098Y-122778344D01*
X131565922Y-122782685D01*
X131586485Y-122791202D01*
X131586489Y-122791204D01*
X131607051Y-122799721D01*
X131644067Y-122824454D01*
X131661623Y-122842010D01*
X131663661Y-122843683D01*
X131669030Y-122848541D01*
X131669041Y-122848550D01*
X131669262Y-122848279D01*
X131680554Y-122857546D01*
X131702165Y-122869097D01*
X131725614Y-122876210D01*
X131750000Y-122878612D01*
X131774386Y-122876210D01*
X131797835Y-122869097D01*
X131819446Y-122857546D01*
X131830738Y-122848279D01*
X131830959Y-122848550D01*
X131830970Y-122848541D01*
X131836339Y-122843683D01*
X131838377Y-122842010D01*
X131855933Y-122824454D01*
X131892949Y-122799721D01*
X131913511Y-122791204D01*
X131913515Y-122791202D01*
X131934078Y-122782685D01*
X131955902Y-122778344D01*
X131955914Y-122778341D01*
X131955916Y-122778341D01*
X131977740Y-122774000D01*
X132022260Y-122774000D01*
X132044084Y-122778341D01*
X132044086Y-122778341D01*
X132044098Y-122778344D01*
X132065922Y-122782685D01*
X132086485Y-122791202D01*
X132086489Y-122791204D01*
X132107051Y-122799721D01*
X132144067Y-122824454D01*
X132161623Y-122842010D01*
X132163661Y-122843683D01*
X132169030Y-122848541D01*
X132169041Y-122848550D01*
X132169262Y-122848279D01*
X132180554Y-122857546D01*
X132202165Y-122869097D01*
X132225614Y-122876210D01*
X132250000Y-122878612D01*
X132274386Y-122876210D01*
X132297835Y-122869097D01*
X132319446Y-122857546D01*
X132330738Y-122848279D01*
X132330959Y-122848550D01*
X132330970Y-122848541D01*
X132336339Y-122843683D01*
X132338377Y-122842010D01*
X132355933Y-122824454D01*
X132392949Y-122799721D01*
X132413511Y-122791204D01*
X132413515Y-122791202D01*
X132434078Y-122782685D01*
X132455902Y-122778344D01*
X132455914Y-122778341D01*
X132455916Y-122778341D01*
X132477740Y-122774000D01*
X132522260Y-122774000D01*
X132544084Y-122778341D01*
X132544086Y-122778341D01*
X132544098Y-122778344D01*
X132565922Y-122782685D01*
X132586485Y-122791202D01*
X132586489Y-122791204D01*
X132607051Y-122799721D01*
X132644067Y-122824454D01*
X132661623Y-122842010D01*
X132663661Y-122843683D01*
X132669030Y-122848541D01*
X132669041Y-122848550D01*
X132669262Y-122848279D01*
X132680554Y-122857546D01*
X132702165Y-122869097D01*
X132725614Y-122876210D01*
X132750000Y-122878612D01*
X132774386Y-122876210D01*
X132797835Y-122869097D01*
X132819446Y-122857546D01*
X132830738Y-122848279D01*
X132830959Y-122848550D01*
X132830970Y-122848541D01*
X132836339Y-122843683D01*
X132838377Y-122842010D01*
X132855933Y-122824454D01*
X132892949Y-122799721D01*
X132913511Y-122791204D01*
X132913515Y-122791202D01*
X132934078Y-122782685D01*
X132955902Y-122778344D01*
X132955914Y-122778341D01*
X132955916Y-122778341D01*
X132977740Y-122774000D01*
X133022260Y-122774000D01*
X133044084Y-122778341D01*
X133044086Y-122778341D01*
X133044098Y-122778344D01*
X133065922Y-122782685D01*
X133086485Y-122791202D01*
X133086489Y-122791204D01*
X133107051Y-122799721D01*
X133144067Y-122824454D01*
X133161623Y-122842010D01*
X133163661Y-122843683D01*
X133169030Y-122848541D01*
X133169041Y-122848550D01*
X133169262Y-122848279D01*
X133180554Y-122857546D01*
X133202165Y-122869097D01*
X133225614Y-122876210D01*
X133250000Y-122878612D01*
X133274386Y-122876210D01*
X133297835Y-122869097D01*
X133319446Y-122857546D01*
X133330738Y-122848279D01*
X133330959Y-122848550D01*
X133330970Y-122848541D01*
X133336339Y-122843683D01*
X133338377Y-122842010D01*
X133355933Y-122824454D01*
X133392949Y-122799721D01*
X133413511Y-122791204D01*
X133413515Y-122791202D01*
X133434078Y-122782685D01*
X133455902Y-122778344D01*
X133455914Y-122778341D01*
X133455916Y-122778341D01*
X133477740Y-122774000D01*
X133522260Y-122774000D01*
X133544084Y-122778341D01*
X133544086Y-122778341D01*
X133544098Y-122778344D01*
X133565922Y-122782685D01*
X133586485Y-122791202D01*
X133586489Y-122791204D01*
X133607051Y-122799721D01*
X133644067Y-122824454D01*
X133661623Y-122842010D01*
X133663661Y-122843683D01*
X133669030Y-122848541D01*
X133669041Y-122848550D01*
X133669262Y-122848279D01*
X133680554Y-122857546D01*
X133702165Y-122869097D01*
X133725614Y-122876210D01*
X133750000Y-122878612D01*
X133774386Y-122876210D01*
X133797835Y-122869097D01*
X133819446Y-122857546D01*
X133830738Y-122848279D01*
X133830959Y-122848550D01*
X133830970Y-122848541D01*
X133836339Y-122843683D01*
X133838377Y-122842010D01*
X133855933Y-122824454D01*
X133892949Y-122799721D01*
X133913511Y-122791204D01*
X133913515Y-122791202D01*
X133934078Y-122782685D01*
X133955902Y-122778344D01*
X133955914Y-122778341D01*
X133955916Y-122778341D01*
X133977740Y-122774000D01*
X134022260Y-122774000D01*
X134044084Y-122778341D01*
X134044086Y-122778341D01*
X134044098Y-122778344D01*
X134065922Y-122782685D01*
X134086485Y-122791202D01*
X134086489Y-122791204D01*
X134107051Y-122799721D01*
X134144067Y-122824454D01*
X134161623Y-122842010D01*
X134163661Y-122843683D01*
X134169030Y-122848541D01*
X134169041Y-122848550D01*
X134169262Y-122848279D01*
X134180554Y-122857546D01*
X134202165Y-122869097D01*
X134225614Y-122876210D01*
X134250000Y-122878612D01*
X134274386Y-122876210D01*
X134297835Y-122869097D01*
X134319446Y-122857546D01*
X134330738Y-122848279D01*
X134330959Y-122848550D01*
X134330970Y-122848541D01*
X134336339Y-122843683D01*
X134338377Y-122842010D01*
X134355933Y-122824454D01*
X134392949Y-122799721D01*
X134413511Y-122791204D01*
X134413515Y-122791202D01*
X134434078Y-122782685D01*
X134455902Y-122778344D01*
X134455914Y-122778341D01*
X134455916Y-122778341D01*
X134477740Y-122774000D01*
X134522260Y-122774000D01*
X134544084Y-122778341D01*
X134544086Y-122778341D01*
X134544098Y-122778344D01*
X134565922Y-122782685D01*
X134586485Y-122791202D01*
X134586489Y-122791204D01*
X134607051Y-122799721D01*
X134644067Y-122824454D01*
X134661623Y-122842010D01*
X134663661Y-122843683D01*
X134669030Y-122848541D01*
X134669041Y-122848550D01*
X134669262Y-122848279D01*
X134680554Y-122857546D01*
X134702165Y-122869097D01*
X134725614Y-122876210D01*
X134750000Y-122878612D01*
X134774386Y-122876210D01*
X134797835Y-122869097D01*
X134819446Y-122857546D01*
X134830738Y-122848279D01*
X134830959Y-122848550D01*
X134830970Y-122848541D01*
X134836339Y-122843683D01*
X134838377Y-122842010D01*
X134855933Y-122824454D01*
X134892949Y-122799721D01*
X134913511Y-122791204D01*
X134913515Y-122791202D01*
X134934078Y-122782685D01*
X134955902Y-122778344D01*
X134955914Y-122778341D01*
X134955916Y-122778341D01*
X134977740Y-122774000D01*
X135022260Y-122774000D01*
X135044084Y-122778341D01*
X135044086Y-122778341D01*
X135044098Y-122778344D01*
X135065922Y-122782685D01*
X135086485Y-122791202D01*
X135086489Y-122791204D01*
X135107051Y-122799721D01*
X135144067Y-122824454D01*
X135161623Y-122842010D01*
X135163661Y-122843683D01*
X135169030Y-122848541D01*
X135169041Y-122848550D01*
X135169262Y-122848279D01*
X135180554Y-122857546D01*
X135202165Y-122869097D01*
X135225614Y-122876210D01*
X135250000Y-122878612D01*
X135274386Y-122876210D01*
X135297835Y-122869097D01*
X135319446Y-122857546D01*
X135330738Y-122848279D01*
X135330959Y-122848550D01*
X135330970Y-122848541D01*
X135336339Y-122843683D01*
X135338377Y-122842010D01*
X135355933Y-122824454D01*
X135392949Y-122799721D01*
X135413511Y-122791204D01*
X135413515Y-122791202D01*
X135434078Y-122782685D01*
X135455902Y-122778344D01*
X135455914Y-122778341D01*
X135455916Y-122778341D01*
X135477740Y-122774000D01*
X135522260Y-122774000D01*
X135544084Y-122778341D01*
X135544086Y-122778341D01*
X135544098Y-122778344D01*
X135565922Y-122782685D01*
X135586485Y-122791202D01*
X135586489Y-122791204D01*
X135607051Y-122799721D01*
X135644067Y-122824454D01*
X135661623Y-122842010D01*
X135663661Y-122843683D01*
X135669030Y-122848541D01*
X135669041Y-122848550D01*
X135669262Y-122848279D01*
X135680554Y-122857546D01*
X135702165Y-122869097D01*
X135725614Y-122876210D01*
X135750000Y-122878612D01*
X135774386Y-122876210D01*
X135797835Y-122869097D01*
X135819446Y-122857546D01*
X135830738Y-122848279D01*
X135830959Y-122848550D01*
X135830970Y-122848541D01*
X135836339Y-122843683D01*
X135838377Y-122842010D01*
X135855933Y-122824454D01*
X135892949Y-122799721D01*
X135913511Y-122791204D01*
X135913515Y-122791202D01*
X135934078Y-122782685D01*
X135955902Y-122778344D01*
X135955914Y-122778341D01*
X135955916Y-122778341D01*
X135977740Y-122774000D01*
X136022260Y-122774000D01*
X136044084Y-122778341D01*
X136044086Y-122778341D01*
X136044098Y-122778344D01*
X136065922Y-122782685D01*
X136086485Y-122791202D01*
X136086489Y-122791204D01*
X136107051Y-122799721D01*
X136144067Y-122824454D01*
X136161623Y-122842010D01*
X136163661Y-122843683D01*
X136169030Y-122848541D01*
X136169041Y-122848550D01*
X136169262Y-122848279D01*
X136180554Y-122857546D01*
X136202165Y-122869097D01*
X136225614Y-122876210D01*
X136250000Y-122878612D01*
X136274386Y-122876210D01*
X136297835Y-122869097D01*
X136319446Y-122857546D01*
X136330738Y-122848279D01*
X136330959Y-122848550D01*
X136330970Y-122848541D01*
X136336339Y-122843683D01*
X136338377Y-122842010D01*
X136355933Y-122824454D01*
X136392949Y-122799721D01*
X136413511Y-122791204D01*
X136413515Y-122791202D01*
X136434078Y-122782685D01*
X136455902Y-122778344D01*
X136455914Y-122778341D01*
X136455916Y-122778341D01*
X136477740Y-122774000D01*
X136522260Y-122774000D01*
X136544084Y-122778341D01*
X136544086Y-122778341D01*
X136544098Y-122778344D01*
X136565922Y-122782685D01*
X136586485Y-122791202D01*
X136586489Y-122791204D01*
X136607051Y-122799721D01*
X136644067Y-122824454D01*
X136661623Y-122842010D01*
X136663661Y-122843683D01*
X136669030Y-122848541D01*
X136669041Y-122848550D01*
X136669262Y-122848279D01*
X136680554Y-122857546D01*
X136702165Y-122869097D01*
X136725614Y-122876210D01*
X136750000Y-122878612D01*
X136774386Y-122876210D01*
X136797835Y-122869097D01*
X136819446Y-122857546D01*
X136830738Y-122848279D01*
X136830959Y-122848550D01*
X136830970Y-122848541D01*
X136836339Y-122843683D01*
X136838377Y-122842010D01*
X136855933Y-122824454D01*
X136892949Y-122799721D01*
X136913511Y-122791204D01*
X136913515Y-122791202D01*
X136934078Y-122782685D01*
X136955902Y-122778344D01*
X136955914Y-122778341D01*
X136955916Y-122778341D01*
X136977740Y-122774000D01*
X137022260Y-122774000D01*
X137044084Y-122778341D01*
X137044086Y-122778341D01*
X137044098Y-122778344D01*
X137065922Y-122782685D01*
X137086485Y-122791202D01*
X137086489Y-122791204D01*
X137107051Y-122799721D01*
X137144067Y-122824454D01*
X137161623Y-122842010D01*
X137163661Y-122843683D01*
X137169030Y-122848541D01*
X137169041Y-122848550D01*
X137169262Y-122848279D01*
X137180554Y-122857546D01*
X137202165Y-122869097D01*
X137225614Y-122876210D01*
X137250000Y-122878612D01*
X137274386Y-122876210D01*
X137297835Y-122869097D01*
X137319446Y-122857546D01*
X137330738Y-122848279D01*
X137330959Y-122848550D01*
X137330970Y-122848541D01*
X137336339Y-122843683D01*
X137338377Y-122842010D01*
X137355933Y-122824454D01*
X137392949Y-122799721D01*
X137413511Y-122791204D01*
X137413515Y-122791202D01*
X137434078Y-122782685D01*
X137455902Y-122778344D01*
X137455914Y-122778341D01*
X137455916Y-122778341D01*
X137477740Y-122774000D01*
X137522260Y-122774000D01*
X137544084Y-122778341D01*
X137544086Y-122778341D01*
X137544098Y-122778344D01*
X137565922Y-122782685D01*
X137586485Y-122791202D01*
X137586489Y-122791204D01*
X137607051Y-122799721D01*
X137644067Y-122824454D01*
X137661623Y-122842010D01*
X137663661Y-122843683D01*
X137669030Y-122848541D01*
X137669041Y-122848550D01*
X137669262Y-122848279D01*
X137680554Y-122857546D01*
X137702165Y-122869097D01*
X137725614Y-122876210D01*
X137750000Y-122878612D01*
X137774386Y-122876210D01*
X137797835Y-122869097D01*
X137819446Y-122857546D01*
X137830738Y-122848279D01*
X137830959Y-122848550D01*
X137830970Y-122848541D01*
X137836339Y-122843683D01*
X137838377Y-122842010D01*
X137855933Y-122824454D01*
X137892949Y-122799721D01*
X137913511Y-122791204D01*
X137913515Y-122791202D01*
X137934078Y-122782685D01*
X137955902Y-122778344D01*
X137955914Y-122778341D01*
X137955916Y-122778341D01*
X137977740Y-122774000D01*
X138022260Y-122774000D01*
X138044084Y-122778341D01*
X138044086Y-122778341D01*
X138044098Y-122778344D01*
X138065922Y-122782685D01*
X138086485Y-122791202D01*
X138086489Y-122791204D01*
X138107051Y-122799721D01*
X138144067Y-122824454D01*
X138161623Y-122842010D01*
X138163661Y-122843683D01*
X138169030Y-122848541D01*
X138169041Y-122848550D01*
X138169262Y-122848279D01*
X138180554Y-122857546D01*
X138202165Y-122869097D01*
X138225614Y-122876210D01*
X138250000Y-122878612D01*
X138274386Y-122876210D01*
X138297835Y-122869097D01*
X138319446Y-122857546D01*
X138330738Y-122848279D01*
X138330959Y-122848550D01*
X138330970Y-122848541D01*
X138336339Y-122843683D01*
X138338377Y-122842010D01*
X138355933Y-122824454D01*
X138392949Y-122799721D01*
X138413511Y-122791204D01*
X138413515Y-122791202D01*
X138434078Y-122782685D01*
X138455902Y-122778344D01*
X138455914Y-122778341D01*
X138455916Y-122778341D01*
X138477740Y-122774000D01*
X138522260Y-122774000D01*
X138544084Y-122778341D01*
X138544086Y-122778341D01*
X138544098Y-122778344D01*
X138565922Y-122782685D01*
X138586485Y-122791202D01*
X138586489Y-122791204D01*
X138607051Y-122799721D01*
X138644067Y-122824454D01*
X138661623Y-122842010D01*
X138663661Y-122843683D01*
X138669030Y-122848541D01*
X138669041Y-122848550D01*
X138669262Y-122848279D01*
X138680554Y-122857546D01*
X138702165Y-122869097D01*
X138725614Y-122876210D01*
X138750000Y-122878612D01*
X138774386Y-122876210D01*
X138797835Y-122869097D01*
X138819446Y-122857546D01*
X138830738Y-122848279D01*
X138830959Y-122848550D01*
X138830970Y-122848541D01*
X138836339Y-122843683D01*
X138838377Y-122842010D01*
X138855933Y-122824454D01*
X138892949Y-122799721D01*
X138913511Y-122791204D01*
X138913515Y-122791202D01*
X138934078Y-122782685D01*
X138955902Y-122778344D01*
X138955914Y-122778341D01*
X138955916Y-122778341D01*
X138977740Y-122774000D01*
X139022260Y-122774000D01*
X139044084Y-122778341D01*
X139044086Y-122778341D01*
X139044098Y-122778344D01*
X139065922Y-122782685D01*
X139086485Y-122791202D01*
X139086489Y-122791204D01*
X139107051Y-122799721D01*
X139144067Y-122824454D01*
X139161623Y-122842010D01*
X139163661Y-122843683D01*
X139169030Y-122848541D01*
X139169041Y-122848550D01*
X139169262Y-122848279D01*
X139180554Y-122857546D01*
X139202165Y-122869097D01*
X139225614Y-122876210D01*
X139250000Y-122878612D01*
X139274386Y-122876210D01*
X139297835Y-122869097D01*
X139319446Y-122857546D01*
X139330738Y-122848279D01*
X139330959Y-122848550D01*
X139330970Y-122848541D01*
X139336339Y-122843683D01*
X139338377Y-122842010D01*
X139355933Y-122824454D01*
X139392949Y-122799721D01*
X139413511Y-122791204D01*
X139413515Y-122791202D01*
X139434078Y-122782685D01*
X139455902Y-122778344D01*
X139455914Y-122778341D01*
X139455916Y-122778341D01*
X139477740Y-122774000D01*
X139522260Y-122774000D01*
X139544084Y-122778341D01*
X139544086Y-122778341D01*
X139544098Y-122778344D01*
X139565922Y-122782685D01*
X139586485Y-122791202D01*
X139586489Y-122791204D01*
X139607051Y-122799721D01*
X139644067Y-122824454D01*
X139661623Y-122842010D01*
X139663661Y-122843683D01*
X139669030Y-122848541D01*
X139669041Y-122848550D01*
X139669262Y-122848279D01*
X139680554Y-122857546D01*
X139702165Y-122869097D01*
X139725614Y-122876210D01*
X139750000Y-122878612D01*
X139774386Y-122876210D01*
X139797835Y-122869097D01*
X139819446Y-122857546D01*
X139830738Y-122848279D01*
X139830959Y-122848550D01*
X139830970Y-122848541D01*
X139836339Y-122843683D01*
X139838377Y-122842010D01*
X139855933Y-122824454D01*
X139892949Y-122799721D01*
X139913511Y-122791204D01*
X139913515Y-122791202D01*
X139934078Y-122782685D01*
X139955902Y-122778344D01*
X139955914Y-122778341D01*
X139955916Y-122778341D01*
X139977740Y-122774000D01*
X140022260Y-122774000D01*
X140044084Y-122778341D01*
X140044086Y-122778341D01*
X140044098Y-122778344D01*
X140065922Y-122782685D01*
X140086485Y-122791202D01*
X140086489Y-122791204D01*
X140107051Y-122799721D01*
X140144067Y-122824454D01*
X140175546Y-122855933D01*
X140187908Y-122874434D01*
X140187911Y-122874438D01*
X140187913Y-122874442D01*
X140200279Y-122892949D01*
X140208795Y-122913508D01*
X140208799Y-122913517D01*
X140208803Y-122913527D01*
X140217315Y-122934076D01*
X140221654Y-122955893D01*
X140221659Y-122955912D01*
X140221661Y-122955924D01*
X140226000Y-122977739D01*
X140226000Y-122999990D01*
X140226001Y-123000000D01*
X140226001Y-123499990D01*
X140226000Y-123500010D01*
X140226000Y-123522261D01*
X140221661Y-123544076D01*
X140221659Y-123544088D01*
X140221654Y-123544107D01*
X140217315Y-123565924D01*
X140208803Y-123586473D01*
X140208799Y-123586483D01*
X140208795Y-123586492D01*
X140200279Y-123607051D01*
X140187913Y-123625558D01*
X140187911Y-123625562D01*
X140187908Y-123625566D01*
X140175546Y-123644067D01*
X140144067Y-123675546D01*
X140107051Y-123700279D01*
X140065922Y-123717315D01*
X140044098Y-123721656D01*
X140044086Y-123721659D01*
X140044084Y-123721659D01*
X140022260Y-123726000D01*
X139977740Y-123726000D01*
X139955916Y-123721659D01*
X139955914Y-123721659D01*
X139955902Y-123721656D01*
X139934078Y-123717315D01*
X139892949Y-123700279D01*
X139855933Y-123675546D01*
X139838377Y-123657990D01*
X139836339Y-123656317D01*
X139830970Y-123651459D01*
X139830959Y-123651450D01*
X139830738Y-123651721D01*
X139819446Y-123642454D01*
X139797835Y-123630903D01*
X139774386Y-123623790D01*
X139750000Y-123621388D01*
X139725614Y-123623790D01*
X139702165Y-123630903D01*
X139680554Y-123642454D01*
X139669262Y-123651721D01*
X139669041Y-123651450D01*
X139669030Y-123651459D01*
X139663661Y-123656317D01*
X139661623Y-123657990D01*
X139644067Y-123675546D01*
X139607051Y-123700279D01*
X139565922Y-123717315D01*
X139544098Y-123721656D01*
X139544086Y-123721659D01*
X139544084Y-123721659D01*
X139522260Y-123726000D01*
X139477740Y-123726000D01*
X139455916Y-123721659D01*
X139455914Y-123721659D01*
X139455902Y-123721656D01*
X139434078Y-123717315D01*
X139392949Y-123700279D01*
X139355933Y-123675546D01*
X139338377Y-123657990D01*
X139336339Y-123656317D01*
X139330970Y-123651459D01*
X139330959Y-123651450D01*
X139330738Y-123651721D01*
X139319446Y-123642454D01*
X139297835Y-123630903D01*
X139274386Y-123623790D01*
X139250000Y-123621388D01*
X139225614Y-123623790D01*
X139202165Y-123630903D01*
X139180554Y-123642454D01*
X139169262Y-123651721D01*
X139169041Y-123651450D01*
X139169030Y-123651459D01*
X139163661Y-123656317D01*
X139161623Y-123657990D01*
X139144067Y-123675546D01*
X139107051Y-123700279D01*
X139065922Y-123717315D01*
X139044098Y-123721656D01*
X139044086Y-123721659D01*
X139044084Y-123721659D01*
X139022260Y-123726000D01*
X138977740Y-123726000D01*
X138955916Y-123721659D01*
X138955914Y-123721659D01*
X138955902Y-123721656D01*
X138934078Y-123717315D01*
X138892949Y-123700279D01*
X138855933Y-123675546D01*
X138838377Y-123657990D01*
X138836339Y-123656317D01*
X138830970Y-123651459D01*
X138830959Y-123651450D01*
X138830738Y-123651721D01*
X138819446Y-123642454D01*
X138797835Y-123630903D01*
X138774386Y-123623790D01*
X138750000Y-123621388D01*
X138725614Y-123623790D01*
X138702165Y-123630903D01*
X138680554Y-123642454D01*
X138669262Y-123651721D01*
X138669041Y-123651450D01*
X138669030Y-123651459D01*
X138663661Y-123656317D01*
X138661623Y-123657990D01*
X138644067Y-123675546D01*
X138607051Y-123700279D01*
X138565922Y-123717315D01*
X138544098Y-123721656D01*
X138544086Y-123721659D01*
X138544084Y-123721659D01*
X138522260Y-123726000D01*
X138477740Y-123726000D01*
X138455916Y-123721659D01*
X138455914Y-123721659D01*
X138455902Y-123721656D01*
X138434078Y-123717315D01*
X138392949Y-123700279D01*
X138355933Y-123675546D01*
X138338377Y-123657990D01*
X138336339Y-123656317D01*
X138330970Y-123651459D01*
X138330959Y-123651450D01*
X138330738Y-123651721D01*
X138319446Y-123642454D01*
X138297835Y-123630903D01*
X138274386Y-123623790D01*
X138250000Y-123621388D01*
X138225614Y-123623790D01*
X138202165Y-123630903D01*
X138180554Y-123642454D01*
X138169262Y-123651721D01*
X138169041Y-123651450D01*
X138169030Y-123651459D01*
X138163661Y-123656317D01*
X138161623Y-123657990D01*
X138144067Y-123675546D01*
X138107051Y-123700279D01*
X138065922Y-123717315D01*
X138044098Y-123721656D01*
X138044086Y-123721659D01*
X138044084Y-123721659D01*
X138022260Y-123726000D01*
X137977740Y-123726000D01*
X137955916Y-123721659D01*
X137955914Y-123721659D01*
X137955902Y-123721656D01*
X137934078Y-123717315D01*
X137892949Y-123700279D01*
X137855933Y-123675546D01*
X137838377Y-123657990D01*
X137836339Y-123656317D01*
X137830970Y-123651459D01*
X137830959Y-123651450D01*
X137830738Y-123651721D01*
X137819446Y-123642454D01*
X137797835Y-123630903D01*
X137774386Y-123623790D01*
X137750000Y-123621388D01*
X137725614Y-123623790D01*
X137702165Y-123630903D01*
X137680554Y-123642454D01*
X137669262Y-123651721D01*
X137669041Y-123651450D01*
X137669030Y-123651459D01*
X137663661Y-123656317D01*
X137661623Y-123657990D01*
X137644067Y-123675546D01*
X137607051Y-123700279D01*
X137565922Y-123717315D01*
X137544098Y-123721656D01*
X137544086Y-123721659D01*
X137544084Y-123721659D01*
X137522260Y-123726000D01*
X137477740Y-123726000D01*
X137455916Y-123721659D01*
X137455914Y-123721659D01*
X137455902Y-123721656D01*
X137434078Y-123717315D01*
X137392949Y-123700279D01*
X137355933Y-123675546D01*
X137338377Y-123657990D01*
X137336339Y-123656317D01*
X137330970Y-123651459D01*
X137330959Y-123651450D01*
X137330738Y-123651721D01*
X137319446Y-123642454D01*
X137297835Y-123630903D01*
X137274386Y-123623790D01*
X137250000Y-123621388D01*
X137225614Y-123623790D01*
X137202165Y-123630903D01*
X137180554Y-123642454D01*
X137169262Y-123651721D01*
X137169041Y-123651450D01*
X137169030Y-123651459D01*
X137163661Y-123656317D01*
X137161623Y-123657990D01*
X137144067Y-123675546D01*
X137107051Y-123700279D01*
X137065922Y-123717315D01*
X137044098Y-123721656D01*
X137044086Y-123721659D01*
X137044084Y-123721659D01*
X137022260Y-123726000D01*
X136977740Y-123726000D01*
X136955916Y-123721659D01*
X136955914Y-123721659D01*
X136955902Y-123721656D01*
X136934078Y-123717315D01*
X136892949Y-123700279D01*
X136855933Y-123675546D01*
X136838377Y-123657990D01*
X136836339Y-123656317D01*
X136830970Y-123651459D01*
X136830959Y-123651450D01*
X136830738Y-123651721D01*
X136819446Y-123642454D01*
X136797835Y-123630903D01*
X136774386Y-123623790D01*
X136750000Y-123621388D01*
X136725614Y-123623790D01*
X136702165Y-123630903D01*
X136680554Y-123642454D01*
X136669262Y-123651721D01*
X136669041Y-123651450D01*
X136669030Y-123651459D01*
X136663661Y-123656317D01*
X136661623Y-123657990D01*
X136644067Y-123675546D01*
X136607051Y-123700279D01*
X136565922Y-123717315D01*
X136544098Y-123721656D01*
X136544086Y-123721659D01*
X136544084Y-123721659D01*
X136522260Y-123726000D01*
X136477740Y-123726000D01*
X136455916Y-123721659D01*
X136455914Y-123721659D01*
X136455902Y-123721656D01*
X136434078Y-123717315D01*
X136392949Y-123700279D01*
X136355933Y-123675546D01*
X136338377Y-123657990D01*
X136336339Y-123656317D01*
X136330970Y-123651459D01*
X136330959Y-123651450D01*
X136330738Y-123651721D01*
X136319446Y-123642454D01*
X136297835Y-123630903D01*
X136274386Y-123623790D01*
X136250000Y-123621388D01*
X136225614Y-123623790D01*
X136202165Y-123630903D01*
X136180554Y-123642454D01*
X136169262Y-123651721D01*
X136169041Y-123651450D01*
X136169030Y-123651459D01*
X136163661Y-123656317D01*
X136161623Y-123657990D01*
X136144067Y-123675546D01*
X136107051Y-123700279D01*
X136065922Y-123717315D01*
X136044098Y-123721656D01*
X136044086Y-123721659D01*
X136044084Y-123721659D01*
X136022260Y-123726000D01*
X135977740Y-123726000D01*
X135955916Y-123721659D01*
X135955914Y-123721659D01*
X135955902Y-123721656D01*
X135934078Y-123717315D01*
X135892949Y-123700279D01*
X135855933Y-123675546D01*
X135838377Y-123657990D01*
X135836339Y-123656317D01*
X135830970Y-123651459D01*
X135830959Y-123651450D01*
X135830738Y-123651721D01*
X135819446Y-123642454D01*
X135797835Y-123630903D01*
X135774386Y-123623790D01*
X135750000Y-123621388D01*
X135725614Y-123623790D01*
X135702165Y-123630903D01*
X135680554Y-123642454D01*
X135669262Y-123651721D01*
X135669041Y-123651450D01*
X135669030Y-123651459D01*
X135663661Y-123656317D01*
X135661623Y-123657990D01*
X135644067Y-123675546D01*
X135607051Y-123700279D01*
X135565922Y-123717315D01*
X135544098Y-123721656D01*
X135544086Y-123721659D01*
X135544084Y-123721659D01*
X135522260Y-123726000D01*
X135477740Y-123726000D01*
X135455916Y-123721659D01*
X135455914Y-123721659D01*
X135455902Y-123721656D01*
X135434078Y-123717315D01*
X135392949Y-123700279D01*
X135355933Y-123675546D01*
X135338377Y-123657990D01*
X135336339Y-123656317D01*
X135330970Y-123651459D01*
X135330959Y-123651450D01*
X135330738Y-123651721D01*
X135319446Y-123642454D01*
X135297835Y-123630903D01*
X135274386Y-123623790D01*
X135250000Y-123621388D01*
X135225614Y-123623790D01*
X135202165Y-123630903D01*
X135180554Y-123642454D01*
X135169262Y-123651721D01*
X135169041Y-123651450D01*
X135169030Y-123651459D01*
X135163661Y-123656317D01*
X135161623Y-123657990D01*
X135144067Y-123675546D01*
X135107051Y-123700279D01*
X135065922Y-123717315D01*
X135044098Y-123721656D01*
X135044086Y-123721659D01*
X135044084Y-123721659D01*
X135022260Y-123726000D01*
X134977740Y-123726000D01*
X134955916Y-123721659D01*
X134955914Y-123721659D01*
X134955902Y-123721656D01*
X134934078Y-123717315D01*
X134892949Y-123700279D01*
X134855933Y-123675546D01*
X134838377Y-123657990D01*
X134836339Y-123656317D01*
X134830970Y-123651459D01*
X134830959Y-123651450D01*
X134830738Y-123651721D01*
X134819446Y-123642454D01*
X134797835Y-123630903D01*
X134774386Y-123623790D01*
X134750000Y-123621388D01*
X134725614Y-123623790D01*
X134702165Y-123630903D01*
X134680554Y-123642454D01*
X134669262Y-123651721D01*
X134669041Y-123651450D01*
X134669030Y-123651459D01*
X134663661Y-123656317D01*
X134661623Y-123657990D01*
X134644067Y-123675546D01*
X134607051Y-123700279D01*
X134565922Y-123717315D01*
X134544098Y-123721656D01*
X134544086Y-123721659D01*
X134544084Y-123721659D01*
X134522260Y-123726000D01*
X134477740Y-123726000D01*
X134455916Y-123721659D01*
X134455914Y-123721659D01*
X134455902Y-123721656D01*
X134434078Y-123717315D01*
X134392949Y-123700279D01*
X134355933Y-123675546D01*
X134338377Y-123657990D01*
X134336339Y-123656317D01*
X134330970Y-123651459D01*
X134330959Y-123651450D01*
X134330738Y-123651721D01*
X134319446Y-123642454D01*
X134297835Y-123630903D01*
X134274386Y-123623790D01*
X134250000Y-123621388D01*
X134225614Y-123623790D01*
X134202165Y-123630903D01*
X134180554Y-123642454D01*
X134169262Y-123651721D01*
X134169041Y-123651450D01*
X134169030Y-123651459D01*
X134163661Y-123656317D01*
X134161623Y-123657990D01*
X134144067Y-123675546D01*
X134107051Y-123700279D01*
X134065922Y-123717315D01*
X134044098Y-123721656D01*
X134044086Y-123721659D01*
X134044084Y-123721659D01*
X134022260Y-123726000D01*
X133977740Y-123726000D01*
X133955916Y-123721659D01*
X133955914Y-123721659D01*
X133955902Y-123721656D01*
X133934078Y-123717315D01*
X133892949Y-123700279D01*
X133855933Y-123675546D01*
X133838377Y-123657990D01*
X133836339Y-123656317D01*
X133830970Y-123651459D01*
X133830959Y-123651450D01*
X133830738Y-123651721D01*
X133819446Y-123642454D01*
X133797835Y-123630903D01*
X133774386Y-123623790D01*
X133750000Y-123621388D01*
X133725614Y-123623790D01*
X133702165Y-123630903D01*
X133680554Y-123642454D01*
X133669262Y-123651721D01*
X133669041Y-123651450D01*
X133669030Y-123651459D01*
X133663661Y-123656317D01*
X133661623Y-123657990D01*
X133644067Y-123675546D01*
X133607051Y-123700279D01*
X133565922Y-123717315D01*
X133544098Y-123721656D01*
X133544086Y-123721659D01*
X133544084Y-123721659D01*
X133522260Y-123726000D01*
X133477740Y-123726000D01*
X133455916Y-123721659D01*
X133455914Y-123721659D01*
X133455902Y-123721656D01*
X133434078Y-123717315D01*
X133392949Y-123700279D01*
X133355933Y-123675546D01*
X133338377Y-123657990D01*
X133336339Y-123656317D01*
X133330970Y-123651459D01*
X133330959Y-123651450D01*
X133330738Y-123651721D01*
X133319446Y-123642454D01*
X133297835Y-123630903D01*
X133274386Y-123623790D01*
X133250000Y-123621388D01*
X133225614Y-123623790D01*
X133202165Y-123630903D01*
X133180554Y-123642454D01*
X133169262Y-123651721D01*
X133169041Y-123651450D01*
X133169030Y-123651459D01*
X133163661Y-123656317D01*
X133161623Y-123657990D01*
X133144067Y-123675546D01*
X133107051Y-123700279D01*
X133065922Y-123717315D01*
X133044098Y-123721656D01*
X133044086Y-123721659D01*
X133044084Y-123721659D01*
X133022260Y-123726000D01*
X132977740Y-123726000D01*
X132955916Y-123721659D01*
X132955914Y-123721659D01*
X132955902Y-123721656D01*
X132934078Y-123717315D01*
X132892949Y-123700279D01*
X132855933Y-123675546D01*
X132838377Y-123657990D01*
X132836339Y-123656317D01*
X132830970Y-123651459D01*
X132830959Y-123651450D01*
X132830738Y-123651721D01*
X132819446Y-123642454D01*
X132797835Y-123630903D01*
X132774386Y-123623790D01*
X132750000Y-123621388D01*
X132725614Y-123623790D01*
X132702165Y-123630903D01*
X132680554Y-123642454D01*
X132669262Y-123651721D01*
X132669041Y-123651450D01*
X132669030Y-123651459D01*
X132663661Y-123656317D01*
X132661623Y-123657990D01*
X132644067Y-123675546D01*
X132607051Y-123700279D01*
X132565922Y-123717315D01*
X132544098Y-123721656D01*
X132544086Y-123721659D01*
X132544084Y-123721659D01*
X132522260Y-123726000D01*
X132477740Y-123726000D01*
X132455916Y-123721659D01*
X132455914Y-123721659D01*
X132455902Y-123721656D01*
X132434078Y-123717315D01*
X132392949Y-123700279D01*
X132355933Y-123675546D01*
X132338377Y-123657990D01*
X132336339Y-123656317D01*
X132330970Y-123651459D01*
X132330959Y-123651450D01*
X132330738Y-123651721D01*
X132319446Y-123642454D01*
X132297835Y-123630903D01*
X132274386Y-123623790D01*
X132250000Y-123621388D01*
X132225614Y-123623790D01*
X132202165Y-123630903D01*
X132180554Y-123642454D01*
X132169262Y-123651721D01*
X132169041Y-123651450D01*
X132169030Y-123651459D01*
X132163661Y-123656317D01*
X132161623Y-123657990D01*
X132144067Y-123675546D01*
X132107051Y-123700279D01*
X132065922Y-123717315D01*
X132044098Y-123721656D01*
X132044086Y-123721659D01*
X132044084Y-123721659D01*
X132022260Y-123726000D01*
X131977740Y-123726000D01*
X131955916Y-123721659D01*
X131955914Y-123721659D01*
X131955902Y-123721656D01*
X131934078Y-123717315D01*
X131892949Y-123700279D01*
X131855933Y-123675546D01*
X131838377Y-123657990D01*
X131836339Y-123656317D01*
X131830970Y-123651459D01*
X131830959Y-123651450D01*
X131830738Y-123651721D01*
X131819446Y-123642454D01*
X131797835Y-123630903D01*
X131774386Y-123623790D01*
X131750000Y-123621388D01*
X131725614Y-123623790D01*
X131702165Y-123630903D01*
X131680554Y-123642454D01*
X131669262Y-123651721D01*
X131669041Y-123651450D01*
X131669030Y-123651459D01*
X131663661Y-123656317D01*
X131661623Y-123657990D01*
X131644067Y-123675546D01*
X131607051Y-123700279D01*
X131565922Y-123717315D01*
X131544098Y-123721656D01*
X131544086Y-123721659D01*
X131544084Y-123721659D01*
X131522260Y-123726000D01*
X131477740Y-123726000D01*
X131455916Y-123721659D01*
X131455914Y-123721659D01*
X131455902Y-123721656D01*
X131434078Y-123717315D01*
X131392949Y-123700279D01*
X131355933Y-123675546D01*
X131338377Y-123657990D01*
X131336339Y-123656317D01*
X131330970Y-123651459D01*
X131330959Y-123651450D01*
X131330738Y-123651721D01*
X131319446Y-123642454D01*
X131297835Y-123630903D01*
X131274386Y-123623790D01*
X131250000Y-123621388D01*
X131225614Y-123623790D01*
X131202165Y-123630903D01*
X131180554Y-123642454D01*
X131169262Y-123651721D01*
X131169041Y-123651450D01*
X131169030Y-123651459D01*
X131163661Y-123656317D01*
X131161623Y-123657990D01*
X131144067Y-123675546D01*
X131107051Y-123700279D01*
X131065922Y-123717315D01*
X131044098Y-123721656D01*
X131044086Y-123721659D01*
X131044084Y-123721659D01*
X131022260Y-123726000D01*
X130977740Y-123726000D01*
X130955916Y-123721659D01*
X130955914Y-123721659D01*
X130955902Y-123721656D01*
X130934078Y-123717315D01*
X130892949Y-123700279D01*
X130855933Y-123675546D01*
X130838377Y-123657990D01*
X130836339Y-123656317D01*
X130830970Y-123651459D01*
X130830959Y-123651450D01*
X130830738Y-123651721D01*
X130819446Y-123642454D01*
X130797835Y-123630903D01*
X130774386Y-123623790D01*
X130750000Y-123621388D01*
X130725614Y-123623790D01*
X130702165Y-123630903D01*
X130680554Y-123642454D01*
X130669262Y-123651721D01*
X130669041Y-123651450D01*
X130669030Y-123651459D01*
X130663661Y-123656317D01*
X130661623Y-123657990D01*
X130644067Y-123675546D01*
X130607051Y-123700279D01*
X130565922Y-123717315D01*
X130544098Y-123721656D01*
X130544086Y-123721659D01*
X130544084Y-123721659D01*
X130522260Y-123726000D01*
X130477740Y-123726000D01*
X130455916Y-123721659D01*
X130455914Y-123721659D01*
X130455902Y-123721656D01*
X130434078Y-123717315D01*
X130392949Y-123700279D01*
X130355933Y-123675546D01*
X130338377Y-123657990D01*
X130336339Y-123656317D01*
X130330970Y-123651459D01*
X130330959Y-123651450D01*
X130330738Y-123651721D01*
X130319446Y-123642454D01*
X130297835Y-123630903D01*
X130274386Y-123623790D01*
X130250000Y-123621388D01*
X130225614Y-123623790D01*
X130202165Y-123630903D01*
X130180554Y-123642454D01*
X130169262Y-123651721D01*
X130169041Y-123651450D01*
X130169030Y-123651459D01*
X130163661Y-123656317D01*
X130161623Y-123657990D01*
X130144067Y-123675546D01*
X130107051Y-123700279D01*
X130065922Y-123717315D01*
X130044098Y-123721656D01*
X130044086Y-123721659D01*
X130044084Y-123721659D01*
X130022260Y-123726000D01*
X129977740Y-123726000D01*
X129955916Y-123721659D01*
X129955914Y-123721659D01*
X129955902Y-123721656D01*
X129934078Y-123717315D01*
X129892949Y-123700279D01*
X129855933Y-123675546D01*
X129838377Y-123657990D01*
X129836339Y-123656317D01*
X129830970Y-123651459D01*
X129830959Y-123651450D01*
X129830738Y-123651721D01*
X129819446Y-123642454D01*
X129797835Y-123630903D01*
X129774386Y-123623790D01*
X129750000Y-123621388D01*
X129725614Y-123623790D01*
X129702165Y-123630903D01*
X129680554Y-123642454D01*
X129669262Y-123651721D01*
X129669041Y-123651450D01*
X129669030Y-123651459D01*
X129663661Y-123656317D01*
X129661623Y-123657990D01*
X129644067Y-123675546D01*
X129607051Y-123700279D01*
X129565922Y-123717315D01*
X129544098Y-123721656D01*
X129544086Y-123721659D01*
X129544084Y-123721659D01*
X129522260Y-123726000D01*
X129477740Y-123726000D01*
X129455916Y-123721659D01*
X129455914Y-123721659D01*
X129455902Y-123721656D01*
X129434078Y-123717315D01*
X129392949Y-123700279D01*
X129355933Y-123675546D01*
X129338377Y-123657990D01*
X129336339Y-123656317D01*
X129330970Y-123651459D01*
X129330959Y-123651450D01*
X129330738Y-123651721D01*
X129319446Y-123642454D01*
X129297835Y-123630903D01*
X129274386Y-123623790D01*
X129250000Y-123621388D01*
X129225614Y-123623790D01*
X129202165Y-123630903D01*
X129180554Y-123642454D01*
X129169262Y-123651721D01*
X129169041Y-123651450D01*
X129169030Y-123651459D01*
X129163661Y-123656317D01*
X129161623Y-123657990D01*
X129144067Y-123675546D01*
X129107051Y-123700279D01*
X129065922Y-123717315D01*
X129044098Y-123721656D01*
X129044086Y-123721659D01*
X129044084Y-123721659D01*
X129022260Y-123726000D01*
X128977740Y-123726000D01*
X128955916Y-123721659D01*
X128955914Y-123721659D01*
X128955902Y-123721656D01*
X128934078Y-123717315D01*
X128892949Y-123700279D01*
X128855933Y-123675546D01*
X128838377Y-123657990D01*
X128836339Y-123656317D01*
X128830970Y-123651459D01*
X128830959Y-123651450D01*
X128830738Y-123651721D01*
X128819446Y-123642454D01*
X128797835Y-123630903D01*
X128774386Y-123623790D01*
X128750000Y-123621388D01*
X128725614Y-123623790D01*
X128702165Y-123630903D01*
X128680554Y-123642454D01*
X128669262Y-123651721D01*
X128669041Y-123651450D01*
X128669030Y-123651459D01*
X128663661Y-123656317D01*
X128661623Y-123657990D01*
X128644067Y-123675546D01*
X128607051Y-123700279D01*
X128565922Y-123717315D01*
X128544098Y-123721656D01*
X128544086Y-123721659D01*
X128544084Y-123721659D01*
X128522260Y-123726000D01*
X128477740Y-123726000D01*
X128455916Y-123721659D01*
X128455914Y-123721659D01*
X128455902Y-123721656D01*
X128434078Y-123717315D01*
X128392949Y-123700279D01*
X128355933Y-123675546D01*
X128338377Y-123657990D01*
X128336339Y-123656317D01*
X128330970Y-123651459D01*
X128330959Y-123651450D01*
X128330738Y-123651721D01*
X128319446Y-123642454D01*
X128297835Y-123630903D01*
X128274386Y-123623790D01*
X128250000Y-123621388D01*
X128225614Y-123623790D01*
X128202165Y-123630903D01*
X128180554Y-123642454D01*
X128169262Y-123651721D01*
X128169041Y-123651450D01*
X128169030Y-123651459D01*
X128163661Y-123656317D01*
X128161623Y-123657990D01*
X128144067Y-123675546D01*
X128107051Y-123700279D01*
X128065922Y-123717315D01*
X128044098Y-123721656D01*
X128044086Y-123721659D01*
X128044084Y-123721659D01*
X128022260Y-123726000D01*
X127977740Y-123726000D01*
X127955916Y-123721659D01*
X127955914Y-123721659D01*
X127955902Y-123721656D01*
X127934078Y-123717315D01*
X127892949Y-123700279D01*
X127855933Y-123675546D01*
X127838377Y-123657990D01*
X127836339Y-123656317D01*
X127830970Y-123651459D01*
X127830959Y-123651450D01*
X127830738Y-123651721D01*
X127819446Y-123642454D01*
X127797835Y-123630903D01*
X127774386Y-123623790D01*
X127750000Y-123621388D01*
X127725614Y-123623790D01*
X127702165Y-123630903D01*
X127680554Y-123642454D01*
X127669262Y-123651721D01*
X127669041Y-123651450D01*
X127669030Y-123651459D01*
X127663661Y-123656317D01*
X127661623Y-123657990D01*
X127644067Y-123675546D01*
X127607051Y-123700279D01*
X127565922Y-123717315D01*
X127544098Y-123721656D01*
X127544086Y-123721659D01*
X127544084Y-123721659D01*
X127522260Y-123726000D01*
X127477740Y-123726000D01*
X127455916Y-123721659D01*
X127455914Y-123721659D01*
X127455902Y-123721656D01*
X127434078Y-123717315D01*
X127392949Y-123700279D01*
X127355933Y-123675546D01*
X127338377Y-123657990D01*
X127336339Y-123656317D01*
X127330970Y-123651459D01*
X127330959Y-123651450D01*
X127330738Y-123651721D01*
X127319446Y-123642454D01*
X127297835Y-123630903D01*
X127274386Y-123623790D01*
X127250000Y-123621388D01*
X127225614Y-123623790D01*
X127202165Y-123630903D01*
X127180554Y-123642454D01*
X127169262Y-123651721D01*
X127169041Y-123651450D01*
X127169030Y-123651459D01*
X127163661Y-123656317D01*
X127161623Y-123657990D01*
X127144067Y-123675546D01*
X127107051Y-123700279D01*
X127065922Y-123717315D01*
X127044098Y-123721656D01*
X127044086Y-123721659D01*
X127044084Y-123721659D01*
X127022260Y-123726000D01*
X126977740Y-123726000D01*
X126955916Y-123721659D01*
X126955914Y-123721659D01*
X126955902Y-123721656D01*
X126934078Y-123717315D01*
X126892949Y-123700279D01*
X126855933Y-123675546D01*
X126838377Y-123657990D01*
X126836339Y-123656317D01*
X126830970Y-123651459D01*
X126830959Y-123651450D01*
X126830738Y-123651721D01*
X126819446Y-123642454D01*
X126797835Y-123630903D01*
X126774386Y-123623790D01*
X126750000Y-123621388D01*
X126725614Y-123623790D01*
X126702165Y-123630903D01*
X126680554Y-123642454D01*
X126669262Y-123651721D01*
X126669041Y-123651450D01*
X126669030Y-123651459D01*
X126663661Y-123656317D01*
X126661623Y-123657990D01*
X126644067Y-123675546D01*
X126607051Y-123700279D01*
X126565922Y-123717315D01*
X126544098Y-123721656D01*
X126544086Y-123721659D01*
X126544084Y-123721659D01*
X126522260Y-123726000D01*
X126477740Y-123726000D01*
X126455916Y-123721659D01*
X126455914Y-123721659D01*
X126455902Y-123721656D01*
X126434078Y-123717315D01*
X126392949Y-123700279D01*
X126355933Y-123675546D01*
X126338377Y-123657990D01*
X126336339Y-123656317D01*
X126330970Y-123651459D01*
X126330959Y-123651450D01*
X126330738Y-123651721D01*
X126319446Y-123642454D01*
X126297835Y-123630903D01*
X126274386Y-123623790D01*
X126250000Y-123621388D01*
X126225614Y-123623790D01*
X126202165Y-123630903D01*
X126180554Y-123642454D01*
X126169262Y-123651721D01*
X126169041Y-123651450D01*
X126169030Y-123651459D01*
X126163661Y-123656317D01*
X126161623Y-123657990D01*
X126144067Y-123675546D01*
X126107051Y-123700279D01*
X126065922Y-123717315D01*
X126044098Y-123721656D01*
X126044086Y-123721659D01*
X126044084Y-123721659D01*
X126022260Y-123726000D01*
X125977740Y-123726000D01*
X125955916Y-123721659D01*
X125955914Y-123721659D01*
X125955902Y-123721656D01*
X125934078Y-123717315D01*
X125892949Y-123700279D01*
X125855933Y-123675546D01*
X125838377Y-123657990D01*
X125836339Y-123656317D01*
X125830970Y-123651459D01*
X125830959Y-123651450D01*
X125830738Y-123651721D01*
X125819446Y-123642454D01*
X125797835Y-123630903D01*
X125774386Y-123623790D01*
X125750000Y-123621388D01*
X125725614Y-123623790D01*
X125702165Y-123630903D01*
X125680554Y-123642454D01*
X125669262Y-123651721D01*
X125669041Y-123651450D01*
X125669030Y-123651459D01*
X125663661Y-123656317D01*
X125661623Y-123657990D01*
X125644067Y-123675546D01*
X125607051Y-123700279D01*
X125565922Y-123717315D01*
X125544098Y-123721656D01*
X125544086Y-123721659D01*
X125544084Y-123721659D01*
X125522260Y-123726000D01*
X125477740Y-123726000D01*
X125455916Y-123721659D01*
X125455914Y-123721659D01*
X125455902Y-123721656D01*
X125434078Y-123717315D01*
X125392949Y-123700279D01*
X125355933Y-123675546D01*
X125338377Y-123657990D01*
X125336339Y-123656317D01*
X125330970Y-123651459D01*
X125330959Y-123651450D01*
X125330738Y-123651721D01*
X125319446Y-123642454D01*
X125297835Y-123630903D01*
X125274386Y-123623790D01*
X125250000Y-123621388D01*
X125225614Y-123623790D01*
X125202165Y-123630903D01*
X125180554Y-123642454D01*
X125169262Y-123651721D01*
X125169041Y-123651450D01*
X125169030Y-123651459D01*
X125163661Y-123656317D01*
X125161623Y-123657990D01*
X125144067Y-123675546D01*
X125107051Y-123700279D01*
X125065922Y-123717315D01*
X125044098Y-123721656D01*
X125044086Y-123721659D01*
X125044084Y-123721659D01*
X125022260Y-123726000D01*
X124977740Y-123726000D01*
X124955916Y-123721659D01*
X124955914Y-123721659D01*
X124955902Y-123721656D01*
X124934078Y-123717315D01*
X124892949Y-123700279D01*
X124855933Y-123675546D01*
X124838377Y-123657990D01*
X124836339Y-123656317D01*
X124830970Y-123651459D01*
X124830959Y-123651450D01*
X124830738Y-123651721D01*
X124819446Y-123642454D01*
X124797835Y-123630903D01*
X124774386Y-123623790D01*
X124750000Y-123621388D01*
X124725614Y-123623790D01*
X124702165Y-123630903D01*
X124680554Y-123642454D01*
X124669262Y-123651721D01*
X124669041Y-123651450D01*
X124669030Y-123651459D01*
X124663661Y-123656317D01*
X124661623Y-123657990D01*
X124644067Y-123675546D01*
X124607051Y-123700279D01*
X124565922Y-123717315D01*
X124544098Y-123721656D01*
X124544086Y-123721659D01*
X124544084Y-123721659D01*
X124522260Y-123726000D01*
X124477740Y-123726000D01*
X124455916Y-123721659D01*
X124455914Y-123721659D01*
X124455902Y-123721656D01*
X124434078Y-123717315D01*
X124392949Y-123700279D01*
X124355933Y-123675546D01*
X124338377Y-123657990D01*
X124336339Y-123656317D01*
X124330970Y-123651459D01*
X124330959Y-123651450D01*
X124330738Y-123651721D01*
X124319446Y-123642454D01*
X124297835Y-123630903D01*
X124274386Y-123623790D01*
X124250000Y-123621388D01*
X124225614Y-123623790D01*
X124202165Y-123630903D01*
X124180554Y-123642454D01*
X124169262Y-123651721D01*
X124169041Y-123651450D01*
X124169030Y-123651459D01*
X124163661Y-123656317D01*
X124161623Y-123657990D01*
X124144067Y-123675546D01*
X124107051Y-123700279D01*
X124065922Y-123717315D01*
X124044098Y-123721656D01*
X124044086Y-123721659D01*
X124044084Y-123721659D01*
X124022260Y-123726000D01*
X123977740Y-123726000D01*
X123955916Y-123721659D01*
X123955914Y-123721659D01*
X123955902Y-123721656D01*
X123934078Y-123717315D01*
X123892949Y-123700279D01*
X123855933Y-123675546D01*
X123838377Y-123657990D01*
X123836339Y-123656317D01*
X123830970Y-123651459D01*
X123830959Y-123651450D01*
X123830738Y-123651721D01*
X123819446Y-123642454D01*
X123797835Y-123630903D01*
X123774386Y-123623790D01*
X123750000Y-123621388D01*
X123725614Y-123623790D01*
X123702165Y-123630903D01*
X123680554Y-123642454D01*
X123669262Y-123651721D01*
X123669041Y-123651450D01*
X123669030Y-123651459D01*
X123663661Y-123656317D01*
X123661623Y-123657990D01*
X123644067Y-123675546D01*
X123607051Y-123700279D01*
X123565922Y-123717315D01*
X123544098Y-123721656D01*
X123544086Y-123721659D01*
X123544084Y-123721659D01*
X123522260Y-123726000D01*
X123477740Y-123726000D01*
X123455916Y-123721659D01*
X123455914Y-123721659D01*
X123455902Y-123721656D01*
X123434078Y-123717315D01*
X123392949Y-123700279D01*
X123355933Y-123675546D01*
X123338377Y-123657990D01*
X123336339Y-123656317D01*
X123330970Y-123651459D01*
X123330959Y-123651450D01*
X123330738Y-123651721D01*
X123319446Y-123642454D01*
X123297835Y-123630903D01*
X123274386Y-123623790D01*
X123250000Y-123621388D01*
X123225614Y-123623790D01*
X123202165Y-123630903D01*
X123180554Y-123642454D01*
X123169262Y-123651721D01*
X123169041Y-123651450D01*
X123169030Y-123651459D01*
X123163661Y-123656317D01*
X123161623Y-123657990D01*
X123144067Y-123675546D01*
X123107051Y-123700279D01*
X123065922Y-123717315D01*
X123044098Y-123721656D01*
X123044086Y-123721659D01*
X123044084Y-123721659D01*
X123022260Y-123726000D01*
X122977740Y-123726000D01*
X122955916Y-123721659D01*
X122955914Y-123721659D01*
X122955902Y-123721656D01*
X122934078Y-123717315D01*
X122892949Y-123700279D01*
X122855933Y-123675546D01*
X122838377Y-123657990D01*
X122836339Y-123656317D01*
X122830970Y-123651459D01*
X122830959Y-123651450D01*
X122830738Y-123651721D01*
X122819446Y-123642454D01*
X122797835Y-123630903D01*
X122774386Y-123623790D01*
X122750000Y-123621388D01*
X122725614Y-123623790D01*
X122702165Y-123630903D01*
X122680554Y-123642454D01*
X122669262Y-123651721D01*
X122669041Y-123651450D01*
X122669030Y-123651459D01*
X122663661Y-123656317D01*
X122661623Y-123657990D01*
X122644067Y-123675546D01*
X122607051Y-123700279D01*
X122565922Y-123717315D01*
X122544098Y-123721656D01*
X122544086Y-123721659D01*
X122544084Y-123721659D01*
X122522260Y-123726000D01*
X122477740Y-123726000D01*
X122455916Y-123721659D01*
X122455914Y-123721659D01*
X122455902Y-123721656D01*
X122434078Y-123717315D01*
X122392949Y-123700279D01*
X122355933Y-123675546D01*
X122338377Y-123657990D01*
X122336339Y-123656317D01*
X122330970Y-123651459D01*
X122330959Y-123651450D01*
X122330738Y-123651721D01*
X122319446Y-123642454D01*
X122297835Y-123630903D01*
X122274386Y-123623790D01*
X122250000Y-123621388D01*
X122225614Y-123623790D01*
X122202165Y-123630903D01*
X122180554Y-123642454D01*
X122169262Y-123651721D01*
X122169041Y-123651450D01*
X122169030Y-123651459D01*
X122163661Y-123656317D01*
X122161623Y-123657990D01*
X122144067Y-123675546D01*
X122107051Y-123700279D01*
X122065922Y-123717315D01*
X122044098Y-123721656D01*
X122044086Y-123721659D01*
X122044084Y-123721659D01*
X122022260Y-123726000D01*
X121977740Y-123726000D01*
X121955916Y-123721659D01*
X121955914Y-123721659D01*
X121955902Y-123721656D01*
X121934078Y-123717315D01*
X121892949Y-123700279D01*
X121855933Y-123675546D01*
X121838377Y-123657990D01*
X121836339Y-123656317D01*
X121830970Y-123651459D01*
X121830959Y-123651450D01*
X121830738Y-123651721D01*
X121819446Y-123642454D01*
X121797835Y-123630903D01*
X121774386Y-123623790D01*
X121750000Y-123621388D01*
X121725614Y-123623790D01*
X121702165Y-123630903D01*
X121680554Y-123642454D01*
X121669262Y-123651721D01*
X121669041Y-123651450D01*
X121669030Y-123651459D01*
X121663661Y-123656317D01*
X121661623Y-123657990D01*
X121644067Y-123675546D01*
X121607051Y-123700279D01*
X121565922Y-123717315D01*
X121544098Y-123721656D01*
X121544086Y-123721659D01*
X121544084Y-123721659D01*
X121522260Y-123726000D01*
X121477740Y-123726000D01*
X121455916Y-123721659D01*
X121455914Y-123721659D01*
X121455902Y-123721656D01*
X121434078Y-123717315D01*
X121392949Y-123700279D01*
X121355933Y-123675546D01*
X121338377Y-123657990D01*
X121336339Y-123656317D01*
X121330970Y-123651459D01*
X121330959Y-123651450D01*
X121330738Y-123651721D01*
X121319446Y-123642454D01*
X121297835Y-123630903D01*
X121274386Y-123623790D01*
X121250000Y-123621388D01*
X121225614Y-123623790D01*
X121202165Y-123630903D01*
X121180554Y-123642454D01*
X121169262Y-123651721D01*
X121169041Y-123651450D01*
X121169030Y-123651459D01*
X121163661Y-123656317D01*
X121161623Y-123657990D01*
X121144067Y-123675546D01*
X121107051Y-123700279D01*
X121065922Y-123717315D01*
X121044098Y-123721656D01*
X121044086Y-123721659D01*
X121044084Y-123721659D01*
X121022260Y-123726000D01*
X120977740Y-123726000D01*
X120955916Y-123721659D01*
X120955914Y-123721659D01*
X120955902Y-123721656D01*
X120934078Y-123717315D01*
X120892949Y-123700279D01*
X120855933Y-123675546D01*
X120838377Y-123657990D01*
X120836339Y-123656317D01*
X120830970Y-123651459D01*
X120830959Y-123651450D01*
X120830738Y-123651721D01*
X120819446Y-123642454D01*
X120797835Y-123630903D01*
X120774386Y-123623790D01*
X120750000Y-123621388D01*
X120725614Y-123623790D01*
X120702165Y-123630903D01*
X120680554Y-123642454D01*
X120669262Y-123651721D01*
X120669041Y-123651450D01*
X120669030Y-123651459D01*
X120663661Y-123656317D01*
X120661623Y-123657990D01*
X120644067Y-123675546D01*
X120607051Y-123700279D01*
X120565922Y-123717315D01*
X120544098Y-123721656D01*
X120544086Y-123721659D01*
X120544084Y-123721659D01*
X120522260Y-123726000D01*
X120477740Y-123726000D01*
X120455916Y-123721659D01*
X120455914Y-123721659D01*
X120455902Y-123721656D01*
X120434078Y-123717315D01*
X120392949Y-123700279D01*
X120355933Y-123675546D01*
X120338377Y-123657990D01*
X120336339Y-123656317D01*
X120330970Y-123651459D01*
X120330959Y-123651450D01*
X120330738Y-123651721D01*
X120319446Y-123642454D01*
X120297835Y-123630903D01*
X120274386Y-123623790D01*
X120250000Y-123621388D01*
X120225614Y-123623790D01*
X120202165Y-123630903D01*
X120180554Y-123642454D01*
X120169262Y-123651721D01*
X120169041Y-123651450D01*
X120169030Y-123651459D01*
X120163661Y-123656317D01*
X120161623Y-123657990D01*
X120144067Y-123675546D01*
X120107051Y-123700279D01*
X120065922Y-123717315D01*
X120044098Y-123721656D01*
X120044086Y-123721659D01*
X120044084Y-123721659D01*
X120022260Y-123726000D01*
X119977740Y-123726000D01*
X119955916Y-123721659D01*
X119955914Y-123721659D01*
X119955902Y-123721656D01*
X119934078Y-123717315D01*
X119892949Y-123700279D01*
X119855933Y-123675546D01*
X119838377Y-123657990D01*
X119836339Y-123656317D01*
X119830970Y-123651459D01*
X119830959Y-123651450D01*
X119830738Y-123651721D01*
X119819446Y-123642454D01*
X119797835Y-123630903D01*
X119774386Y-123623790D01*
X119750000Y-123621388D01*
X119725614Y-123623790D01*
X119702165Y-123630903D01*
X119680554Y-123642454D01*
X119669262Y-123651721D01*
X119669041Y-123651450D01*
X119669030Y-123651459D01*
X119663661Y-123656317D01*
X119661623Y-123657990D01*
X119644067Y-123675546D01*
X119607051Y-123700279D01*
X119565922Y-123717315D01*
X119544098Y-123721656D01*
X119544086Y-123721659D01*
X119544084Y-123721659D01*
X119522260Y-123726000D01*
X119477740Y-123726000D01*
X119455916Y-123721659D01*
X119455914Y-123721659D01*
X119455902Y-123721656D01*
X119434078Y-123717315D01*
X119392949Y-123700279D01*
X119355933Y-123675546D01*
X119338377Y-123657990D01*
X119336339Y-123656317D01*
X119330970Y-123651459D01*
X119330959Y-123651450D01*
X119330738Y-123651721D01*
X119319446Y-123642454D01*
X119297835Y-123630903D01*
X119274386Y-123623790D01*
X119250000Y-123621388D01*
X119225614Y-123623790D01*
X119202165Y-123630903D01*
X119180554Y-123642454D01*
X119169262Y-123651721D01*
X119169041Y-123651450D01*
X119169030Y-123651459D01*
X119163661Y-123656317D01*
X119161623Y-123657990D01*
X119144067Y-123675546D01*
X119107051Y-123700279D01*
X119065922Y-123717315D01*
X119044098Y-123721656D01*
X119044086Y-123721659D01*
X119044084Y-123721659D01*
X119022260Y-123726000D01*
X118977740Y-123726000D01*
X118955916Y-123721659D01*
X118955914Y-123721659D01*
X118955902Y-123721656D01*
X118934078Y-123717315D01*
X118892949Y-123700279D01*
X118855933Y-123675546D01*
X118824454Y-123644067D01*
X118812092Y-123625566D01*
X118812089Y-123625562D01*
X118812087Y-123625558D01*
X118799721Y-123607051D01*
X118791205Y-123586492D01*
X118791201Y-123586483D01*
X118791197Y-123586473D01*
X118782685Y-123565924D01*
X118778346Y-123544107D01*
X118778341Y-123544088D01*
X118778339Y-123544076D01*
X118774000Y-123522261D01*
X118774000Y-123500010D01*
X118773999Y-123499990D01*
X118773999Y-123000000D01*
X118774000Y-122999990D01*
X118774000Y-122977739D01*
X118778339Y-122955924D01*
X118778341Y-122955912D01*
X118778346Y-122955893D01*
X118782685Y-122934076D01*
X118791197Y-122913527D01*
X118791201Y-122913517D01*
X118791205Y-122913508D01*
X118799721Y-122892949D01*
X118812087Y-122874442D01*
X118812089Y-122874438D01*
X118812092Y-122874434D01*
X118824454Y-122855933D01*
X118855933Y-122824454D01*
X118892949Y-122799721D01*
X118913511Y-122791204D01*
X118913515Y-122791202D01*
X118934078Y-122782685D01*
X118955902Y-122778344D01*
X118955914Y-122778341D01*
X118955916Y-122778341D01*
X118977740Y-122774000D01*
X119022260Y-122774000D01*
X119044084Y-122778341D01*
X119044084Y-122778341D01*
G37*
G36*
X116247530Y-119246220D02*
G01*
X116269781Y-119246220D01*
X116291596Y-119250559D01*
X116291608Y-119250561D01*
X116291624Y-119250565D01*
X116299350Y-119252102D01*
X116313444Y-119254905D01*
X116333993Y-119263417D01*
X116334004Y-119263421D01*
X116334006Y-119263422D01*
X116334013Y-119263426D01*
X116354571Y-119271941D01*
X116373075Y-119284305D01*
X116373079Y-119284307D01*
X116373080Y-119284308D01*
X116373082Y-119284309D01*
X116373086Y-119284312D01*
X116391587Y-119296674D01*
X116423066Y-119328153D01*
X116447799Y-119365169D01*
X116464835Y-119406298D01*
X116464835Y-119406300D01*
X116469176Y-119428122D01*
X116469179Y-119428134D01*
X116469179Y-119428136D01*
X116473520Y-119449960D01*
X116473520Y-119494480D01*
X116469179Y-119516304D01*
X116469176Y-119516317D01*
X116464835Y-119538142D01*
X116447799Y-119579271D01*
X116423066Y-119616287D01*
X116405510Y-119633843D01*
X116403837Y-119635881D01*
X116398979Y-119641250D01*
X116398970Y-119641261D01*
X116399241Y-119641482D01*
X116389974Y-119652774D01*
X116378423Y-119674385D01*
X116371310Y-119697834D01*
X116368908Y-119722220D01*
X116371310Y-119746606D01*
X116378423Y-119770055D01*
X116389974Y-119791666D01*
X116399241Y-119802958D01*
X116398970Y-119803179D01*
X116398979Y-119803190D01*
X116403837Y-119808559D01*
X116405510Y-119810597D01*
X116423066Y-119828153D01*
X116447799Y-119865169D01*
X116464835Y-119906298D01*
X116464835Y-119906300D01*
X116469176Y-119928122D01*
X116469179Y-119928134D01*
X116469179Y-119928136D01*
X116473520Y-119949960D01*
X116473520Y-119994480D01*
X116469179Y-120016304D01*
X116469176Y-120016317D01*
X116464835Y-120038142D01*
X116447799Y-120079271D01*
X116423066Y-120116287D01*
X116405510Y-120133843D01*
X116403837Y-120135881D01*
X116398979Y-120141250D01*
X116398970Y-120141261D01*
X116399241Y-120141482D01*
X116389974Y-120152774D01*
X116378423Y-120174385D01*
X116371310Y-120197834D01*
X116368908Y-120222220D01*
X116371310Y-120246606D01*
X116378423Y-120270055D01*
X116389974Y-120291666D01*
X116399241Y-120302958D01*
X116398970Y-120303179D01*
X116398979Y-120303190D01*
X116403837Y-120308559D01*
X116405510Y-120310597D01*
X116423066Y-120328153D01*
X116447799Y-120365169D01*
X116464835Y-120406298D01*
X116464835Y-120406300D01*
X116469176Y-120428122D01*
X116469179Y-120428134D01*
X116469179Y-120428136D01*
X116473520Y-120449960D01*
X116473520Y-120494480D01*
X116469179Y-120516304D01*
X116469176Y-120516317D01*
X116464835Y-120538142D01*
X116447799Y-120579271D01*
X116423066Y-120616287D01*
X116391587Y-120647766D01*
X116373086Y-120660128D01*
X116373082Y-120660131D01*
X116373080Y-120660132D01*
X116373079Y-120660133D01*
X116373075Y-120660135D01*
X116354571Y-120672499D01*
X116334013Y-120681014D01*
X116334006Y-120681018D01*
X116334004Y-120681019D01*
X116334003Y-120681019D01*
X116333993Y-120681023D01*
X116313444Y-120689535D01*
X116299350Y-120692338D01*
X116291624Y-120693875D01*
X116291608Y-120693879D01*
X116291596Y-120693881D01*
X116269781Y-120698220D01*
X116247530Y-120698220D01*
X116247520Y-120698221D01*
X115747520Y-120698221D01*
X115747510Y-120698220D01*
X115725259Y-120698220D01*
X115703444Y-120693881D01*
X115703432Y-120693879D01*
X115703416Y-120693875D01*
X115695690Y-120692338D01*
X115681596Y-120689535D01*
X115661047Y-120681023D01*
X115661037Y-120681019D01*
X115661036Y-120681019D01*
X115661034Y-120681018D01*
X115661027Y-120681014D01*
X115640469Y-120672499D01*
X115621965Y-120660135D01*
X115621961Y-120660133D01*
X115621960Y-120660132D01*
X115621958Y-120660131D01*
X115621954Y-120660128D01*
X115603453Y-120647766D01*
X115571974Y-120616287D01*
X115547241Y-120579271D01*
X115530205Y-120538142D01*
X115525864Y-120516317D01*
X115525861Y-120516304D01*
X115521520Y-120494480D01*
X115521520Y-120449960D01*
X115525861Y-120428136D01*
X115525861Y-120428134D01*
X115525864Y-120428122D01*
X115530205Y-120406300D01*
X115530205Y-120406298D01*
X115547241Y-120365169D01*
X115571974Y-120328153D01*
X115589530Y-120310597D01*
X115591203Y-120308559D01*
X115596061Y-120303190D01*
X115596070Y-120303179D01*
X115595799Y-120302958D01*
X115605066Y-120291666D01*
X115616617Y-120270055D01*
X115623730Y-120246606D01*
X115626132Y-120222220D01*
X115623730Y-120197834D01*
X115616617Y-120174385D01*
X115605066Y-120152774D01*
X115595799Y-120141482D01*
X115596070Y-120141261D01*
X115596061Y-120141250D01*
X115591203Y-120135881D01*
X115589530Y-120133843D01*
X115571974Y-120116287D01*
X115547241Y-120079271D01*
X115530205Y-120038142D01*
X115525864Y-120016317D01*
X115525861Y-120016304D01*
X115521520Y-119994480D01*
X115521520Y-119949960D01*
X115525861Y-119928136D01*
X115525861Y-119928134D01*
X115525864Y-119928122D01*
X115530205Y-119906300D01*
X115530205Y-119906298D01*
X115547241Y-119865169D01*
X115571974Y-119828153D01*
X115589530Y-119810597D01*
X115591203Y-119808559D01*
X115596061Y-119803190D01*
X115596070Y-119803179D01*
X115595799Y-119802958D01*
X115605066Y-119791666D01*
X115616617Y-119770055D01*
X115623730Y-119746606D01*
X115626132Y-119722220D01*
X115623730Y-119697834D01*
X115616617Y-119674385D01*
X115605066Y-119652774D01*
X115595799Y-119641482D01*
X115596070Y-119641261D01*
X115596061Y-119641250D01*
X115591203Y-119635881D01*
X115589530Y-119633843D01*
X115571974Y-119616287D01*
X115547241Y-119579271D01*
X115530205Y-119538142D01*
X115525864Y-119516317D01*
X115525861Y-119516304D01*
X115521520Y-119494480D01*
X115521520Y-119449960D01*
X115525861Y-119428136D01*
X115525861Y-119428134D01*
X115525864Y-119428122D01*
X115530205Y-119406300D01*
X115530205Y-119406298D01*
X115547241Y-119365169D01*
X115571974Y-119328153D01*
X115603453Y-119296674D01*
X115621954Y-119284312D01*
X115621958Y-119284309D01*
X115621960Y-119284308D01*
X115621961Y-119284307D01*
X115621965Y-119284305D01*
X115640469Y-119271941D01*
X115661027Y-119263426D01*
X115661034Y-119263422D01*
X115661036Y-119263421D01*
X115661047Y-119263417D01*
X115681596Y-119254905D01*
X115695690Y-119252102D01*
X115703416Y-119250565D01*
X115703432Y-119250561D01*
X115703444Y-119250559D01*
X115725259Y-119246220D01*
X115747510Y-119246220D01*
X115747520Y-119246219D01*
X116247520Y-119246219D01*
X116247530Y-119246220D01*
X116247530Y-119246220D01*
G37*
M02*
