G04 #@! TF.GenerationSoftware,KiCad,Pcbnew,(5.1.0)-1*
G04 #@! TF.CreationDate,2020-06-02T11:39:52-04:00*
G04 #@! TF.ProjectId,ThreeDeeO,54687265-6544-4656-954f-2e6b69636164,rev?*
G04 #@! TF.SameCoordinates,Original*
G04 #@! TF.FileFunction,Legend,Top*
G04 #@! TF.FilePolarity,Positive*
%FSLAX46Y46*%
G04 Gerber Fmt 4.6, Leading zero omitted, Abs format (unit mm)*
G04 Created by KiCad (PCBNEW (5.1.0)-1) date 2020-06-02 11:39:52*
%MOMM*%
%LPD*%
G04 APERTURE LIST*
%ADD10C,0.150000*%
%ADD11C,0.250000*%
%ADD12C,0.120000*%
%ADD13C,0.187500*%
%ADD14C,0.127000*%
%ADD15C,0.200000*%
%ADD16C,0.100000*%
G04 APERTURE END LIST*
D10*
X137352380Y-52809523D02*
X137495238Y-53000000D01*
X137352380Y-53190476D01*
X137292380Y-59199523D02*
X137435238Y-59390000D01*
X137292380Y-59580476D01*
D11*
X137004285Y-61158095D02*
X136337619Y-61158095D01*
X137385238Y-60920000D02*
X136670952Y-60681904D01*
X136670952Y-61300952D01*
X136909047Y-61824761D02*
X136956666Y-61729523D01*
X137004285Y-61681904D01*
X137099523Y-61634285D01*
X137147142Y-61634285D01*
X137242380Y-61681904D01*
X137290000Y-61729523D01*
X137337619Y-61824761D01*
X137337619Y-62015238D01*
X137290000Y-62110476D01*
X137242380Y-62158095D01*
X137147142Y-62205714D01*
X137099523Y-62205714D01*
X137004285Y-62158095D01*
X136956666Y-62110476D01*
X136909047Y-62015238D01*
X136909047Y-61824761D01*
X136861428Y-61729523D01*
X136813809Y-61681904D01*
X136718571Y-61634285D01*
X136528095Y-61634285D01*
X136432857Y-61681904D01*
X136385238Y-61729523D01*
X136337619Y-61824761D01*
X136337619Y-62015238D01*
X136385238Y-62110476D01*
X136432857Y-62158095D01*
X136528095Y-62205714D01*
X136718571Y-62205714D01*
X136813809Y-62158095D01*
X136861428Y-62110476D01*
X136909047Y-62015238D01*
X137337619Y-62824761D02*
X137337619Y-62920000D01*
X137290000Y-63015238D01*
X137242380Y-63062857D01*
X137147142Y-63110476D01*
X136956666Y-63158095D01*
X136718571Y-63158095D01*
X136528095Y-63110476D01*
X136432857Y-63062857D01*
X136385238Y-63015238D01*
X136337619Y-62920000D01*
X136337619Y-62824761D01*
X136385238Y-62729523D01*
X136432857Y-62681904D01*
X136528095Y-62634285D01*
X136718571Y-62586666D01*
X136956666Y-62586666D01*
X137147142Y-62634285D01*
X137242380Y-62681904D01*
X137290000Y-62729523D01*
X137337619Y-62824761D01*
D12*
X137600000Y-58780000D02*
X136310000Y-58790000D01*
D11*
X137242380Y-54451904D02*
X137290000Y-54499523D01*
X137337619Y-54594761D01*
X137337619Y-54832857D01*
X137290000Y-54928095D01*
X137242380Y-54975714D01*
X137147142Y-55023333D01*
X137051904Y-55023333D01*
X136909047Y-54975714D01*
X136337619Y-54404285D01*
X136337619Y-55023333D01*
X137004285Y-55880476D02*
X136337619Y-55880476D01*
X137385238Y-55642380D02*
X136670952Y-55404285D01*
X136670952Y-56023333D01*
X137337619Y-56594761D02*
X137337619Y-56690000D01*
X137290000Y-56785238D01*
X137242380Y-56832857D01*
X137147142Y-56880476D01*
X136956666Y-56928095D01*
X136718571Y-56928095D01*
X136528095Y-56880476D01*
X136432857Y-56832857D01*
X136385238Y-56785238D01*
X136337619Y-56690000D01*
X136337619Y-56594761D01*
X136385238Y-56499523D01*
X136432857Y-56451904D01*
X136528095Y-56404285D01*
X136718571Y-56356666D01*
X136956666Y-56356666D01*
X137147142Y-56404285D01*
X137242380Y-56451904D01*
X137290000Y-56499523D01*
X137337619Y-56594761D01*
X154319047Y-64871428D02*
X155080952Y-64871428D01*
X154700000Y-65252380D02*
X154700000Y-64490476D01*
D13*
X171092857Y-52864285D02*
X171342857Y-53614285D01*
X171592857Y-52864285D01*
X171807142Y-53578571D02*
X171914285Y-53614285D01*
X172092857Y-53614285D01*
X172164285Y-53578571D01*
X172200000Y-53542857D01*
X172235714Y-53471428D01*
X172235714Y-53400000D01*
X172200000Y-53328571D01*
X172164285Y-53292857D01*
X172092857Y-53257142D01*
X171950000Y-53221428D01*
X171878571Y-53185714D01*
X171842857Y-53150000D01*
X171807142Y-53078571D01*
X171807142Y-53007142D01*
X171842857Y-52935714D01*
X171878571Y-52900000D01*
X171950000Y-52864285D01*
X172128571Y-52864285D01*
X172235714Y-52900000D01*
X171078571Y-56414285D02*
X171078571Y-55664285D01*
X171078571Y-56021428D02*
X171507142Y-56021428D01*
X171507142Y-56414285D02*
X171507142Y-55664285D01*
X171828571Y-56378571D02*
X171935714Y-56414285D01*
X172114285Y-56414285D01*
X172185714Y-56378571D01*
X172221428Y-56342857D01*
X172257142Y-56271428D01*
X172257142Y-56200000D01*
X172221428Y-56128571D01*
X172185714Y-56092857D01*
X172114285Y-56057142D01*
X171971428Y-56021428D01*
X171900000Y-55985714D01*
X171864285Y-55950000D01*
X171828571Y-55878571D01*
X171828571Y-55807142D01*
X171864285Y-55735714D01*
X171900000Y-55700000D01*
X171971428Y-55664285D01*
X172150000Y-55664285D01*
X172257142Y-55700000D01*
D10*
X159961230Y-66663515D02*
X159910722Y-66663515D01*
X159834961Y-66688769D01*
X159784453Y-66739277D01*
X159759199Y-66815038D01*
X159759199Y-66865546D01*
X159784453Y-66941307D01*
X159834961Y-66991815D01*
X159910722Y-67017069D01*
X159961230Y-67017069D01*
X160036991Y-66991815D01*
X160087499Y-66941307D01*
X160112753Y-66865546D01*
X160112753Y-66815038D01*
X159910722Y-66613008D02*
X160112753Y-66815038D01*
X160163260Y-66815038D01*
X160188514Y-66789784D01*
X160213768Y-66714023D01*
X160188514Y-66638262D01*
X160062245Y-66511993D01*
X159935976Y-66486739D01*
X159809707Y-66511993D01*
X159683438Y-66587754D01*
X159607676Y-66714023D01*
X159582423Y-66840292D01*
X159607676Y-66966561D01*
X159683438Y-67092830D01*
X159809707Y-67168592D01*
X159935976Y-67193845D01*
X160062245Y-67168592D01*
X160188514Y-67092830D01*
X160264276Y-66966561D01*
X160289529Y-66840292D01*
X160769352Y-66309962D02*
X160744098Y-66385723D01*
X160643083Y-66486739D01*
X160567321Y-66511993D01*
X160516814Y-66511993D01*
X160441052Y-66486739D01*
X160289529Y-66335216D01*
X160264276Y-66259454D01*
X160264276Y-66208947D01*
X160289529Y-66133185D01*
X160390545Y-66032170D01*
X160466306Y-66006916D01*
X161021890Y-66107931D02*
X160668337Y-65754378D01*
X160491560Y-65577601D02*
X160491560Y-65628109D01*
X160542068Y-65628109D01*
X160542068Y-65577601D01*
X160491560Y-65577601D01*
X160542068Y-65628109D01*
X160845113Y-65577601D02*
X161047144Y-65375571D01*
X160744098Y-65325063D02*
X161198667Y-65779632D01*
X161274428Y-65804886D01*
X161350190Y-65779632D01*
X161400697Y-65729124D01*
X161577474Y-65552348D02*
X161223920Y-65198794D01*
X161324936Y-65299809D02*
X161299682Y-65224048D01*
X161299682Y-65173540D01*
X161324936Y-65097779D01*
X161375443Y-65047271D01*
X161779504Y-64643210D02*
X162133058Y-64996764D01*
X161552220Y-64870495D02*
X161830012Y-65148287D01*
X161905773Y-65173540D01*
X161981535Y-65148287D01*
X162057296Y-65072525D01*
X162082550Y-64996764D01*
X162082550Y-64946256D01*
X162335088Y-64744226D02*
X162410850Y-64718972D01*
X162511865Y-64617956D01*
X162537119Y-64542195D01*
X162511865Y-64466434D01*
X162486611Y-64441180D01*
X162410850Y-64415926D01*
X162335088Y-64441180D01*
X162259327Y-64516941D01*
X162183565Y-64542195D01*
X162107804Y-64516941D01*
X162082550Y-64491687D01*
X162057296Y-64415926D01*
X162082550Y-64340165D01*
X162158312Y-64264403D01*
X162234073Y-64239149D01*
X162234073Y-63835088D02*
X162562373Y-63506789D01*
X162587626Y-63885596D01*
X162663388Y-63809834D01*
X162739149Y-63784581D01*
X162789657Y-63784581D01*
X162865418Y-63809834D01*
X162991687Y-63936104D01*
X163016941Y-64011865D01*
X163016941Y-64062373D01*
X162991687Y-64138134D01*
X162840165Y-64289657D01*
X162764403Y-64314911D01*
X162713895Y-64314911D01*
X162890672Y-63178489D02*
X162941180Y-63127981D01*
X163016941Y-63102728D01*
X163067449Y-63102728D01*
X163143210Y-63127981D01*
X163269479Y-63203743D01*
X163395748Y-63330012D01*
X163471510Y-63456281D01*
X163496764Y-63532043D01*
X163496764Y-63582550D01*
X163471510Y-63658312D01*
X163421002Y-63708819D01*
X163345241Y-63734073D01*
X163294733Y-63734073D01*
X163218972Y-63708819D01*
X163092703Y-63633058D01*
X162966434Y-63506789D01*
X162890672Y-63380520D01*
X162865418Y-63304758D01*
X162865418Y-63254251D01*
X162890672Y-63178489D01*
X163395748Y-62673413D02*
X163446256Y-62622905D01*
X163522018Y-62597651D01*
X163572525Y-62597651D01*
X163648287Y-62622905D01*
X163774556Y-62698667D01*
X163900825Y-62824936D01*
X163976586Y-62951205D01*
X164001840Y-63026966D01*
X164001840Y-63077474D01*
X163976586Y-63153235D01*
X163926079Y-63203743D01*
X163850317Y-63228997D01*
X163799809Y-63228997D01*
X163724048Y-63203743D01*
X163597779Y-63127981D01*
X163471510Y-63001712D01*
X163395748Y-62875443D01*
X163370495Y-62799682D01*
X163370495Y-62749174D01*
X163395748Y-62673413D01*
X163900825Y-62168337D02*
X163951332Y-62117829D01*
X164027094Y-62092575D01*
X164077601Y-62092575D01*
X164153363Y-62117829D01*
X164279632Y-62193590D01*
X164405901Y-62319859D01*
X164481662Y-62446129D01*
X164506916Y-62521890D01*
X164506916Y-62572398D01*
X164481662Y-62648159D01*
X164431155Y-62698667D01*
X164355393Y-62723920D01*
X164304886Y-62723920D01*
X164229124Y-62698667D01*
X164102855Y-62622905D01*
X163976586Y-62496636D01*
X163900825Y-62370367D01*
X163875571Y-62294606D01*
X163875571Y-62244098D01*
X163900825Y-62168337D01*
X164481662Y-61941052D02*
X165011993Y-62471382D01*
X164506916Y-61966306D02*
X164532170Y-61890545D01*
X164633185Y-61789529D01*
X164708947Y-61764276D01*
X164759454Y-61764276D01*
X164835216Y-61789529D01*
X164986739Y-61941052D01*
X165011993Y-62016814D01*
X165011993Y-62067321D01*
X164986739Y-62143083D01*
X164885723Y-62244098D01*
X164809962Y-62269352D01*
X165264531Y-61814783D02*
X165340292Y-61789529D01*
X165441307Y-61688514D01*
X165466561Y-61612753D01*
X165441307Y-61536991D01*
X165416054Y-61511737D01*
X165340292Y-61486484D01*
X165264531Y-61511737D01*
X165188769Y-61587499D01*
X165113008Y-61612753D01*
X165037246Y-61587499D01*
X165011993Y-61562245D01*
X164986739Y-61486484D01*
X165011993Y-61410722D01*
X165087754Y-61334961D01*
X165163515Y-61309707D01*
X165744353Y-61385468D02*
X165390800Y-61031915D01*
X165214023Y-60855138D02*
X165214023Y-60905646D01*
X165264531Y-60905646D01*
X165264531Y-60855138D01*
X165214023Y-60855138D01*
X165264531Y-60905646D01*
X157763450Y-66262098D02*
X158201183Y-65824366D01*
X158234855Y-66329442D01*
X158335870Y-66228427D01*
X158436885Y-66194755D01*
X158504229Y-66194755D01*
X158605244Y-66228427D01*
X158773603Y-66396785D01*
X158807275Y-66497801D01*
X158807275Y-66565144D01*
X158773603Y-66666159D01*
X158571572Y-66868190D01*
X158470557Y-66901862D01*
X158403214Y-66901862D01*
X159211336Y-66228427D02*
X158504229Y-65521320D01*
X158672588Y-65352961D01*
X158807275Y-65285618D01*
X158941962Y-65285618D01*
X159042977Y-65319289D01*
X159211336Y-65420305D01*
X159312351Y-65521320D01*
X159413366Y-65689679D01*
X159447038Y-65790694D01*
X159447038Y-65925381D01*
X159379694Y-66060068D01*
X159211336Y-66228427D01*
X159346023Y-64679526D02*
X159480710Y-64544839D01*
X159581725Y-64511167D01*
X159716412Y-64511167D01*
X159884771Y-64612183D01*
X160120473Y-64847885D01*
X160221488Y-65016244D01*
X160221488Y-65150931D01*
X160187816Y-65251946D01*
X160053129Y-65386633D01*
X159952114Y-65420305D01*
X159817427Y-65420305D01*
X159649068Y-65319289D01*
X159413366Y-65083587D01*
X159312351Y-64915228D01*
X159312351Y-64780541D01*
X159346023Y-64679526D01*
X161063282Y-64376480D02*
X160490862Y-64275465D01*
X160659221Y-64780541D02*
X159952114Y-64073435D01*
X160221488Y-63804061D01*
X160322503Y-63770389D01*
X160389847Y-63770389D01*
X160490862Y-63804061D01*
X160591877Y-63905076D01*
X160625549Y-64006091D01*
X160625549Y-64073435D01*
X160591877Y-64174450D01*
X160322503Y-64443824D01*
X161063282Y-63029610D02*
X160962267Y-63063282D01*
X160861251Y-63164297D01*
X160793908Y-63298984D01*
X160793908Y-63433671D01*
X160827580Y-63534687D01*
X160928595Y-63703045D01*
X161029610Y-63804061D01*
X161197969Y-63905076D01*
X161298984Y-63938748D01*
X161433671Y-63938748D01*
X161568358Y-63871404D01*
X161635702Y-63804061D01*
X161703045Y-63669374D01*
X161703045Y-63602030D01*
X161467343Y-63366328D01*
X161332656Y-63501015D01*
X161938748Y-62760236D02*
X162073435Y-62692893D01*
X162140778Y-62692893D01*
X162241793Y-62726564D01*
X162342809Y-62827580D01*
X162376480Y-62928595D01*
X162376480Y-62995938D01*
X162342809Y-63096954D01*
X162073435Y-63366328D01*
X161366328Y-62659221D01*
X161602030Y-62423519D01*
X161703045Y-62389847D01*
X161770389Y-62389847D01*
X161871404Y-62423519D01*
X161938748Y-62490862D01*
X161972419Y-62591877D01*
X161972419Y-62659221D01*
X161938748Y-62760236D01*
X161703045Y-62995938D01*
X162511167Y-61514381D02*
X163453976Y-61985786D01*
X162982572Y-61042977D01*
X164295770Y-61143992D02*
X163891709Y-61548053D01*
X164093740Y-61346023D02*
X163386633Y-60638916D01*
X163420305Y-60807275D01*
X163420305Y-60941962D01*
X163386633Y-61042977D01*
X164598816Y-60840946D02*
X163891709Y-60133840D01*
X164161083Y-60403214D02*
X164194755Y-60302198D01*
X164329442Y-60167511D01*
X164430457Y-60133840D01*
X164497801Y-60133840D01*
X164598816Y-60167511D01*
X164800846Y-60369542D01*
X164834518Y-60470557D01*
X164834518Y-60537901D01*
X164800846Y-60638916D01*
X164666159Y-60773603D01*
X164565144Y-60807275D01*
D12*
X151860000Y-71370000D02*
X155340000Y-71370000D01*
X151860000Y-72330000D02*
X151860000Y-71370000D01*
X151570000Y-72320000D02*
X151860000Y-72330000D01*
X151570000Y-73100000D02*
X151570000Y-72320000D01*
D13*
X158233571Y-53709285D02*
X158233571Y-52959285D01*
X158233571Y-53316428D02*
X158662142Y-53316428D01*
X158662142Y-53709285D02*
X158662142Y-52959285D01*
X158947857Y-53209285D02*
X159340714Y-53209285D01*
X158947857Y-53709285D01*
X159340714Y-53709285D01*
X159626428Y-53709285D02*
X159626428Y-52959285D01*
X161682142Y-53639285D02*
X161432142Y-53282142D01*
X161253571Y-53639285D02*
X161253571Y-52889285D01*
X161539285Y-52889285D01*
X161610714Y-52925000D01*
X161646428Y-52960714D01*
X161682142Y-53032142D01*
X161682142Y-53139285D01*
X161646428Y-53210714D01*
X161610714Y-53246428D01*
X161539285Y-53282142D01*
X161253571Y-53282142D01*
D10*
X148129285Y-75889285D02*
X148129285Y-75139285D01*
X148129285Y-75496428D02*
X148557857Y-75496428D01*
X148557857Y-75889285D02*
X148557857Y-75139285D01*
X148843571Y-75389285D02*
X149236428Y-75389285D01*
X148843571Y-75889285D01*
X149236428Y-75889285D01*
X149665000Y-75139285D02*
X149807857Y-75139285D01*
X149879285Y-75175000D01*
X149950714Y-75246428D01*
X149986428Y-75389285D01*
X149986428Y-75639285D01*
X149950714Y-75782142D01*
X149879285Y-75853571D01*
X149807857Y-75889285D01*
X149665000Y-75889285D01*
X149593571Y-75853571D01*
X149522142Y-75782142D01*
X149486428Y-75639285D01*
X149486428Y-75389285D01*
X149522142Y-75246428D01*
X149593571Y-75175000D01*
X149665000Y-75139285D01*
X151250000Y-75239285D02*
X151500000Y-75989285D01*
X151750000Y-75239285D01*
X153835714Y-76039285D02*
X153835714Y-75289285D01*
X153835714Y-75646428D02*
X154264285Y-75646428D01*
X154264285Y-76039285D02*
X154264285Y-75289285D01*
D13*
X169264285Y-52921428D02*
X169157142Y-52885714D01*
X168978571Y-52885714D01*
X168907142Y-52921428D01*
X168871428Y-52957142D01*
X168835714Y-53028571D01*
X168835714Y-53100000D01*
X168871428Y-53171428D01*
X168907142Y-53207142D01*
X168978571Y-53242857D01*
X169121428Y-53278571D01*
X169192857Y-53314285D01*
X169228571Y-53350000D01*
X169264285Y-53421428D01*
X169264285Y-53492857D01*
X169228571Y-53564285D01*
X169192857Y-53600000D01*
X169121428Y-53635714D01*
X168942857Y-53635714D01*
X168835714Y-53600000D01*
X164071428Y-52925000D02*
X164000000Y-52889285D01*
X163892857Y-52889285D01*
X163785714Y-52925000D01*
X163714285Y-52996428D01*
X163678571Y-53067857D01*
X163642857Y-53210714D01*
X163642857Y-53317857D01*
X163678571Y-53460714D01*
X163714285Y-53532142D01*
X163785714Y-53603571D01*
X163892857Y-53639285D01*
X163964285Y-53639285D01*
X164071428Y-53603571D01*
X164107142Y-53567857D01*
X164107142Y-53317857D01*
X163964285Y-53317857D01*
X166578571Y-53271428D02*
X166685714Y-53307142D01*
X166721428Y-53342857D01*
X166757142Y-53414285D01*
X166757142Y-53521428D01*
X166721428Y-53592857D01*
X166685714Y-53628571D01*
X166614285Y-53664285D01*
X166328571Y-53664285D01*
X166328571Y-52914285D01*
X166578571Y-52914285D01*
X166650000Y-52950000D01*
X166685714Y-52985714D01*
X166721428Y-53057142D01*
X166721428Y-53128571D01*
X166685714Y-53200000D01*
X166650000Y-53235714D01*
X166578571Y-53271428D01*
X166328571Y-53271428D01*
D14*
X150030000Y-53860000D02*
X149830000Y-53860000D01*
X149830000Y-53860000D02*
X149830000Y-54060000D01*
X149830000Y-60660000D02*
X149830000Y-60860000D01*
X149830000Y-60860000D02*
X150030000Y-60860000D01*
X156630000Y-60860000D02*
X156830000Y-60860000D01*
X156830000Y-60860000D02*
X156830000Y-60660000D01*
X156830000Y-54060000D02*
X156830000Y-53860000D01*
X156830000Y-53860000D02*
X156630000Y-53860000D01*
D15*
X150430000Y-54360000D02*
G75*
G03X150430000Y-54360000I-100000J0D01*
G01*
D14*
X153478580Y-68633000D02*
G75*
G03X153478580Y-68633000I-108580J0D01*
G01*
D16*
X159980000Y-58750000D02*
X159980000Y-58900000D01*
X159980000Y-58900000D02*
X160430000Y-58900000D01*
X162180000Y-58750000D02*
X162180000Y-58900000D01*
X162180000Y-58900000D02*
X161730000Y-58900000D01*
X162180000Y-56900000D02*
X162180000Y-56700000D01*
X162180000Y-56700000D02*
X161830000Y-56700000D01*
X160230000Y-56700000D02*
X160380000Y-56700000D01*
X160230000Y-56700000D02*
X160030000Y-56900000D01*
X160030000Y-56900000D02*
X159880000Y-56900000D01*
D12*
X163500000Y-65670000D02*
X163000000Y-65670000D01*
X163000000Y-66730000D02*
X163500000Y-66730000D01*
X161150000Y-53790000D02*
X160650000Y-53790000D01*
X160650000Y-54730000D02*
X161150000Y-54730000D01*
X162290000Y-54110000D02*
X162290000Y-54610000D01*
X163350000Y-54610000D02*
X163350000Y-54110000D01*
X164630000Y-54990000D02*
X164630000Y-54490000D01*
X163570000Y-54490000D02*
X163570000Y-54990000D01*
X164200000Y-57575000D02*
X164200000Y-58275000D01*
X163000000Y-58275000D02*
X163000000Y-57575000D01*
X164425000Y-58250000D02*
X164425000Y-57550000D01*
X165625000Y-57550000D02*
X165625000Y-58250000D01*
X164870000Y-54500000D02*
X164870000Y-55000000D01*
X165930000Y-55000000D02*
X165930000Y-54500000D01*
X167530000Y-55000000D02*
X167530000Y-54500000D01*
X166470000Y-54500000D02*
X166470000Y-55000000D01*
X169130000Y-55000000D02*
X169130000Y-54500000D01*
X168070000Y-54500000D02*
X168070000Y-55000000D01*
X170355000Y-55000000D02*
X170355000Y-54500000D01*
X169295000Y-54500000D02*
X169295000Y-55000000D01*
X153500000Y-75120000D02*
X154000000Y-75120000D01*
X154000000Y-74180000D02*
X153500000Y-74180000D01*
X154000000Y-73130000D02*
X153500000Y-73130000D01*
X153500000Y-74070000D02*
X154000000Y-74070000D01*
X153500000Y-72770000D02*
X154000000Y-72770000D01*
X154000000Y-71830000D02*
X153500000Y-71830000D01*
D10*
X157075000Y-68825000D02*
X157075000Y-69250000D01*
X164325000Y-68825000D02*
X164325000Y-69350000D01*
X164325000Y-76075000D02*
X164325000Y-75550000D01*
X157075000Y-76075000D02*
X157075000Y-75550000D01*
X157075000Y-68825000D02*
X157600000Y-68825000D01*
X157075000Y-76075000D02*
X157600000Y-76075000D01*
X164325000Y-76075000D02*
X163800000Y-76075000D01*
X164325000Y-68825000D02*
X163800000Y-68825000D01*
X157075000Y-69250000D02*
X155700000Y-69250000D01*
D14*
X168370000Y-77500000D02*
X168370000Y-75470000D01*
X168370000Y-59210000D02*
X168370000Y-57200000D01*
X172570000Y-58800000D02*
X172570000Y-75820000D01*
X173320000Y-75900000D02*
X173320000Y-58890000D01*
X173319997Y-75900748D02*
G75*
G02X173090000Y-76330000I-516957J748D01*
G01*
X173319997Y-58939252D02*
G75*
G03X173090000Y-58510000I-516957J-748D01*
G01*
X168370000Y-77500000D02*
X169690000Y-77500000D01*
X168370000Y-57200000D02*
X169690000Y-57200000D01*
D15*
X166550000Y-75100000D02*
G75*
G03X166550000Y-75100000I-100000J0D01*
G01*
D14*
X168320000Y-76350000D02*
X168120000Y-76350000D01*
X168120000Y-76350000D02*
X168120000Y-75550000D01*
X168320000Y-58350000D02*
X168120000Y-58350000D01*
X168120000Y-58350000D02*
X168120000Y-59150000D01*
D12*
X165650000Y-77720000D02*
X166150000Y-77720000D01*
X166150000Y-76780000D02*
X165650000Y-76780000D01*
X155400000Y-68800000D02*
X155400000Y-68300000D01*
X154460000Y-68300000D02*
X154460000Y-68800000D01*
X151550000Y-74100000D02*
X151550000Y-74600000D01*
X152610000Y-74600000D02*
X152610000Y-74100000D01*
X153370000Y-68400000D02*
X153370000Y-68900000D01*
X154430000Y-68900000D02*
X154430000Y-68400000D01*
X150410000Y-74700000D02*
X150910000Y-74700000D01*
X150910000Y-73640000D02*
X150410000Y-73640000D01*
X150650000Y-72230000D02*
X151150000Y-72230000D01*
X151150000Y-71170000D02*
X150650000Y-71170000D01*
X150900000Y-72220000D02*
X150400000Y-72220000D01*
X150400000Y-73280000D02*
X150900000Y-73280000D01*
X149250000Y-71170000D02*
X148750000Y-71170000D01*
X148750000Y-72230000D02*
X149250000Y-72230000D01*
X149250000Y-72220000D02*
X148750000Y-72220000D01*
X148750000Y-73280000D02*
X149250000Y-73280000D01*
D14*
X153274000Y-64550000D02*
X153274000Y-65750000D01*
X151026000Y-65750000D02*
X151026000Y-64550000D01*
D15*
X152950000Y-63550000D02*
G75*
G03X152950000Y-63550000I-100000J0D01*
G01*
X150490000Y-63550000D02*
G75*
G03X150490000Y-63550000I-100000J0D01*
G01*
D14*
X148566000Y-65750000D02*
X148566000Y-64550000D01*
X150814000Y-64550000D02*
X150814000Y-65750000D01*
D12*
X153450000Y-52170000D02*
X153950000Y-52170000D01*
X153950000Y-51230000D02*
X153450000Y-51230000D01*
X147130000Y-53810000D02*
X147130000Y-54310000D01*
X148070000Y-54310000D02*
X148070000Y-53810000D01*
X160000000Y-59080000D02*
X159500000Y-59080000D01*
X159500000Y-60020000D02*
X160000000Y-60020000D01*
X153050000Y-63570000D02*
X153550000Y-63570000D01*
X153550000Y-62630000D02*
X153050000Y-62630000D01*
X147300000Y-55780000D02*
X146800000Y-55780000D01*
X146800000Y-56720000D02*
X147300000Y-56720000D01*
X159620000Y-58300000D02*
X159620000Y-57800000D01*
X158680000Y-57800000D02*
X158680000Y-58300000D01*
X149650000Y-51120000D02*
X149150000Y-51120000D01*
X149150000Y-52180000D02*
X149650000Y-52180000D01*
X145930000Y-54700000D02*
X145930000Y-54000000D01*
X147130000Y-54000000D02*
X147130000Y-54700000D01*
X162180000Y-56440000D02*
X161480000Y-56440000D01*
X161480000Y-55240000D02*
X162180000Y-55240000D01*
X148228457Y-63107990D02*
X148582010Y-63461543D01*
X149331543Y-62712010D02*
X148977990Y-62358457D01*
X147030000Y-61070000D02*
X147530000Y-61070000D01*
X147530000Y-60010000D02*
X147030000Y-60010000D01*
X159875000Y-60970000D02*
X159375000Y-60970000D01*
X159375000Y-62030000D02*
X159875000Y-62030000D01*
X159375000Y-63230000D02*
X159875000Y-63230000D01*
X159875000Y-62170000D02*
X159375000Y-62170000D01*
X158825000Y-64550000D02*
X158825000Y-63450000D01*
X158825000Y-63450000D02*
X156225000Y-63450000D01*
X158825000Y-64550000D02*
X156225000Y-64550000D01*
X156725000Y-65880000D02*
X157225000Y-65880000D01*
X157225000Y-64820000D02*
X156725000Y-64820000D01*
D10*
X143800000Y-51730000D02*
X143800000Y-65700000D01*
X143800000Y-65700000D02*
X138720000Y-65700000D01*
X138720000Y-65700000D02*
X138720000Y-51730000D01*
X138720000Y-51730000D02*
X143800000Y-51730000D01*
D16*
X151872857Y-54311428D02*
X151872857Y-54797142D01*
X151901428Y-54854285D01*
X151930000Y-54882857D01*
X151987142Y-54911428D01*
X152101428Y-54911428D01*
X152158571Y-54882857D01*
X152187142Y-54854285D01*
X152215714Y-54797142D01*
X152215714Y-54311428D01*
X152472857Y-54368571D02*
X152501428Y-54340000D01*
X152558571Y-54311428D01*
X152701428Y-54311428D01*
X152758571Y-54340000D01*
X152787142Y-54368571D01*
X152815714Y-54425714D01*
X152815714Y-54482857D01*
X152787142Y-54568571D01*
X152444285Y-54911428D01*
X152815714Y-54911428D01*
X147911428Y-52220000D02*
X148340000Y-52220000D01*
X148425714Y-52248571D01*
X148482857Y-52305714D01*
X148511428Y-52391428D01*
X148511428Y-52448571D01*
X148511428Y-51934285D02*
X147911428Y-51934285D01*
X147911428Y-51705714D01*
X147940000Y-51648571D01*
X147968571Y-51620000D01*
X148025714Y-51591428D01*
X148111428Y-51591428D01*
X148168571Y-51620000D01*
X148197142Y-51648571D01*
X148225714Y-51705714D01*
X148225714Y-51934285D01*
X148511428Y-51020000D02*
X148511428Y-51362857D01*
X148511428Y-51191428D02*
X147911428Y-51191428D01*
X147997142Y-51248571D01*
X148054285Y-51305714D01*
X148082857Y-51362857D01*
X148391428Y-68057142D02*
X148877142Y-68057142D01*
X148934285Y-68028571D01*
X148962857Y-68000000D01*
X148991428Y-67942857D01*
X148991428Y-67828571D01*
X148962857Y-67771428D01*
X148934285Y-67742857D01*
X148877142Y-67714285D01*
X148391428Y-67714285D01*
X148391428Y-67142857D02*
X148391428Y-67428571D01*
X148677142Y-67457142D01*
X148648571Y-67428571D01*
X148620000Y-67371428D01*
X148620000Y-67228571D01*
X148648571Y-67171428D01*
X148677142Y-67142857D01*
X148734285Y-67114285D01*
X148877142Y-67114285D01*
X148934285Y-67142857D01*
X148962857Y-67171428D01*
X148991428Y-67228571D01*
X148991428Y-67371428D01*
X148962857Y-67428571D01*
X148934285Y-67457142D01*
X160862857Y-59051428D02*
X160862857Y-59537142D01*
X160891428Y-59594285D01*
X160920000Y-59622857D01*
X160977142Y-59651428D01*
X161091428Y-59651428D01*
X161148571Y-59622857D01*
X161177142Y-59594285D01*
X161205714Y-59537142D01*
X161205714Y-59051428D01*
X161748571Y-59051428D02*
X161634285Y-59051428D01*
X161577142Y-59080000D01*
X161548571Y-59108571D01*
X161491428Y-59194285D01*
X161462857Y-59308571D01*
X161462857Y-59537142D01*
X161491428Y-59594285D01*
X161520000Y-59622857D01*
X161577142Y-59651428D01*
X161691428Y-59651428D01*
X161748571Y-59622857D01*
X161777142Y-59594285D01*
X161805714Y-59537142D01*
X161805714Y-59394285D01*
X161777142Y-59337142D01*
X161748571Y-59308571D01*
X161691428Y-59280000D01*
X161577142Y-59280000D01*
X161520000Y-59308571D01*
X161491428Y-59337142D01*
X161462857Y-59394285D01*
X145701428Y-59277142D02*
X146187142Y-59277142D01*
X146244285Y-59248571D01*
X146272857Y-59220000D01*
X146301428Y-59162857D01*
X146301428Y-59048571D01*
X146272857Y-58991428D01*
X146244285Y-58962857D01*
X146187142Y-58934285D01*
X145701428Y-58934285D01*
X145701428Y-58705714D02*
X145701428Y-58305714D01*
X146301428Y-58562857D01*
X164650000Y-66521428D02*
X164450000Y-66235714D01*
X164307142Y-66521428D02*
X164307142Y-65921428D01*
X164535714Y-65921428D01*
X164592857Y-65950000D01*
X164621428Y-65978571D01*
X164650000Y-66035714D01*
X164650000Y-66121428D01*
X164621428Y-66178571D01*
X164592857Y-66207142D01*
X164535714Y-66235714D01*
X164307142Y-66235714D01*
X165221428Y-66521428D02*
X164878571Y-66521428D01*
X165050000Y-66521428D02*
X165050000Y-65921428D01*
X164992857Y-66007142D01*
X164935714Y-66064285D01*
X164878571Y-66092857D01*
X159060000Y-54544285D02*
X159031428Y-54572857D01*
X158945714Y-54601428D01*
X158888571Y-54601428D01*
X158802857Y-54572857D01*
X158745714Y-54515714D01*
X158717142Y-54458571D01*
X158688571Y-54344285D01*
X158688571Y-54258571D01*
X158717142Y-54144285D01*
X158745714Y-54087142D01*
X158802857Y-54030000D01*
X158888571Y-54001428D01*
X158945714Y-54001428D01*
X159031428Y-54030000D01*
X159060000Y-54058571D01*
X159345714Y-54601428D02*
X159460000Y-54601428D01*
X159517142Y-54572857D01*
X159545714Y-54544285D01*
X159602857Y-54458571D01*
X159631428Y-54344285D01*
X159631428Y-54115714D01*
X159602857Y-54058571D01*
X159574285Y-54030000D01*
X159517142Y-54001428D01*
X159402857Y-54001428D01*
X159345714Y-54030000D01*
X159317142Y-54058571D01*
X159288571Y-54115714D01*
X159288571Y-54258571D01*
X159317142Y-54315714D01*
X159345714Y-54344285D01*
X159402857Y-54372857D01*
X159517142Y-54372857D01*
X159574285Y-54344285D01*
X159602857Y-54315714D01*
X159631428Y-54258571D01*
X162720000Y-53551428D02*
X162520000Y-53265714D01*
X162377142Y-53551428D02*
X162377142Y-52951428D01*
X162605714Y-52951428D01*
X162662857Y-52980000D01*
X162691428Y-53008571D01*
X162720000Y-53065714D01*
X162720000Y-53151428D01*
X162691428Y-53208571D01*
X162662857Y-53237142D01*
X162605714Y-53265714D01*
X162377142Y-53265714D01*
X162920000Y-52951428D02*
X163320000Y-52951428D01*
X163062857Y-53551428D01*
X164000000Y-56271428D02*
X163800000Y-55985714D01*
X163657142Y-56271428D02*
X163657142Y-55671428D01*
X163885714Y-55671428D01*
X163942857Y-55700000D01*
X163971428Y-55728571D01*
X164000000Y-55785714D01*
X164000000Y-55871428D01*
X163971428Y-55928571D01*
X163942857Y-55957142D01*
X163885714Y-55985714D01*
X163657142Y-55985714D01*
X164514285Y-55671428D02*
X164400000Y-55671428D01*
X164342857Y-55700000D01*
X164314285Y-55728571D01*
X164257142Y-55814285D01*
X164228571Y-55928571D01*
X164228571Y-56157142D01*
X164257142Y-56214285D01*
X164285714Y-56242857D01*
X164342857Y-56271428D01*
X164457142Y-56271428D01*
X164514285Y-56242857D01*
X164542857Y-56214285D01*
X164571428Y-56157142D01*
X164571428Y-56014285D01*
X164542857Y-55957142D01*
X164514285Y-55928571D01*
X164457142Y-55900000D01*
X164342857Y-55900000D01*
X164285714Y-55928571D01*
X164257142Y-55957142D01*
X164228571Y-56014285D01*
X162946428Y-58950000D02*
X162946428Y-59235714D01*
X162346428Y-59235714D01*
X162946428Y-58435714D02*
X162946428Y-58778571D01*
X162946428Y-58607142D02*
X162346428Y-58607142D01*
X162432142Y-58664285D01*
X162489285Y-58721428D01*
X162517857Y-58778571D01*
X166439285Y-58385714D02*
X166467857Y-58414285D01*
X166496428Y-58500000D01*
X166496428Y-58557142D01*
X166467857Y-58642857D01*
X166410714Y-58700000D01*
X166353571Y-58728571D01*
X166239285Y-58757142D01*
X166153571Y-58757142D01*
X166039285Y-58728571D01*
X165982142Y-58700000D01*
X165925000Y-58642857D01*
X165896428Y-58557142D01*
X165896428Y-58500000D01*
X165925000Y-58414285D01*
X165953571Y-58385714D01*
X166496428Y-57814285D02*
X166496428Y-58157142D01*
X166496428Y-57985714D02*
X165896428Y-57985714D01*
X165982142Y-58042857D01*
X166039285Y-58100000D01*
X166067857Y-58157142D01*
X165896428Y-57442857D02*
X165896428Y-57385714D01*
X165925000Y-57328571D01*
X165953571Y-57300000D01*
X166010714Y-57271428D01*
X166125000Y-57242857D01*
X166267857Y-57242857D01*
X166382142Y-57271428D01*
X166439285Y-57300000D01*
X166467857Y-57328571D01*
X166496428Y-57385714D01*
X166496428Y-57442857D01*
X166467857Y-57500000D01*
X166439285Y-57528571D01*
X166382142Y-57557142D01*
X166267857Y-57585714D01*
X166125000Y-57585714D01*
X166010714Y-57557142D01*
X165953571Y-57528571D01*
X165925000Y-57500000D01*
X165896428Y-57442857D01*
X165360000Y-56301428D02*
X165160000Y-56015714D01*
X165017142Y-56301428D02*
X165017142Y-55701428D01*
X165245714Y-55701428D01*
X165302857Y-55730000D01*
X165331428Y-55758571D01*
X165360000Y-55815714D01*
X165360000Y-55901428D01*
X165331428Y-55958571D01*
X165302857Y-55987142D01*
X165245714Y-56015714D01*
X165017142Y-56015714D01*
X165588571Y-55758571D02*
X165617142Y-55730000D01*
X165674285Y-55701428D01*
X165817142Y-55701428D01*
X165874285Y-55730000D01*
X165902857Y-55758571D01*
X165931428Y-55815714D01*
X165931428Y-55872857D01*
X165902857Y-55958571D01*
X165560000Y-56301428D01*
X165931428Y-56301428D01*
X166940000Y-56291428D02*
X166740000Y-56005714D01*
X166597142Y-56291428D02*
X166597142Y-55691428D01*
X166825714Y-55691428D01*
X166882857Y-55720000D01*
X166911428Y-55748571D01*
X166940000Y-55805714D01*
X166940000Y-55891428D01*
X166911428Y-55948571D01*
X166882857Y-55977142D01*
X166825714Y-56005714D01*
X166597142Y-56005714D01*
X167140000Y-55691428D02*
X167511428Y-55691428D01*
X167311428Y-55920000D01*
X167397142Y-55920000D01*
X167454285Y-55948571D01*
X167482857Y-55977142D01*
X167511428Y-56034285D01*
X167511428Y-56177142D01*
X167482857Y-56234285D01*
X167454285Y-56262857D01*
X167397142Y-56291428D01*
X167225714Y-56291428D01*
X167168571Y-56262857D01*
X167140000Y-56234285D01*
X168480000Y-56301428D02*
X168280000Y-56015714D01*
X168137142Y-56301428D02*
X168137142Y-55701428D01*
X168365714Y-55701428D01*
X168422857Y-55730000D01*
X168451428Y-55758571D01*
X168480000Y-55815714D01*
X168480000Y-55901428D01*
X168451428Y-55958571D01*
X168422857Y-55987142D01*
X168365714Y-56015714D01*
X168137142Y-56015714D01*
X168994285Y-55901428D02*
X168994285Y-56301428D01*
X168851428Y-55672857D02*
X168708571Y-56101428D01*
X169080000Y-56101428D01*
X169790000Y-56311428D02*
X169590000Y-56025714D01*
X169447142Y-56311428D02*
X169447142Y-55711428D01*
X169675714Y-55711428D01*
X169732857Y-55740000D01*
X169761428Y-55768571D01*
X169790000Y-55825714D01*
X169790000Y-55911428D01*
X169761428Y-55968571D01*
X169732857Y-55997142D01*
X169675714Y-56025714D01*
X169447142Y-56025714D01*
X170332857Y-55711428D02*
X170047142Y-55711428D01*
X170018571Y-55997142D01*
X170047142Y-55968571D01*
X170104285Y-55940000D01*
X170247142Y-55940000D01*
X170304285Y-55968571D01*
X170332857Y-55997142D01*
X170361428Y-56054285D01*
X170361428Y-56197142D01*
X170332857Y-56254285D01*
X170304285Y-56282857D01*
X170247142Y-56311428D01*
X170104285Y-56311428D01*
X170047142Y-56282857D01*
X170018571Y-56254285D01*
X155414285Y-74760000D02*
X155442857Y-74788571D01*
X155471428Y-74874285D01*
X155471428Y-74931428D01*
X155442857Y-75017142D01*
X155385714Y-75074285D01*
X155328571Y-75102857D01*
X155214285Y-75131428D01*
X155128571Y-75131428D01*
X155014285Y-75102857D01*
X154957142Y-75074285D01*
X154900000Y-75017142D01*
X154871428Y-74931428D01*
X154871428Y-74874285D01*
X154900000Y-74788571D01*
X154928571Y-74760000D01*
X154871428Y-74217142D02*
X154871428Y-74502857D01*
X155157142Y-74531428D01*
X155128571Y-74502857D01*
X155100000Y-74445714D01*
X155100000Y-74302857D01*
X155128571Y-74245714D01*
X155157142Y-74217142D01*
X155214285Y-74188571D01*
X155357142Y-74188571D01*
X155414285Y-74217142D01*
X155442857Y-74245714D01*
X155471428Y-74302857D01*
X155471428Y-74445714D01*
X155442857Y-74502857D01*
X155414285Y-74531428D01*
X155374285Y-73580000D02*
X155402857Y-73608571D01*
X155431428Y-73694285D01*
X155431428Y-73751428D01*
X155402857Y-73837142D01*
X155345714Y-73894285D01*
X155288571Y-73922857D01*
X155174285Y-73951428D01*
X155088571Y-73951428D01*
X154974285Y-73922857D01*
X154917142Y-73894285D01*
X154860000Y-73837142D01*
X154831428Y-73751428D01*
X154831428Y-73694285D01*
X154860000Y-73608571D01*
X154888571Y-73580000D01*
X155431428Y-73008571D02*
X155431428Y-73351428D01*
X155431428Y-73180000D02*
X154831428Y-73180000D01*
X154917142Y-73237142D01*
X154974285Y-73294285D01*
X155002857Y-73351428D01*
X155364285Y-72380000D02*
X155392857Y-72408571D01*
X155421428Y-72494285D01*
X155421428Y-72551428D01*
X155392857Y-72637142D01*
X155335714Y-72694285D01*
X155278571Y-72722857D01*
X155164285Y-72751428D01*
X155078571Y-72751428D01*
X154964285Y-72722857D01*
X154907142Y-72694285D01*
X154850000Y-72637142D01*
X154821428Y-72551428D01*
X154821428Y-72494285D01*
X154850000Y-72408571D01*
X154878571Y-72380000D01*
X154878571Y-72151428D02*
X154850000Y-72122857D01*
X154821428Y-72065714D01*
X154821428Y-71922857D01*
X154850000Y-71865714D01*
X154878571Y-71837142D01*
X154935714Y-71808571D01*
X154992857Y-71808571D01*
X155078571Y-71837142D01*
X155421428Y-72180000D01*
X155421428Y-71808571D01*
X157592857Y-69481428D02*
X157592857Y-69967142D01*
X157621428Y-70024285D01*
X157650000Y-70052857D01*
X157707142Y-70081428D01*
X157821428Y-70081428D01*
X157878571Y-70052857D01*
X157907142Y-70024285D01*
X157935714Y-69967142D01*
X157935714Y-69481428D01*
X158535714Y-70081428D02*
X158192857Y-70081428D01*
X158364285Y-70081428D02*
X158364285Y-69481428D01*
X158307142Y-69567142D01*
X158250000Y-69624285D01*
X158192857Y-69652857D01*
X171391428Y-74800000D02*
X171820000Y-74800000D01*
X171905714Y-74828571D01*
X171962857Y-74885714D01*
X171991428Y-74971428D01*
X171991428Y-75028571D01*
X171991428Y-74200000D02*
X171991428Y-74542857D01*
X171991428Y-74371428D02*
X171391428Y-74371428D01*
X171477142Y-74428571D01*
X171534285Y-74485714D01*
X171562857Y-74542857D01*
X165810000Y-76474285D02*
X165781428Y-76502857D01*
X165695714Y-76531428D01*
X165638571Y-76531428D01*
X165552857Y-76502857D01*
X165495714Y-76445714D01*
X165467142Y-76388571D01*
X165438571Y-76274285D01*
X165438571Y-76188571D01*
X165467142Y-76074285D01*
X165495714Y-76017142D01*
X165552857Y-75960000D01*
X165638571Y-75931428D01*
X165695714Y-75931428D01*
X165781428Y-75960000D01*
X165810000Y-75988571D01*
X166324285Y-75931428D02*
X166210000Y-75931428D01*
X166152857Y-75960000D01*
X166124285Y-75988571D01*
X166067142Y-76074285D01*
X166038571Y-76188571D01*
X166038571Y-76417142D01*
X166067142Y-76474285D01*
X166095714Y-76502857D01*
X166152857Y-76531428D01*
X166267142Y-76531428D01*
X166324285Y-76502857D01*
X166352857Y-76474285D01*
X166381428Y-76417142D01*
X166381428Y-76274285D01*
X166352857Y-76217142D01*
X166324285Y-76188571D01*
X166267142Y-76160000D01*
X166152857Y-76160000D01*
X166095714Y-76188571D01*
X166067142Y-76217142D01*
X166038571Y-76274285D01*
X155184285Y-67085714D02*
X155212857Y-67114285D01*
X155241428Y-67200000D01*
X155241428Y-67257142D01*
X155212857Y-67342857D01*
X155155714Y-67400000D01*
X155098571Y-67428571D01*
X154984285Y-67457142D01*
X154898571Y-67457142D01*
X154784285Y-67428571D01*
X154727142Y-67400000D01*
X154670000Y-67342857D01*
X154641428Y-67257142D01*
X154641428Y-67200000D01*
X154670000Y-67114285D01*
X154698571Y-67085714D01*
X155241428Y-66514285D02*
X155241428Y-66857142D01*
X155241428Y-66685714D02*
X154641428Y-66685714D01*
X154727142Y-66742857D01*
X154784285Y-66800000D01*
X154812857Y-66857142D01*
X155241428Y-65942857D02*
X155241428Y-66285714D01*
X155241428Y-66114285D02*
X154641428Y-66114285D01*
X154727142Y-66171428D01*
X154784285Y-66228571D01*
X154812857Y-66285714D01*
X152411428Y-73120000D02*
X152125714Y-73320000D01*
X152411428Y-73462857D02*
X151811428Y-73462857D01*
X151811428Y-73234285D01*
X151840000Y-73177142D01*
X151868571Y-73148571D01*
X151925714Y-73120000D01*
X152011428Y-73120000D01*
X152068571Y-73148571D01*
X152097142Y-73177142D01*
X152125714Y-73234285D01*
X152125714Y-73462857D01*
X152411428Y-72834285D02*
X152411428Y-72720000D01*
X152382857Y-72662857D01*
X152354285Y-72634285D01*
X152268571Y-72577142D01*
X152154285Y-72548571D01*
X151925714Y-72548571D01*
X151868571Y-72577142D01*
X151840000Y-72605714D01*
X151811428Y-72662857D01*
X151811428Y-72777142D01*
X151840000Y-72834285D01*
X151868571Y-72862857D01*
X151925714Y-72891428D01*
X152068571Y-72891428D01*
X152125714Y-72862857D01*
X152154285Y-72834285D01*
X152182857Y-72777142D01*
X152182857Y-72662857D01*
X152154285Y-72605714D01*
X152125714Y-72577142D01*
X152068571Y-72548571D01*
X154201428Y-67295714D02*
X153915714Y-67495714D01*
X154201428Y-67638571D02*
X153601428Y-67638571D01*
X153601428Y-67410000D01*
X153630000Y-67352857D01*
X153658571Y-67324285D01*
X153715714Y-67295714D01*
X153801428Y-67295714D01*
X153858571Y-67324285D01*
X153887142Y-67352857D01*
X153915714Y-67410000D01*
X153915714Y-67638571D01*
X154201428Y-66724285D02*
X154201428Y-67067142D01*
X154201428Y-66895714D02*
X153601428Y-66895714D01*
X153687142Y-66952857D01*
X153744285Y-67010000D01*
X153772857Y-67067142D01*
X153601428Y-66352857D02*
X153601428Y-66295714D01*
X153630000Y-66238571D01*
X153658571Y-66210000D01*
X153715714Y-66181428D01*
X153830000Y-66152857D01*
X153972857Y-66152857D01*
X154087142Y-66181428D01*
X154144285Y-66210000D01*
X154172857Y-66238571D01*
X154201428Y-66295714D01*
X154201428Y-66352857D01*
X154172857Y-66410000D01*
X154144285Y-66438571D01*
X154087142Y-66467142D01*
X153972857Y-66495714D01*
X153830000Y-66495714D01*
X153715714Y-66467142D01*
X153658571Y-66438571D01*
X153630000Y-66410000D01*
X153601428Y-66352857D01*
X148604285Y-74461428D02*
X148404285Y-74175714D01*
X148261428Y-74461428D02*
X148261428Y-73861428D01*
X148490000Y-73861428D01*
X148547142Y-73890000D01*
X148575714Y-73918571D01*
X148604285Y-73975714D01*
X148604285Y-74061428D01*
X148575714Y-74118571D01*
X148547142Y-74147142D01*
X148490000Y-74175714D01*
X148261428Y-74175714D01*
X149175714Y-74461428D02*
X148832857Y-74461428D01*
X149004285Y-74461428D02*
X149004285Y-73861428D01*
X148947142Y-73947142D01*
X148890000Y-74004285D01*
X148832857Y-74032857D01*
X149747142Y-74461428D02*
X149404285Y-74461428D01*
X149575714Y-74461428D02*
X149575714Y-73861428D01*
X149518571Y-73947142D01*
X149461428Y-74004285D01*
X149404285Y-74032857D01*
X154334285Y-70351428D02*
X154134285Y-70065714D01*
X153991428Y-70351428D02*
X153991428Y-69751428D01*
X154220000Y-69751428D01*
X154277142Y-69780000D01*
X154305714Y-69808571D01*
X154334285Y-69865714D01*
X154334285Y-69951428D01*
X154305714Y-70008571D01*
X154277142Y-70037142D01*
X154220000Y-70065714D01*
X153991428Y-70065714D01*
X154905714Y-70351428D02*
X154562857Y-70351428D01*
X154734285Y-70351428D02*
X154734285Y-69751428D01*
X154677142Y-69837142D01*
X154620000Y-69894285D01*
X154562857Y-69922857D01*
X155134285Y-69808571D02*
X155162857Y-69780000D01*
X155220000Y-69751428D01*
X155362857Y-69751428D01*
X155420000Y-69780000D01*
X155448571Y-69808571D01*
X155477142Y-69865714D01*
X155477142Y-69922857D01*
X155448571Y-70008571D01*
X155105714Y-70351428D01*
X155477142Y-70351428D01*
X154324285Y-71161428D02*
X154124285Y-70875714D01*
X153981428Y-71161428D02*
X153981428Y-70561428D01*
X154210000Y-70561428D01*
X154267142Y-70590000D01*
X154295714Y-70618571D01*
X154324285Y-70675714D01*
X154324285Y-70761428D01*
X154295714Y-70818571D01*
X154267142Y-70847142D01*
X154210000Y-70875714D01*
X153981428Y-70875714D01*
X154895714Y-71161428D02*
X154552857Y-71161428D01*
X154724285Y-71161428D02*
X154724285Y-70561428D01*
X154667142Y-70647142D01*
X154610000Y-70704285D01*
X154552857Y-70732857D01*
X155095714Y-70561428D02*
X155467142Y-70561428D01*
X155267142Y-70790000D01*
X155352857Y-70790000D01*
X155410000Y-70818571D01*
X155438571Y-70847142D01*
X155467142Y-70904285D01*
X155467142Y-71047142D01*
X155438571Y-71104285D01*
X155410000Y-71132857D01*
X155352857Y-71161428D01*
X155181428Y-71161428D01*
X155124285Y-71132857D01*
X155095714Y-71104285D01*
X152664285Y-70381428D02*
X152464285Y-70095714D01*
X152321428Y-70381428D02*
X152321428Y-69781428D01*
X152550000Y-69781428D01*
X152607142Y-69810000D01*
X152635714Y-69838571D01*
X152664285Y-69895714D01*
X152664285Y-69981428D01*
X152635714Y-70038571D01*
X152607142Y-70067142D01*
X152550000Y-70095714D01*
X152321428Y-70095714D01*
X153235714Y-70381428D02*
X152892857Y-70381428D01*
X153064285Y-70381428D02*
X153064285Y-69781428D01*
X153007142Y-69867142D01*
X152950000Y-69924285D01*
X152892857Y-69952857D01*
X153750000Y-69981428D02*
X153750000Y-70381428D01*
X153607142Y-69752857D02*
X153464285Y-70181428D01*
X153835714Y-70181428D01*
X152664285Y-71161428D02*
X152464285Y-70875714D01*
X152321428Y-71161428D02*
X152321428Y-70561428D01*
X152550000Y-70561428D01*
X152607142Y-70590000D01*
X152635714Y-70618571D01*
X152664285Y-70675714D01*
X152664285Y-70761428D01*
X152635714Y-70818571D01*
X152607142Y-70847142D01*
X152550000Y-70875714D01*
X152321428Y-70875714D01*
X153235714Y-71161428D02*
X152892857Y-71161428D01*
X153064285Y-71161428D02*
X153064285Y-70561428D01*
X153007142Y-70647142D01*
X152950000Y-70704285D01*
X152892857Y-70732857D01*
X153778571Y-70561428D02*
X153492857Y-70561428D01*
X153464285Y-70847142D01*
X153492857Y-70818571D01*
X153550000Y-70790000D01*
X153692857Y-70790000D01*
X153750000Y-70818571D01*
X153778571Y-70847142D01*
X153807142Y-70904285D01*
X153807142Y-71047142D01*
X153778571Y-71104285D01*
X153750000Y-71132857D01*
X153692857Y-71161428D01*
X153550000Y-71161428D01*
X153492857Y-71132857D01*
X153464285Y-71104285D01*
X151662857Y-66391428D02*
X151662857Y-66877142D01*
X151691428Y-66934285D01*
X151720000Y-66962857D01*
X151777142Y-66991428D01*
X151891428Y-66991428D01*
X151948571Y-66962857D01*
X151977142Y-66934285D01*
X152005714Y-66877142D01*
X152005714Y-66391428D01*
X152234285Y-66391428D02*
X152605714Y-66391428D01*
X152405714Y-66620000D01*
X152491428Y-66620000D01*
X152548571Y-66648571D01*
X152577142Y-66677142D01*
X152605714Y-66734285D01*
X152605714Y-66877142D01*
X152577142Y-66934285D01*
X152548571Y-66962857D01*
X152491428Y-66991428D01*
X152320000Y-66991428D01*
X152262857Y-66962857D01*
X152234285Y-66934285D01*
X149282857Y-66351428D02*
X149282857Y-66837142D01*
X149311428Y-66894285D01*
X149340000Y-66922857D01*
X149397142Y-66951428D01*
X149511428Y-66951428D01*
X149568571Y-66922857D01*
X149597142Y-66894285D01*
X149625714Y-66837142D01*
X149625714Y-66351428D01*
X150168571Y-66551428D02*
X150168571Y-66951428D01*
X150025714Y-66322857D02*
X149882857Y-66751428D01*
X150254285Y-66751428D01*
X155260000Y-51964285D02*
X155231428Y-51992857D01*
X155145714Y-52021428D01*
X155088571Y-52021428D01*
X155002857Y-51992857D01*
X154945714Y-51935714D01*
X154917142Y-51878571D01*
X154888571Y-51764285D01*
X154888571Y-51678571D01*
X154917142Y-51564285D01*
X154945714Y-51507142D01*
X155002857Y-51450000D01*
X155088571Y-51421428D01*
X155145714Y-51421428D01*
X155231428Y-51450000D01*
X155260000Y-51478571D01*
X155460000Y-51421428D02*
X155831428Y-51421428D01*
X155631428Y-51650000D01*
X155717142Y-51650000D01*
X155774285Y-51678571D01*
X155802857Y-51707142D01*
X155831428Y-51764285D01*
X155831428Y-51907142D01*
X155802857Y-51964285D01*
X155774285Y-51992857D01*
X155717142Y-52021428D01*
X155545714Y-52021428D01*
X155488571Y-51992857D01*
X155460000Y-51964285D01*
X149944285Y-52970000D02*
X149972857Y-52998571D01*
X150001428Y-53084285D01*
X150001428Y-53141428D01*
X149972857Y-53227142D01*
X149915714Y-53284285D01*
X149858571Y-53312857D01*
X149744285Y-53341428D01*
X149658571Y-53341428D01*
X149544285Y-53312857D01*
X149487142Y-53284285D01*
X149430000Y-53227142D01*
X149401428Y-53141428D01*
X149401428Y-53084285D01*
X149430000Y-52998571D01*
X149458571Y-52970000D01*
X149601428Y-52455714D02*
X150001428Y-52455714D01*
X149372857Y-52598571D02*
X149801428Y-52741428D01*
X149801428Y-52370000D01*
X159725000Y-60714285D02*
X159696428Y-60742857D01*
X159610714Y-60771428D01*
X159553571Y-60771428D01*
X159467857Y-60742857D01*
X159410714Y-60685714D01*
X159382142Y-60628571D01*
X159353571Y-60514285D01*
X159353571Y-60428571D01*
X159382142Y-60314285D01*
X159410714Y-60257142D01*
X159467857Y-60200000D01*
X159553571Y-60171428D01*
X159610714Y-60171428D01*
X159696428Y-60200000D01*
X159725000Y-60228571D01*
X159925000Y-60171428D02*
X160325000Y-60171428D01*
X160067857Y-60771428D01*
X155000000Y-63404285D02*
X154971428Y-63432857D01*
X154885714Y-63461428D01*
X154828571Y-63461428D01*
X154742857Y-63432857D01*
X154685714Y-63375714D01*
X154657142Y-63318571D01*
X154628571Y-63204285D01*
X154628571Y-63118571D01*
X154657142Y-63004285D01*
X154685714Y-62947142D01*
X154742857Y-62890000D01*
X154828571Y-62861428D01*
X154885714Y-62861428D01*
X154971428Y-62890000D01*
X155000000Y-62918571D01*
X155342857Y-63118571D02*
X155285714Y-63090000D01*
X155257142Y-63061428D01*
X155228571Y-63004285D01*
X155228571Y-62975714D01*
X155257142Y-62918571D01*
X155285714Y-62890000D01*
X155342857Y-62861428D01*
X155457142Y-62861428D01*
X155514285Y-62890000D01*
X155542857Y-62918571D01*
X155571428Y-62975714D01*
X155571428Y-63004285D01*
X155542857Y-63061428D01*
X155514285Y-63090000D01*
X155457142Y-63118571D01*
X155342857Y-63118571D01*
X155285714Y-63147142D01*
X155257142Y-63175714D01*
X155228571Y-63232857D01*
X155228571Y-63347142D01*
X155257142Y-63404285D01*
X155285714Y-63432857D01*
X155342857Y-63461428D01*
X155457142Y-63461428D01*
X155514285Y-63432857D01*
X155542857Y-63404285D01*
X155571428Y-63347142D01*
X155571428Y-63232857D01*
X155542857Y-63175714D01*
X155514285Y-63147142D01*
X155457142Y-63118571D01*
X146204285Y-57835714D02*
X146232857Y-57864285D01*
X146261428Y-57950000D01*
X146261428Y-58007142D01*
X146232857Y-58092857D01*
X146175714Y-58150000D01*
X146118571Y-58178571D01*
X146004285Y-58207142D01*
X145918571Y-58207142D01*
X145804285Y-58178571D01*
X145747142Y-58150000D01*
X145690000Y-58092857D01*
X145661428Y-58007142D01*
X145661428Y-57950000D01*
X145690000Y-57864285D01*
X145718571Y-57835714D01*
X146261428Y-57264285D02*
X146261428Y-57607142D01*
X146261428Y-57435714D02*
X145661428Y-57435714D01*
X145747142Y-57492857D01*
X145804285Y-57550000D01*
X145832857Y-57607142D01*
X145718571Y-57035714D02*
X145690000Y-57007142D01*
X145661428Y-56950000D01*
X145661428Y-56807142D01*
X145690000Y-56750000D01*
X145718571Y-56721428D01*
X145775714Y-56692857D01*
X145832857Y-56692857D01*
X145918571Y-56721428D01*
X146261428Y-57064285D01*
X146261428Y-56692857D01*
X159384285Y-56585714D02*
X159412857Y-56614285D01*
X159441428Y-56700000D01*
X159441428Y-56757142D01*
X159412857Y-56842857D01*
X159355714Y-56900000D01*
X159298571Y-56928571D01*
X159184285Y-56957142D01*
X159098571Y-56957142D01*
X158984285Y-56928571D01*
X158927142Y-56900000D01*
X158870000Y-56842857D01*
X158841428Y-56757142D01*
X158841428Y-56700000D01*
X158870000Y-56614285D01*
X158898571Y-56585714D01*
X159441428Y-56014285D02*
X159441428Y-56357142D01*
X159441428Y-56185714D02*
X158841428Y-56185714D01*
X158927142Y-56242857D01*
X158984285Y-56300000D01*
X159012857Y-56357142D01*
X158841428Y-55814285D02*
X158841428Y-55442857D01*
X159070000Y-55642857D01*
X159070000Y-55557142D01*
X159098571Y-55500000D01*
X159127142Y-55471428D01*
X159184285Y-55442857D01*
X159327142Y-55442857D01*
X159384285Y-55471428D01*
X159412857Y-55500000D01*
X159441428Y-55557142D01*
X159441428Y-55728571D01*
X159412857Y-55785714D01*
X159384285Y-55814285D01*
X150680000Y-51941428D02*
X150480000Y-51655714D01*
X150337142Y-51941428D02*
X150337142Y-51341428D01*
X150565714Y-51341428D01*
X150622857Y-51370000D01*
X150651428Y-51398571D01*
X150680000Y-51455714D01*
X150680000Y-51541428D01*
X150651428Y-51598571D01*
X150622857Y-51627142D01*
X150565714Y-51655714D01*
X150337142Y-51655714D01*
X151022857Y-51598571D02*
X150965714Y-51570000D01*
X150937142Y-51541428D01*
X150908571Y-51484285D01*
X150908571Y-51455714D01*
X150937142Y-51398571D01*
X150965714Y-51370000D01*
X151022857Y-51341428D01*
X151137142Y-51341428D01*
X151194285Y-51370000D01*
X151222857Y-51398571D01*
X151251428Y-51455714D01*
X151251428Y-51484285D01*
X151222857Y-51541428D01*
X151194285Y-51570000D01*
X151137142Y-51598571D01*
X151022857Y-51598571D01*
X150965714Y-51627142D01*
X150937142Y-51655714D01*
X150908571Y-51712857D01*
X150908571Y-51827142D01*
X150937142Y-51884285D01*
X150965714Y-51912857D01*
X151022857Y-51941428D01*
X151137142Y-51941428D01*
X151194285Y-51912857D01*
X151222857Y-51884285D01*
X151251428Y-51827142D01*
X151251428Y-51712857D01*
X151222857Y-51655714D01*
X151194285Y-51627142D01*
X151137142Y-51598571D01*
X149144285Y-53505714D02*
X149172857Y-53534285D01*
X149201428Y-53620000D01*
X149201428Y-53677142D01*
X149172857Y-53762857D01*
X149115714Y-53820000D01*
X149058571Y-53848571D01*
X148944285Y-53877142D01*
X148858571Y-53877142D01*
X148744285Y-53848571D01*
X148687142Y-53820000D01*
X148630000Y-53762857D01*
X148601428Y-53677142D01*
X148601428Y-53620000D01*
X148630000Y-53534285D01*
X148658571Y-53505714D01*
X149201428Y-52934285D02*
X149201428Y-53277142D01*
X149201428Y-53105714D02*
X148601428Y-53105714D01*
X148687142Y-53162857D01*
X148744285Y-53220000D01*
X148772857Y-53277142D01*
X148801428Y-52420000D02*
X149201428Y-52420000D01*
X148572857Y-52562857D02*
X149001428Y-52705714D01*
X149001428Y-52334285D01*
X159214285Y-55289285D02*
X159185714Y-55317857D01*
X159100000Y-55346428D01*
X159042857Y-55346428D01*
X158957142Y-55317857D01*
X158900000Y-55260714D01*
X158871428Y-55203571D01*
X158842857Y-55089285D01*
X158842857Y-55003571D01*
X158871428Y-54889285D01*
X158900000Y-54832142D01*
X158957142Y-54775000D01*
X159042857Y-54746428D01*
X159100000Y-54746428D01*
X159185714Y-54775000D01*
X159214285Y-54803571D01*
X159785714Y-55346428D02*
X159442857Y-55346428D01*
X159614285Y-55346428D02*
X159614285Y-54746428D01*
X159557142Y-54832142D01*
X159500000Y-54889285D01*
X159442857Y-54917857D01*
X160328571Y-54746428D02*
X160042857Y-54746428D01*
X160014285Y-55032142D01*
X160042857Y-55003571D01*
X160100000Y-54975000D01*
X160242857Y-54975000D01*
X160300000Y-55003571D01*
X160328571Y-55032142D01*
X160357142Y-55089285D01*
X160357142Y-55232142D01*
X160328571Y-55289285D01*
X160300000Y-55317857D01*
X160242857Y-55346428D01*
X160100000Y-55346428D01*
X160042857Y-55317857D01*
X160014285Y-55289285D01*
X147605329Y-63579187D02*
X147665938Y-63235735D01*
X147362893Y-63336751D02*
X147787157Y-62912487D01*
X147948781Y-63074111D01*
X147968984Y-63134720D01*
X147968984Y-63175126D01*
X147948781Y-63235735D01*
X147888172Y-63296345D01*
X147827563Y-63316548D01*
X147787157Y-63316548D01*
X147726548Y-63296345D01*
X147564923Y-63134720D01*
X148009390Y-63983248D02*
X147766954Y-63740812D01*
X147888172Y-63862030D02*
X148312436Y-63437766D01*
X148211421Y-63457969D01*
X148130609Y-63457969D01*
X148070000Y-63437766D01*
X148797309Y-63922639D02*
X148716497Y-63841827D01*
X148655888Y-63821624D01*
X148615482Y-63821624D01*
X148514467Y-63841827D01*
X148413451Y-63902436D01*
X148251827Y-64064061D01*
X148231624Y-64124670D01*
X148231624Y-64165076D01*
X148251827Y-64225685D01*
X148332639Y-64306497D01*
X148393248Y-64326700D01*
X148433654Y-64326700D01*
X148494264Y-64306497D01*
X148595279Y-64205482D01*
X148615482Y-64144873D01*
X148615482Y-64104467D01*
X148595279Y-64043857D01*
X148514467Y-63963045D01*
X148453857Y-63942842D01*
X148413451Y-63942842D01*
X148352842Y-63963045D01*
X146311428Y-60725714D02*
X146025714Y-60925714D01*
X146311428Y-61068571D02*
X145711428Y-61068571D01*
X145711428Y-60840000D01*
X145740000Y-60782857D01*
X145768571Y-60754285D01*
X145825714Y-60725714D01*
X145911428Y-60725714D01*
X145968571Y-60754285D01*
X145997142Y-60782857D01*
X146025714Y-60840000D01*
X146025714Y-61068571D01*
X146311428Y-60154285D02*
X146311428Y-60497142D01*
X146311428Y-60325714D02*
X145711428Y-60325714D01*
X145797142Y-60382857D01*
X145854285Y-60440000D01*
X145882857Y-60497142D01*
X145711428Y-59954285D02*
X145711428Y-59554285D01*
X146311428Y-59811428D01*
X161094187Y-61189670D02*
X160750735Y-61129061D01*
X160851751Y-61432106D02*
X160427487Y-61007842D01*
X160589111Y-60846218D01*
X160649720Y-60826015D01*
X160690126Y-60826015D01*
X160750735Y-60846218D01*
X160811345Y-60906827D01*
X160831548Y-60967436D01*
X160831548Y-61007842D01*
X160811345Y-61068451D01*
X160649720Y-61230076D01*
X161498248Y-60785609D02*
X161255812Y-61028045D01*
X161377030Y-60906827D02*
X160952766Y-60482563D01*
X160972969Y-60583578D01*
X160972969Y-60664390D01*
X160952766Y-60725000D01*
X161700279Y-60583578D02*
X161781091Y-60502766D01*
X161801294Y-60442157D01*
X161801294Y-60401751D01*
X161781091Y-60300735D01*
X161720482Y-60199720D01*
X161558857Y-60038096D01*
X161498248Y-60017893D01*
X161457842Y-60017893D01*
X161397233Y-60038096D01*
X161316421Y-60118908D01*
X161296218Y-60179517D01*
X161296218Y-60219923D01*
X161316421Y-60280532D01*
X161417436Y-60381548D01*
X161478045Y-60401751D01*
X161518451Y-60401751D01*
X161579061Y-60381548D01*
X161659873Y-60300735D01*
X161680076Y-60240126D01*
X161680076Y-60199720D01*
X161659873Y-60139111D01*
X161169187Y-62489670D02*
X160825735Y-62429061D01*
X160926751Y-62732106D02*
X160502487Y-62307842D01*
X160664111Y-62146218D01*
X160724720Y-62126015D01*
X160765126Y-62126015D01*
X160825735Y-62146218D01*
X160886345Y-62206827D01*
X160906548Y-62267436D01*
X160906548Y-62307842D01*
X160886345Y-62368451D01*
X160724720Y-62530076D01*
X160946954Y-61944187D02*
X160946954Y-61903781D01*
X160967157Y-61843172D01*
X161068172Y-61742157D01*
X161128781Y-61721954D01*
X161169187Y-61721954D01*
X161229796Y-61742157D01*
X161270203Y-61782563D01*
X161310609Y-61863375D01*
X161310609Y-62348248D01*
X161573248Y-62085609D01*
X161411624Y-61398705D02*
X161452030Y-61358299D01*
X161512639Y-61338096D01*
X161553045Y-61338096D01*
X161613654Y-61358299D01*
X161714670Y-61418908D01*
X161815685Y-61519923D01*
X161876294Y-61620938D01*
X161896497Y-61681548D01*
X161896497Y-61721954D01*
X161876294Y-61782563D01*
X161835888Y-61822969D01*
X161775279Y-61843172D01*
X161734873Y-61843172D01*
X161674264Y-61822969D01*
X161573248Y-61762360D01*
X161472233Y-61661345D01*
X161411624Y-61560329D01*
X161391421Y-61499720D01*
X161391421Y-61459314D01*
X161411624Y-61398705D01*
X157457142Y-63221428D02*
X157457142Y-62621428D01*
X157600000Y-62621428D01*
X157685714Y-62650000D01*
X157742857Y-62707142D01*
X157771428Y-62764285D01*
X157800000Y-62878571D01*
X157800000Y-62964285D01*
X157771428Y-63078571D01*
X157742857Y-63135714D01*
X157685714Y-63192857D01*
X157600000Y-63221428D01*
X157457142Y-63221428D01*
X158371428Y-63221428D02*
X158028571Y-63221428D01*
X158200000Y-63221428D02*
X158200000Y-62621428D01*
X158142857Y-62707142D01*
X158085714Y-62764285D01*
X158028571Y-62792857D01*
X157271428Y-67185714D02*
X156985714Y-67385714D01*
X157271428Y-67528571D02*
X156671428Y-67528571D01*
X156671428Y-67300000D01*
X156700000Y-67242857D01*
X156728571Y-67214285D01*
X156785714Y-67185714D01*
X156871428Y-67185714D01*
X156928571Y-67214285D01*
X156957142Y-67242857D01*
X156985714Y-67300000D01*
X156985714Y-67528571D01*
X156728571Y-66957142D02*
X156700000Y-66928571D01*
X156671428Y-66871428D01*
X156671428Y-66728571D01*
X156700000Y-66671428D01*
X156728571Y-66642857D01*
X156785714Y-66614285D01*
X156842857Y-66614285D01*
X156928571Y-66642857D01*
X157271428Y-66985714D01*
X157271428Y-66614285D01*
X157271428Y-66042857D02*
X157271428Y-66385714D01*
X157271428Y-66214285D02*
X156671428Y-66214285D01*
X156757142Y-66271428D01*
X156814285Y-66328571D01*
X156842857Y-66385714D01*
D10*
X141694761Y-64493333D02*
X141742380Y-64350476D01*
X141742380Y-64112380D01*
X141694761Y-64017142D01*
X141647142Y-63969523D01*
X141551904Y-63921904D01*
X141456666Y-63921904D01*
X141361428Y-63969523D01*
X141313809Y-64017142D01*
X141266190Y-64112380D01*
X141218571Y-64302857D01*
X141170952Y-64398095D01*
X141123333Y-64445714D01*
X141028095Y-64493333D01*
X140932857Y-64493333D01*
X140837619Y-64445714D01*
X140790000Y-64398095D01*
X140742380Y-64302857D01*
X140742380Y-64064761D01*
X140790000Y-63921904D01*
X140742380Y-63588571D02*
X141742380Y-63350476D01*
X141028095Y-63160000D01*
X141742380Y-62969523D01*
X140742380Y-62731428D01*
X141742380Y-61826666D02*
X141742380Y-62398095D01*
X141742380Y-62112380D02*
X140742380Y-62112380D01*
X140885238Y-62207619D01*
X140980476Y-62302857D01*
X141028095Y-62398095D01*
X150736666Y-81012380D02*
X150736666Y-81726666D01*
X150689047Y-81869523D01*
X150593809Y-81964761D01*
X150450952Y-82012380D01*
X150355714Y-82012380D01*
X151212857Y-82012380D02*
X151212857Y-81012380D01*
X151593809Y-81012380D01*
X151689047Y-81060000D01*
X151736666Y-81107619D01*
X151784285Y-81202857D01*
X151784285Y-81345714D01*
X151736666Y-81440952D01*
X151689047Y-81488571D01*
X151593809Y-81536190D01*
X151212857Y-81536190D01*
X152165238Y-81107619D02*
X152212857Y-81060000D01*
X152308095Y-81012380D01*
X152546190Y-81012380D01*
X152641428Y-81060000D01*
X152689047Y-81107619D01*
X152736666Y-81202857D01*
X152736666Y-81298095D01*
X152689047Y-81440952D01*
X152117619Y-82012380D01*
X152736666Y-82012380D01*
M02*
