M48
INCH,TZ
T1C0.0118
T2C0.0157
T3C0.0433
%
G90
G05
T1
X55146Y-24878
X55150Y-23335
X55150Y-24350
X55154Y-21854
X55154Y-23850
X55154Y-25370
X55157Y-22870
X55161Y-22335
X55189Y-20870
X55205Y-21358
X57776Y-23390
X57874Y-22835
X57992Y-23390
X58110Y-21909
X58228Y-22795
X58268Y-29606
X58346Y-20724
X58453Y-24236
X58484Y-27921
X58638Y-20724
X58654Y-26205
X58661Y-29488
X58839Y-28906
X58898Y-20724
X58953Y-24504
X59004Y-24732
X59079Y-29508
X59224Y-22665
X59232Y-22346
X59252Y-20433
X59252Y-21406
X59252Y-21850
X59252Y-22087
X59319Y-29638
X59406Y-25732
X59417Y-25992
X59424Y-25212
X59429Y-27917
X59492Y-29484
X59500Y-20354
X59657Y-21406
X59713Y-27917
X59764Y-20354
X59870Y-29693
X59882Y-21406
X59933Y-28150
X59992Y-28776
X60000Y-28465
X60039Y-20354
X60091Y-26634
X60130Y-23752
X60138Y-26177
X60157Y-21406
X60276Y-26850
X60319Y-29717
X60394Y-21406
X60407Y-25447
X60433Y-27953
X60591Y-26598
X60669Y-21406
X60815Y-25118
X60866Y-27953
X60969Y-20358
X61024Y-29823
X61063Y-28976
X61201Y-21437
X61232Y-20354
X61260Y-26772
X61289Y-25846
X61476Y-21713
X61480Y-22504
X61480Y-22819
X61575Y-20354
X61575Y-30059
X61634Y-26870
X61949Y-29213
X62146Y-29016
X62343Y-28819
X62539Y-28622
X62756Y-21378
X62756Y-28425
X62776Y-29823
X62835Y-22008
X62835Y-22264
X62953Y-28228
X62972Y-29665
X63091Y-22008
X63091Y-22264
X63150Y-28031
X63169Y-29508
X63346Y-27835
X63366Y-29370
X63417Y-22756
X63524Y-23425
X63563Y-29232
X63760Y-29075
X63907Y-23425
X63957Y-28917
X64154Y-28760
X64232Y-27657
X64291Y-28445
X64421Y-27844
X64453Y-22091
X64646Y-30235
X64685Y-23425
X64939Y-25689
X65265Y-25778
X65394Y-24055
X65423Y-22923
X65433Y-21378
X65522Y-22293
X65541Y-22618
X65548Y-25702
X65610Y-24055
X65748Y-21102
X65886Y-22077
X65886Y-22411
X66031Y-23110
X66067Y-30437
X66073Y-21437
X66211Y-22077
X66437Y-21014
X66457Y-27598
X66516Y-23858
X66575Y-25236
X66575Y-25472
X66575Y-25693
X66594Y-26220
X66594Y-26614
X66594Y-27008
X66594Y-27402
X66594Y-27795
X66594Y-30472
X66614Y-22953
X66614Y-23189
X66614Y-23425
X66673Y-24449
X66673Y-24665
X66732Y-26024
X66732Y-26417
X66732Y-26811
X66732Y-27205
X66752Y-27992
X66890Y-28189
X67028Y-28386
X67165Y-28583
X67303Y-28780
X67323Y-23425
X67323Y-23819
X67323Y-24213
X67323Y-26083
X67323Y-26476
X67323Y-26870
X67323Y-27264
X67323Y-27657
X67323Y-28051
X67441Y-28976
X67638Y-29705
X59134Y-27106
X59528Y-27106
T2
X59972Y-22189
X59972Y-22583
X59972Y-22976
X60366Y-22189
X60366Y-22583
X60366Y-22976
X60760Y-22189
X60760Y-22583
X60760Y-22976
T3
X57760Y-24441
X57760Y-25425
X57760Y-26409
X57760Y-27394
X57760Y-28378
X57760Y-29362
T0
M30
