G04 #@! TF.GenerationSoftware,KiCad,Pcbnew,(5.1.0)-1*
G04 #@! TF.CreationDate,2019-11-22T10:29:23-05:00*
G04 #@! TF.ProjectId,ThreeDeeO,54687265-6544-4656-954f-2e6b69636164,rev?*
G04 #@! TF.SameCoordinates,Original*
G04 #@! TF.FileFunction,Copper,L3,Inr*
G04 #@! TF.FilePolarity,Positive*
%FSLAX46Y46*%
G04 Gerber Fmt 4.6, Leading zero omitted, Abs format (unit mm)*
G04 Created by KiCad (PCBNEW (5.1.0)-1) date 2019-11-22 10:29:23*
%MOMM*%
%LPD*%
G04 APERTURE LIST*
%ADD10C,0.700000*%
%ADD11C,0.600000*%
%ADD12C,1.450000*%
%ADD13C,0.450000*%
%ADD14C,0.100000*%
%ADD15C,0.200000*%
G04 APERTURE END LIST*
D10*
X153330000Y-57360000D03*
X152330000Y-57360000D03*
X152330000Y-56360000D03*
X153330000Y-56360000D03*
X154330000Y-56360000D03*
X154330000Y-57360000D03*
X154330000Y-58360000D03*
X153330000Y-58360000D03*
X152330000Y-58360000D03*
D11*
X151200000Y-68850000D03*
X150200000Y-68850000D03*
D12*
X146710000Y-74580000D03*
X146710000Y-72080000D03*
X146710000Y-69580000D03*
X146710000Y-67080000D03*
X146710000Y-64580000D03*
X146710000Y-62080000D03*
D13*
X161080000Y-57800000D03*
X147000000Y-58000000D03*
X169350000Y-62650000D03*
X169350000Y-62100000D03*
X166650000Y-61100000D03*
X156550000Y-68250000D03*
X153500000Y-71000000D03*
X154600000Y-71000000D03*
X153210000Y-75480000D03*
X171000000Y-71250000D03*
X171000000Y-70250000D03*
X171000000Y-69250000D03*
X171000000Y-68250000D03*
X171000000Y-67250000D03*
X171000000Y-66250000D03*
X171000000Y-61500000D03*
X171000000Y-60500000D03*
X171000000Y-59500000D03*
X171800000Y-75450000D03*
X167720000Y-58700000D03*
X156400000Y-76350000D03*
X150937500Y-64037500D03*
X153435000Y-64635000D03*
X153100000Y-68200000D03*
X155600000Y-68000000D03*
X166100000Y-61100000D03*
X159400000Y-54300000D03*
X147900000Y-57900000D03*
X149870000Y-62820000D03*
X166175000Y-58225000D03*
X167350000Y-56925000D03*
X167350000Y-56075000D03*
X168175000Y-56075000D03*
X162325000Y-59500000D03*
X161350000Y-59500000D03*
X155675000Y-65650000D03*
X148200000Y-52640000D03*
X154860000Y-51710000D03*
X163710000Y-56110000D03*
X155000000Y-75750000D03*
X163300000Y-72250000D03*
X155100000Y-73600000D03*
X164300000Y-59500000D03*
X148470000Y-61560000D03*
X168950000Y-60600000D03*
X164200000Y-76797590D03*
X151670000Y-70910000D03*
X152070000Y-75420000D03*
X163628363Y-70722590D03*
X152380000Y-73090000D03*
X163150000Y-70250000D03*
X152400000Y-72300000D03*
X169150000Y-69600000D03*
X160900000Y-70700000D03*
X169500000Y-69100000D03*
X160400000Y-71200000D03*
X159900000Y-71700000D03*
X169150000Y-68600000D03*
X159400000Y-72200000D03*
X169500000Y-68100000D03*
X158850000Y-72700000D03*
X169150000Y-67600000D03*
X158350000Y-73200000D03*
X169500000Y-67100000D03*
X157850000Y-73700000D03*
X169150000Y-66600000D03*
X157350000Y-74200000D03*
X169500000Y-66100000D03*
X159450000Y-75750000D03*
X171300000Y-73600000D03*
X159950000Y-75350000D03*
X170950000Y-73100000D03*
X160450000Y-74950000D03*
X170600000Y-72600000D03*
X160950000Y-74600000D03*
X170250000Y-72100000D03*
X161450000Y-74250000D03*
X169900000Y-71600000D03*
X161950000Y-73850000D03*
X169550000Y-71100000D03*
X162450000Y-73450000D03*
X169150000Y-70600000D03*
X168800000Y-70100000D03*
X162950000Y-73050000D03*
X169150000Y-77400000D03*
X149000000Y-74900000D03*
X167810000Y-77309990D03*
X150670000Y-75280000D03*
X149450000Y-73420000D03*
X150060000Y-74950000D03*
X148550000Y-70920000D03*
X152230000Y-71500000D03*
X153900000Y-67560000D03*
X169100000Y-64100000D03*
X169100000Y-65260000D03*
X169200000Y-59500000D03*
X169200000Y-58900000D03*
X169200000Y-58300000D03*
X166475000Y-57450000D03*
X166425000Y-56625000D03*
X169100000Y-64700000D03*
X164945175Y-65250002D03*
X166200000Y-54300000D03*
X165772590Y-65474999D03*
X167000000Y-53600000D03*
X166490822Y-65282403D03*
X167825000Y-54450000D03*
X168750000Y-53375000D03*
X150500000Y-55500000D03*
X150950000Y-70910000D03*
X151110000Y-74890000D03*
X159600000Y-56550000D03*
X159600000Y-55900000D03*
X160250000Y-55900000D03*
X160250000Y-56550000D03*
X152630000Y-67650000D03*
X152750000Y-66490000D03*
X150890000Y-65360000D03*
X152730000Y-60330000D03*
X146750000Y-59410000D03*
X147300000Y-59410000D03*
X156160000Y-57960000D03*
X149600000Y-52640000D03*
X150500000Y-56100000D03*
X152500000Y-51700000D03*
X156160000Y-57160000D03*
X156150000Y-55150000D03*
X155450000Y-54450000D03*
X147600000Y-55650000D03*
X155530000Y-51700000D03*
X150450000Y-56760000D03*
X149740000Y-62240000D03*
X154470000Y-63800000D03*
X150430000Y-57570000D03*
X148980000Y-66560000D03*
X150920000Y-66020000D03*
X148940000Y-52640000D03*
X156400000Y-51700000D03*
X148000000Y-75200000D03*
X150500000Y-51900000D03*
X140090000Y-55510000D03*
X150500000Y-54370000D03*
X151130000Y-51700000D03*
X151530000Y-54370000D03*
X151800000Y-51700000D03*
X140180000Y-53010000D03*
X140220000Y-54250000D03*
X152100000Y-54370000D03*
X140080000Y-61850000D03*
X152800000Y-54370000D03*
X140090000Y-60580000D03*
X153400000Y-54370000D03*
X140080000Y-59270000D03*
X154100000Y-54370000D03*
X140100000Y-58090000D03*
X140110000Y-56730000D03*
X140070000Y-63190000D03*
X140090000Y-64440000D03*
D14*
X151400000Y-51300000D02*
X142800000Y-51300000D01*
X151800000Y-51700000D02*
X151400000Y-51300000D01*
X142800000Y-51300000D02*
X141600000Y-52500000D01*
X141090000Y-53010000D02*
X140180000Y-53010000D01*
X141600000Y-52500000D02*
X141090000Y-53010000D01*
X140350000Y-54250000D02*
X140220000Y-54250000D01*
X143100000Y-51500000D02*
X140350000Y-54250000D01*
X151130000Y-51700000D02*
X150930000Y-51500000D01*
X150930000Y-51500000D02*
X143100000Y-51500000D01*
X140090000Y-55310000D02*
X140090000Y-55510000D01*
X143700000Y-51700000D02*
X140090000Y-55310000D01*
X150500000Y-51900000D02*
X150300000Y-51700000D01*
X150300000Y-51700000D02*
X143700000Y-51700000D01*
X144490000Y-53010000D02*
X142600000Y-54900000D01*
X153760000Y-53010000D02*
X144490000Y-53010000D01*
X154100000Y-54370000D02*
X154100000Y-53350000D01*
X154100000Y-53350000D02*
X153760000Y-53010000D01*
X142600000Y-54900000D02*
X140100000Y-57400000D01*
X140100000Y-57400000D02*
X140100000Y-58090000D01*
X140660000Y-56180000D02*
X140110000Y-56730000D01*
X140660000Y-55340000D02*
X140660000Y-56180000D01*
X143730000Y-52270000D02*
X140660000Y-55340000D01*
X155530000Y-51700000D02*
X154960000Y-52270000D01*
X154960000Y-52270000D02*
X143730000Y-52270000D01*
X140620000Y-58730000D02*
X140080000Y-59270000D01*
X140620000Y-57380000D02*
X140620000Y-58730000D01*
X144800000Y-53200000D02*
X140620000Y-57380000D01*
X152920000Y-53200000D02*
X144800000Y-53200000D01*
X153400000Y-54370000D02*
X153400000Y-53680000D01*
X153400000Y-53680000D02*
X152920000Y-53200000D01*
X141060000Y-59610000D02*
X140090000Y-60580000D01*
X141060000Y-57540000D02*
X141060000Y-59610000D01*
X145190000Y-53410000D02*
X141060000Y-57540000D01*
X152440000Y-53410000D02*
X145190000Y-53410000D01*
X152800000Y-54370000D02*
X152800000Y-53770000D01*
X152800000Y-53770000D02*
X152440000Y-53410000D01*
X141470000Y-60460000D02*
X140080000Y-61850000D01*
X141470000Y-57730000D02*
X141470000Y-60460000D01*
X145570000Y-53630000D02*
X141470000Y-57730000D01*
X151860000Y-53630000D02*
X145570000Y-53630000D01*
X152100000Y-54370000D02*
X152100000Y-53870000D01*
X152100000Y-53870000D02*
X151860000Y-53630000D01*
X141830000Y-61430000D02*
X140070000Y-63190000D01*
X141830000Y-57970000D02*
X141830000Y-61430000D01*
X145920000Y-53880000D02*
X141830000Y-57970000D01*
X151330000Y-53880000D02*
X145920000Y-53880000D01*
X151530000Y-54370000D02*
X151530000Y-54080000D01*
X151530000Y-54080000D02*
X151330000Y-53880000D01*
X142310000Y-62220000D02*
X140090000Y-64440000D01*
X142310000Y-58090000D02*
X142310000Y-62220000D01*
X146270000Y-54130000D02*
X142310000Y-58090000D01*
X150500000Y-54370000D02*
X150260000Y-54130000D01*
X150260000Y-54130000D02*
X146270000Y-54130000D01*
D15*
G36*
X141297437Y-52166168D02*
G01*
X141297432Y-52166172D01*
X140903605Y-52560000D01*
X140613883Y-52560000D01*
X140578414Y-52524531D01*
X140476048Y-52456132D01*
X140362306Y-52409019D01*
X140241557Y-52385000D01*
X140118443Y-52385000D01*
X139997694Y-52409019D01*
X139883952Y-52456132D01*
X139781586Y-52524531D01*
X139694531Y-52611586D01*
X139626132Y-52713952D01*
X139579019Y-52827694D01*
X139555000Y-52948443D01*
X139555000Y-53071557D01*
X139579019Y-53192306D01*
X139626132Y-53306048D01*
X139694531Y-53408414D01*
X139781586Y-53495469D01*
X139883952Y-53563868D01*
X139997694Y-53610981D01*
X140113307Y-53633978D01*
X140037694Y-53649019D01*
X139923952Y-53696132D01*
X139821586Y-53764531D01*
X139734531Y-53851586D01*
X139666132Y-53953952D01*
X139619019Y-54067694D01*
X139595000Y-54188443D01*
X139595000Y-54311557D01*
X139619019Y-54432306D01*
X139666132Y-54546048D01*
X139734531Y-54648414D01*
X139821586Y-54735469D01*
X139923952Y-54803868D01*
X139949256Y-54814349D01*
X139817034Y-54946571D01*
X139793952Y-54956132D01*
X139691586Y-55024531D01*
X139604531Y-55111586D01*
X139536132Y-55213952D01*
X139489019Y-55327694D01*
X139465000Y-55448443D01*
X139465000Y-55571557D01*
X139489019Y-55692306D01*
X139536132Y-55806048D01*
X139604531Y-55908414D01*
X139691586Y-55995469D01*
X139793952Y-56063868D01*
X139907694Y-56110981D01*
X139963035Y-56121989D01*
X139927694Y-56129019D01*
X139813952Y-56176132D01*
X139711586Y-56244531D01*
X139624531Y-56331586D01*
X139556132Y-56433952D01*
X139509019Y-56547694D01*
X139485000Y-56668443D01*
X139485000Y-56791557D01*
X139509019Y-56912306D01*
X139556132Y-57026048D01*
X139624531Y-57128414D01*
X139696467Y-57200350D01*
X139682243Y-57226960D01*
X139656511Y-57311786D01*
X139650000Y-57377896D01*
X139650000Y-57377906D01*
X139647824Y-57400000D01*
X139650000Y-57422095D01*
X139650000Y-57656117D01*
X139614531Y-57691586D01*
X139546132Y-57793952D01*
X139499019Y-57907694D01*
X139475000Y-58028443D01*
X139475000Y-58151557D01*
X139499019Y-58272306D01*
X139546132Y-58386048D01*
X139614531Y-58488414D01*
X139701586Y-58575469D01*
X139803952Y-58643868D01*
X139881183Y-58675858D01*
X139783952Y-58716132D01*
X139681586Y-58784531D01*
X139594531Y-58871586D01*
X139526132Y-58973952D01*
X139479019Y-59087694D01*
X139455000Y-59208443D01*
X139455000Y-59331557D01*
X139479019Y-59452306D01*
X139526132Y-59566048D01*
X139594531Y-59668414D01*
X139681586Y-59755469D01*
X139783952Y-59823868D01*
X139897694Y-59870981D01*
X140018443Y-59895000D01*
X140138605Y-59895000D01*
X140078605Y-59955000D01*
X140028443Y-59955000D01*
X139907694Y-59979019D01*
X139793952Y-60026132D01*
X139691586Y-60094531D01*
X139604531Y-60181586D01*
X139536132Y-60283952D01*
X139489019Y-60397694D01*
X139465000Y-60518443D01*
X139465000Y-60641557D01*
X139489019Y-60762306D01*
X139536132Y-60876048D01*
X139604531Y-60978414D01*
X139691586Y-61065469D01*
X139793952Y-61133868D01*
X139907694Y-61180981D01*
X140028443Y-61205000D01*
X140088605Y-61205000D01*
X140068605Y-61225000D01*
X140018443Y-61225000D01*
X139897694Y-61249019D01*
X139783952Y-61296132D01*
X139681586Y-61364531D01*
X139594531Y-61451586D01*
X139526132Y-61553952D01*
X139479019Y-61667694D01*
X139455000Y-61788443D01*
X139455000Y-61911557D01*
X139479019Y-62032306D01*
X139526132Y-62146048D01*
X139594531Y-62248414D01*
X139681586Y-62335469D01*
X139783952Y-62403868D01*
X139897694Y-62450981D01*
X140018443Y-62475000D01*
X140141557Y-62475000D01*
X140150355Y-62473250D01*
X140058605Y-62565000D01*
X140008443Y-62565000D01*
X139887694Y-62589019D01*
X139773952Y-62636132D01*
X139671586Y-62704531D01*
X139584531Y-62791586D01*
X139516132Y-62893952D01*
X139469019Y-63007694D01*
X139445000Y-63128443D01*
X139445000Y-63251557D01*
X139469019Y-63372306D01*
X139516132Y-63486048D01*
X139584531Y-63588414D01*
X139671586Y-63675469D01*
X139773952Y-63743868D01*
X139887694Y-63790981D01*
X140008443Y-63815000D01*
X140028443Y-63815000D01*
X139907694Y-63839019D01*
X139793952Y-63886132D01*
X139691586Y-63954531D01*
X139604531Y-64041586D01*
X139536132Y-64143952D01*
X139489019Y-64257694D01*
X139465000Y-64378443D01*
X139465000Y-64501557D01*
X139489019Y-64622306D01*
X139536132Y-64736048D01*
X139604531Y-64838414D01*
X139691586Y-64925469D01*
X139793952Y-64993868D01*
X139907694Y-65040981D01*
X140028443Y-65065000D01*
X140151557Y-65065000D01*
X140272306Y-65040981D01*
X140386048Y-64993868D01*
X140488414Y-64925469D01*
X140575469Y-64838414D01*
X140643868Y-64736048D01*
X140690981Y-64622306D01*
X140715000Y-64501557D01*
X140715000Y-64469197D01*
X145585000Y-64469197D01*
X145585000Y-64690803D01*
X145628233Y-64908150D01*
X145713038Y-65112887D01*
X145836156Y-65297145D01*
X145992855Y-65453844D01*
X146177113Y-65576962D01*
X146381850Y-65661767D01*
X146599197Y-65705000D01*
X146820803Y-65705000D01*
X147038150Y-65661767D01*
X147242887Y-65576962D01*
X147427145Y-65453844D01*
X147582546Y-65298443D01*
X150265000Y-65298443D01*
X150265000Y-65421557D01*
X150289019Y-65542306D01*
X150336132Y-65656048D01*
X150373818Y-65712449D01*
X150366132Y-65723952D01*
X150319019Y-65837694D01*
X150295000Y-65958443D01*
X150295000Y-66081557D01*
X150319019Y-66202306D01*
X150366132Y-66316048D01*
X150434531Y-66418414D01*
X150521586Y-66505469D01*
X150623952Y-66573868D01*
X150737694Y-66620981D01*
X150858443Y-66645000D01*
X150981557Y-66645000D01*
X151102306Y-66620981D01*
X151216048Y-66573868D01*
X151318414Y-66505469D01*
X151405469Y-66418414D01*
X151473868Y-66316048D01*
X151520981Y-66202306D01*
X151545000Y-66081557D01*
X151545000Y-65958443D01*
X151520981Y-65837694D01*
X151473868Y-65723952D01*
X151436182Y-65667551D01*
X151443868Y-65656048D01*
X151490981Y-65542306D01*
X151515000Y-65421557D01*
X151515000Y-65298443D01*
X151493120Y-65188445D01*
X164320175Y-65188445D01*
X164320175Y-65311559D01*
X164344194Y-65432308D01*
X164391307Y-65546050D01*
X164459706Y-65648416D01*
X164546761Y-65735471D01*
X164649127Y-65803870D01*
X164762869Y-65850983D01*
X164883618Y-65875002D01*
X165006732Y-65875002D01*
X165127481Y-65850983D01*
X165240777Y-65804055D01*
X165287121Y-65873413D01*
X165374176Y-65960468D01*
X165476542Y-66028867D01*
X165590284Y-66075980D01*
X165711033Y-66099999D01*
X165834147Y-66099999D01*
X165954896Y-66075980D01*
X166068638Y-66028867D01*
X166171004Y-65960468D01*
X166258059Y-65873413D01*
X166263778Y-65864853D01*
X166308516Y-65883384D01*
X166429265Y-65907403D01*
X166552379Y-65907403D01*
X166673128Y-65883384D01*
X166786870Y-65836271D01*
X166889236Y-65767872D01*
X166976291Y-65680817D01*
X167044690Y-65578451D01*
X167091803Y-65464709D01*
X167115822Y-65343960D01*
X167115822Y-65220846D01*
X167091803Y-65100097D01*
X167044690Y-64986355D01*
X166976291Y-64883989D01*
X166889236Y-64796934D01*
X166786870Y-64728535D01*
X166673128Y-64681422D01*
X166552379Y-64657403D01*
X166429265Y-64657403D01*
X166308516Y-64681422D01*
X166194774Y-64728535D01*
X166092408Y-64796934D01*
X166005353Y-64883989D01*
X165999634Y-64892549D01*
X165954896Y-64874018D01*
X165834147Y-64849999D01*
X165711033Y-64849999D01*
X165590284Y-64874018D01*
X165476988Y-64920946D01*
X165430644Y-64851588D01*
X165343589Y-64764533D01*
X165241223Y-64696134D01*
X165127481Y-64649021D01*
X165006732Y-64625002D01*
X164883618Y-64625002D01*
X164762869Y-64649021D01*
X164649127Y-64696134D01*
X164546761Y-64764533D01*
X164459706Y-64851588D01*
X164391307Y-64953954D01*
X164344194Y-65067696D01*
X164320175Y-65188445D01*
X151493120Y-65188445D01*
X151490981Y-65177694D01*
X151443868Y-65063952D01*
X151375469Y-64961586D01*
X151288414Y-64874531D01*
X151186048Y-64806132D01*
X151072306Y-64759019D01*
X150951557Y-64735000D01*
X150828443Y-64735000D01*
X150707694Y-64759019D01*
X150593952Y-64806132D01*
X150491586Y-64874531D01*
X150404531Y-64961586D01*
X150336132Y-65063952D01*
X150289019Y-65177694D01*
X150265000Y-65298443D01*
X147582546Y-65298443D01*
X147583844Y-65297145D01*
X147706962Y-65112887D01*
X147791767Y-64908150D01*
X147835000Y-64690803D01*
X147835000Y-64469197D01*
X147791767Y-64251850D01*
X147706962Y-64047113D01*
X147583844Y-63862855D01*
X147459432Y-63738443D01*
X153845000Y-63738443D01*
X153845000Y-63861557D01*
X153869019Y-63982306D01*
X153916132Y-64096048D01*
X153984531Y-64198414D01*
X154071586Y-64285469D01*
X154173952Y-64353868D01*
X154287694Y-64400981D01*
X154408443Y-64425000D01*
X154531557Y-64425000D01*
X154652306Y-64400981D01*
X154766048Y-64353868D01*
X154868414Y-64285469D01*
X154955469Y-64198414D01*
X155023868Y-64096048D01*
X155070981Y-63982306D01*
X155095000Y-63861557D01*
X155095000Y-63738443D01*
X155070981Y-63617694D01*
X155023868Y-63503952D01*
X154955469Y-63401586D01*
X154868414Y-63314531D01*
X154766048Y-63246132D01*
X154652306Y-63199019D01*
X154531557Y-63175000D01*
X154408443Y-63175000D01*
X154287694Y-63199019D01*
X154173952Y-63246132D01*
X154071586Y-63314531D01*
X153984531Y-63401586D01*
X153916132Y-63503952D01*
X153869019Y-63617694D01*
X153845000Y-63738443D01*
X147459432Y-63738443D01*
X147427145Y-63706156D01*
X147242887Y-63583038D01*
X147038150Y-63498233D01*
X146820803Y-63455000D01*
X146599197Y-63455000D01*
X146381850Y-63498233D01*
X146177113Y-63583038D01*
X145992855Y-63706156D01*
X145836156Y-63862855D01*
X145713038Y-64047113D01*
X145628233Y-64251850D01*
X145585000Y-64469197D01*
X140715000Y-64469197D01*
X140715000Y-64451395D01*
X142612572Y-62553824D01*
X142629737Y-62539737D01*
X142643824Y-62522572D01*
X142643828Y-62522568D01*
X142685971Y-62471217D01*
X142727757Y-62393041D01*
X142745221Y-62335469D01*
X142753489Y-62308215D01*
X142760000Y-62242105D01*
X142760000Y-62242095D01*
X142762176Y-62220001D01*
X142760000Y-62197906D01*
X142760000Y-61969197D01*
X145585000Y-61969197D01*
X145585000Y-62190803D01*
X145628233Y-62408150D01*
X145713038Y-62612887D01*
X145836156Y-62797145D01*
X145992855Y-62953844D01*
X146177113Y-63076962D01*
X146381850Y-63161767D01*
X146599197Y-63205000D01*
X146820803Y-63205000D01*
X147038150Y-63161767D01*
X147242887Y-63076962D01*
X147427145Y-62953844D01*
X147583844Y-62797145D01*
X147706962Y-62612887D01*
X147791767Y-62408150D01*
X147835000Y-62190803D01*
X147835000Y-61969197D01*
X147791767Y-61751850D01*
X147706962Y-61547113D01*
X147674442Y-61498443D01*
X147845000Y-61498443D01*
X147845000Y-61621557D01*
X147869019Y-61742306D01*
X147916132Y-61856048D01*
X147984531Y-61958414D01*
X148071586Y-62045469D01*
X148173952Y-62113868D01*
X148287694Y-62160981D01*
X148408443Y-62185000D01*
X148531557Y-62185000D01*
X148564520Y-62178443D01*
X149115000Y-62178443D01*
X149115000Y-62301557D01*
X149139019Y-62422306D01*
X149186132Y-62536048D01*
X149254531Y-62638414D01*
X149341586Y-62725469D01*
X149443952Y-62793868D01*
X149557694Y-62840981D01*
X149678443Y-62865000D01*
X149801557Y-62865000D01*
X149922306Y-62840981D01*
X150036048Y-62793868D01*
X150138414Y-62725469D01*
X150225469Y-62638414D01*
X150293868Y-62536048D01*
X150340981Y-62422306D01*
X150365000Y-62301557D01*
X150365000Y-62178443D01*
X150340981Y-62057694D01*
X150293868Y-61943952D01*
X150225469Y-61841586D01*
X150138414Y-61754531D01*
X150036048Y-61686132D01*
X149922306Y-61639019D01*
X149801557Y-61615000D01*
X149678443Y-61615000D01*
X149557694Y-61639019D01*
X149443952Y-61686132D01*
X149341586Y-61754531D01*
X149254531Y-61841586D01*
X149186132Y-61943952D01*
X149139019Y-62057694D01*
X149115000Y-62178443D01*
X148564520Y-62178443D01*
X148652306Y-62160981D01*
X148766048Y-62113868D01*
X148868414Y-62045469D01*
X148955469Y-61958414D01*
X149023868Y-61856048D01*
X149070981Y-61742306D01*
X149095000Y-61621557D01*
X149095000Y-61498443D01*
X149070981Y-61377694D01*
X149023868Y-61263952D01*
X148955469Y-61161586D01*
X148868414Y-61074531D01*
X148766048Y-61006132D01*
X148652306Y-60959019D01*
X148531557Y-60935000D01*
X148408443Y-60935000D01*
X148287694Y-60959019D01*
X148173952Y-61006132D01*
X148071586Y-61074531D01*
X147984531Y-61161586D01*
X147916132Y-61263952D01*
X147869019Y-61377694D01*
X147845000Y-61498443D01*
X147674442Y-61498443D01*
X147583844Y-61362855D01*
X147427145Y-61206156D01*
X147242887Y-61083038D01*
X147038150Y-60998233D01*
X146820803Y-60955000D01*
X146599197Y-60955000D01*
X146381850Y-60998233D01*
X146177113Y-61083038D01*
X145992855Y-61206156D01*
X145836156Y-61362855D01*
X145713038Y-61547113D01*
X145628233Y-61751850D01*
X145585000Y-61969197D01*
X142760000Y-61969197D01*
X142760000Y-60268443D01*
X152105000Y-60268443D01*
X152105000Y-60391557D01*
X152129019Y-60512306D01*
X152176132Y-60626048D01*
X152244531Y-60728414D01*
X152331586Y-60815469D01*
X152433952Y-60883868D01*
X152547694Y-60930981D01*
X152668443Y-60955000D01*
X152791557Y-60955000D01*
X152912306Y-60930981D01*
X153026048Y-60883868D01*
X153128414Y-60815469D01*
X153215469Y-60728414D01*
X153283868Y-60626048D01*
X153320154Y-60538443D01*
X168325000Y-60538443D01*
X168325000Y-60661557D01*
X168349019Y-60782306D01*
X168396132Y-60896048D01*
X168464531Y-60998414D01*
X168551586Y-61085469D01*
X168653952Y-61153868D01*
X168767694Y-61200981D01*
X168888443Y-61225000D01*
X169011557Y-61225000D01*
X169132306Y-61200981D01*
X169246048Y-61153868D01*
X169348414Y-61085469D01*
X169435469Y-60998414D01*
X169503868Y-60896048D01*
X169550981Y-60782306D01*
X169575000Y-60661557D01*
X169575000Y-60538443D01*
X169550981Y-60417694D01*
X169503868Y-60303952D01*
X169435469Y-60201586D01*
X169348414Y-60114531D01*
X169340562Y-60109285D01*
X169382306Y-60100981D01*
X169496048Y-60053868D01*
X169598414Y-59985469D01*
X169685469Y-59898414D01*
X169753868Y-59796048D01*
X169800981Y-59682306D01*
X169825000Y-59561557D01*
X169825000Y-59438443D01*
X169800981Y-59317694D01*
X169753868Y-59203952D01*
X169751227Y-59200000D01*
X169753868Y-59196048D01*
X169800981Y-59082306D01*
X169825000Y-58961557D01*
X169825000Y-58838443D01*
X169800981Y-58717694D01*
X169753868Y-58603952D01*
X169751227Y-58600000D01*
X169753868Y-58596048D01*
X169800981Y-58482306D01*
X169825000Y-58361557D01*
X169825000Y-58238443D01*
X169800981Y-58117694D01*
X169753868Y-58003952D01*
X169685469Y-57901586D01*
X169598414Y-57814531D01*
X169496048Y-57746132D01*
X169382306Y-57699019D01*
X169261557Y-57675000D01*
X169138443Y-57675000D01*
X169017694Y-57699019D01*
X168903952Y-57746132D01*
X168801586Y-57814531D01*
X168714531Y-57901586D01*
X168646132Y-58003952D01*
X168599019Y-58117694D01*
X168575000Y-58238443D01*
X168575000Y-58361557D01*
X168599019Y-58482306D01*
X168646132Y-58596048D01*
X168648773Y-58600000D01*
X168646132Y-58603952D01*
X168599019Y-58717694D01*
X168575000Y-58838443D01*
X168575000Y-58961557D01*
X168599019Y-59082306D01*
X168646132Y-59196048D01*
X168648773Y-59200000D01*
X168646132Y-59203952D01*
X168599019Y-59317694D01*
X168575000Y-59438443D01*
X168575000Y-59561557D01*
X168599019Y-59682306D01*
X168646132Y-59796048D01*
X168714531Y-59898414D01*
X168801586Y-59985469D01*
X168809438Y-59990715D01*
X168767694Y-59999019D01*
X168653952Y-60046132D01*
X168551586Y-60114531D01*
X168464531Y-60201586D01*
X168396132Y-60303952D01*
X168349019Y-60417694D01*
X168325000Y-60538443D01*
X153320154Y-60538443D01*
X153330981Y-60512306D01*
X153355000Y-60391557D01*
X153355000Y-60268443D01*
X153330981Y-60147694D01*
X153283868Y-60033952D01*
X153215469Y-59931586D01*
X153128414Y-59844531D01*
X153026048Y-59776132D01*
X152912306Y-59729019D01*
X152791557Y-59705000D01*
X152668443Y-59705000D01*
X152547694Y-59729019D01*
X152433952Y-59776132D01*
X152331586Y-59844531D01*
X152244531Y-59931586D01*
X152176132Y-60033952D01*
X152129019Y-60147694D01*
X152105000Y-60268443D01*
X142760000Y-60268443D01*
X142760000Y-59348443D01*
X146125000Y-59348443D01*
X146125000Y-59471557D01*
X146149019Y-59592306D01*
X146196132Y-59706048D01*
X146264531Y-59808414D01*
X146351586Y-59895469D01*
X146453952Y-59963868D01*
X146567694Y-60010981D01*
X146688443Y-60035000D01*
X146811557Y-60035000D01*
X146932306Y-60010981D01*
X147025000Y-59972586D01*
X147117694Y-60010981D01*
X147238443Y-60035000D01*
X147361557Y-60035000D01*
X147482306Y-60010981D01*
X147596048Y-59963868D01*
X147698414Y-59895469D01*
X147785469Y-59808414D01*
X147853868Y-59706048D01*
X147900981Y-59592306D01*
X147925000Y-59471557D01*
X147925000Y-59438443D01*
X163675000Y-59438443D01*
X163675000Y-59561557D01*
X163699019Y-59682306D01*
X163746132Y-59796048D01*
X163814531Y-59898414D01*
X163901586Y-59985469D01*
X164003952Y-60053868D01*
X164117694Y-60100981D01*
X164238443Y-60125000D01*
X164361557Y-60125000D01*
X164482306Y-60100981D01*
X164596048Y-60053868D01*
X164698414Y-59985469D01*
X164785469Y-59898414D01*
X164853868Y-59796048D01*
X164900981Y-59682306D01*
X164925000Y-59561557D01*
X164925000Y-59438443D01*
X164900981Y-59317694D01*
X164853868Y-59203952D01*
X164785469Y-59101586D01*
X164698414Y-59014531D01*
X164596048Y-58946132D01*
X164482306Y-58899019D01*
X164361557Y-58875000D01*
X164238443Y-58875000D01*
X164117694Y-58899019D01*
X164003952Y-58946132D01*
X163901586Y-59014531D01*
X163814531Y-59101586D01*
X163746132Y-59203952D01*
X163699019Y-59317694D01*
X163675000Y-59438443D01*
X147925000Y-59438443D01*
X147925000Y-59348443D01*
X147900981Y-59227694D01*
X147853868Y-59113952D01*
X147785469Y-59011586D01*
X147698414Y-58924531D01*
X147596048Y-58856132D01*
X147500720Y-58816646D01*
X151912245Y-58816646D01*
X151936760Y-58948034D01*
X152059035Y-59013453D01*
X152191724Y-59053759D01*
X152329726Y-59067406D01*
X152467739Y-59053866D01*
X152600460Y-59013662D01*
X152722787Y-58948338D01*
X152723240Y-58948034D01*
X152747755Y-58816646D01*
X152912245Y-58816646D01*
X152936760Y-58948034D01*
X153059035Y-59013453D01*
X153191724Y-59053759D01*
X153329726Y-59067406D01*
X153467739Y-59053866D01*
X153600460Y-59013662D01*
X153722787Y-58948338D01*
X153723240Y-58948034D01*
X153747755Y-58816646D01*
X153912245Y-58816646D01*
X153936760Y-58948034D01*
X154059035Y-59013453D01*
X154191724Y-59053759D01*
X154329726Y-59067406D01*
X154467739Y-59053866D01*
X154600460Y-59013662D01*
X154722787Y-58948338D01*
X154723240Y-58948034D01*
X154747755Y-58816646D01*
X154330000Y-58398891D01*
X153912245Y-58816646D01*
X153747755Y-58816646D01*
X153330000Y-58398891D01*
X152912245Y-58816646D01*
X152747755Y-58816646D01*
X152330000Y-58398891D01*
X151912245Y-58816646D01*
X147500720Y-58816646D01*
X147482306Y-58809019D01*
X147361557Y-58785000D01*
X147238443Y-58785000D01*
X147117694Y-58809019D01*
X147025000Y-58847414D01*
X146932306Y-58809019D01*
X146811557Y-58785000D01*
X146688443Y-58785000D01*
X146567694Y-58809019D01*
X146453952Y-58856132D01*
X146351586Y-58924531D01*
X146264531Y-59011586D01*
X146196132Y-59113952D01*
X146149019Y-59227694D01*
X146125000Y-59348443D01*
X142760000Y-59348443D01*
X142760000Y-58359726D01*
X151622594Y-58359726D01*
X151636134Y-58497739D01*
X151676338Y-58630460D01*
X151741662Y-58752787D01*
X151741966Y-58753240D01*
X151873354Y-58777755D01*
X152291109Y-58360000D01*
X152368891Y-58360000D01*
X152718724Y-58709833D01*
X152741662Y-58752787D01*
X152741966Y-58753240D01*
X152766757Y-58757866D01*
X152786646Y-58777755D01*
X152830000Y-58769666D01*
X152873354Y-58777755D01*
X152893243Y-58757866D01*
X152918034Y-58753240D01*
X152941236Y-58709873D01*
X153291109Y-58360000D01*
X153368891Y-58360000D01*
X153718724Y-58709833D01*
X153741662Y-58752787D01*
X153741966Y-58753240D01*
X153766757Y-58757866D01*
X153786646Y-58777755D01*
X153830000Y-58769666D01*
X153873354Y-58777755D01*
X153893243Y-58757866D01*
X153918034Y-58753240D01*
X153941236Y-58709873D01*
X154291109Y-58360000D01*
X154368891Y-58360000D01*
X154786646Y-58777755D01*
X154918034Y-58753240D01*
X154983453Y-58630965D01*
X155023759Y-58498276D01*
X155037406Y-58360274D01*
X155023866Y-58222261D01*
X154983662Y-58089540D01*
X154918338Y-57967213D01*
X154918034Y-57966760D01*
X154786646Y-57942245D01*
X154368891Y-58360000D01*
X154291109Y-58360000D01*
X153941276Y-58010167D01*
X153918338Y-57967213D01*
X153918034Y-57966760D01*
X153893243Y-57962134D01*
X153873354Y-57942245D01*
X153830000Y-57950334D01*
X153786646Y-57942245D01*
X153766757Y-57962134D01*
X153741966Y-57966760D01*
X153718764Y-58010127D01*
X153368891Y-58360000D01*
X153291109Y-58360000D01*
X152941276Y-58010167D01*
X152918338Y-57967213D01*
X152918034Y-57966760D01*
X152893243Y-57962134D01*
X152873354Y-57942245D01*
X152830000Y-57950334D01*
X152786646Y-57942245D01*
X152766757Y-57962134D01*
X152741966Y-57966760D01*
X152718764Y-58010127D01*
X152368891Y-58360000D01*
X152291109Y-58360000D01*
X151873354Y-57942245D01*
X151741966Y-57966760D01*
X151676547Y-58089035D01*
X151636241Y-58221724D01*
X151622594Y-58359726D01*
X142760000Y-58359726D01*
X142760000Y-58276395D01*
X145447952Y-55588443D01*
X146975000Y-55588443D01*
X146975000Y-55711557D01*
X146999019Y-55832306D01*
X147046132Y-55946048D01*
X147114531Y-56048414D01*
X147201586Y-56135469D01*
X147303952Y-56203868D01*
X147417694Y-56250981D01*
X147538443Y-56275000D01*
X147661557Y-56275000D01*
X147782306Y-56250981D01*
X147896048Y-56203868D01*
X147998414Y-56135469D01*
X148085469Y-56048414D01*
X148153868Y-55946048D01*
X148200981Y-55832306D01*
X148225000Y-55711557D01*
X148225000Y-55588443D01*
X148200981Y-55467694D01*
X148153868Y-55353952D01*
X148085469Y-55251586D01*
X147998414Y-55164531D01*
X147896048Y-55096132D01*
X147782306Y-55049019D01*
X147661557Y-55025000D01*
X147538443Y-55025000D01*
X147417694Y-55049019D01*
X147303952Y-55096132D01*
X147201586Y-55164531D01*
X147114531Y-55251586D01*
X147046132Y-55353952D01*
X146999019Y-55467694D01*
X146975000Y-55588443D01*
X145447952Y-55588443D01*
X146456396Y-54580000D01*
X149910490Y-54580000D01*
X149946132Y-54666048D01*
X150014531Y-54768414D01*
X150101586Y-54855469D01*
X150203952Y-54923868D01*
X150230827Y-54935000D01*
X150203952Y-54946132D01*
X150101586Y-55014531D01*
X150014531Y-55101586D01*
X149946132Y-55203952D01*
X149899019Y-55317694D01*
X149875000Y-55438443D01*
X149875000Y-55561557D01*
X149899019Y-55682306D01*
X149946132Y-55796048D01*
X149948773Y-55800000D01*
X149946132Y-55803952D01*
X149899019Y-55917694D01*
X149875000Y-56038443D01*
X149875000Y-56161557D01*
X149899019Y-56282306D01*
X149944361Y-56391772D01*
X149896132Y-56463952D01*
X149849019Y-56577694D01*
X149825000Y-56698443D01*
X149825000Y-56821557D01*
X149849019Y-56942306D01*
X149896132Y-57056048D01*
X149961796Y-57154321D01*
X149944531Y-57171586D01*
X149876132Y-57273952D01*
X149829019Y-57387694D01*
X149805000Y-57508443D01*
X149805000Y-57631557D01*
X149829019Y-57752306D01*
X149876132Y-57866048D01*
X149944531Y-57968414D01*
X150031586Y-58055469D01*
X150133952Y-58123868D01*
X150247694Y-58170981D01*
X150368443Y-58195000D01*
X150491557Y-58195000D01*
X150612306Y-58170981D01*
X150726048Y-58123868D01*
X150828414Y-58055469D01*
X150915469Y-57968414D01*
X150983868Y-57866048D01*
X151004330Y-57816646D01*
X151912245Y-57816646D01*
X151920334Y-57860000D01*
X151912245Y-57903354D01*
X151932134Y-57923243D01*
X151936760Y-57948034D01*
X151980127Y-57971236D01*
X152330000Y-58321109D01*
X152679833Y-57971276D01*
X152722787Y-57948338D01*
X152723240Y-57948034D01*
X152727866Y-57923243D01*
X152747755Y-57903354D01*
X152739666Y-57860000D01*
X152747755Y-57816646D01*
X152912245Y-57816646D01*
X152920334Y-57860000D01*
X152912245Y-57903354D01*
X152932134Y-57923243D01*
X152936760Y-57948034D01*
X152980127Y-57971236D01*
X153330000Y-58321109D01*
X153679833Y-57971276D01*
X153722787Y-57948338D01*
X153723240Y-57948034D01*
X153727866Y-57923243D01*
X153747755Y-57903354D01*
X153739666Y-57860000D01*
X153747755Y-57816646D01*
X153912245Y-57816646D01*
X153920334Y-57860000D01*
X153912245Y-57903354D01*
X153932134Y-57923243D01*
X153936760Y-57948034D01*
X153980127Y-57971236D01*
X154330000Y-58321109D01*
X154679833Y-57971276D01*
X154722787Y-57948338D01*
X154723240Y-57948034D01*
X154727866Y-57923243D01*
X154747755Y-57903354D01*
X154739666Y-57860000D01*
X154747755Y-57816646D01*
X154727866Y-57796757D01*
X154723240Y-57771966D01*
X154679873Y-57748764D01*
X154330000Y-57398891D01*
X153980167Y-57748724D01*
X153937213Y-57771662D01*
X153936760Y-57771966D01*
X153932134Y-57796757D01*
X153912245Y-57816646D01*
X153747755Y-57816646D01*
X153727866Y-57796757D01*
X153723240Y-57771966D01*
X153679873Y-57748764D01*
X153330000Y-57398891D01*
X152980167Y-57748724D01*
X152937213Y-57771662D01*
X152936760Y-57771966D01*
X152932134Y-57796757D01*
X152912245Y-57816646D01*
X152747755Y-57816646D01*
X152727866Y-57796757D01*
X152723240Y-57771966D01*
X152679873Y-57748764D01*
X152330000Y-57398891D01*
X151980167Y-57748724D01*
X151937213Y-57771662D01*
X151936760Y-57771966D01*
X151932134Y-57796757D01*
X151912245Y-57816646D01*
X151004330Y-57816646D01*
X151030981Y-57752306D01*
X151055000Y-57631557D01*
X151055000Y-57508443D01*
X151030981Y-57387694D01*
X151019397Y-57359726D01*
X151622594Y-57359726D01*
X151636134Y-57497739D01*
X151676338Y-57630460D01*
X151741662Y-57752787D01*
X151741966Y-57753240D01*
X151873354Y-57777755D01*
X152291109Y-57360000D01*
X152368891Y-57360000D01*
X152718724Y-57709833D01*
X152741662Y-57752787D01*
X152741966Y-57753240D01*
X152766757Y-57757866D01*
X152786646Y-57777755D01*
X152830000Y-57769666D01*
X152873354Y-57777755D01*
X152893243Y-57757866D01*
X152918034Y-57753240D01*
X152941236Y-57709873D01*
X153291109Y-57360000D01*
X153368891Y-57360000D01*
X153718724Y-57709833D01*
X153741662Y-57752787D01*
X153741966Y-57753240D01*
X153766757Y-57757866D01*
X153786646Y-57777755D01*
X153830000Y-57769666D01*
X153873354Y-57777755D01*
X153893243Y-57757866D01*
X153918034Y-57753240D01*
X153941236Y-57709873D01*
X154291109Y-57360000D01*
X154368891Y-57360000D01*
X154786646Y-57777755D01*
X154918034Y-57753240D01*
X154983453Y-57630965D01*
X155023759Y-57498276D01*
X155037406Y-57360274D01*
X155023866Y-57222261D01*
X154986359Y-57098443D01*
X155535000Y-57098443D01*
X155535000Y-57221557D01*
X155559019Y-57342306D01*
X155606132Y-57456048D01*
X155674531Y-57558414D01*
X155676117Y-57560000D01*
X155674531Y-57561586D01*
X155606132Y-57663952D01*
X155559019Y-57777694D01*
X155535000Y-57898443D01*
X155535000Y-58021557D01*
X155559019Y-58142306D01*
X155606132Y-58256048D01*
X155674531Y-58358414D01*
X155761586Y-58445469D01*
X155863952Y-58513868D01*
X155977694Y-58560981D01*
X156098443Y-58585000D01*
X156221557Y-58585000D01*
X156342306Y-58560981D01*
X156456048Y-58513868D01*
X156558414Y-58445469D01*
X156645469Y-58358414D01*
X156713868Y-58256048D01*
X156760981Y-58142306D01*
X156785000Y-58021557D01*
X156785000Y-57898443D01*
X156760981Y-57777694D01*
X156713868Y-57663952D01*
X156645469Y-57561586D01*
X156643883Y-57560000D01*
X156645469Y-57558414D01*
X156713868Y-57456048D01*
X156760981Y-57342306D01*
X156785000Y-57221557D01*
X156785000Y-57098443D01*
X156760981Y-56977694D01*
X156713868Y-56863952D01*
X156645469Y-56761586D01*
X156558414Y-56674531D01*
X156456048Y-56606132D01*
X156342306Y-56559019D01*
X156221557Y-56535000D01*
X156098443Y-56535000D01*
X155977694Y-56559019D01*
X155863952Y-56606132D01*
X155761586Y-56674531D01*
X155674531Y-56761586D01*
X155606132Y-56863952D01*
X155559019Y-56977694D01*
X155535000Y-57098443D01*
X154986359Y-57098443D01*
X154983662Y-57089540D01*
X154918338Y-56967213D01*
X154918034Y-56966760D01*
X154786646Y-56942245D01*
X154368891Y-57360000D01*
X154291109Y-57360000D01*
X153941276Y-57010167D01*
X153918338Y-56967213D01*
X153918034Y-56966760D01*
X153893243Y-56962134D01*
X153873354Y-56942245D01*
X153830000Y-56950334D01*
X153786646Y-56942245D01*
X153766757Y-56962134D01*
X153741966Y-56966760D01*
X153718764Y-57010127D01*
X153368891Y-57360000D01*
X153291109Y-57360000D01*
X152941276Y-57010167D01*
X152918338Y-56967213D01*
X152918034Y-56966760D01*
X152893243Y-56962134D01*
X152873354Y-56942245D01*
X152830000Y-56950334D01*
X152786646Y-56942245D01*
X152766757Y-56962134D01*
X152741966Y-56966760D01*
X152718764Y-57010127D01*
X152368891Y-57360000D01*
X152291109Y-57360000D01*
X151873354Y-56942245D01*
X151741966Y-56966760D01*
X151676547Y-57089035D01*
X151636241Y-57221724D01*
X151622594Y-57359726D01*
X151019397Y-57359726D01*
X150983868Y-57273952D01*
X150918204Y-57175679D01*
X150935469Y-57158414D01*
X151003868Y-57056048D01*
X151050981Y-56942306D01*
X151075000Y-56821557D01*
X151075000Y-56816646D01*
X151912245Y-56816646D01*
X151920334Y-56860000D01*
X151912245Y-56903354D01*
X151932134Y-56923243D01*
X151936760Y-56948034D01*
X151980127Y-56971236D01*
X152330000Y-57321109D01*
X152679833Y-56971276D01*
X152722787Y-56948338D01*
X152723240Y-56948034D01*
X152727866Y-56923243D01*
X152747755Y-56903354D01*
X152739666Y-56860000D01*
X152747755Y-56816646D01*
X152912245Y-56816646D01*
X152920334Y-56860000D01*
X152912245Y-56903354D01*
X152932134Y-56923243D01*
X152936760Y-56948034D01*
X152980127Y-56971236D01*
X153330000Y-57321109D01*
X153679833Y-56971276D01*
X153722787Y-56948338D01*
X153723240Y-56948034D01*
X153727866Y-56923243D01*
X153747755Y-56903354D01*
X153739666Y-56860000D01*
X153747755Y-56816646D01*
X153912245Y-56816646D01*
X153920334Y-56860000D01*
X153912245Y-56903354D01*
X153932134Y-56923243D01*
X153936760Y-56948034D01*
X153980127Y-56971236D01*
X154330000Y-57321109D01*
X154679833Y-56971276D01*
X154722787Y-56948338D01*
X154723240Y-56948034D01*
X154727866Y-56923243D01*
X154747755Y-56903354D01*
X154739666Y-56860000D01*
X154747755Y-56816646D01*
X154727866Y-56796757D01*
X154723240Y-56771966D01*
X154679873Y-56748764D01*
X154330000Y-56398891D01*
X153980167Y-56748724D01*
X153937213Y-56771662D01*
X153936760Y-56771966D01*
X153932134Y-56796757D01*
X153912245Y-56816646D01*
X153747755Y-56816646D01*
X153727866Y-56796757D01*
X153723240Y-56771966D01*
X153679873Y-56748764D01*
X153330000Y-56398891D01*
X152980167Y-56748724D01*
X152937213Y-56771662D01*
X152936760Y-56771966D01*
X152932134Y-56796757D01*
X152912245Y-56816646D01*
X152747755Y-56816646D01*
X152727866Y-56796757D01*
X152723240Y-56771966D01*
X152679873Y-56748764D01*
X152330000Y-56398891D01*
X151980167Y-56748724D01*
X151937213Y-56771662D01*
X151936760Y-56771966D01*
X151932134Y-56796757D01*
X151912245Y-56816646D01*
X151075000Y-56816646D01*
X151075000Y-56698443D01*
X151050981Y-56577694D01*
X151005639Y-56468228D01*
X151053868Y-56396048D01*
X151068912Y-56359726D01*
X151622594Y-56359726D01*
X151636134Y-56497739D01*
X151676338Y-56630460D01*
X151741662Y-56752787D01*
X151741966Y-56753240D01*
X151873354Y-56777755D01*
X152291109Y-56360000D01*
X152368891Y-56360000D01*
X152718724Y-56709833D01*
X152741662Y-56752787D01*
X152741966Y-56753240D01*
X152766757Y-56757866D01*
X152786646Y-56777755D01*
X152830000Y-56769666D01*
X152873354Y-56777755D01*
X152893243Y-56757866D01*
X152918034Y-56753240D01*
X152941236Y-56709873D01*
X153291109Y-56360000D01*
X153368891Y-56360000D01*
X153718724Y-56709833D01*
X153741662Y-56752787D01*
X153741966Y-56753240D01*
X153766757Y-56757866D01*
X153786646Y-56777755D01*
X153830000Y-56769666D01*
X153873354Y-56777755D01*
X153893243Y-56757866D01*
X153918034Y-56753240D01*
X153941236Y-56709873D01*
X154291109Y-56360000D01*
X154368891Y-56360000D01*
X154786646Y-56777755D01*
X154918034Y-56753240D01*
X154983453Y-56630965D01*
X155023759Y-56498276D01*
X155037406Y-56360274D01*
X155023866Y-56222261D01*
X154983662Y-56089540D01*
X154918338Y-55967213D01*
X154918034Y-55966760D01*
X154786646Y-55942245D01*
X154368891Y-56360000D01*
X154291109Y-56360000D01*
X153941276Y-56010167D01*
X153918338Y-55967213D01*
X153918034Y-55966760D01*
X153893243Y-55962134D01*
X153873354Y-55942245D01*
X153830000Y-55950334D01*
X153786646Y-55942245D01*
X153766757Y-55962134D01*
X153741966Y-55966760D01*
X153718764Y-56010127D01*
X153368891Y-56360000D01*
X153291109Y-56360000D01*
X152941276Y-56010167D01*
X152918338Y-55967213D01*
X152918034Y-55966760D01*
X152893243Y-55962134D01*
X152873354Y-55942245D01*
X152830000Y-55950334D01*
X152786646Y-55942245D01*
X152766757Y-55962134D01*
X152741966Y-55966760D01*
X152718764Y-56010127D01*
X152368891Y-56360000D01*
X152291109Y-56360000D01*
X151873354Y-55942245D01*
X151741966Y-55966760D01*
X151676547Y-56089035D01*
X151636241Y-56221724D01*
X151622594Y-56359726D01*
X151068912Y-56359726D01*
X151100981Y-56282306D01*
X151125000Y-56161557D01*
X151125000Y-56038443D01*
X151100981Y-55917694D01*
X151095042Y-55903354D01*
X151912245Y-55903354D01*
X152330000Y-56321109D01*
X152747755Y-55903354D01*
X152912245Y-55903354D01*
X153330000Y-56321109D01*
X153747755Y-55903354D01*
X153912245Y-55903354D01*
X154330000Y-56321109D01*
X154747755Y-55903354D01*
X154735644Y-55838443D01*
X158975000Y-55838443D01*
X158975000Y-55961557D01*
X158999019Y-56082306D01*
X159046132Y-56196048D01*
X159065477Y-56225000D01*
X159046132Y-56253952D01*
X158999019Y-56367694D01*
X158975000Y-56488443D01*
X158975000Y-56611557D01*
X158999019Y-56732306D01*
X159046132Y-56846048D01*
X159114531Y-56948414D01*
X159201586Y-57035469D01*
X159303952Y-57103868D01*
X159417694Y-57150981D01*
X159538443Y-57175000D01*
X159661557Y-57175000D01*
X159782306Y-57150981D01*
X159896048Y-57103868D01*
X159925000Y-57084523D01*
X159953952Y-57103868D01*
X160067694Y-57150981D01*
X160188443Y-57175000D01*
X160311557Y-57175000D01*
X160432306Y-57150981D01*
X160546048Y-57103868D01*
X160648414Y-57035469D01*
X160735469Y-56948414D01*
X160803868Y-56846048D01*
X160850981Y-56732306D01*
X160875000Y-56611557D01*
X160875000Y-56563443D01*
X165800000Y-56563443D01*
X165800000Y-56686557D01*
X165824019Y-56807306D01*
X165871132Y-56921048D01*
X165939531Y-57023414D01*
X165980788Y-57064671D01*
X165921132Y-57153952D01*
X165874019Y-57267694D01*
X165850000Y-57388443D01*
X165850000Y-57511557D01*
X165874019Y-57632306D01*
X165921132Y-57746048D01*
X165989531Y-57848414D01*
X166076586Y-57935469D01*
X166178952Y-58003868D01*
X166292694Y-58050981D01*
X166413443Y-58075000D01*
X166536557Y-58075000D01*
X166657306Y-58050981D01*
X166771048Y-58003868D01*
X166873414Y-57935469D01*
X166960469Y-57848414D01*
X167028868Y-57746048D01*
X167075981Y-57632306D01*
X167100000Y-57511557D01*
X167100000Y-57388443D01*
X167075981Y-57267694D01*
X167028868Y-57153952D01*
X166960469Y-57051586D01*
X166919212Y-57010329D01*
X166978868Y-56921048D01*
X167025981Y-56807306D01*
X167050000Y-56686557D01*
X167050000Y-56563443D01*
X167025981Y-56442694D01*
X166978868Y-56328952D01*
X166910469Y-56226586D01*
X166823414Y-56139531D01*
X166721048Y-56071132D01*
X166607306Y-56024019D01*
X166486557Y-56000000D01*
X166363443Y-56000000D01*
X166242694Y-56024019D01*
X166128952Y-56071132D01*
X166026586Y-56139531D01*
X165939531Y-56226586D01*
X165871132Y-56328952D01*
X165824019Y-56442694D01*
X165800000Y-56563443D01*
X160875000Y-56563443D01*
X160875000Y-56488443D01*
X160850981Y-56367694D01*
X160803868Y-56253952D01*
X160784523Y-56225000D01*
X160803868Y-56196048D01*
X160850981Y-56082306D01*
X160875000Y-55961557D01*
X160875000Y-55838443D01*
X160850981Y-55717694D01*
X160803868Y-55603952D01*
X160735469Y-55501586D01*
X160648414Y-55414531D01*
X160546048Y-55346132D01*
X160432306Y-55299019D01*
X160311557Y-55275000D01*
X160188443Y-55275000D01*
X160067694Y-55299019D01*
X159953952Y-55346132D01*
X159925000Y-55365477D01*
X159896048Y-55346132D01*
X159782306Y-55299019D01*
X159661557Y-55275000D01*
X159538443Y-55275000D01*
X159417694Y-55299019D01*
X159303952Y-55346132D01*
X159201586Y-55414531D01*
X159114531Y-55501586D01*
X159046132Y-55603952D01*
X158999019Y-55717694D01*
X158975000Y-55838443D01*
X154735644Y-55838443D01*
X154723240Y-55771966D01*
X154600965Y-55706547D01*
X154468276Y-55666241D01*
X154330274Y-55652594D01*
X154192261Y-55666134D01*
X154059540Y-55706338D01*
X153937213Y-55771662D01*
X153936760Y-55771966D01*
X153912245Y-55903354D01*
X153747755Y-55903354D01*
X153723240Y-55771966D01*
X153600965Y-55706547D01*
X153468276Y-55666241D01*
X153330274Y-55652594D01*
X153192261Y-55666134D01*
X153059540Y-55706338D01*
X152937213Y-55771662D01*
X152936760Y-55771966D01*
X152912245Y-55903354D01*
X152747755Y-55903354D01*
X152723240Y-55771966D01*
X152600965Y-55706547D01*
X152468276Y-55666241D01*
X152330274Y-55652594D01*
X152192261Y-55666134D01*
X152059540Y-55706338D01*
X151937213Y-55771662D01*
X151936760Y-55771966D01*
X151912245Y-55903354D01*
X151095042Y-55903354D01*
X151053868Y-55803952D01*
X151051227Y-55800000D01*
X151053868Y-55796048D01*
X151100981Y-55682306D01*
X151125000Y-55561557D01*
X151125000Y-55438443D01*
X151100981Y-55317694D01*
X151053868Y-55203952D01*
X150985469Y-55101586D01*
X150898414Y-55014531D01*
X150796048Y-54946132D01*
X150769173Y-54935000D01*
X150796048Y-54923868D01*
X150898414Y-54855469D01*
X150985469Y-54768414D01*
X151015000Y-54724218D01*
X151044531Y-54768414D01*
X151131586Y-54855469D01*
X151233952Y-54923868D01*
X151347694Y-54970981D01*
X151468443Y-54995000D01*
X151591557Y-54995000D01*
X151712306Y-54970981D01*
X151815000Y-54928444D01*
X151917694Y-54970981D01*
X152038443Y-54995000D01*
X152161557Y-54995000D01*
X152282306Y-54970981D01*
X152396048Y-54923868D01*
X152450000Y-54887818D01*
X152503952Y-54923868D01*
X152617694Y-54970981D01*
X152738443Y-54995000D01*
X152861557Y-54995000D01*
X152982306Y-54970981D01*
X153096048Y-54923868D01*
X153100000Y-54921227D01*
X153103952Y-54923868D01*
X153217694Y-54970981D01*
X153338443Y-54995000D01*
X153461557Y-54995000D01*
X153582306Y-54970981D01*
X153696048Y-54923868D01*
X153750000Y-54887818D01*
X153803952Y-54923868D01*
X153917694Y-54970981D01*
X154038443Y-54995000D01*
X154161557Y-54995000D01*
X154282306Y-54970981D01*
X154396048Y-54923868D01*
X154498414Y-54855469D01*
X154585469Y-54768414D01*
X154653868Y-54666048D01*
X154700981Y-54552306D01*
X154725000Y-54431557D01*
X154725000Y-54388443D01*
X154825000Y-54388443D01*
X154825000Y-54511557D01*
X154849019Y-54632306D01*
X154896132Y-54746048D01*
X154964531Y-54848414D01*
X155051586Y-54935469D01*
X155153952Y-55003868D01*
X155267694Y-55050981D01*
X155388443Y-55075000D01*
X155511557Y-55075000D01*
X155528338Y-55071662D01*
X155525000Y-55088443D01*
X155525000Y-55211557D01*
X155549019Y-55332306D01*
X155596132Y-55446048D01*
X155664531Y-55548414D01*
X155751586Y-55635469D01*
X155853952Y-55703868D01*
X155967694Y-55750981D01*
X156088443Y-55775000D01*
X156211557Y-55775000D01*
X156332306Y-55750981D01*
X156446048Y-55703868D01*
X156548414Y-55635469D01*
X156635469Y-55548414D01*
X156703868Y-55446048D01*
X156750981Y-55332306D01*
X156775000Y-55211557D01*
X156775000Y-55088443D01*
X156750981Y-54967694D01*
X156703868Y-54853952D01*
X156635469Y-54751586D01*
X156548414Y-54664531D01*
X156446048Y-54596132D01*
X156332306Y-54549019D01*
X156211557Y-54525000D01*
X156088443Y-54525000D01*
X156071662Y-54528338D01*
X156075000Y-54511557D01*
X156075000Y-54388443D01*
X156050981Y-54267694D01*
X156038865Y-54238443D01*
X165575000Y-54238443D01*
X165575000Y-54361557D01*
X165599019Y-54482306D01*
X165646132Y-54596048D01*
X165714531Y-54698414D01*
X165801586Y-54785469D01*
X165903952Y-54853868D01*
X166017694Y-54900981D01*
X166138443Y-54925000D01*
X166261557Y-54925000D01*
X166382306Y-54900981D01*
X166496048Y-54853868D01*
X166598414Y-54785469D01*
X166685469Y-54698414D01*
X166753868Y-54596048D01*
X166800981Y-54482306D01*
X166825000Y-54361557D01*
X166825000Y-54238443D01*
X166817535Y-54200915D01*
X166817694Y-54200981D01*
X166938443Y-54225000D01*
X167061557Y-54225000D01*
X167182306Y-54200981D01*
X167266014Y-54166308D01*
X167224019Y-54267694D01*
X167200000Y-54388443D01*
X167200000Y-54511557D01*
X167224019Y-54632306D01*
X167271132Y-54746048D01*
X167339531Y-54848414D01*
X167426586Y-54935469D01*
X167528952Y-55003868D01*
X167642694Y-55050981D01*
X167763443Y-55075000D01*
X167886557Y-55075000D01*
X168007306Y-55050981D01*
X168121048Y-55003868D01*
X168223414Y-54935469D01*
X168310469Y-54848414D01*
X168378868Y-54746048D01*
X168425981Y-54632306D01*
X168450000Y-54511557D01*
X168450000Y-54388443D01*
X168425981Y-54267694D01*
X168378868Y-54153952D01*
X168310469Y-54051586D01*
X168223414Y-53964531D01*
X168121048Y-53896132D01*
X168007306Y-53849019D01*
X167886557Y-53825000D01*
X167763443Y-53825000D01*
X167642694Y-53849019D01*
X167558986Y-53883692D01*
X167600981Y-53782306D01*
X167625000Y-53661557D01*
X167625000Y-53538443D01*
X167600981Y-53417694D01*
X167557800Y-53313443D01*
X168125000Y-53313443D01*
X168125000Y-53436557D01*
X168149019Y-53557306D01*
X168196132Y-53671048D01*
X168264531Y-53773414D01*
X168351586Y-53860469D01*
X168453952Y-53928868D01*
X168567694Y-53975981D01*
X168688443Y-54000000D01*
X168811557Y-54000000D01*
X168932306Y-53975981D01*
X169046048Y-53928868D01*
X169148414Y-53860469D01*
X169235469Y-53773414D01*
X169303868Y-53671048D01*
X169350981Y-53557306D01*
X169375000Y-53436557D01*
X169375000Y-53313443D01*
X169350981Y-53192694D01*
X169303868Y-53078952D01*
X169235469Y-52976586D01*
X169148414Y-52889531D01*
X169046048Y-52821132D01*
X168932306Y-52774019D01*
X168811557Y-52750000D01*
X168688443Y-52750000D01*
X168567694Y-52774019D01*
X168453952Y-52821132D01*
X168351586Y-52889531D01*
X168264531Y-52976586D01*
X168196132Y-53078952D01*
X168149019Y-53192694D01*
X168125000Y-53313443D01*
X167557800Y-53313443D01*
X167553868Y-53303952D01*
X167485469Y-53201586D01*
X167398414Y-53114531D01*
X167296048Y-53046132D01*
X167182306Y-52999019D01*
X167061557Y-52975000D01*
X166938443Y-52975000D01*
X166817694Y-52999019D01*
X166703952Y-53046132D01*
X166601586Y-53114531D01*
X166514531Y-53201586D01*
X166446132Y-53303952D01*
X166399019Y-53417694D01*
X166375000Y-53538443D01*
X166375000Y-53661557D01*
X166382465Y-53699085D01*
X166382306Y-53699019D01*
X166261557Y-53675000D01*
X166138443Y-53675000D01*
X166017694Y-53699019D01*
X165903952Y-53746132D01*
X165801586Y-53814531D01*
X165714531Y-53901586D01*
X165646132Y-54003952D01*
X165599019Y-54117694D01*
X165575000Y-54238443D01*
X156038865Y-54238443D01*
X156003868Y-54153952D01*
X155935469Y-54051586D01*
X155848414Y-53964531D01*
X155746048Y-53896132D01*
X155632306Y-53849019D01*
X155511557Y-53825000D01*
X155388443Y-53825000D01*
X155267694Y-53849019D01*
X155153952Y-53896132D01*
X155051586Y-53964531D01*
X154964531Y-54051586D01*
X154896132Y-54153952D01*
X154849019Y-54267694D01*
X154825000Y-54388443D01*
X154725000Y-54388443D01*
X154725000Y-54308443D01*
X154700981Y-54187694D01*
X154653868Y-54073952D01*
X154585469Y-53971586D01*
X154550000Y-53936117D01*
X154550000Y-53372094D01*
X154552176Y-53350000D01*
X154550000Y-53327906D01*
X154550000Y-53327895D01*
X154543489Y-53261785D01*
X154517757Y-53176959D01*
X154484388Y-53114531D01*
X154475971Y-53098783D01*
X154433828Y-53047432D01*
X154433824Y-53047428D01*
X154419737Y-53030263D01*
X154402571Y-53016176D01*
X154106395Y-52720000D01*
X154937906Y-52720000D01*
X154960000Y-52722176D01*
X154982094Y-52720000D01*
X154982105Y-52720000D01*
X155048215Y-52713489D01*
X155133041Y-52687757D01*
X155211216Y-52645971D01*
X155279737Y-52589737D01*
X155293828Y-52572567D01*
X155541395Y-52325000D01*
X155591557Y-52325000D01*
X155712306Y-52300981D01*
X155826048Y-52253868D01*
X155928414Y-52185469D01*
X155965000Y-52148883D01*
X156001586Y-52185469D01*
X156103952Y-52253868D01*
X156217694Y-52300981D01*
X156338443Y-52325000D01*
X156461557Y-52325000D01*
X156582306Y-52300981D01*
X156696048Y-52253868D01*
X156798414Y-52185469D01*
X156885469Y-52098414D01*
X156953868Y-51996048D01*
X157000981Y-51882306D01*
X157025000Y-51761557D01*
X157025000Y-51638443D01*
X157000981Y-51517694D01*
X156953868Y-51403952D01*
X156885469Y-51301586D01*
X156798414Y-51214531D01*
X156739252Y-51175000D01*
X172575001Y-51175000D01*
X172575000Y-77825000D01*
X169608883Y-77825000D01*
X169635469Y-77798414D01*
X169703868Y-77696048D01*
X169750981Y-77582306D01*
X169775000Y-77461557D01*
X169775000Y-77338443D01*
X169750981Y-77217694D01*
X169703868Y-77103952D01*
X169635469Y-77001586D01*
X169548414Y-76914531D01*
X169446048Y-76846132D01*
X169332306Y-76799019D01*
X169211557Y-76775000D01*
X169088443Y-76775000D01*
X168967694Y-76799019D01*
X168853952Y-76846132D01*
X168751586Y-76914531D01*
X168664531Y-77001586D01*
X168596132Y-77103952D01*
X168549019Y-77217694D01*
X168525000Y-77338443D01*
X168525000Y-77461557D01*
X168549019Y-77582306D01*
X168596132Y-77696048D01*
X168664531Y-77798414D01*
X168691117Y-77825000D01*
X168164203Y-77825000D01*
X168208414Y-77795459D01*
X168295469Y-77708404D01*
X168363868Y-77606038D01*
X168410981Y-77492296D01*
X168435000Y-77371547D01*
X168435000Y-77248433D01*
X168410981Y-77127684D01*
X168363868Y-77013942D01*
X168295469Y-76911576D01*
X168208414Y-76824521D01*
X168106048Y-76756122D01*
X167992306Y-76709009D01*
X167871557Y-76684990D01*
X167748443Y-76684990D01*
X167627694Y-76709009D01*
X167513952Y-76756122D01*
X167411586Y-76824521D01*
X167324531Y-76911576D01*
X167256132Y-77013942D01*
X167209019Y-77127684D01*
X167185000Y-77248433D01*
X167185000Y-77371547D01*
X167209019Y-77492296D01*
X167256132Y-77606038D01*
X167324531Y-77708404D01*
X167411586Y-77795459D01*
X167455797Y-77825000D01*
X145925000Y-77825000D01*
X145925000Y-76736033D01*
X163575000Y-76736033D01*
X163575000Y-76859147D01*
X163599019Y-76979896D01*
X163646132Y-77093638D01*
X163714531Y-77196004D01*
X163801586Y-77283059D01*
X163903952Y-77351458D01*
X164017694Y-77398571D01*
X164138443Y-77422590D01*
X164261557Y-77422590D01*
X164382306Y-77398571D01*
X164496048Y-77351458D01*
X164598414Y-77283059D01*
X164685469Y-77196004D01*
X164753868Y-77093638D01*
X164800981Y-76979896D01*
X164825000Y-76859147D01*
X164825000Y-76736033D01*
X164800981Y-76615284D01*
X164753868Y-76501542D01*
X164685469Y-76399176D01*
X164598414Y-76312121D01*
X164496048Y-76243722D01*
X164382306Y-76196609D01*
X164261557Y-76172590D01*
X164138443Y-76172590D01*
X164017694Y-76196609D01*
X163903952Y-76243722D01*
X163801586Y-76312121D01*
X163714531Y-76399176D01*
X163646132Y-76501542D01*
X163599019Y-76615284D01*
X163575000Y-76736033D01*
X145925000Y-76736033D01*
X145925000Y-75385989D01*
X145992855Y-75453844D01*
X146177113Y-75576962D01*
X146381850Y-75661767D01*
X146599197Y-75705000D01*
X146820803Y-75705000D01*
X147038150Y-75661767D01*
X147242887Y-75576962D01*
X147427145Y-75453844D01*
X147428210Y-75452779D01*
X147446132Y-75496048D01*
X147514531Y-75598414D01*
X147601586Y-75685469D01*
X147703952Y-75753868D01*
X147817694Y-75800981D01*
X147938443Y-75825000D01*
X148061557Y-75825000D01*
X148182306Y-75800981D01*
X148296048Y-75753868D01*
X148398414Y-75685469D01*
X148485469Y-75598414D01*
X148553868Y-75496048D01*
X148600232Y-75384115D01*
X148601586Y-75385469D01*
X148703952Y-75453868D01*
X148817694Y-75500981D01*
X148938443Y-75525000D01*
X149061557Y-75525000D01*
X149182306Y-75500981D01*
X149296048Y-75453868D01*
X149398414Y-75385469D01*
X149485469Y-75298414D01*
X149513295Y-75256769D01*
X149574531Y-75348414D01*
X149661586Y-75435469D01*
X149763952Y-75503868D01*
X149877694Y-75550981D01*
X149998443Y-75575000D01*
X150115698Y-75575000D01*
X150116132Y-75576048D01*
X150184531Y-75678414D01*
X150271586Y-75765469D01*
X150373952Y-75833868D01*
X150487694Y-75880981D01*
X150608443Y-75905000D01*
X150731557Y-75905000D01*
X150852306Y-75880981D01*
X150966048Y-75833868D01*
X151068414Y-75765469D01*
X151155469Y-75678414D01*
X151223868Y-75576048D01*
X151256122Y-75498179D01*
X151292306Y-75490981D01*
X151406048Y-75443868D01*
X151445000Y-75417841D01*
X151445000Y-75481557D01*
X151469019Y-75602306D01*
X151516132Y-75716048D01*
X151584531Y-75818414D01*
X151671586Y-75905469D01*
X151773952Y-75973868D01*
X151887694Y-76020981D01*
X152008443Y-76045000D01*
X152131557Y-76045000D01*
X152252306Y-76020981D01*
X152366048Y-75973868D01*
X152468414Y-75905469D01*
X152555469Y-75818414D01*
X152623868Y-75716048D01*
X152635302Y-75688443D01*
X154375000Y-75688443D01*
X154375000Y-75811557D01*
X154399019Y-75932306D01*
X154446132Y-76046048D01*
X154514531Y-76148414D01*
X154601586Y-76235469D01*
X154703952Y-76303868D01*
X154817694Y-76350981D01*
X154938443Y-76375000D01*
X155061557Y-76375000D01*
X155182306Y-76350981D01*
X155296048Y-76303868D01*
X155398414Y-76235469D01*
X155485469Y-76148414D01*
X155553868Y-76046048D01*
X155600981Y-75932306D01*
X155625000Y-75811557D01*
X155625000Y-75688443D01*
X158825000Y-75688443D01*
X158825000Y-75811557D01*
X158849019Y-75932306D01*
X158896132Y-76046048D01*
X158964531Y-76148414D01*
X159051586Y-76235469D01*
X159153952Y-76303868D01*
X159267694Y-76350981D01*
X159388443Y-76375000D01*
X159511557Y-76375000D01*
X159632306Y-76350981D01*
X159746048Y-76303868D01*
X159848414Y-76235469D01*
X159935469Y-76148414D01*
X160003868Y-76046048D01*
X160035249Y-75970287D01*
X160132306Y-75950981D01*
X160246048Y-75903868D01*
X160348414Y-75835469D01*
X160435469Y-75748414D01*
X160503868Y-75646048D01*
X160535249Y-75570287D01*
X160632306Y-75550981D01*
X160746048Y-75503868D01*
X160848414Y-75435469D01*
X160935469Y-75348414D01*
X161003868Y-75246048D01*
X161012679Y-75224777D01*
X161132306Y-75200981D01*
X161246048Y-75153868D01*
X161348414Y-75085469D01*
X161435469Y-74998414D01*
X161503868Y-74896048D01*
X161512679Y-74874777D01*
X161632306Y-74850981D01*
X161746048Y-74803868D01*
X161848414Y-74735469D01*
X161935469Y-74648414D01*
X162003868Y-74546048D01*
X162035249Y-74470287D01*
X162132306Y-74450981D01*
X162246048Y-74403868D01*
X162348414Y-74335469D01*
X162435469Y-74248414D01*
X162503868Y-74146048D01*
X162535249Y-74070287D01*
X162632306Y-74050981D01*
X162746048Y-74003868D01*
X162848414Y-73935469D01*
X162935469Y-73848414D01*
X163003868Y-73746048D01*
X163035249Y-73670287D01*
X163132306Y-73650981D01*
X163246048Y-73603868D01*
X163348414Y-73535469D01*
X163435469Y-73448414D01*
X163503868Y-73346048D01*
X163550981Y-73232306D01*
X163575000Y-73111557D01*
X163575000Y-72988443D01*
X163550981Y-72867694D01*
X163535015Y-72829148D01*
X163596048Y-72803868D01*
X163698414Y-72735469D01*
X163785469Y-72648414D01*
X163853868Y-72546048D01*
X163900981Y-72432306D01*
X163925000Y-72311557D01*
X163925000Y-72188443D01*
X163900981Y-72067694D01*
X163853868Y-71953952D01*
X163785469Y-71851586D01*
X163698414Y-71764531D01*
X163596048Y-71696132D01*
X163482306Y-71649019D01*
X163361557Y-71625000D01*
X163238443Y-71625000D01*
X163117694Y-71649019D01*
X163003952Y-71696132D01*
X162901586Y-71764531D01*
X162814531Y-71851586D01*
X162746132Y-71953952D01*
X162699019Y-72067694D01*
X162675000Y-72188443D01*
X162675000Y-72311557D01*
X162699019Y-72432306D01*
X162714985Y-72470852D01*
X162653952Y-72496132D01*
X162551586Y-72564531D01*
X162464531Y-72651586D01*
X162396132Y-72753952D01*
X162364751Y-72829713D01*
X162267694Y-72849019D01*
X162153952Y-72896132D01*
X162051586Y-72964531D01*
X161964531Y-73051586D01*
X161896132Y-73153952D01*
X161864751Y-73229713D01*
X161767694Y-73249019D01*
X161653952Y-73296132D01*
X161551586Y-73364531D01*
X161464531Y-73451586D01*
X161396132Y-73553952D01*
X161364751Y-73629713D01*
X161267694Y-73649019D01*
X161153952Y-73696132D01*
X161051586Y-73764531D01*
X160964531Y-73851586D01*
X160896132Y-73953952D01*
X160887321Y-73975223D01*
X160767694Y-73999019D01*
X160653952Y-74046132D01*
X160551586Y-74114531D01*
X160464531Y-74201586D01*
X160396132Y-74303952D01*
X160387321Y-74325223D01*
X160267694Y-74349019D01*
X160153952Y-74396132D01*
X160051586Y-74464531D01*
X159964531Y-74551586D01*
X159896132Y-74653952D01*
X159864751Y-74729713D01*
X159767694Y-74749019D01*
X159653952Y-74796132D01*
X159551586Y-74864531D01*
X159464531Y-74951586D01*
X159396132Y-75053952D01*
X159364751Y-75129713D01*
X159267694Y-75149019D01*
X159153952Y-75196132D01*
X159051586Y-75264531D01*
X158964531Y-75351586D01*
X158896132Y-75453952D01*
X158849019Y-75567694D01*
X158825000Y-75688443D01*
X155625000Y-75688443D01*
X155600981Y-75567694D01*
X155553868Y-75453952D01*
X155485469Y-75351586D01*
X155398414Y-75264531D01*
X155296048Y-75196132D01*
X155182306Y-75149019D01*
X155061557Y-75125000D01*
X154938443Y-75125000D01*
X154817694Y-75149019D01*
X154703952Y-75196132D01*
X154601586Y-75264531D01*
X154514531Y-75351586D01*
X154446132Y-75453952D01*
X154399019Y-75567694D01*
X154375000Y-75688443D01*
X152635302Y-75688443D01*
X152670981Y-75602306D01*
X152695000Y-75481557D01*
X152695000Y-75358443D01*
X152670981Y-75237694D01*
X152623868Y-75123952D01*
X152555469Y-75021586D01*
X152468414Y-74934531D01*
X152366048Y-74866132D01*
X152252306Y-74819019D01*
X152131557Y-74795000D01*
X152008443Y-74795000D01*
X151887694Y-74819019D01*
X151773952Y-74866132D01*
X151735000Y-74892159D01*
X151735000Y-74828443D01*
X151710981Y-74707694D01*
X151663868Y-74593952D01*
X151595469Y-74491586D01*
X151508414Y-74404531D01*
X151406048Y-74336132D01*
X151292306Y-74289019D01*
X151171557Y-74265000D01*
X151048443Y-74265000D01*
X150927694Y-74289019D01*
X150813952Y-74336132D01*
X150711586Y-74404531D01*
X150624531Y-74491586D01*
X150564955Y-74580748D01*
X150545469Y-74551586D01*
X150458414Y-74464531D01*
X150356048Y-74396132D01*
X150242306Y-74349019D01*
X150121557Y-74325000D01*
X149998443Y-74325000D01*
X149877694Y-74349019D01*
X149763952Y-74396132D01*
X149661586Y-74464531D01*
X149574531Y-74551586D01*
X149546705Y-74593231D01*
X149485469Y-74501586D01*
X149398414Y-74414531D01*
X149296048Y-74346132D01*
X149182306Y-74299019D01*
X149061557Y-74275000D01*
X148938443Y-74275000D01*
X148817694Y-74299019D01*
X148703952Y-74346132D01*
X148601586Y-74414531D01*
X148514531Y-74501586D01*
X148446132Y-74603952D01*
X148399768Y-74715885D01*
X148398414Y-74714531D01*
X148296048Y-74646132D01*
X148182306Y-74599019D01*
X148061557Y-74575000D01*
X147938443Y-74575000D01*
X147835000Y-74595577D01*
X147835000Y-74469197D01*
X147791767Y-74251850D01*
X147706962Y-74047113D01*
X147583844Y-73862855D01*
X147427145Y-73706156D01*
X147242887Y-73583038D01*
X147038150Y-73498233D01*
X146820803Y-73455000D01*
X146599197Y-73455000D01*
X146381850Y-73498233D01*
X146177113Y-73583038D01*
X145992855Y-73706156D01*
X145925000Y-73774011D01*
X145925000Y-73358443D01*
X148825000Y-73358443D01*
X148825000Y-73481557D01*
X148849019Y-73602306D01*
X148896132Y-73716048D01*
X148964531Y-73818414D01*
X149051586Y-73905469D01*
X149153952Y-73973868D01*
X149267694Y-74020981D01*
X149388443Y-74045000D01*
X149511557Y-74045000D01*
X149632306Y-74020981D01*
X149746048Y-73973868D01*
X149848414Y-73905469D01*
X149935469Y-73818414D01*
X150003868Y-73716048D01*
X150050981Y-73602306D01*
X150075000Y-73481557D01*
X150075000Y-73358443D01*
X150050981Y-73237694D01*
X150003868Y-73123952D01*
X149935469Y-73021586D01*
X149848414Y-72934531D01*
X149746048Y-72866132D01*
X149632306Y-72819019D01*
X149511557Y-72795000D01*
X149388443Y-72795000D01*
X149267694Y-72819019D01*
X149153952Y-72866132D01*
X149051586Y-72934531D01*
X148964531Y-73021586D01*
X148896132Y-73123952D01*
X148849019Y-73237694D01*
X148825000Y-73358443D01*
X145925000Y-73358443D01*
X145925000Y-72803258D01*
X146025633Y-72803258D01*
X146095164Y-72973035D01*
X146281201Y-73075824D01*
X146483715Y-73140344D01*
X146694926Y-73164116D01*
X146906716Y-73146226D01*
X147110947Y-73087361D01*
X147299769Y-72989784D01*
X147324836Y-72973035D01*
X147394367Y-72803258D01*
X146710000Y-72118891D01*
X146025633Y-72803258D01*
X145925000Y-72803258D01*
X145925000Y-72739081D01*
X145986742Y-72764367D01*
X146671109Y-72080000D01*
X146748891Y-72080000D01*
X147433258Y-72764367D01*
X147603035Y-72694836D01*
X147705824Y-72508799D01*
X147770344Y-72306285D01*
X147794116Y-72095074D01*
X147776226Y-71883284D01*
X147717361Y-71679053D01*
X147619784Y-71490231D01*
X147603035Y-71465164D01*
X147433258Y-71395633D01*
X146748891Y-72080000D01*
X146671109Y-72080000D01*
X145986742Y-71395633D01*
X145925000Y-71420919D01*
X145925000Y-71356742D01*
X146025633Y-71356742D01*
X146710000Y-72041109D01*
X147394367Y-71356742D01*
X147324836Y-71186965D01*
X147138799Y-71084176D01*
X146936285Y-71019656D01*
X146725074Y-70995884D01*
X146513284Y-71013774D01*
X146309053Y-71072639D01*
X146120231Y-71170216D01*
X146095164Y-71186965D01*
X146025633Y-71356742D01*
X145925000Y-71356742D01*
X145925000Y-70858443D01*
X147925000Y-70858443D01*
X147925000Y-70981557D01*
X147949019Y-71102306D01*
X147996132Y-71216048D01*
X148064531Y-71318414D01*
X148151586Y-71405469D01*
X148253952Y-71473868D01*
X148367694Y-71520981D01*
X148488443Y-71545000D01*
X148611557Y-71545000D01*
X148732306Y-71520981D01*
X148846048Y-71473868D01*
X148948414Y-71405469D01*
X149035469Y-71318414D01*
X149103868Y-71216048D01*
X149150981Y-71102306D01*
X149175000Y-70981557D01*
X149175000Y-70858443D01*
X149173011Y-70848443D01*
X150325000Y-70848443D01*
X150325000Y-70971557D01*
X150349019Y-71092306D01*
X150396132Y-71206048D01*
X150464531Y-71308414D01*
X150551586Y-71395469D01*
X150653952Y-71463868D01*
X150767694Y-71510981D01*
X150888443Y-71535000D01*
X151011557Y-71535000D01*
X151132306Y-71510981D01*
X151246048Y-71463868D01*
X151310000Y-71421136D01*
X151373952Y-71463868D01*
X151487694Y-71510981D01*
X151605000Y-71534315D01*
X151605000Y-71561557D01*
X151629019Y-71682306D01*
X151676132Y-71796048D01*
X151744531Y-71898414D01*
X151831586Y-71985469D01*
X151850180Y-71997893D01*
X151846132Y-72003952D01*
X151799019Y-72117694D01*
X151775000Y-72238443D01*
X151775000Y-72361557D01*
X151799019Y-72482306D01*
X151846132Y-72596048D01*
X151903785Y-72682332D01*
X151894531Y-72691586D01*
X151826132Y-72793952D01*
X151779019Y-72907694D01*
X151755000Y-73028443D01*
X151755000Y-73151557D01*
X151779019Y-73272306D01*
X151826132Y-73386048D01*
X151894531Y-73488414D01*
X151981586Y-73575469D01*
X152083952Y-73643868D01*
X152197694Y-73690981D01*
X152318443Y-73715000D01*
X152441557Y-73715000D01*
X152562306Y-73690981D01*
X152676048Y-73643868D01*
X152778414Y-73575469D01*
X152815440Y-73538443D01*
X154475000Y-73538443D01*
X154475000Y-73661557D01*
X154499019Y-73782306D01*
X154546132Y-73896048D01*
X154614531Y-73998414D01*
X154701586Y-74085469D01*
X154803952Y-74153868D01*
X154917694Y-74200981D01*
X155038443Y-74225000D01*
X155161557Y-74225000D01*
X155282306Y-74200981D01*
X155396048Y-74153868D01*
X155419133Y-74138443D01*
X156725000Y-74138443D01*
X156725000Y-74261557D01*
X156749019Y-74382306D01*
X156796132Y-74496048D01*
X156864531Y-74598414D01*
X156951586Y-74685469D01*
X157053952Y-74753868D01*
X157167694Y-74800981D01*
X157288443Y-74825000D01*
X157411557Y-74825000D01*
X157532306Y-74800981D01*
X157646048Y-74753868D01*
X157748414Y-74685469D01*
X157835469Y-74598414D01*
X157903868Y-74496048D01*
X157950981Y-74382306D01*
X157964474Y-74314474D01*
X158032306Y-74300981D01*
X158146048Y-74253868D01*
X158248414Y-74185469D01*
X158335469Y-74098414D01*
X158403868Y-73996048D01*
X158450981Y-73882306D01*
X158464474Y-73814474D01*
X158532306Y-73800981D01*
X158646048Y-73753868D01*
X158748414Y-73685469D01*
X158835469Y-73598414D01*
X158903868Y-73496048D01*
X158950981Y-73382306D01*
X158964474Y-73314474D01*
X159032306Y-73300981D01*
X159146048Y-73253868D01*
X159248414Y-73185469D01*
X159335469Y-73098414D01*
X159403868Y-72996048D01*
X159450981Y-72882306D01*
X159462414Y-72824830D01*
X159582306Y-72800981D01*
X159696048Y-72753868D01*
X159798414Y-72685469D01*
X159885469Y-72598414D01*
X159953868Y-72496048D01*
X160000981Y-72382306D01*
X160014474Y-72314474D01*
X160082306Y-72300981D01*
X160196048Y-72253868D01*
X160298414Y-72185469D01*
X160385469Y-72098414D01*
X160453868Y-71996048D01*
X160500981Y-71882306D01*
X160514474Y-71814474D01*
X160582306Y-71800981D01*
X160696048Y-71753868D01*
X160798414Y-71685469D01*
X160885469Y-71598414D01*
X160953868Y-71496048D01*
X161000981Y-71382306D01*
X161014474Y-71314474D01*
X161082306Y-71300981D01*
X161196048Y-71253868D01*
X161298414Y-71185469D01*
X161385469Y-71098414D01*
X161453868Y-70996048D01*
X161500981Y-70882306D01*
X161525000Y-70761557D01*
X161525000Y-70638443D01*
X161500981Y-70517694D01*
X161453868Y-70403952D01*
X161385469Y-70301586D01*
X161298414Y-70214531D01*
X161259371Y-70188443D01*
X162525000Y-70188443D01*
X162525000Y-70311557D01*
X162549019Y-70432306D01*
X162596132Y-70546048D01*
X162664531Y-70648414D01*
X162751586Y-70735469D01*
X162853952Y-70803868D01*
X162967694Y-70850981D01*
X163018675Y-70861122D01*
X163027382Y-70904896D01*
X163074495Y-71018638D01*
X163142894Y-71121004D01*
X163229949Y-71208059D01*
X163332315Y-71276458D01*
X163446057Y-71323571D01*
X163566806Y-71347590D01*
X163689920Y-71347590D01*
X163810669Y-71323571D01*
X163924411Y-71276458D01*
X164026777Y-71208059D01*
X164113832Y-71121004D01*
X164182231Y-71018638D01*
X164229344Y-70904896D01*
X164253363Y-70784147D01*
X164253363Y-70661033D01*
X164229344Y-70540284D01*
X164182231Y-70426542D01*
X164113832Y-70324176D01*
X164026777Y-70237121D01*
X163924411Y-70168722D01*
X163810669Y-70121609D01*
X163759688Y-70111468D01*
X163750981Y-70067694D01*
X163738865Y-70038443D01*
X168175000Y-70038443D01*
X168175000Y-70161557D01*
X168199019Y-70282306D01*
X168246132Y-70396048D01*
X168314531Y-70498414D01*
X168401586Y-70585469D01*
X168503952Y-70653868D01*
X168525223Y-70662679D01*
X168549019Y-70782306D01*
X168596132Y-70896048D01*
X168664531Y-70998414D01*
X168751586Y-71085469D01*
X168853952Y-71153868D01*
X168929713Y-71185249D01*
X168949019Y-71282306D01*
X168996132Y-71396048D01*
X169064531Y-71498414D01*
X169151586Y-71585469D01*
X169253952Y-71653868D01*
X169275223Y-71662679D01*
X169299019Y-71782306D01*
X169346132Y-71896048D01*
X169414531Y-71998414D01*
X169501586Y-72085469D01*
X169603952Y-72153868D01*
X169625223Y-72162679D01*
X169649019Y-72282306D01*
X169696132Y-72396048D01*
X169764531Y-72498414D01*
X169851586Y-72585469D01*
X169953952Y-72653868D01*
X169975223Y-72662679D01*
X169999019Y-72782306D01*
X170046132Y-72896048D01*
X170114531Y-72998414D01*
X170201586Y-73085469D01*
X170303952Y-73153868D01*
X170325223Y-73162679D01*
X170349019Y-73282306D01*
X170396132Y-73396048D01*
X170464531Y-73498414D01*
X170551586Y-73585469D01*
X170653952Y-73653868D01*
X170675223Y-73662679D01*
X170699019Y-73782306D01*
X170746132Y-73896048D01*
X170814531Y-73998414D01*
X170901586Y-74085469D01*
X171003952Y-74153868D01*
X171117694Y-74200981D01*
X171238443Y-74225000D01*
X171361557Y-74225000D01*
X171482306Y-74200981D01*
X171596048Y-74153868D01*
X171698414Y-74085469D01*
X171785469Y-73998414D01*
X171853868Y-73896048D01*
X171900981Y-73782306D01*
X171925000Y-73661557D01*
X171925000Y-73538443D01*
X171900981Y-73417694D01*
X171853868Y-73303952D01*
X171785469Y-73201586D01*
X171698414Y-73114531D01*
X171596048Y-73046132D01*
X171574777Y-73037321D01*
X171550981Y-72917694D01*
X171503868Y-72803952D01*
X171435469Y-72701586D01*
X171348414Y-72614531D01*
X171246048Y-72546132D01*
X171224777Y-72537321D01*
X171200981Y-72417694D01*
X171153868Y-72303952D01*
X171085469Y-72201586D01*
X170998414Y-72114531D01*
X170896048Y-72046132D01*
X170874777Y-72037321D01*
X170850981Y-71917694D01*
X170803868Y-71803952D01*
X170735469Y-71701586D01*
X170648414Y-71614531D01*
X170546048Y-71546132D01*
X170524777Y-71537321D01*
X170500981Y-71417694D01*
X170453868Y-71303952D01*
X170385469Y-71201586D01*
X170298414Y-71114531D01*
X170196048Y-71046132D01*
X170174777Y-71037321D01*
X170150981Y-70917694D01*
X170103868Y-70803952D01*
X170035469Y-70701586D01*
X169948414Y-70614531D01*
X169846048Y-70546132D01*
X169770287Y-70514751D01*
X169750981Y-70417694D01*
X169703868Y-70303952D01*
X169635469Y-70201586D01*
X169548414Y-70114531D01*
X169526667Y-70100000D01*
X169548414Y-70085469D01*
X169635469Y-69998414D01*
X169703868Y-69896048D01*
X169750981Y-69782306D01*
X169774777Y-69662679D01*
X169796048Y-69653868D01*
X169898414Y-69585469D01*
X169985469Y-69498414D01*
X170053868Y-69396048D01*
X170100981Y-69282306D01*
X170125000Y-69161557D01*
X170125000Y-69038443D01*
X170100981Y-68917694D01*
X170053868Y-68803952D01*
X169985469Y-68701586D01*
X169898414Y-68614531D01*
X169876667Y-68600000D01*
X169898414Y-68585469D01*
X169985469Y-68498414D01*
X170053868Y-68396048D01*
X170100981Y-68282306D01*
X170125000Y-68161557D01*
X170125000Y-68038443D01*
X170100981Y-67917694D01*
X170053868Y-67803952D01*
X169985469Y-67701586D01*
X169898414Y-67614531D01*
X169876667Y-67600000D01*
X169898414Y-67585469D01*
X169985469Y-67498414D01*
X170053868Y-67396048D01*
X170100981Y-67282306D01*
X170125000Y-67161557D01*
X170125000Y-67038443D01*
X170100981Y-66917694D01*
X170053868Y-66803952D01*
X169985469Y-66701586D01*
X169898414Y-66614531D01*
X169876667Y-66600000D01*
X169898414Y-66585469D01*
X169985469Y-66498414D01*
X170053868Y-66396048D01*
X170100981Y-66282306D01*
X170125000Y-66161557D01*
X170125000Y-66038443D01*
X170100981Y-65917694D01*
X170053868Y-65803952D01*
X169985469Y-65701586D01*
X169898414Y-65614531D01*
X169796048Y-65546132D01*
X169682306Y-65499019D01*
X169677857Y-65498134D01*
X169700981Y-65442306D01*
X169725000Y-65321557D01*
X169725000Y-65198443D01*
X169700981Y-65077694D01*
X169660515Y-64980000D01*
X169700981Y-64882306D01*
X169725000Y-64761557D01*
X169725000Y-64638443D01*
X169700981Y-64517694D01*
X169653868Y-64403952D01*
X169651227Y-64400000D01*
X169653868Y-64396048D01*
X169700981Y-64282306D01*
X169725000Y-64161557D01*
X169725000Y-64038443D01*
X169700981Y-63917694D01*
X169653868Y-63803952D01*
X169585469Y-63701586D01*
X169498414Y-63614531D01*
X169396048Y-63546132D01*
X169282306Y-63499019D01*
X169161557Y-63475000D01*
X169038443Y-63475000D01*
X168917694Y-63499019D01*
X168803952Y-63546132D01*
X168701586Y-63614531D01*
X168614531Y-63701586D01*
X168546132Y-63803952D01*
X168499019Y-63917694D01*
X168475000Y-64038443D01*
X168475000Y-64161557D01*
X168499019Y-64282306D01*
X168546132Y-64396048D01*
X168548773Y-64400000D01*
X168546132Y-64403952D01*
X168499019Y-64517694D01*
X168475000Y-64638443D01*
X168475000Y-64761557D01*
X168499019Y-64882306D01*
X168539485Y-64980000D01*
X168499019Y-65077694D01*
X168475000Y-65198443D01*
X168475000Y-65321557D01*
X168499019Y-65442306D01*
X168546132Y-65556048D01*
X168614531Y-65658414D01*
X168701586Y-65745469D01*
X168803952Y-65813868D01*
X168917694Y-65860981D01*
X168922143Y-65861866D01*
X168899019Y-65917694D01*
X168875223Y-66037321D01*
X168853952Y-66046132D01*
X168751586Y-66114531D01*
X168664531Y-66201586D01*
X168596132Y-66303952D01*
X168549019Y-66417694D01*
X168525000Y-66538443D01*
X168525000Y-66661557D01*
X168549019Y-66782306D01*
X168596132Y-66896048D01*
X168664531Y-66998414D01*
X168751586Y-67085469D01*
X168773333Y-67100000D01*
X168751586Y-67114531D01*
X168664531Y-67201586D01*
X168596132Y-67303952D01*
X168549019Y-67417694D01*
X168525000Y-67538443D01*
X168525000Y-67661557D01*
X168549019Y-67782306D01*
X168596132Y-67896048D01*
X168664531Y-67998414D01*
X168751586Y-68085469D01*
X168773333Y-68100000D01*
X168751586Y-68114531D01*
X168664531Y-68201586D01*
X168596132Y-68303952D01*
X168549019Y-68417694D01*
X168525000Y-68538443D01*
X168525000Y-68661557D01*
X168549019Y-68782306D01*
X168596132Y-68896048D01*
X168664531Y-68998414D01*
X168751586Y-69085469D01*
X168773333Y-69100000D01*
X168751586Y-69114531D01*
X168664531Y-69201586D01*
X168596132Y-69303952D01*
X168549019Y-69417694D01*
X168525223Y-69537321D01*
X168503952Y-69546132D01*
X168401586Y-69614531D01*
X168314531Y-69701586D01*
X168246132Y-69803952D01*
X168199019Y-69917694D01*
X168175000Y-70038443D01*
X163738865Y-70038443D01*
X163703868Y-69953952D01*
X163635469Y-69851586D01*
X163548414Y-69764531D01*
X163446048Y-69696132D01*
X163332306Y-69649019D01*
X163211557Y-69625000D01*
X163088443Y-69625000D01*
X162967694Y-69649019D01*
X162853952Y-69696132D01*
X162751586Y-69764531D01*
X162664531Y-69851586D01*
X162596132Y-69953952D01*
X162549019Y-70067694D01*
X162525000Y-70188443D01*
X161259371Y-70188443D01*
X161196048Y-70146132D01*
X161082306Y-70099019D01*
X160961557Y-70075000D01*
X160838443Y-70075000D01*
X160717694Y-70099019D01*
X160603952Y-70146132D01*
X160501586Y-70214531D01*
X160414531Y-70301586D01*
X160346132Y-70403952D01*
X160299019Y-70517694D01*
X160285526Y-70585526D01*
X160217694Y-70599019D01*
X160103952Y-70646132D01*
X160001586Y-70714531D01*
X159914531Y-70801586D01*
X159846132Y-70903952D01*
X159799019Y-71017694D01*
X159785526Y-71085526D01*
X159717694Y-71099019D01*
X159603952Y-71146132D01*
X159501586Y-71214531D01*
X159414531Y-71301586D01*
X159346132Y-71403952D01*
X159299019Y-71517694D01*
X159285526Y-71585526D01*
X159217694Y-71599019D01*
X159103952Y-71646132D01*
X159001586Y-71714531D01*
X158914531Y-71801586D01*
X158846132Y-71903952D01*
X158799019Y-72017694D01*
X158787586Y-72075170D01*
X158667694Y-72099019D01*
X158553952Y-72146132D01*
X158451586Y-72214531D01*
X158364531Y-72301586D01*
X158296132Y-72403952D01*
X158249019Y-72517694D01*
X158235526Y-72585526D01*
X158167694Y-72599019D01*
X158053952Y-72646132D01*
X157951586Y-72714531D01*
X157864531Y-72801586D01*
X157796132Y-72903952D01*
X157749019Y-73017694D01*
X157735526Y-73085526D01*
X157667694Y-73099019D01*
X157553952Y-73146132D01*
X157451586Y-73214531D01*
X157364531Y-73301586D01*
X157296132Y-73403952D01*
X157249019Y-73517694D01*
X157235526Y-73585526D01*
X157167694Y-73599019D01*
X157053952Y-73646132D01*
X156951586Y-73714531D01*
X156864531Y-73801586D01*
X156796132Y-73903952D01*
X156749019Y-74017694D01*
X156725000Y-74138443D01*
X155419133Y-74138443D01*
X155498414Y-74085469D01*
X155585469Y-73998414D01*
X155653868Y-73896048D01*
X155700981Y-73782306D01*
X155725000Y-73661557D01*
X155725000Y-73538443D01*
X155700981Y-73417694D01*
X155653868Y-73303952D01*
X155585469Y-73201586D01*
X155498414Y-73114531D01*
X155396048Y-73046132D01*
X155282306Y-72999019D01*
X155161557Y-72975000D01*
X155038443Y-72975000D01*
X154917694Y-72999019D01*
X154803952Y-73046132D01*
X154701586Y-73114531D01*
X154614531Y-73201586D01*
X154546132Y-73303952D01*
X154499019Y-73417694D01*
X154475000Y-73538443D01*
X152815440Y-73538443D01*
X152865469Y-73488414D01*
X152933868Y-73386048D01*
X152980981Y-73272306D01*
X153005000Y-73151557D01*
X153005000Y-73028443D01*
X152980981Y-72907694D01*
X152933868Y-72793952D01*
X152876215Y-72707668D01*
X152885469Y-72698414D01*
X152953868Y-72596048D01*
X153000981Y-72482306D01*
X153025000Y-72361557D01*
X153025000Y-72238443D01*
X153000981Y-72117694D01*
X152953868Y-72003952D01*
X152885469Y-71901586D01*
X152798414Y-71814531D01*
X152779820Y-71802107D01*
X152783868Y-71796048D01*
X152830981Y-71682306D01*
X152855000Y-71561557D01*
X152855000Y-71438443D01*
X152830981Y-71317694D01*
X152783868Y-71203952D01*
X152715469Y-71101586D01*
X152628414Y-71014531D01*
X152526048Y-70946132D01*
X152412306Y-70899019D01*
X152295000Y-70875685D01*
X152295000Y-70848443D01*
X152270981Y-70727694D01*
X152223868Y-70613952D01*
X152155469Y-70511586D01*
X152068414Y-70424531D01*
X151966048Y-70356132D01*
X151852306Y-70309019D01*
X151731557Y-70285000D01*
X151608443Y-70285000D01*
X151487694Y-70309019D01*
X151373952Y-70356132D01*
X151310000Y-70398864D01*
X151246048Y-70356132D01*
X151132306Y-70309019D01*
X151011557Y-70285000D01*
X150888443Y-70285000D01*
X150767694Y-70309019D01*
X150653952Y-70356132D01*
X150551586Y-70424531D01*
X150464531Y-70511586D01*
X150396132Y-70613952D01*
X150349019Y-70727694D01*
X150325000Y-70848443D01*
X149173011Y-70848443D01*
X149150981Y-70737694D01*
X149103868Y-70623952D01*
X149035469Y-70521586D01*
X148948414Y-70434531D01*
X148846048Y-70366132D01*
X148732306Y-70319019D01*
X148611557Y-70295000D01*
X148488443Y-70295000D01*
X148367694Y-70319019D01*
X148253952Y-70366132D01*
X148151586Y-70434531D01*
X148064531Y-70521586D01*
X147996132Y-70623952D01*
X147949019Y-70737694D01*
X147925000Y-70858443D01*
X145925000Y-70858443D01*
X145925000Y-70385989D01*
X145992855Y-70453844D01*
X146177113Y-70576962D01*
X146381850Y-70661767D01*
X146599197Y-70705000D01*
X146820803Y-70705000D01*
X147038150Y-70661767D01*
X147242887Y-70576962D01*
X147427145Y-70453844D01*
X147583844Y-70297145D01*
X147706962Y-70112887D01*
X147791767Y-69908150D01*
X147835000Y-69690803D01*
X147835000Y-69469197D01*
X147795593Y-69271081D01*
X149817809Y-69271081D01*
X149836315Y-69397354D01*
X149950087Y-69457789D01*
X150073462Y-69494866D01*
X150201700Y-69507161D01*
X150329873Y-69494203D01*
X150453055Y-69456487D01*
X150563685Y-69397354D01*
X150582191Y-69271081D01*
X150817809Y-69271081D01*
X150836315Y-69397354D01*
X150950087Y-69457789D01*
X151073462Y-69494866D01*
X151201700Y-69507161D01*
X151329873Y-69494203D01*
X151453055Y-69456487D01*
X151563685Y-69397354D01*
X151582191Y-69271081D01*
X151200000Y-68888891D01*
X150817809Y-69271081D01*
X150582191Y-69271081D01*
X150200000Y-68888891D01*
X149817809Y-69271081D01*
X147795593Y-69271081D01*
X147791767Y-69251850D01*
X147706962Y-69047113D01*
X147583844Y-68862855D01*
X147572689Y-68851700D01*
X149542839Y-68851700D01*
X149555797Y-68979873D01*
X149593513Y-69103055D01*
X149652646Y-69213685D01*
X149778919Y-69232191D01*
X150161109Y-68850000D01*
X150238891Y-68850000D01*
X150621081Y-69232191D01*
X150700000Y-69220625D01*
X150778919Y-69232191D01*
X151161109Y-68850000D01*
X151238891Y-68850000D01*
X151621081Y-69232191D01*
X151747354Y-69213685D01*
X151807789Y-69099913D01*
X151844866Y-68976538D01*
X151857161Y-68848300D01*
X151844203Y-68720127D01*
X151806487Y-68596945D01*
X151747354Y-68486315D01*
X151621081Y-68467809D01*
X151238891Y-68850000D01*
X151161109Y-68850000D01*
X150778919Y-68467809D01*
X150700000Y-68479375D01*
X150621081Y-68467809D01*
X150238891Y-68850000D01*
X150161109Y-68850000D01*
X149778919Y-68467809D01*
X149652646Y-68486315D01*
X149592211Y-68600087D01*
X149555134Y-68723462D01*
X149542839Y-68851700D01*
X147572689Y-68851700D01*
X147427145Y-68706156D01*
X147242887Y-68583038D01*
X147038150Y-68498233D01*
X146820803Y-68455000D01*
X146599197Y-68455000D01*
X146381850Y-68498233D01*
X146177113Y-68583038D01*
X145992855Y-68706156D01*
X145925000Y-68774011D01*
X145925000Y-68428919D01*
X149817809Y-68428919D01*
X150200000Y-68811109D01*
X150582191Y-68428919D01*
X150817809Y-68428919D01*
X151200000Y-68811109D01*
X151582191Y-68428919D01*
X151563685Y-68302646D01*
X151449913Y-68242211D01*
X151326538Y-68205134D01*
X151198300Y-68192839D01*
X151070127Y-68205797D01*
X150946945Y-68243513D01*
X150836315Y-68302646D01*
X150817809Y-68428919D01*
X150582191Y-68428919D01*
X150563685Y-68302646D01*
X150449913Y-68242211D01*
X150326538Y-68205134D01*
X150198300Y-68192839D01*
X150070127Y-68205797D01*
X149946945Y-68243513D01*
X149836315Y-68302646D01*
X149817809Y-68428919D01*
X145925000Y-68428919D01*
X145925000Y-67885989D01*
X145992855Y-67953844D01*
X146177113Y-68076962D01*
X146381850Y-68161767D01*
X146599197Y-68205000D01*
X146820803Y-68205000D01*
X147038150Y-68161767D01*
X147242887Y-68076962D01*
X147427145Y-67953844D01*
X147583844Y-67797145D01*
X147706962Y-67612887D01*
X147717087Y-67588443D01*
X152005000Y-67588443D01*
X152005000Y-67711557D01*
X152029019Y-67832306D01*
X152076132Y-67946048D01*
X152144531Y-68048414D01*
X152231586Y-68135469D01*
X152333952Y-68203868D01*
X152447694Y-68250981D01*
X152568443Y-68275000D01*
X152691557Y-68275000D01*
X152812306Y-68250981D01*
X152926048Y-68203868D01*
X153028414Y-68135469D01*
X153115469Y-68048414D01*
X153183868Y-67946048D01*
X153230981Y-67832306D01*
X153255000Y-67711557D01*
X153255000Y-67588443D01*
X153237098Y-67498443D01*
X153275000Y-67498443D01*
X153275000Y-67621557D01*
X153299019Y-67742306D01*
X153346132Y-67856048D01*
X153414531Y-67958414D01*
X153501586Y-68045469D01*
X153603952Y-68113868D01*
X153717694Y-68160981D01*
X153838443Y-68185000D01*
X153961557Y-68185000D01*
X154082306Y-68160981D01*
X154196048Y-68113868D01*
X154298414Y-68045469D01*
X154385469Y-67958414D01*
X154453868Y-67856048D01*
X154500981Y-67742306D01*
X154525000Y-67621557D01*
X154525000Y-67498443D01*
X154500981Y-67377694D01*
X154453868Y-67263952D01*
X154385469Y-67161586D01*
X154298414Y-67074531D01*
X154196048Y-67006132D01*
X154082306Y-66959019D01*
X153961557Y-66935000D01*
X153838443Y-66935000D01*
X153717694Y-66959019D01*
X153603952Y-67006132D01*
X153501586Y-67074531D01*
X153414531Y-67161586D01*
X153346132Y-67263952D01*
X153299019Y-67377694D01*
X153275000Y-67498443D01*
X153237098Y-67498443D01*
X153230981Y-67467694D01*
X153183868Y-67353952D01*
X153115469Y-67251586D01*
X153028414Y-67164531D01*
X152926048Y-67096132D01*
X152919677Y-67093493D01*
X152932306Y-67090981D01*
X153046048Y-67043868D01*
X153148414Y-66975469D01*
X153235469Y-66888414D01*
X153303868Y-66786048D01*
X153350981Y-66672306D01*
X153375000Y-66551557D01*
X153375000Y-66428443D01*
X153350981Y-66307694D01*
X153303868Y-66193952D01*
X153235469Y-66091586D01*
X153148414Y-66004531D01*
X153046048Y-65936132D01*
X152932306Y-65889019D01*
X152811557Y-65865000D01*
X152688443Y-65865000D01*
X152567694Y-65889019D01*
X152453952Y-65936132D01*
X152351586Y-66004531D01*
X152264531Y-66091586D01*
X152196132Y-66193952D01*
X152149019Y-66307694D01*
X152125000Y-66428443D01*
X152125000Y-66551557D01*
X152149019Y-66672306D01*
X152196132Y-66786048D01*
X152264531Y-66888414D01*
X152351586Y-66975469D01*
X152453952Y-67043868D01*
X152460323Y-67046507D01*
X152447694Y-67049019D01*
X152333952Y-67096132D01*
X152231586Y-67164531D01*
X152144531Y-67251586D01*
X152076132Y-67353952D01*
X152029019Y-67467694D01*
X152005000Y-67588443D01*
X147717087Y-67588443D01*
X147791767Y-67408150D01*
X147835000Y-67190803D01*
X147835000Y-66969197D01*
X147791767Y-66751850D01*
X147706962Y-66547113D01*
X147674442Y-66498443D01*
X148355000Y-66498443D01*
X148355000Y-66621557D01*
X148379019Y-66742306D01*
X148426132Y-66856048D01*
X148494531Y-66958414D01*
X148581586Y-67045469D01*
X148683952Y-67113868D01*
X148797694Y-67160981D01*
X148918443Y-67185000D01*
X149041557Y-67185000D01*
X149162306Y-67160981D01*
X149276048Y-67113868D01*
X149378414Y-67045469D01*
X149465469Y-66958414D01*
X149533868Y-66856048D01*
X149580981Y-66742306D01*
X149605000Y-66621557D01*
X149605000Y-66498443D01*
X149580981Y-66377694D01*
X149533868Y-66263952D01*
X149465469Y-66161586D01*
X149378414Y-66074531D01*
X149276048Y-66006132D01*
X149162306Y-65959019D01*
X149041557Y-65935000D01*
X148918443Y-65935000D01*
X148797694Y-65959019D01*
X148683952Y-66006132D01*
X148581586Y-66074531D01*
X148494531Y-66161586D01*
X148426132Y-66263952D01*
X148379019Y-66377694D01*
X148355000Y-66498443D01*
X147674442Y-66498443D01*
X147583844Y-66362855D01*
X147427145Y-66206156D01*
X147242887Y-66083038D01*
X147038150Y-65998233D01*
X146820803Y-65955000D01*
X146599197Y-65955000D01*
X146381850Y-65998233D01*
X146177113Y-66083038D01*
X145992855Y-66206156D01*
X145846604Y-66352407D01*
X145801974Y-66298026D01*
X145737260Y-66244916D01*
X145663427Y-66205452D01*
X145583314Y-66181150D01*
X145520874Y-66175000D01*
X145500000Y-66172944D01*
X145479126Y-66175000D01*
X136425000Y-66175000D01*
X136425000Y-51175000D01*
X142288604Y-51175000D01*
X141297437Y-52166168D01*
X141297437Y-52166168D01*
G37*
X141297437Y-52166168D02*
X141297432Y-52166172D01*
X140903605Y-52560000D01*
X140613883Y-52560000D01*
X140578414Y-52524531D01*
X140476048Y-52456132D01*
X140362306Y-52409019D01*
X140241557Y-52385000D01*
X140118443Y-52385000D01*
X139997694Y-52409019D01*
X139883952Y-52456132D01*
X139781586Y-52524531D01*
X139694531Y-52611586D01*
X139626132Y-52713952D01*
X139579019Y-52827694D01*
X139555000Y-52948443D01*
X139555000Y-53071557D01*
X139579019Y-53192306D01*
X139626132Y-53306048D01*
X139694531Y-53408414D01*
X139781586Y-53495469D01*
X139883952Y-53563868D01*
X139997694Y-53610981D01*
X140113307Y-53633978D01*
X140037694Y-53649019D01*
X139923952Y-53696132D01*
X139821586Y-53764531D01*
X139734531Y-53851586D01*
X139666132Y-53953952D01*
X139619019Y-54067694D01*
X139595000Y-54188443D01*
X139595000Y-54311557D01*
X139619019Y-54432306D01*
X139666132Y-54546048D01*
X139734531Y-54648414D01*
X139821586Y-54735469D01*
X139923952Y-54803868D01*
X139949256Y-54814349D01*
X139817034Y-54946571D01*
X139793952Y-54956132D01*
X139691586Y-55024531D01*
X139604531Y-55111586D01*
X139536132Y-55213952D01*
X139489019Y-55327694D01*
X139465000Y-55448443D01*
X139465000Y-55571557D01*
X139489019Y-55692306D01*
X139536132Y-55806048D01*
X139604531Y-55908414D01*
X139691586Y-55995469D01*
X139793952Y-56063868D01*
X139907694Y-56110981D01*
X139963035Y-56121989D01*
X139927694Y-56129019D01*
X139813952Y-56176132D01*
X139711586Y-56244531D01*
X139624531Y-56331586D01*
X139556132Y-56433952D01*
X139509019Y-56547694D01*
X139485000Y-56668443D01*
X139485000Y-56791557D01*
X139509019Y-56912306D01*
X139556132Y-57026048D01*
X139624531Y-57128414D01*
X139696467Y-57200350D01*
X139682243Y-57226960D01*
X139656511Y-57311786D01*
X139650000Y-57377896D01*
X139650000Y-57377906D01*
X139647824Y-57400000D01*
X139650000Y-57422095D01*
X139650000Y-57656117D01*
X139614531Y-57691586D01*
X139546132Y-57793952D01*
X139499019Y-57907694D01*
X139475000Y-58028443D01*
X139475000Y-58151557D01*
X139499019Y-58272306D01*
X139546132Y-58386048D01*
X139614531Y-58488414D01*
X139701586Y-58575469D01*
X139803952Y-58643868D01*
X139881183Y-58675858D01*
X139783952Y-58716132D01*
X139681586Y-58784531D01*
X139594531Y-58871586D01*
X139526132Y-58973952D01*
X139479019Y-59087694D01*
X139455000Y-59208443D01*
X139455000Y-59331557D01*
X139479019Y-59452306D01*
X139526132Y-59566048D01*
X139594531Y-59668414D01*
X139681586Y-59755469D01*
X139783952Y-59823868D01*
X139897694Y-59870981D01*
X140018443Y-59895000D01*
X140138605Y-59895000D01*
X140078605Y-59955000D01*
X140028443Y-59955000D01*
X139907694Y-59979019D01*
X139793952Y-60026132D01*
X139691586Y-60094531D01*
X139604531Y-60181586D01*
X139536132Y-60283952D01*
X139489019Y-60397694D01*
X139465000Y-60518443D01*
X139465000Y-60641557D01*
X139489019Y-60762306D01*
X139536132Y-60876048D01*
X139604531Y-60978414D01*
X139691586Y-61065469D01*
X139793952Y-61133868D01*
X139907694Y-61180981D01*
X140028443Y-61205000D01*
X140088605Y-61205000D01*
X140068605Y-61225000D01*
X140018443Y-61225000D01*
X139897694Y-61249019D01*
X139783952Y-61296132D01*
X139681586Y-61364531D01*
X139594531Y-61451586D01*
X139526132Y-61553952D01*
X139479019Y-61667694D01*
X139455000Y-61788443D01*
X139455000Y-61911557D01*
X139479019Y-62032306D01*
X139526132Y-62146048D01*
X139594531Y-62248414D01*
X139681586Y-62335469D01*
X139783952Y-62403868D01*
X139897694Y-62450981D01*
X140018443Y-62475000D01*
X140141557Y-62475000D01*
X140150355Y-62473250D01*
X140058605Y-62565000D01*
X140008443Y-62565000D01*
X139887694Y-62589019D01*
X139773952Y-62636132D01*
X139671586Y-62704531D01*
X139584531Y-62791586D01*
X139516132Y-62893952D01*
X139469019Y-63007694D01*
X139445000Y-63128443D01*
X139445000Y-63251557D01*
X139469019Y-63372306D01*
X139516132Y-63486048D01*
X139584531Y-63588414D01*
X139671586Y-63675469D01*
X139773952Y-63743868D01*
X139887694Y-63790981D01*
X140008443Y-63815000D01*
X140028443Y-63815000D01*
X139907694Y-63839019D01*
X139793952Y-63886132D01*
X139691586Y-63954531D01*
X139604531Y-64041586D01*
X139536132Y-64143952D01*
X139489019Y-64257694D01*
X139465000Y-64378443D01*
X139465000Y-64501557D01*
X139489019Y-64622306D01*
X139536132Y-64736048D01*
X139604531Y-64838414D01*
X139691586Y-64925469D01*
X139793952Y-64993868D01*
X139907694Y-65040981D01*
X140028443Y-65065000D01*
X140151557Y-65065000D01*
X140272306Y-65040981D01*
X140386048Y-64993868D01*
X140488414Y-64925469D01*
X140575469Y-64838414D01*
X140643868Y-64736048D01*
X140690981Y-64622306D01*
X140715000Y-64501557D01*
X140715000Y-64469197D01*
X145585000Y-64469197D01*
X145585000Y-64690803D01*
X145628233Y-64908150D01*
X145713038Y-65112887D01*
X145836156Y-65297145D01*
X145992855Y-65453844D01*
X146177113Y-65576962D01*
X146381850Y-65661767D01*
X146599197Y-65705000D01*
X146820803Y-65705000D01*
X147038150Y-65661767D01*
X147242887Y-65576962D01*
X147427145Y-65453844D01*
X147582546Y-65298443D01*
X150265000Y-65298443D01*
X150265000Y-65421557D01*
X150289019Y-65542306D01*
X150336132Y-65656048D01*
X150373818Y-65712449D01*
X150366132Y-65723952D01*
X150319019Y-65837694D01*
X150295000Y-65958443D01*
X150295000Y-66081557D01*
X150319019Y-66202306D01*
X150366132Y-66316048D01*
X150434531Y-66418414D01*
X150521586Y-66505469D01*
X150623952Y-66573868D01*
X150737694Y-66620981D01*
X150858443Y-66645000D01*
X150981557Y-66645000D01*
X151102306Y-66620981D01*
X151216048Y-66573868D01*
X151318414Y-66505469D01*
X151405469Y-66418414D01*
X151473868Y-66316048D01*
X151520981Y-66202306D01*
X151545000Y-66081557D01*
X151545000Y-65958443D01*
X151520981Y-65837694D01*
X151473868Y-65723952D01*
X151436182Y-65667551D01*
X151443868Y-65656048D01*
X151490981Y-65542306D01*
X151515000Y-65421557D01*
X151515000Y-65298443D01*
X151493120Y-65188445D01*
X164320175Y-65188445D01*
X164320175Y-65311559D01*
X164344194Y-65432308D01*
X164391307Y-65546050D01*
X164459706Y-65648416D01*
X164546761Y-65735471D01*
X164649127Y-65803870D01*
X164762869Y-65850983D01*
X164883618Y-65875002D01*
X165006732Y-65875002D01*
X165127481Y-65850983D01*
X165240777Y-65804055D01*
X165287121Y-65873413D01*
X165374176Y-65960468D01*
X165476542Y-66028867D01*
X165590284Y-66075980D01*
X165711033Y-66099999D01*
X165834147Y-66099999D01*
X165954896Y-66075980D01*
X166068638Y-66028867D01*
X166171004Y-65960468D01*
X166258059Y-65873413D01*
X166263778Y-65864853D01*
X166308516Y-65883384D01*
X166429265Y-65907403D01*
X166552379Y-65907403D01*
X166673128Y-65883384D01*
X166786870Y-65836271D01*
X166889236Y-65767872D01*
X166976291Y-65680817D01*
X167044690Y-65578451D01*
X167091803Y-65464709D01*
X167115822Y-65343960D01*
X167115822Y-65220846D01*
X167091803Y-65100097D01*
X167044690Y-64986355D01*
X166976291Y-64883989D01*
X166889236Y-64796934D01*
X166786870Y-64728535D01*
X166673128Y-64681422D01*
X166552379Y-64657403D01*
X166429265Y-64657403D01*
X166308516Y-64681422D01*
X166194774Y-64728535D01*
X166092408Y-64796934D01*
X166005353Y-64883989D01*
X165999634Y-64892549D01*
X165954896Y-64874018D01*
X165834147Y-64849999D01*
X165711033Y-64849999D01*
X165590284Y-64874018D01*
X165476988Y-64920946D01*
X165430644Y-64851588D01*
X165343589Y-64764533D01*
X165241223Y-64696134D01*
X165127481Y-64649021D01*
X165006732Y-64625002D01*
X164883618Y-64625002D01*
X164762869Y-64649021D01*
X164649127Y-64696134D01*
X164546761Y-64764533D01*
X164459706Y-64851588D01*
X164391307Y-64953954D01*
X164344194Y-65067696D01*
X164320175Y-65188445D01*
X151493120Y-65188445D01*
X151490981Y-65177694D01*
X151443868Y-65063952D01*
X151375469Y-64961586D01*
X151288414Y-64874531D01*
X151186048Y-64806132D01*
X151072306Y-64759019D01*
X150951557Y-64735000D01*
X150828443Y-64735000D01*
X150707694Y-64759019D01*
X150593952Y-64806132D01*
X150491586Y-64874531D01*
X150404531Y-64961586D01*
X150336132Y-65063952D01*
X150289019Y-65177694D01*
X150265000Y-65298443D01*
X147582546Y-65298443D01*
X147583844Y-65297145D01*
X147706962Y-65112887D01*
X147791767Y-64908150D01*
X147835000Y-64690803D01*
X147835000Y-64469197D01*
X147791767Y-64251850D01*
X147706962Y-64047113D01*
X147583844Y-63862855D01*
X147459432Y-63738443D01*
X153845000Y-63738443D01*
X153845000Y-63861557D01*
X153869019Y-63982306D01*
X153916132Y-64096048D01*
X153984531Y-64198414D01*
X154071586Y-64285469D01*
X154173952Y-64353868D01*
X154287694Y-64400981D01*
X154408443Y-64425000D01*
X154531557Y-64425000D01*
X154652306Y-64400981D01*
X154766048Y-64353868D01*
X154868414Y-64285469D01*
X154955469Y-64198414D01*
X155023868Y-64096048D01*
X155070981Y-63982306D01*
X155095000Y-63861557D01*
X155095000Y-63738443D01*
X155070981Y-63617694D01*
X155023868Y-63503952D01*
X154955469Y-63401586D01*
X154868414Y-63314531D01*
X154766048Y-63246132D01*
X154652306Y-63199019D01*
X154531557Y-63175000D01*
X154408443Y-63175000D01*
X154287694Y-63199019D01*
X154173952Y-63246132D01*
X154071586Y-63314531D01*
X153984531Y-63401586D01*
X153916132Y-63503952D01*
X153869019Y-63617694D01*
X153845000Y-63738443D01*
X147459432Y-63738443D01*
X147427145Y-63706156D01*
X147242887Y-63583038D01*
X147038150Y-63498233D01*
X146820803Y-63455000D01*
X146599197Y-63455000D01*
X146381850Y-63498233D01*
X146177113Y-63583038D01*
X145992855Y-63706156D01*
X145836156Y-63862855D01*
X145713038Y-64047113D01*
X145628233Y-64251850D01*
X145585000Y-64469197D01*
X140715000Y-64469197D01*
X140715000Y-64451395D01*
X142612572Y-62553824D01*
X142629737Y-62539737D01*
X142643824Y-62522572D01*
X142643828Y-62522568D01*
X142685971Y-62471217D01*
X142727757Y-62393041D01*
X142745221Y-62335469D01*
X142753489Y-62308215D01*
X142760000Y-62242105D01*
X142760000Y-62242095D01*
X142762176Y-62220001D01*
X142760000Y-62197906D01*
X142760000Y-61969197D01*
X145585000Y-61969197D01*
X145585000Y-62190803D01*
X145628233Y-62408150D01*
X145713038Y-62612887D01*
X145836156Y-62797145D01*
X145992855Y-62953844D01*
X146177113Y-63076962D01*
X146381850Y-63161767D01*
X146599197Y-63205000D01*
X146820803Y-63205000D01*
X147038150Y-63161767D01*
X147242887Y-63076962D01*
X147427145Y-62953844D01*
X147583844Y-62797145D01*
X147706962Y-62612887D01*
X147791767Y-62408150D01*
X147835000Y-62190803D01*
X147835000Y-61969197D01*
X147791767Y-61751850D01*
X147706962Y-61547113D01*
X147674442Y-61498443D01*
X147845000Y-61498443D01*
X147845000Y-61621557D01*
X147869019Y-61742306D01*
X147916132Y-61856048D01*
X147984531Y-61958414D01*
X148071586Y-62045469D01*
X148173952Y-62113868D01*
X148287694Y-62160981D01*
X148408443Y-62185000D01*
X148531557Y-62185000D01*
X148564520Y-62178443D01*
X149115000Y-62178443D01*
X149115000Y-62301557D01*
X149139019Y-62422306D01*
X149186132Y-62536048D01*
X149254531Y-62638414D01*
X149341586Y-62725469D01*
X149443952Y-62793868D01*
X149557694Y-62840981D01*
X149678443Y-62865000D01*
X149801557Y-62865000D01*
X149922306Y-62840981D01*
X150036048Y-62793868D01*
X150138414Y-62725469D01*
X150225469Y-62638414D01*
X150293868Y-62536048D01*
X150340981Y-62422306D01*
X150365000Y-62301557D01*
X150365000Y-62178443D01*
X150340981Y-62057694D01*
X150293868Y-61943952D01*
X150225469Y-61841586D01*
X150138414Y-61754531D01*
X150036048Y-61686132D01*
X149922306Y-61639019D01*
X149801557Y-61615000D01*
X149678443Y-61615000D01*
X149557694Y-61639019D01*
X149443952Y-61686132D01*
X149341586Y-61754531D01*
X149254531Y-61841586D01*
X149186132Y-61943952D01*
X149139019Y-62057694D01*
X149115000Y-62178443D01*
X148564520Y-62178443D01*
X148652306Y-62160981D01*
X148766048Y-62113868D01*
X148868414Y-62045469D01*
X148955469Y-61958414D01*
X149023868Y-61856048D01*
X149070981Y-61742306D01*
X149095000Y-61621557D01*
X149095000Y-61498443D01*
X149070981Y-61377694D01*
X149023868Y-61263952D01*
X148955469Y-61161586D01*
X148868414Y-61074531D01*
X148766048Y-61006132D01*
X148652306Y-60959019D01*
X148531557Y-60935000D01*
X148408443Y-60935000D01*
X148287694Y-60959019D01*
X148173952Y-61006132D01*
X148071586Y-61074531D01*
X147984531Y-61161586D01*
X147916132Y-61263952D01*
X147869019Y-61377694D01*
X147845000Y-61498443D01*
X147674442Y-61498443D01*
X147583844Y-61362855D01*
X147427145Y-61206156D01*
X147242887Y-61083038D01*
X147038150Y-60998233D01*
X146820803Y-60955000D01*
X146599197Y-60955000D01*
X146381850Y-60998233D01*
X146177113Y-61083038D01*
X145992855Y-61206156D01*
X145836156Y-61362855D01*
X145713038Y-61547113D01*
X145628233Y-61751850D01*
X145585000Y-61969197D01*
X142760000Y-61969197D01*
X142760000Y-60268443D01*
X152105000Y-60268443D01*
X152105000Y-60391557D01*
X152129019Y-60512306D01*
X152176132Y-60626048D01*
X152244531Y-60728414D01*
X152331586Y-60815469D01*
X152433952Y-60883868D01*
X152547694Y-60930981D01*
X152668443Y-60955000D01*
X152791557Y-60955000D01*
X152912306Y-60930981D01*
X153026048Y-60883868D01*
X153128414Y-60815469D01*
X153215469Y-60728414D01*
X153283868Y-60626048D01*
X153320154Y-60538443D01*
X168325000Y-60538443D01*
X168325000Y-60661557D01*
X168349019Y-60782306D01*
X168396132Y-60896048D01*
X168464531Y-60998414D01*
X168551586Y-61085469D01*
X168653952Y-61153868D01*
X168767694Y-61200981D01*
X168888443Y-61225000D01*
X169011557Y-61225000D01*
X169132306Y-61200981D01*
X169246048Y-61153868D01*
X169348414Y-61085469D01*
X169435469Y-60998414D01*
X169503868Y-60896048D01*
X169550981Y-60782306D01*
X169575000Y-60661557D01*
X169575000Y-60538443D01*
X169550981Y-60417694D01*
X169503868Y-60303952D01*
X169435469Y-60201586D01*
X169348414Y-60114531D01*
X169340562Y-60109285D01*
X169382306Y-60100981D01*
X169496048Y-60053868D01*
X169598414Y-59985469D01*
X169685469Y-59898414D01*
X169753868Y-59796048D01*
X169800981Y-59682306D01*
X169825000Y-59561557D01*
X169825000Y-59438443D01*
X169800981Y-59317694D01*
X169753868Y-59203952D01*
X169751227Y-59200000D01*
X169753868Y-59196048D01*
X169800981Y-59082306D01*
X169825000Y-58961557D01*
X169825000Y-58838443D01*
X169800981Y-58717694D01*
X169753868Y-58603952D01*
X169751227Y-58600000D01*
X169753868Y-58596048D01*
X169800981Y-58482306D01*
X169825000Y-58361557D01*
X169825000Y-58238443D01*
X169800981Y-58117694D01*
X169753868Y-58003952D01*
X169685469Y-57901586D01*
X169598414Y-57814531D01*
X169496048Y-57746132D01*
X169382306Y-57699019D01*
X169261557Y-57675000D01*
X169138443Y-57675000D01*
X169017694Y-57699019D01*
X168903952Y-57746132D01*
X168801586Y-57814531D01*
X168714531Y-57901586D01*
X168646132Y-58003952D01*
X168599019Y-58117694D01*
X168575000Y-58238443D01*
X168575000Y-58361557D01*
X168599019Y-58482306D01*
X168646132Y-58596048D01*
X168648773Y-58600000D01*
X168646132Y-58603952D01*
X168599019Y-58717694D01*
X168575000Y-58838443D01*
X168575000Y-58961557D01*
X168599019Y-59082306D01*
X168646132Y-59196048D01*
X168648773Y-59200000D01*
X168646132Y-59203952D01*
X168599019Y-59317694D01*
X168575000Y-59438443D01*
X168575000Y-59561557D01*
X168599019Y-59682306D01*
X168646132Y-59796048D01*
X168714531Y-59898414D01*
X168801586Y-59985469D01*
X168809438Y-59990715D01*
X168767694Y-59999019D01*
X168653952Y-60046132D01*
X168551586Y-60114531D01*
X168464531Y-60201586D01*
X168396132Y-60303952D01*
X168349019Y-60417694D01*
X168325000Y-60538443D01*
X153320154Y-60538443D01*
X153330981Y-60512306D01*
X153355000Y-60391557D01*
X153355000Y-60268443D01*
X153330981Y-60147694D01*
X153283868Y-60033952D01*
X153215469Y-59931586D01*
X153128414Y-59844531D01*
X153026048Y-59776132D01*
X152912306Y-59729019D01*
X152791557Y-59705000D01*
X152668443Y-59705000D01*
X152547694Y-59729019D01*
X152433952Y-59776132D01*
X152331586Y-59844531D01*
X152244531Y-59931586D01*
X152176132Y-60033952D01*
X152129019Y-60147694D01*
X152105000Y-60268443D01*
X142760000Y-60268443D01*
X142760000Y-59348443D01*
X146125000Y-59348443D01*
X146125000Y-59471557D01*
X146149019Y-59592306D01*
X146196132Y-59706048D01*
X146264531Y-59808414D01*
X146351586Y-59895469D01*
X146453952Y-59963868D01*
X146567694Y-60010981D01*
X146688443Y-60035000D01*
X146811557Y-60035000D01*
X146932306Y-60010981D01*
X147025000Y-59972586D01*
X147117694Y-60010981D01*
X147238443Y-60035000D01*
X147361557Y-60035000D01*
X147482306Y-60010981D01*
X147596048Y-59963868D01*
X147698414Y-59895469D01*
X147785469Y-59808414D01*
X147853868Y-59706048D01*
X147900981Y-59592306D01*
X147925000Y-59471557D01*
X147925000Y-59438443D01*
X163675000Y-59438443D01*
X163675000Y-59561557D01*
X163699019Y-59682306D01*
X163746132Y-59796048D01*
X163814531Y-59898414D01*
X163901586Y-59985469D01*
X164003952Y-60053868D01*
X164117694Y-60100981D01*
X164238443Y-60125000D01*
X164361557Y-60125000D01*
X164482306Y-60100981D01*
X164596048Y-60053868D01*
X164698414Y-59985469D01*
X164785469Y-59898414D01*
X164853868Y-59796048D01*
X164900981Y-59682306D01*
X164925000Y-59561557D01*
X164925000Y-59438443D01*
X164900981Y-59317694D01*
X164853868Y-59203952D01*
X164785469Y-59101586D01*
X164698414Y-59014531D01*
X164596048Y-58946132D01*
X164482306Y-58899019D01*
X164361557Y-58875000D01*
X164238443Y-58875000D01*
X164117694Y-58899019D01*
X164003952Y-58946132D01*
X163901586Y-59014531D01*
X163814531Y-59101586D01*
X163746132Y-59203952D01*
X163699019Y-59317694D01*
X163675000Y-59438443D01*
X147925000Y-59438443D01*
X147925000Y-59348443D01*
X147900981Y-59227694D01*
X147853868Y-59113952D01*
X147785469Y-59011586D01*
X147698414Y-58924531D01*
X147596048Y-58856132D01*
X147500720Y-58816646D01*
X151912245Y-58816646D01*
X151936760Y-58948034D01*
X152059035Y-59013453D01*
X152191724Y-59053759D01*
X152329726Y-59067406D01*
X152467739Y-59053866D01*
X152600460Y-59013662D01*
X152722787Y-58948338D01*
X152723240Y-58948034D01*
X152747755Y-58816646D01*
X152912245Y-58816646D01*
X152936760Y-58948034D01*
X153059035Y-59013453D01*
X153191724Y-59053759D01*
X153329726Y-59067406D01*
X153467739Y-59053866D01*
X153600460Y-59013662D01*
X153722787Y-58948338D01*
X153723240Y-58948034D01*
X153747755Y-58816646D01*
X153912245Y-58816646D01*
X153936760Y-58948034D01*
X154059035Y-59013453D01*
X154191724Y-59053759D01*
X154329726Y-59067406D01*
X154467739Y-59053866D01*
X154600460Y-59013662D01*
X154722787Y-58948338D01*
X154723240Y-58948034D01*
X154747755Y-58816646D01*
X154330000Y-58398891D01*
X153912245Y-58816646D01*
X153747755Y-58816646D01*
X153330000Y-58398891D01*
X152912245Y-58816646D01*
X152747755Y-58816646D01*
X152330000Y-58398891D01*
X151912245Y-58816646D01*
X147500720Y-58816646D01*
X147482306Y-58809019D01*
X147361557Y-58785000D01*
X147238443Y-58785000D01*
X147117694Y-58809019D01*
X147025000Y-58847414D01*
X146932306Y-58809019D01*
X146811557Y-58785000D01*
X146688443Y-58785000D01*
X146567694Y-58809019D01*
X146453952Y-58856132D01*
X146351586Y-58924531D01*
X146264531Y-59011586D01*
X146196132Y-59113952D01*
X146149019Y-59227694D01*
X146125000Y-59348443D01*
X142760000Y-59348443D01*
X142760000Y-58359726D01*
X151622594Y-58359726D01*
X151636134Y-58497739D01*
X151676338Y-58630460D01*
X151741662Y-58752787D01*
X151741966Y-58753240D01*
X151873354Y-58777755D01*
X152291109Y-58360000D01*
X152368891Y-58360000D01*
X152718724Y-58709833D01*
X152741662Y-58752787D01*
X152741966Y-58753240D01*
X152766757Y-58757866D01*
X152786646Y-58777755D01*
X152830000Y-58769666D01*
X152873354Y-58777755D01*
X152893243Y-58757866D01*
X152918034Y-58753240D01*
X152941236Y-58709873D01*
X153291109Y-58360000D01*
X153368891Y-58360000D01*
X153718724Y-58709833D01*
X153741662Y-58752787D01*
X153741966Y-58753240D01*
X153766757Y-58757866D01*
X153786646Y-58777755D01*
X153830000Y-58769666D01*
X153873354Y-58777755D01*
X153893243Y-58757866D01*
X153918034Y-58753240D01*
X153941236Y-58709873D01*
X154291109Y-58360000D01*
X154368891Y-58360000D01*
X154786646Y-58777755D01*
X154918034Y-58753240D01*
X154983453Y-58630965D01*
X155023759Y-58498276D01*
X155037406Y-58360274D01*
X155023866Y-58222261D01*
X154983662Y-58089540D01*
X154918338Y-57967213D01*
X154918034Y-57966760D01*
X154786646Y-57942245D01*
X154368891Y-58360000D01*
X154291109Y-58360000D01*
X153941276Y-58010167D01*
X153918338Y-57967213D01*
X153918034Y-57966760D01*
X153893243Y-57962134D01*
X153873354Y-57942245D01*
X153830000Y-57950334D01*
X153786646Y-57942245D01*
X153766757Y-57962134D01*
X153741966Y-57966760D01*
X153718764Y-58010127D01*
X153368891Y-58360000D01*
X153291109Y-58360000D01*
X152941276Y-58010167D01*
X152918338Y-57967213D01*
X152918034Y-57966760D01*
X152893243Y-57962134D01*
X152873354Y-57942245D01*
X152830000Y-57950334D01*
X152786646Y-57942245D01*
X152766757Y-57962134D01*
X152741966Y-57966760D01*
X152718764Y-58010127D01*
X152368891Y-58360000D01*
X152291109Y-58360000D01*
X151873354Y-57942245D01*
X151741966Y-57966760D01*
X151676547Y-58089035D01*
X151636241Y-58221724D01*
X151622594Y-58359726D01*
X142760000Y-58359726D01*
X142760000Y-58276395D01*
X145447952Y-55588443D01*
X146975000Y-55588443D01*
X146975000Y-55711557D01*
X146999019Y-55832306D01*
X147046132Y-55946048D01*
X147114531Y-56048414D01*
X147201586Y-56135469D01*
X147303952Y-56203868D01*
X147417694Y-56250981D01*
X147538443Y-56275000D01*
X147661557Y-56275000D01*
X147782306Y-56250981D01*
X147896048Y-56203868D01*
X147998414Y-56135469D01*
X148085469Y-56048414D01*
X148153868Y-55946048D01*
X148200981Y-55832306D01*
X148225000Y-55711557D01*
X148225000Y-55588443D01*
X148200981Y-55467694D01*
X148153868Y-55353952D01*
X148085469Y-55251586D01*
X147998414Y-55164531D01*
X147896048Y-55096132D01*
X147782306Y-55049019D01*
X147661557Y-55025000D01*
X147538443Y-55025000D01*
X147417694Y-55049019D01*
X147303952Y-55096132D01*
X147201586Y-55164531D01*
X147114531Y-55251586D01*
X147046132Y-55353952D01*
X146999019Y-55467694D01*
X146975000Y-55588443D01*
X145447952Y-55588443D01*
X146456396Y-54580000D01*
X149910490Y-54580000D01*
X149946132Y-54666048D01*
X150014531Y-54768414D01*
X150101586Y-54855469D01*
X150203952Y-54923868D01*
X150230827Y-54935000D01*
X150203952Y-54946132D01*
X150101586Y-55014531D01*
X150014531Y-55101586D01*
X149946132Y-55203952D01*
X149899019Y-55317694D01*
X149875000Y-55438443D01*
X149875000Y-55561557D01*
X149899019Y-55682306D01*
X149946132Y-55796048D01*
X149948773Y-55800000D01*
X149946132Y-55803952D01*
X149899019Y-55917694D01*
X149875000Y-56038443D01*
X149875000Y-56161557D01*
X149899019Y-56282306D01*
X149944361Y-56391772D01*
X149896132Y-56463952D01*
X149849019Y-56577694D01*
X149825000Y-56698443D01*
X149825000Y-56821557D01*
X149849019Y-56942306D01*
X149896132Y-57056048D01*
X149961796Y-57154321D01*
X149944531Y-57171586D01*
X149876132Y-57273952D01*
X149829019Y-57387694D01*
X149805000Y-57508443D01*
X149805000Y-57631557D01*
X149829019Y-57752306D01*
X149876132Y-57866048D01*
X149944531Y-57968414D01*
X150031586Y-58055469D01*
X150133952Y-58123868D01*
X150247694Y-58170981D01*
X150368443Y-58195000D01*
X150491557Y-58195000D01*
X150612306Y-58170981D01*
X150726048Y-58123868D01*
X150828414Y-58055469D01*
X150915469Y-57968414D01*
X150983868Y-57866048D01*
X151004330Y-57816646D01*
X151912245Y-57816646D01*
X151920334Y-57860000D01*
X151912245Y-57903354D01*
X151932134Y-57923243D01*
X151936760Y-57948034D01*
X151980127Y-57971236D01*
X152330000Y-58321109D01*
X152679833Y-57971276D01*
X152722787Y-57948338D01*
X152723240Y-57948034D01*
X152727866Y-57923243D01*
X152747755Y-57903354D01*
X152739666Y-57860000D01*
X152747755Y-57816646D01*
X152912245Y-57816646D01*
X152920334Y-57860000D01*
X152912245Y-57903354D01*
X152932134Y-57923243D01*
X152936760Y-57948034D01*
X152980127Y-57971236D01*
X153330000Y-58321109D01*
X153679833Y-57971276D01*
X153722787Y-57948338D01*
X153723240Y-57948034D01*
X153727866Y-57923243D01*
X153747755Y-57903354D01*
X153739666Y-57860000D01*
X153747755Y-57816646D01*
X153912245Y-57816646D01*
X153920334Y-57860000D01*
X153912245Y-57903354D01*
X153932134Y-57923243D01*
X153936760Y-57948034D01*
X153980127Y-57971236D01*
X154330000Y-58321109D01*
X154679833Y-57971276D01*
X154722787Y-57948338D01*
X154723240Y-57948034D01*
X154727866Y-57923243D01*
X154747755Y-57903354D01*
X154739666Y-57860000D01*
X154747755Y-57816646D01*
X154727866Y-57796757D01*
X154723240Y-57771966D01*
X154679873Y-57748764D01*
X154330000Y-57398891D01*
X153980167Y-57748724D01*
X153937213Y-57771662D01*
X153936760Y-57771966D01*
X153932134Y-57796757D01*
X153912245Y-57816646D01*
X153747755Y-57816646D01*
X153727866Y-57796757D01*
X153723240Y-57771966D01*
X153679873Y-57748764D01*
X153330000Y-57398891D01*
X152980167Y-57748724D01*
X152937213Y-57771662D01*
X152936760Y-57771966D01*
X152932134Y-57796757D01*
X152912245Y-57816646D01*
X152747755Y-57816646D01*
X152727866Y-57796757D01*
X152723240Y-57771966D01*
X152679873Y-57748764D01*
X152330000Y-57398891D01*
X151980167Y-57748724D01*
X151937213Y-57771662D01*
X151936760Y-57771966D01*
X151932134Y-57796757D01*
X151912245Y-57816646D01*
X151004330Y-57816646D01*
X151030981Y-57752306D01*
X151055000Y-57631557D01*
X151055000Y-57508443D01*
X151030981Y-57387694D01*
X151019397Y-57359726D01*
X151622594Y-57359726D01*
X151636134Y-57497739D01*
X151676338Y-57630460D01*
X151741662Y-57752787D01*
X151741966Y-57753240D01*
X151873354Y-57777755D01*
X152291109Y-57360000D01*
X152368891Y-57360000D01*
X152718724Y-57709833D01*
X152741662Y-57752787D01*
X152741966Y-57753240D01*
X152766757Y-57757866D01*
X152786646Y-57777755D01*
X152830000Y-57769666D01*
X152873354Y-57777755D01*
X152893243Y-57757866D01*
X152918034Y-57753240D01*
X152941236Y-57709873D01*
X153291109Y-57360000D01*
X153368891Y-57360000D01*
X153718724Y-57709833D01*
X153741662Y-57752787D01*
X153741966Y-57753240D01*
X153766757Y-57757866D01*
X153786646Y-57777755D01*
X153830000Y-57769666D01*
X153873354Y-57777755D01*
X153893243Y-57757866D01*
X153918034Y-57753240D01*
X153941236Y-57709873D01*
X154291109Y-57360000D01*
X154368891Y-57360000D01*
X154786646Y-57777755D01*
X154918034Y-57753240D01*
X154983453Y-57630965D01*
X155023759Y-57498276D01*
X155037406Y-57360274D01*
X155023866Y-57222261D01*
X154986359Y-57098443D01*
X155535000Y-57098443D01*
X155535000Y-57221557D01*
X155559019Y-57342306D01*
X155606132Y-57456048D01*
X155674531Y-57558414D01*
X155676117Y-57560000D01*
X155674531Y-57561586D01*
X155606132Y-57663952D01*
X155559019Y-57777694D01*
X155535000Y-57898443D01*
X155535000Y-58021557D01*
X155559019Y-58142306D01*
X155606132Y-58256048D01*
X155674531Y-58358414D01*
X155761586Y-58445469D01*
X155863952Y-58513868D01*
X155977694Y-58560981D01*
X156098443Y-58585000D01*
X156221557Y-58585000D01*
X156342306Y-58560981D01*
X156456048Y-58513868D01*
X156558414Y-58445469D01*
X156645469Y-58358414D01*
X156713868Y-58256048D01*
X156760981Y-58142306D01*
X156785000Y-58021557D01*
X156785000Y-57898443D01*
X156760981Y-57777694D01*
X156713868Y-57663952D01*
X156645469Y-57561586D01*
X156643883Y-57560000D01*
X156645469Y-57558414D01*
X156713868Y-57456048D01*
X156760981Y-57342306D01*
X156785000Y-57221557D01*
X156785000Y-57098443D01*
X156760981Y-56977694D01*
X156713868Y-56863952D01*
X156645469Y-56761586D01*
X156558414Y-56674531D01*
X156456048Y-56606132D01*
X156342306Y-56559019D01*
X156221557Y-56535000D01*
X156098443Y-56535000D01*
X155977694Y-56559019D01*
X155863952Y-56606132D01*
X155761586Y-56674531D01*
X155674531Y-56761586D01*
X155606132Y-56863952D01*
X155559019Y-56977694D01*
X155535000Y-57098443D01*
X154986359Y-57098443D01*
X154983662Y-57089540D01*
X154918338Y-56967213D01*
X154918034Y-56966760D01*
X154786646Y-56942245D01*
X154368891Y-57360000D01*
X154291109Y-57360000D01*
X153941276Y-57010167D01*
X153918338Y-56967213D01*
X153918034Y-56966760D01*
X153893243Y-56962134D01*
X153873354Y-56942245D01*
X153830000Y-56950334D01*
X153786646Y-56942245D01*
X153766757Y-56962134D01*
X153741966Y-56966760D01*
X153718764Y-57010127D01*
X153368891Y-57360000D01*
X153291109Y-57360000D01*
X152941276Y-57010167D01*
X152918338Y-56967213D01*
X152918034Y-56966760D01*
X152893243Y-56962134D01*
X152873354Y-56942245D01*
X152830000Y-56950334D01*
X152786646Y-56942245D01*
X152766757Y-56962134D01*
X152741966Y-56966760D01*
X152718764Y-57010127D01*
X152368891Y-57360000D01*
X152291109Y-57360000D01*
X151873354Y-56942245D01*
X151741966Y-56966760D01*
X151676547Y-57089035D01*
X151636241Y-57221724D01*
X151622594Y-57359726D01*
X151019397Y-57359726D01*
X150983868Y-57273952D01*
X150918204Y-57175679D01*
X150935469Y-57158414D01*
X151003868Y-57056048D01*
X151050981Y-56942306D01*
X151075000Y-56821557D01*
X151075000Y-56816646D01*
X151912245Y-56816646D01*
X151920334Y-56860000D01*
X151912245Y-56903354D01*
X151932134Y-56923243D01*
X151936760Y-56948034D01*
X151980127Y-56971236D01*
X152330000Y-57321109D01*
X152679833Y-56971276D01*
X152722787Y-56948338D01*
X152723240Y-56948034D01*
X152727866Y-56923243D01*
X152747755Y-56903354D01*
X152739666Y-56860000D01*
X152747755Y-56816646D01*
X152912245Y-56816646D01*
X152920334Y-56860000D01*
X152912245Y-56903354D01*
X152932134Y-56923243D01*
X152936760Y-56948034D01*
X152980127Y-56971236D01*
X153330000Y-57321109D01*
X153679833Y-56971276D01*
X153722787Y-56948338D01*
X153723240Y-56948034D01*
X153727866Y-56923243D01*
X153747755Y-56903354D01*
X153739666Y-56860000D01*
X153747755Y-56816646D01*
X153912245Y-56816646D01*
X153920334Y-56860000D01*
X153912245Y-56903354D01*
X153932134Y-56923243D01*
X153936760Y-56948034D01*
X153980127Y-56971236D01*
X154330000Y-57321109D01*
X154679833Y-56971276D01*
X154722787Y-56948338D01*
X154723240Y-56948034D01*
X154727866Y-56923243D01*
X154747755Y-56903354D01*
X154739666Y-56860000D01*
X154747755Y-56816646D01*
X154727866Y-56796757D01*
X154723240Y-56771966D01*
X154679873Y-56748764D01*
X154330000Y-56398891D01*
X153980167Y-56748724D01*
X153937213Y-56771662D01*
X153936760Y-56771966D01*
X153932134Y-56796757D01*
X153912245Y-56816646D01*
X153747755Y-56816646D01*
X153727866Y-56796757D01*
X153723240Y-56771966D01*
X153679873Y-56748764D01*
X153330000Y-56398891D01*
X152980167Y-56748724D01*
X152937213Y-56771662D01*
X152936760Y-56771966D01*
X152932134Y-56796757D01*
X152912245Y-56816646D01*
X152747755Y-56816646D01*
X152727866Y-56796757D01*
X152723240Y-56771966D01*
X152679873Y-56748764D01*
X152330000Y-56398891D01*
X151980167Y-56748724D01*
X151937213Y-56771662D01*
X151936760Y-56771966D01*
X151932134Y-56796757D01*
X151912245Y-56816646D01*
X151075000Y-56816646D01*
X151075000Y-56698443D01*
X151050981Y-56577694D01*
X151005639Y-56468228D01*
X151053868Y-56396048D01*
X151068912Y-56359726D01*
X151622594Y-56359726D01*
X151636134Y-56497739D01*
X151676338Y-56630460D01*
X151741662Y-56752787D01*
X151741966Y-56753240D01*
X151873354Y-56777755D01*
X152291109Y-56360000D01*
X152368891Y-56360000D01*
X152718724Y-56709833D01*
X152741662Y-56752787D01*
X152741966Y-56753240D01*
X152766757Y-56757866D01*
X152786646Y-56777755D01*
X152830000Y-56769666D01*
X152873354Y-56777755D01*
X152893243Y-56757866D01*
X152918034Y-56753240D01*
X152941236Y-56709873D01*
X153291109Y-56360000D01*
X153368891Y-56360000D01*
X153718724Y-56709833D01*
X153741662Y-56752787D01*
X153741966Y-56753240D01*
X153766757Y-56757866D01*
X153786646Y-56777755D01*
X153830000Y-56769666D01*
X153873354Y-56777755D01*
X153893243Y-56757866D01*
X153918034Y-56753240D01*
X153941236Y-56709873D01*
X154291109Y-56360000D01*
X154368891Y-56360000D01*
X154786646Y-56777755D01*
X154918034Y-56753240D01*
X154983453Y-56630965D01*
X155023759Y-56498276D01*
X155037406Y-56360274D01*
X155023866Y-56222261D01*
X154983662Y-56089540D01*
X154918338Y-55967213D01*
X154918034Y-55966760D01*
X154786646Y-55942245D01*
X154368891Y-56360000D01*
X154291109Y-56360000D01*
X153941276Y-56010167D01*
X153918338Y-55967213D01*
X153918034Y-55966760D01*
X153893243Y-55962134D01*
X153873354Y-55942245D01*
X153830000Y-55950334D01*
X153786646Y-55942245D01*
X153766757Y-55962134D01*
X153741966Y-55966760D01*
X153718764Y-56010127D01*
X153368891Y-56360000D01*
X153291109Y-56360000D01*
X152941276Y-56010167D01*
X152918338Y-55967213D01*
X152918034Y-55966760D01*
X152893243Y-55962134D01*
X152873354Y-55942245D01*
X152830000Y-55950334D01*
X152786646Y-55942245D01*
X152766757Y-55962134D01*
X152741966Y-55966760D01*
X152718764Y-56010127D01*
X152368891Y-56360000D01*
X152291109Y-56360000D01*
X151873354Y-55942245D01*
X151741966Y-55966760D01*
X151676547Y-56089035D01*
X151636241Y-56221724D01*
X151622594Y-56359726D01*
X151068912Y-56359726D01*
X151100981Y-56282306D01*
X151125000Y-56161557D01*
X151125000Y-56038443D01*
X151100981Y-55917694D01*
X151095042Y-55903354D01*
X151912245Y-55903354D01*
X152330000Y-56321109D01*
X152747755Y-55903354D01*
X152912245Y-55903354D01*
X153330000Y-56321109D01*
X153747755Y-55903354D01*
X153912245Y-55903354D01*
X154330000Y-56321109D01*
X154747755Y-55903354D01*
X154735644Y-55838443D01*
X158975000Y-55838443D01*
X158975000Y-55961557D01*
X158999019Y-56082306D01*
X159046132Y-56196048D01*
X159065477Y-56225000D01*
X159046132Y-56253952D01*
X158999019Y-56367694D01*
X158975000Y-56488443D01*
X158975000Y-56611557D01*
X158999019Y-56732306D01*
X159046132Y-56846048D01*
X159114531Y-56948414D01*
X159201586Y-57035469D01*
X159303952Y-57103868D01*
X159417694Y-57150981D01*
X159538443Y-57175000D01*
X159661557Y-57175000D01*
X159782306Y-57150981D01*
X159896048Y-57103868D01*
X159925000Y-57084523D01*
X159953952Y-57103868D01*
X160067694Y-57150981D01*
X160188443Y-57175000D01*
X160311557Y-57175000D01*
X160432306Y-57150981D01*
X160546048Y-57103868D01*
X160648414Y-57035469D01*
X160735469Y-56948414D01*
X160803868Y-56846048D01*
X160850981Y-56732306D01*
X160875000Y-56611557D01*
X160875000Y-56563443D01*
X165800000Y-56563443D01*
X165800000Y-56686557D01*
X165824019Y-56807306D01*
X165871132Y-56921048D01*
X165939531Y-57023414D01*
X165980788Y-57064671D01*
X165921132Y-57153952D01*
X165874019Y-57267694D01*
X165850000Y-57388443D01*
X165850000Y-57511557D01*
X165874019Y-57632306D01*
X165921132Y-57746048D01*
X165989531Y-57848414D01*
X166076586Y-57935469D01*
X166178952Y-58003868D01*
X166292694Y-58050981D01*
X166413443Y-58075000D01*
X166536557Y-58075000D01*
X166657306Y-58050981D01*
X166771048Y-58003868D01*
X166873414Y-57935469D01*
X166960469Y-57848414D01*
X167028868Y-57746048D01*
X167075981Y-57632306D01*
X167100000Y-57511557D01*
X167100000Y-57388443D01*
X167075981Y-57267694D01*
X167028868Y-57153952D01*
X166960469Y-57051586D01*
X166919212Y-57010329D01*
X166978868Y-56921048D01*
X167025981Y-56807306D01*
X167050000Y-56686557D01*
X167050000Y-56563443D01*
X167025981Y-56442694D01*
X166978868Y-56328952D01*
X166910469Y-56226586D01*
X166823414Y-56139531D01*
X166721048Y-56071132D01*
X166607306Y-56024019D01*
X166486557Y-56000000D01*
X166363443Y-56000000D01*
X166242694Y-56024019D01*
X166128952Y-56071132D01*
X166026586Y-56139531D01*
X165939531Y-56226586D01*
X165871132Y-56328952D01*
X165824019Y-56442694D01*
X165800000Y-56563443D01*
X160875000Y-56563443D01*
X160875000Y-56488443D01*
X160850981Y-56367694D01*
X160803868Y-56253952D01*
X160784523Y-56225000D01*
X160803868Y-56196048D01*
X160850981Y-56082306D01*
X160875000Y-55961557D01*
X160875000Y-55838443D01*
X160850981Y-55717694D01*
X160803868Y-55603952D01*
X160735469Y-55501586D01*
X160648414Y-55414531D01*
X160546048Y-55346132D01*
X160432306Y-55299019D01*
X160311557Y-55275000D01*
X160188443Y-55275000D01*
X160067694Y-55299019D01*
X159953952Y-55346132D01*
X159925000Y-55365477D01*
X159896048Y-55346132D01*
X159782306Y-55299019D01*
X159661557Y-55275000D01*
X159538443Y-55275000D01*
X159417694Y-55299019D01*
X159303952Y-55346132D01*
X159201586Y-55414531D01*
X159114531Y-55501586D01*
X159046132Y-55603952D01*
X158999019Y-55717694D01*
X158975000Y-55838443D01*
X154735644Y-55838443D01*
X154723240Y-55771966D01*
X154600965Y-55706547D01*
X154468276Y-55666241D01*
X154330274Y-55652594D01*
X154192261Y-55666134D01*
X154059540Y-55706338D01*
X153937213Y-55771662D01*
X153936760Y-55771966D01*
X153912245Y-55903354D01*
X153747755Y-55903354D01*
X153723240Y-55771966D01*
X153600965Y-55706547D01*
X153468276Y-55666241D01*
X153330274Y-55652594D01*
X153192261Y-55666134D01*
X153059540Y-55706338D01*
X152937213Y-55771662D01*
X152936760Y-55771966D01*
X152912245Y-55903354D01*
X152747755Y-55903354D01*
X152723240Y-55771966D01*
X152600965Y-55706547D01*
X152468276Y-55666241D01*
X152330274Y-55652594D01*
X152192261Y-55666134D01*
X152059540Y-55706338D01*
X151937213Y-55771662D01*
X151936760Y-55771966D01*
X151912245Y-55903354D01*
X151095042Y-55903354D01*
X151053868Y-55803952D01*
X151051227Y-55800000D01*
X151053868Y-55796048D01*
X151100981Y-55682306D01*
X151125000Y-55561557D01*
X151125000Y-55438443D01*
X151100981Y-55317694D01*
X151053868Y-55203952D01*
X150985469Y-55101586D01*
X150898414Y-55014531D01*
X150796048Y-54946132D01*
X150769173Y-54935000D01*
X150796048Y-54923868D01*
X150898414Y-54855469D01*
X150985469Y-54768414D01*
X151015000Y-54724218D01*
X151044531Y-54768414D01*
X151131586Y-54855469D01*
X151233952Y-54923868D01*
X151347694Y-54970981D01*
X151468443Y-54995000D01*
X151591557Y-54995000D01*
X151712306Y-54970981D01*
X151815000Y-54928444D01*
X151917694Y-54970981D01*
X152038443Y-54995000D01*
X152161557Y-54995000D01*
X152282306Y-54970981D01*
X152396048Y-54923868D01*
X152450000Y-54887818D01*
X152503952Y-54923868D01*
X152617694Y-54970981D01*
X152738443Y-54995000D01*
X152861557Y-54995000D01*
X152982306Y-54970981D01*
X153096048Y-54923868D01*
X153100000Y-54921227D01*
X153103952Y-54923868D01*
X153217694Y-54970981D01*
X153338443Y-54995000D01*
X153461557Y-54995000D01*
X153582306Y-54970981D01*
X153696048Y-54923868D01*
X153750000Y-54887818D01*
X153803952Y-54923868D01*
X153917694Y-54970981D01*
X154038443Y-54995000D01*
X154161557Y-54995000D01*
X154282306Y-54970981D01*
X154396048Y-54923868D01*
X154498414Y-54855469D01*
X154585469Y-54768414D01*
X154653868Y-54666048D01*
X154700981Y-54552306D01*
X154725000Y-54431557D01*
X154725000Y-54388443D01*
X154825000Y-54388443D01*
X154825000Y-54511557D01*
X154849019Y-54632306D01*
X154896132Y-54746048D01*
X154964531Y-54848414D01*
X155051586Y-54935469D01*
X155153952Y-55003868D01*
X155267694Y-55050981D01*
X155388443Y-55075000D01*
X155511557Y-55075000D01*
X155528338Y-55071662D01*
X155525000Y-55088443D01*
X155525000Y-55211557D01*
X155549019Y-55332306D01*
X155596132Y-55446048D01*
X155664531Y-55548414D01*
X155751586Y-55635469D01*
X155853952Y-55703868D01*
X155967694Y-55750981D01*
X156088443Y-55775000D01*
X156211557Y-55775000D01*
X156332306Y-55750981D01*
X156446048Y-55703868D01*
X156548414Y-55635469D01*
X156635469Y-55548414D01*
X156703868Y-55446048D01*
X156750981Y-55332306D01*
X156775000Y-55211557D01*
X156775000Y-55088443D01*
X156750981Y-54967694D01*
X156703868Y-54853952D01*
X156635469Y-54751586D01*
X156548414Y-54664531D01*
X156446048Y-54596132D01*
X156332306Y-54549019D01*
X156211557Y-54525000D01*
X156088443Y-54525000D01*
X156071662Y-54528338D01*
X156075000Y-54511557D01*
X156075000Y-54388443D01*
X156050981Y-54267694D01*
X156038865Y-54238443D01*
X165575000Y-54238443D01*
X165575000Y-54361557D01*
X165599019Y-54482306D01*
X165646132Y-54596048D01*
X165714531Y-54698414D01*
X165801586Y-54785469D01*
X165903952Y-54853868D01*
X166017694Y-54900981D01*
X166138443Y-54925000D01*
X166261557Y-54925000D01*
X166382306Y-54900981D01*
X166496048Y-54853868D01*
X166598414Y-54785469D01*
X166685469Y-54698414D01*
X166753868Y-54596048D01*
X166800981Y-54482306D01*
X166825000Y-54361557D01*
X166825000Y-54238443D01*
X166817535Y-54200915D01*
X166817694Y-54200981D01*
X166938443Y-54225000D01*
X167061557Y-54225000D01*
X167182306Y-54200981D01*
X167266014Y-54166308D01*
X167224019Y-54267694D01*
X167200000Y-54388443D01*
X167200000Y-54511557D01*
X167224019Y-54632306D01*
X167271132Y-54746048D01*
X167339531Y-54848414D01*
X167426586Y-54935469D01*
X167528952Y-55003868D01*
X167642694Y-55050981D01*
X167763443Y-55075000D01*
X167886557Y-55075000D01*
X168007306Y-55050981D01*
X168121048Y-55003868D01*
X168223414Y-54935469D01*
X168310469Y-54848414D01*
X168378868Y-54746048D01*
X168425981Y-54632306D01*
X168450000Y-54511557D01*
X168450000Y-54388443D01*
X168425981Y-54267694D01*
X168378868Y-54153952D01*
X168310469Y-54051586D01*
X168223414Y-53964531D01*
X168121048Y-53896132D01*
X168007306Y-53849019D01*
X167886557Y-53825000D01*
X167763443Y-53825000D01*
X167642694Y-53849019D01*
X167558986Y-53883692D01*
X167600981Y-53782306D01*
X167625000Y-53661557D01*
X167625000Y-53538443D01*
X167600981Y-53417694D01*
X167557800Y-53313443D01*
X168125000Y-53313443D01*
X168125000Y-53436557D01*
X168149019Y-53557306D01*
X168196132Y-53671048D01*
X168264531Y-53773414D01*
X168351586Y-53860469D01*
X168453952Y-53928868D01*
X168567694Y-53975981D01*
X168688443Y-54000000D01*
X168811557Y-54000000D01*
X168932306Y-53975981D01*
X169046048Y-53928868D01*
X169148414Y-53860469D01*
X169235469Y-53773414D01*
X169303868Y-53671048D01*
X169350981Y-53557306D01*
X169375000Y-53436557D01*
X169375000Y-53313443D01*
X169350981Y-53192694D01*
X169303868Y-53078952D01*
X169235469Y-52976586D01*
X169148414Y-52889531D01*
X169046048Y-52821132D01*
X168932306Y-52774019D01*
X168811557Y-52750000D01*
X168688443Y-52750000D01*
X168567694Y-52774019D01*
X168453952Y-52821132D01*
X168351586Y-52889531D01*
X168264531Y-52976586D01*
X168196132Y-53078952D01*
X168149019Y-53192694D01*
X168125000Y-53313443D01*
X167557800Y-53313443D01*
X167553868Y-53303952D01*
X167485469Y-53201586D01*
X167398414Y-53114531D01*
X167296048Y-53046132D01*
X167182306Y-52999019D01*
X167061557Y-52975000D01*
X166938443Y-52975000D01*
X166817694Y-52999019D01*
X166703952Y-53046132D01*
X166601586Y-53114531D01*
X166514531Y-53201586D01*
X166446132Y-53303952D01*
X166399019Y-53417694D01*
X166375000Y-53538443D01*
X166375000Y-53661557D01*
X166382465Y-53699085D01*
X166382306Y-53699019D01*
X166261557Y-53675000D01*
X166138443Y-53675000D01*
X166017694Y-53699019D01*
X165903952Y-53746132D01*
X165801586Y-53814531D01*
X165714531Y-53901586D01*
X165646132Y-54003952D01*
X165599019Y-54117694D01*
X165575000Y-54238443D01*
X156038865Y-54238443D01*
X156003868Y-54153952D01*
X155935469Y-54051586D01*
X155848414Y-53964531D01*
X155746048Y-53896132D01*
X155632306Y-53849019D01*
X155511557Y-53825000D01*
X155388443Y-53825000D01*
X155267694Y-53849019D01*
X155153952Y-53896132D01*
X155051586Y-53964531D01*
X154964531Y-54051586D01*
X154896132Y-54153952D01*
X154849019Y-54267694D01*
X154825000Y-54388443D01*
X154725000Y-54388443D01*
X154725000Y-54308443D01*
X154700981Y-54187694D01*
X154653868Y-54073952D01*
X154585469Y-53971586D01*
X154550000Y-53936117D01*
X154550000Y-53372094D01*
X154552176Y-53350000D01*
X154550000Y-53327906D01*
X154550000Y-53327895D01*
X154543489Y-53261785D01*
X154517757Y-53176959D01*
X154484388Y-53114531D01*
X154475971Y-53098783D01*
X154433828Y-53047432D01*
X154433824Y-53047428D01*
X154419737Y-53030263D01*
X154402571Y-53016176D01*
X154106395Y-52720000D01*
X154937906Y-52720000D01*
X154960000Y-52722176D01*
X154982094Y-52720000D01*
X154982105Y-52720000D01*
X155048215Y-52713489D01*
X155133041Y-52687757D01*
X155211216Y-52645971D01*
X155279737Y-52589737D01*
X155293828Y-52572567D01*
X155541395Y-52325000D01*
X155591557Y-52325000D01*
X155712306Y-52300981D01*
X155826048Y-52253868D01*
X155928414Y-52185469D01*
X155965000Y-52148883D01*
X156001586Y-52185469D01*
X156103952Y-52253868D01*
X156217694Y-52300981D01*
X156338443Y-52325000D01*
X156461557Y-52325000D01*
X156582306Y-52300981D01*
X156696048Y-52253868D01*
X156798414Y-52185469D01*
X156885469Y-52098414D01*
X156953868Y-51996048D01*
X157000981Y-51882306D01*
X157025000Y-51761557D01*
X157025000Y-51638443D01*
X157000981Y-51517694D01*
X156953868Y-51403952D01*
X156885469Y-51301586D01*
X156798414Y-51214531D01*
X156739252Y-51175000D01*
X172575001Y-51175000D01*
X172575000Y-77825000D01*
X169608883Y-77825000D01*
X169635469Y-77798414D01*
X169703868Y-77696048D01*
X169750981Y-77582306D01*
X169775000Y-77461557D01*
X169775000Y-77338443D01*
X169750981Y-77217694D01*
X169703868Y-77103952D01*
X169635469Y-77001586D01*
X169548414Y-76914531D01*
X169446048Y-76846132D01*
X169332306Y-76799019D01*
X169211557Y-76775000D01*
X169088443Y-76775000D01*
X168967694Y-76799019D01*
X168853952Y-76846132D01*
X168751586Y-76914531D01*
X168664531Y-77001586D01*
X168596132Y-77103952D01*
X168549019Y-77217694D01*
X168525000Y-77338443D01*
X168525000Y-77461557D01*
X168549019Y-77582306D01*
X168596132Y-77696048D01*
X168664531Y-77798414D01*
X168691117Y-77825000D01*
X168164203Y-77825000D01*
X168208414Y-77795459D01*
X168295469Y-77708404D01*
X168363868Y-77606038D01*
X168410981Y-77492296D01*
X168435000Y-77371547D01*
X168435000Y-77248433D01*
X168410981Y-77127684D01*
X168363868Y-77013942D01*
X168295469Y-76911576D01*
X168208414Y-76824521D01*
X168106048Y-76756122D01*
X167992306Y-76709009D01*
X167871557Y-76684990D01*
X167748443Y-76684990D01*
X167627694Y-76709009D01*
X167513952Y-76756122D01*
X167411586Y-76824521D01*
X167324531Y-76911576D01*
X167256132Y-77013942D01*
X167209019Y-77127684D01*
X167185000Y-77248433D01*
X167185000Y-77371547D01*
X167209019Y-77492296D01*
X167256132Y-77606038D01*
X167324531Y-77708404D01*
X167411586Y-77795459D01*
X167455797Y-77825000D01*
X145925000Y-77825000D01*
X145925000Y-76736033D01*
X163575000Y-76736033D01*
X163575000Y-76859147D01*
X163599019Y-76979896D01*
X163646132Y-77093638D01*
X163714531Y-77196004D01*
X163801586Y-77283059D01*
X163903952Y-77351458D01*
X164017694Y-77398571D01*
X164138443Y-77422590D01*
X164261557Y-77422590D01*
X164382306Y-77398571D01*
X164496048Y-77351458D01*
X164598414Y-77283059D01*
X164685469Y-77196004D01*
X164753868Y-77093638D01*
X164800981Y-76979896D01*
X164825000Y-76859147D01*
X164825000Y-76736033D01*
X164800981Y-76615284D01*
X164753868Y-76501542D01*
X164685469Y-76399176D01*
X164598414Y-76312121D01*
X164496048Y-76243722D01*
X164382306Y-76196609D01*
X164261557Y-76172590D01*
X164138443Y-76172590D01*
X164017694Y-76196609D01*
X163903952Y-76243722D01*
X163801586Y-76312121D01*
X163714531Y-76399176D01*
X163646132Y-76501542D01*
X163599019Y-76615284D01*
X163575000Y-76736033D01*
X145925000Y-76736033D01*
X145925000Y-75385989D01*
X145992855Y-75453844D01*
X146177113Y-75576962D01*
X146381850Y-75661767D01*
X146599197Y-75705000D01*
X146820803Y-75705000D01*
X147038150Y-75661767D01*
X147242887Y-75576962D01*
X147427145Y-75453844D01*
X147428210Y-75452779D01*
X147446132Y-75496048D01*
X147514531Y-75598414D01*
X147601586Y-75685469D01*
X147703952Y-75753868D01*
X147817694Y-75800981D01*
X147938443Y-75825000D01*
X148061557Y-75825000D01*
X148182306Y-75800981D01*
X148296048Y-75753868D01*
X148398414Y-75685469D01*
X148485469Y-75598414D01*
X148553868Y-75496048D01*
X148600232Y-75384115D01*
X148601586Y-75385469D01*
X148703952Y-75453868D01*
X148817694Y-75500981D01*
X148938443Y-75525000D01*
X149061557Y-75525000D01*
X149182306Y-75500981D01*
X149296048Y-75453868D01*
X149398414Y-75385469D01*
X149485469Y-75298414D01*
X149513295Y-75256769D01*
X149574531Y-75348414D01*
X149661586Y-75435469D01*
X149763952Y-75503868D01*
X149877694Y-75550981D01*
X149998443Y-75575000D01*
X150115698Y-75575000D01*
X150116132Y-75576048D01*
X150184531Y-75678414D01*
X150271586Y-75765469D01*
X150373952Y-75833868D01*
X150487694Y-75880981D01*
X150608443Y-75905000D01*
X150731557Y-75905000D01*
X150852306Y-75880981D01*
X150966048Y-75833868D01*
X151068414Y-75765469D01*
X151155469Y-75678414D01*
X151223868Y-75576048D01*
X151256122Y-75498179D01*
X151292306Y-75490981D01*
X151406048Y-75443868D01*
X151445000Y-75417841D01*
X151445000Y-75481557D01*
X151469019Y-75602306D01*
X151516132Y-75716048D01*
X151584531Y-75818414D01*
X151671586Y-75905469D01*
X151773952Y-75973868D01*
X151887694Y-76020981D01*
X152008443Y-76045000D01*
X152131557Y-76045000D01*
X152252306Y-76020981D01*
X152366048Y-75973868D01*
X152468414Y-75905469D01*
X152555469Y-75818414D01*
X152623868Y-75716048D01*
X152635302Y-75688443D01*
X154375000Y-75688443D01*
X154375000Y-75811557D01*
X154399019Y-75932306D01*
X154446132Y-76046048D01*
X154514531Y-76148414D01*
X154601586Y-76235469D01*
X154703952Y-76303868D01*
X154817694Y-76350981D01*
X154938443Y-76375000D01*
X155061557Y-76375000D01*
X155182306Y-76350981D01*
X155296048Y-76303868D01*
X155398414Y-76235469D01*
X155485469Y-76148414D01*
X155553868Y-76046048D01*
X155600981Y-75932306D01*
X155625000Y-75811557D01*
X155625000Y-75688443D01*
X158825000Y-75688443D01*
X158825000Y-75811557D01*
X158849019Y-75932306D01*
X158896132Y-76046048D01*
X158964531Y-76148414D01*
X159051586Y-76235469D01*
X159153952Y-76303868D01*
X159267694Y-76350981D01*
X159388443Y-76375000D01*
X159511557Y-76375000D01*
X159632306Y-76350981D01*
X159746048Y-76303868D01*
X159848414Y-76235469D01*
X159935469Y-76148414D01*
X160003868Y-76046048D01*
X160035249Y-75970287D01*
X160132306Y-75950981D01*
X160246048Y-75903868D01*
X160348414Y-75835469D01*
X160435469Y-75748414D01*
X160503868Y-75646048D01*
X160535249Y-75570287D01*
X160632306Y-75550981D01*
X160746048Y-75503868D01*
X160848414Y-75435469D01*
X160935469Y-75348414D01*
X161003868Y-75246048D01*
X161012679Y-75224777D01*
X161132306Y-75200981D01*
X161246048Y-75153868D01*
X161348414Y-75085469D01*
X161435469Y-74998414D01*
X161503868Y-74896048D01*
X161512679Y-74874777D01*
X161632306Y-74850981D01*
X161746048Y-74803868D01*
X161848414Y-74735469D01*
X161935469Y-74648414D01*
X162003868Y-74546048D01*
X162035249Y-74470287D01*
X162132306Y-74450981D01*
X162246048Y-74403868D01*
X162348414Y-74335469D01*
X162435469Y-74248414D01*
X162503868Y-74146048D01*
X162535249Y-74070287D01*
X162632306Y-74050981D01*
X162746048Y-74003868D01*
X162848414Y-73935469D01*
X162935469Y-73848414D01*
X163003868Y-73746048D01*
X163035249Y-73670287D01*
X163132306Y-73650981D01*
X163246048Y-73603868D01*
X163348414Y-73535469D01*
X163435469Y-73448414D01*
X163503868Y-73346048D01*
X163550981Y-73232306D01*
X163575000Y-73111557D01*
X163575000Y-72988443D01*
X163550981Y-72867694D01*
X163535015Y-72829148D01*
X163596048Y-72803868D01*
X163698414Y-72735469D01*
X163785469Y-72648414D01*
X163853868Y-72546048D01*
X163900981Y-72432306D01*
X163925000Y-72311557D01*
X163925000Y-72188443D01*
X163900981Y-72067694D01*
X163853868Y-71953952D01*
X163785469Y-71851586D01*
X163698414Y-71764531D01*
X163596048Y-71696132D01*
X163482306Y-71649019D01*
X163361557Y-71625000D01*
X163238443Y-71625000D01*
X163117694Y-71649019D01*
X163003952Y-71696132D01*
X162901586Y-71764531D01*
X162814531Y-71851586D01*
X162746132Y-71953952D01*
X162699019Y-72067694D01*
X162675000Y-72188443D01*
X162675000Y-72311557D01*
X162699019Y-72432306D01*
X162714985Y-72470852D01*
X162653952Y-72496132D01*
X162551586Y-72564531D01*
X162464531Y-72651586D01*
X162396132Y-72753952D01*
X162364751Y-72829713D01*
X162267694Y-72849019D01*
X162153952Y-72896132D01*
X162051586Y-72964531D01*
X161964531Y-73051586D01*
X161896132Y-73153952D01*
X161864751Y-73229713D01*
X161767694Y-73249019D01*
X161653952Y-73296132D01*
X161551586Y-73364531D01*
X161464531Y-73451586D01*
X161396132Y-73553952D01*
X161364751Y-73629713D01*
X161267694Y-73649019D01*
X161153952Y-73696132D01*
X161051586Y-73764531D01*
X160964531Y-73851586D01*
X160896132Y-73953952D01*
X160887321Y-73975223D01*
X160767694Y-73999019D01*
X160653952Y-74046132D01*
X160551586Y-74114531D01*
X160464531Y-74201586D01*
X160396132Y-74303952D01*
X160387321Y-74325223D01*
X160267694Y-74349019D01*
X160153952Y-74396132D01*
X160051586Y-74464531D01*
X159964531Y-74551586D01*
X159896132Y-74653952D01*
X159864751Y-74729713D01*
X159767694Y-74749019D01*
X159653952Y-74796132D01*
X159551586Y-74864531D01*
X159464531Y-74951586D01*
X159396132Y-75053952D01*
X159364751Y-75129713D01*
X159267694Y-75149019D01*
X159153952Y-75196132D01*
X159051586Y-75264531D01*
X158964531Y-75351586D01*
X158896132Y-75453952D01*
X158849019Y-75567694D01*
X158825000Y-75688443D01*
X155625000Y-75688443D01*
X155600981Y-75567694D01*
X155553868Y-75453952D01*
X155485469Y-75351586D01*
X155398414Y-75264531D01*
X155296048Y-75196132D01*
X155182306Y-75149019D01*
X155061557Y-75125000D01*
X154938443Y-75125000D01*
X154817694Y-75149019D01*
X154703952Y-75196132D01*
X154601586Y-75264531D01*
X154514531Y-75351586D01*
X154446132Y-75453952D01*
X154399019Y-75567694D01*
X154375000Y-75688443D01*
X152635302Y-75688443D01*
X152670981Y-75602306D01*
X152695000Y-75481557D01*
X152695000Y-75358443D01*
X152670981Y-75237694D01*
X152623868Y-75123952D01*
X152555469Y-75021586D01*
X152468414Y-74934531D01*
X152366048Y-74866132D01*
X152252306Y-74819019D01*
X152131557Y-74795000D01*
X152008443Y-74795000D01*
X151887694Y-74819019D01*
X151773952Y-74866132D01*
X151735000Y-74892159D01*
X151735000Y-74828443D01*
X151710981Y-74707694D01*
X151663868Y-74593952D01*
X151595469Y-74491586D01*
X151508414Y-74404531D01*
X151406048Y-74336132D01*
X151292306Y-74289019D01*
X151171557Y-74265000D01*
X151048443Y-74265000D01*
X150927694Y-74289019D01*
X150813952Y-74336132D01*
X150711586Y-74404531D01*
X150624531Y-74491586D01*
X150564955Y-74580748D01*
X150545469Y-74551586D01*
X150458414Y-74464531D01*
X150356048Y-74396132D01*
X150242306Y-74349019D01*
X150121557Y-74325000D01*
X149998443Y-74325000D01*
X149877694Y-74349019D01*
X149763952Y-74396132D01*
X149661586Y-74464531D01*
X149574531Y-74551586D01*
X149546705Y-74593231D01*
X149485469Y-74501586D01*
X149398414Y-74414531D01*
X149296048Y-74346132D01*
X149182306Y-74299019D01*
X149061557Y-74275000D01*
X148938443Y-74275000D01*
X148817694Y-74299019D01*
X148703952Y-74346132D01*
X148601586Y-74414531D01*
X148514531Y-74501586D01*
X148446132Y-74603952D01*
X148399768Y-74715885D01*
X148398414Y-74714531D01*
X148296048Y-74646132D01*
X148182306Y-74599019D01*
X148061557Y-74575000D01*
X147938443Y-74575000D01*
X147835000Y-74595577D01*
X147835000Y-74469197D01*
X147791767Y-74251850D01*
X147706962Y-74047113D01*
X147583844Y-73862855D01*
X147427145Y-73706156D01*
X147242887Y-73583038D01*
X147038150Y-73498233D01*
X146820803Y-73455000D01*
X146599197Y-73455000D01*
X146381850Y-73498233D01*
X146177113Y-73583038D01*
X145992855Y-73706156D01*
X145925000Y-73774011D01*
X145925000Y-73358443D01*
X148825000Y-73358443D01*
X148825000Y-73481557D01*
X148849019Y-73602306D01*
X148896132Y-73716048D01*
X148964531Y-73818414D01*
X149051586Y-73905469D01*
X149153952Y-73973868D01*
X149267694Y-74020981D01*
X149388443Y-74045000D01*
X149511557Y-74045000D01*
X149632306Y-74020981D01*
X149746048Y-73973868D01*
X149848414Y-73905469D01*
X149935469Y-73818414D01*
X150003868Y-73716048D01*
X150050981Y-73602306D01*
X150075000Y-73481557D01*
X150075000Y-73358443D01*
X150050981Y-73237694D01*
X150003868Y-73123952D01*
X149935469Y-73021586D01*
X149848414Y-72934531D01*
X149746048Y-72866132D01*
X149632306Y-72819019D01*
X149511557Y-72795000D01*
X149388443Y-72795000D01*
X149267694Y-72819019D01*
X149153952Y-72866132D01*
X149051586Y-72934531D01*
X148964531Y-73021586D01*
X148896132Y-73123952D01*
X148849019Y-73237694D01*
X148825000Y-73358443D01*
X145925000Y-73358443D01*
X145925000Y-72803258D01*
X146025633Y-72803258D01*
X146095164Y-72973035D01*
X146281201Y-73075824D01*
X146483715Y-73140344D01*
X146694926Y-73164116D01*
X146906716Y-73146226D01*
X147110947Y-73087361D01*
X147299769Y-72989784D01*
X147324836Y-72973035D01*
X147394367Y-72803258D01*
X146710000Y-72118891D01*
X146025633Y-72803258D01*
X145925000Y-72803258D01*
X145925000Y-72739081D01*
X145986742Y-72764367D01*
X146671109Y-72080000D01*
X146748891Y-72080000D01*
X147433258Y-72764367D01*
X147603035Y-72694836D01*
X147705824Y-72508799D01*
X147770344Y-72306285D01*
X147794116Y-72095074D01*
X147776226Y-71883284D01*
X147717361Y-71679053D01*
X147619784Y-71490231D01*
X147603035Y-71465164D01*
X147433258Y-71395633D01*
X146748891Y-72080000D01*
X146671109Y-72080000D01*
X145986742Y-71395633D01*
X145925000Y-71420919D01*
X145925000Y-71356742D01*
X146025633Y-71356742D01*
X146710000Y-72041109D01*
X147394367Y-71356742D01*
X147324836Y-71186965D01*
X147138799Y-71084176D01*
X146936285Y-71019656D01*
X146725074Y-70995884D01*
X146513284Y-71013774D01*
X146309053Y-71072639D01*
X146120231Y-71170216D01*
X146095164Y-71186965D01*
X146025633Y-71356742D01*
X145925000Y-71356742D01*
X145925000Y-70858443D01*
X147925000Y-70858443D01*
X147925000Y-70981557D01*
X147949019Y-71102306D01*
X147996132Y-71216048D01*
X148064531Y-71318414D01*
X148151586Y-71405469D01*
X148253952Y-71473868D01*
X148367694Y-71520981D01*
X148488443Y-71545000D01*
X148611557Y-71545000D01*
X148732306Y-71520981D01*
X148846048Y-71473868D01*
X148948414Y-71405469D01*
X149035469Y-71318414D01*
X149103868Y-71216048D01*
X149150981Y-71102306D01*
X149175000Y-70981557D01*
X149175000Y-70858443D01*
X149173011Y-70848443D01*
X150325000Y-70848443D01*
X150325000Y-70971557D01*
X150349019Y-71092306D01*
X150396132Y-71206048D01*
X150464531Y-71308414D01*
X150551586Y-71395469D01*
X150653952Y-71463868D01*
X150767694Y-71510981D01*
X150888443Y-71535000D01*
X151011557Y-71535000D01*
X151132306Y-71510981D01*
X151246048Y-71463868D01*
X151310000Y-71421136D01*
X151373952Y-71463868D01*
X151487694Y-71510981D01*
X151605000Y-71534315D01*
X151605000Y-71561557D01*
X151629019Y-71682306D01*
X151676132Y-71796048D01*
X151744531Y-71898414D01*
X151831586Y-71985469D01*
X151850180Y-71997893D01*
X151846132Y-72003952D01*
X151799019Y-72117694D01*
X151775000Y-72238443D01*
X151775000Y-72361557D01*
X151799019Y-72482306D01*
X151846132Y-72596048D01*
X151903785Y-72682332D01*
X151894531Y-72691586D01*
X151826132Y-72793952D01*
X151779019Y-72907694D01*
X151755000Y-73028443D01*
X151755000Y-73151557D01*
X151779019Y-73272306D01*
X151826132Y-73386048D01*
X151894531Y-73488414D01*
X151981586Y-73575469D01*
X152083952Y-73643868D01*
X152197694Y-73690981D01*
X152318443Y-73715000D01*
X152441557Y-73715000D01*
X152562306Y-73690981D01*
X152676048Y-73643868D01*
X152778414Y-73575469D01*
X152815440Y-73538443D01*
X154475000Y-73538443D01*
X154475000Y-73661557D01*
X154499019Y-73782306D01*
X154546132Y-73896048D01*
X154614531Y-73998414D01*
X154701586Y-74085469D01*
X154803952Y-74153868D01*
X154917694Y-74200981D01*
X155038443Y-74225000D01*
X155161557Y-74225000D01*
X155282306Y-74200981D01*
X155396048Y-74153868D01*
X155419133Y-74138443D01*
X156725000Y-74138443D01*
X156725000Y-74261557D01*
X156749019Y-74382306D01*
X156796132Y-74496048D01*
X156864531Y-74598414D01*
X156951586Y-74685469D01*
X157053952Y-74753868D01*
X157167694Y-74800981D01*
X157288443Y-74825000D01*
X157411557Y-74825000D01*
X157532306Y-74800981D01*
X157646048Y-74753868D01*
X157748414Y-74685469D01*
X157835469Y-74598414D01*
X157903868Y-74496048D01*
X157950981Y-74382306D01*
X157964474Y-74314474D01*
X158032306Y-74300981D01*
X158146048Y-74253868D01*
X158248414Y-74185469D01*
X158335469Y-74098414D01*
X158403868Y-73996048D01*
X158450981Y-73882306D01*
X158464474Y-73814474D01*
X158532306Y-73800981D01*
X158646048Y-73753868D01*
X158748414Y-73685469D01*
X158835469Y-73598414D01*
X158903868Y-73496048D01*
X158950981Y-73382306D01*
X158964474Y-73314474D01*
X159032306Y-73300981D01*
X159146048Y-73253868D01*
X159248414Y-73185469D01*
X159335469Y-73098414D01*
X159403868Y-72996048D01*
X159450981Y-72882306D01*
X159462414Y-72824830D01*
X159582306Y-72800981D01*
X159696048Y-72753868D01*
X159798414Y-72685469D01*
X159885469Y-72598414D01*
X159953868Y-72496048D01*
X160000981Y-72382306D01*
X160014474Y-72314474D01*
X160082306Y-72300981D01*
X160196048Y-72253868D01*
X160298414Y-72185469D01*
X160385469Y-72098414D01*
X160453868Y-71996048D01*
X160500981Y-71882306D01*
X160514474Y-71814474D01*
X160582306Y-71800981D01*
X160696048Y-71753868D01*
X160798414Y-71685469D01*
X160885469Y-71598414D01*
X160953868Y-71496048D01*
X161000981Y-71382306D01*
X161014474Y-71314474D01*
X161082306Y-71300981D01*
X161196048Y-71253868D01*
X161298414Y-71185469D01*
X161385469Y-71098414D01*
X161453868Y-70996048D01*
X161500981Y-70882306D01*
X161525000Y-70761557D01*
X161525000Y-70638443D01*
X161500981Y-70517694D01*
X161453868Y-70403952D01*
X161385469Y-70301586D01*
X161298414Y-70214531D01*
X161259371Y-70188443D01*
X162525000Y-70188443D01*
X162525000Y-70311557D01*
X162549019Y-70432306D01*
X162596132Y-70546048D01*
X162664531Y-70648414D01*
X162751586Y-70735469D01*
X162853952Y-70803868D01*
X162967694Y-70850981D01*
X163018675Y-70861122D01*
X163027382Y-70904896D01*
X163074495Y-71018638D01*
X163142894Y-71121004D01*
X163229949Y-71208059D01*
X163332315Y-71276458D01*
X163446057Y-71323571D01*
X163566806Y-71347590D01*
X163689920Y-71347590D01*
X163810669Y-71323571D01*
X163924411Y-71276458D01*
X164026777Y-71208059D01*
X164113832Y-71121004D01*
X164182231Y-71018638D01*
X164229344Y-70904896D01*
X164253363Y-70784147D01*
X164253363Y-70661033D01*
X164229344Y-70540284D01*
X164182231Y-70426542D01*
X164113832Y-70324176D01*
X164026777Y-70237121D01*
X163924411Y-70168722D01*
X163810669Y-70121609D01*
X163759688Y-70111468D01*
X163750981Y-70067694D01*
X163738865Y-70038443D01*
X168175000Y-70038443D01*
X168175000Y-70161557D01*
X168199019Y-70282306D01*
X168246132Y-70396048D01*
X168314531Y-70498414D01*
X168401586Y-70585469D01*
X168503952Y-70653868D01*
X168525223Y-70662679D01*
X168549019Y-70782306D01*
X168596132Y-70896048D01*
X168664531Y-70998414D01*
X168751586Y-71085469D01*
X168853952Y-71153868D01*
X168929713Y-71185249D01*
X168949019Y-71282306D01*
X168996132Y-71396048D01*
X169064531Y-71498414D01*
X169151586Y-71585469D01*
X169253952Y-71653868D01*
X169275223Y-71662679D01*
X169299019Y-71782306D01*
X169346132Y-71896048D01*
X169414531Y-71998414D01*
X169501586Y-72085469D01*
X169603952Y-72153868D01*
X169625223Y-72162679D01*
X169649019Y-72282306D01*
X169696132Y-72396048D01*
X169764531Y-72498414D01*
X169851586Y-72585469D01*
X169953952Y-72653868D01*
X169975223Y-72662679D01*
X169999019Y-72782306D01*
X170046132Y-72896048D01*
X170114531Y-72998414D01*
X170201586Y-73085469D01*
X170303952Y-73153868D01*
X170325223Y-73162679D01*
X170349019Y-73282306D01*
X170396132Y-73396048D01*
X170464531Y-73498414D01*
X170551586Y-73585469D01*
X170653952Y-73653868D01*
X170675223Y-73662679D01*
X170699019Y-73782306D01*
X170746132Y-73896048D01*
X170814531Y-73998414D01*
X170901586Y-74085469D01*
X171003952Y-74153868D01*
X171117694Y-74200981D01*
X171238443Y-74225000D01*
X171361557Y-74225000D01*
X171482306Y-74200981D01*
X171596048Y-74153868D01*
X171698414Y-74085469D01*
X171785469Y-73998414D01*
X171853868Y-73896048D01*
X171900981Y-73782306D01*
X171925000Y-73661557D01*
X171925000Y-73538443D01*
X171900981Y-73417694D01*
X171853868Y-73303952D01*
X171785469Y-73201586D01*
X171698414Y-73114531D01*
X171596048Y-73046132D01*
X171574777Y-73037321D01*
X171550981Y-72917694D01*
X171503868Y-72803952D01*
X171435469Y-72701586D01*
X171348414Y-72614531D01*
X171246048Y-72546132D01*
X171224777Y-72537321D01*
X171200981Y-72417694D01*
X171153868Y-72303952D01*
X171085469Y-72201586D01*
X170998414Y-72114531D01*
X170896048Y-72046132D01*
X170874777Y-72037321D01*
X170850981Y-71917694D01*
X170803868Y-71803952D01*
X170735469Y-71701586D01*
X170648414Y-71614531D01*
X170546048Y-71546132D01*
X170524777Y-71537321D01*
X170500981Y-71417694D01*
X170453868Y-71303952D01*
X170385469Y-71201586D01*
X170298414Y-71114531D01*
X170196048Y-71046132D01*
X170174777Y-71037321D01*
X170150981Y-70917694D01*
X170103868Y-70803952D01*
X170035469Y-70701586D01*
X169948414Y-70614531D01*
X169846048Y-70546132D01*
X169770287Y-70514751D01*
X169750981Y-70417694D01*
X169703868Y-70303952D01*
X169635469Y-70201586D01*
X169548414Y-70114531D01*
X169526667Y-70100000D01*
X169548414Y-70085469D01*
X169635469Y-69998414D01*
X169703868Y-69896048D01*
X169750981Y-69782306D01*
X169774777Y-69662679D01*
X169796048Y-69653868D01*
X169898414Y-69585469D01*
X169985469Y-69498414D01*
X170053868Y-69396048D01*
X170100981Y-69282306D01*
X170125000Y-69161557D01*
X170125000Y-69038443D01*
X170100981Y-68917694D01*
X170053868Y-68803952D01*
X169985469Y-68701586D01*
X169898414Y-68614531D01*
X169876667Y-68600000D01*
X169898414Y-68585469D01*
X169985469Y-68498414D01*
X170053868Y-68396048D01*
X170100981Y-68282306D01*
X170125000Y-68161557D01*
X170125000Y-68038443D01*
X170100981Y-67917694D01*
X170053868Y-67803952D01*
X169985469Y-67701586D01*
X169898414Y-67614531D01*
X169876667Y-67600000D01*
X169898414Y-67585469D01*
X169985469Y-67498414D01*
X170053868Y-67396048D01*
X170100981Y-67282306D01*
X170125000Y-67161557D01*
X170125000Y-67038443D01*
X170100981Y-66917694D01*
X170053868Y-66803952D01*
X169985469Y-66701586D01*
X169898414Y-66614531D01*
X169876667Y-66600000D01*
X169898414Y-66585469D01*
X169985469Y-66498414D01*
X170053868Y-66396048D01*
X170100981Y-66282306D01*
X170125000Y-66161557D01*
X170125000Y-66038443D01*
X170100981Y-65917694D01*
X170053868Y-65803952D01*
X169985469Y-65701586D01*
X169898414Y-65614531D01*
X169796048Y-65546132D01*
X169682306Y-65499019D01*
X169677857Y-65498134D01*
X169700981Y-65442306D01*
X169725000Y-65321557D01*
X169725000Y-65198443D01*
X169700981Y-65077694D01*
X169660515Y-64980000D01*
X169700981Y-64882306D01*
X169725000Y-64761557D01*
X169725000Y-64638443D01*
X169700981Y-64517694D01*
X169653868Y-64403952D01*
X169651227Y-64400000D01*
X169653868Y-64396048D01*
X169700981Y-64282306D01*
X169725000Y-64161557D01*
X169725000Y-64038443D01*
X169700981Y-63917694D01*
X169653868Y-63803952D01*
X169585469Y-63701586D01*
X169498414Y-63614531D01*
X169396048Y-63546132D01*
X169282306Y-63499019D01*
X169161557Y-63475000D01*
X169038443Y-63475000D01*
X168917694Y-63499019D01*
X168803952Y-63546132D01*
X168701586Y-63614531D01*
X168614531Y-63701586D01*
X168546132Y-63803952D01*
X168499019Y-63917694D01*
X168475000Y-64038443D01*
X168475000Y-64161557D01*
X168499019Y-64282306D01*
X168546132Y-64396048D01*
X168548773Y-64400000D01*
X168546132Y-64403952D01*
X168499019Y-64517694D01*
X168475000Y-64638443D01*
X168475000Y-64761557D01*
X168499019Y-64882306D01*
X168539485Y-64980000D01*
X168499019Y-65077694D01*
X168475000Y-65198443D01*
X168475000Y-65321557D01*
X168499019Y-65442306D01*
X168546132Y-65556048D01*
X168614531Y-65658414D01*
X168701586Y-65745469D01*
X168803952Y-65813868D01*
X168917694Y-65860981D01*
X168922143Y-65861866D01*
X168899019Y-65917694D01*
X168875223Y-66037321D01*
X168853952Y-66046132D01*
X168751586Y-66114531D01*
X168664531Y-66201586D01*
X168596132Y-66303952D01*
X168549019Y-66417694D01*
X168525000Y-66538443D01*
X168525000Y-66661557D01*
X168549019Y-66782306D01*
X168596132Y-66896048D01*
X168664531Y-66998414D01*
X168751586Y-67085469D01*
X168773333Y-67100000D01*
X168751586Y-67114531D01*
X168664531Y-67201586D01*
X168596132Y-67303952D01*
X168549019Y-67417694D01*
X168525000Y-67538443D01*
X168525000Y-67661557D01*
X168549019Y-67782306D01*
X168596132Y-67896048D01*
X168664531Y-67998414D01*
X168751586Y-68085469D01*
X168773333Y-68100000D01*
X168751586Y-68114531D01*
X168664531Y-68201586D01*
X168596132Y-68303952D01*
X168549019Y-68417694D01*
X168525000Y-68538443D01*
X168525000Y-68661557D01*
X168549019Y-68782306D01*
X168596132Y-68896048D01*
X168664531Y-68998414D01*
X168751586Y-69085469D01*
X168773333Y-69100000D01*
X168751586Y-69114531D01*
X168664531Y-69201586D01*
X168596132Y-69303952D01*
X168549019Y-69417694D01*
X168525223Y-69537321D01*
X168503952Y-69546132D01*
X168401586Y-69614531D01*
X168314531Y-69701586D01*
X168246132Y-69803952D01*
X168199019Y-69917694D01*
X168175000Y-70038443D01*
X163738865Y-70038443D01*
X163703868Y-69953952D01*
X163635469Y-69851586D01*
X163548414Y-69764531D01*
X163446048Y-69696132D01*
X163332306Y-69649019D01*
X163211557Y-69625000D01*
X163088443Y-69625000D01*
X162967694Y-69649019D01*
X162853952Y-69696132D01*
X162751586Y-69764531D01*
X162664531Y-69851586D01*
X162596132Y-69953952D01*
X162549019Y-70067694D01*
X162525000Y-70188443D01*
X161259371Y-70188443D01*
X161196048Y-70146132D01*
X161082306Y-70099019D01*
X160961557Y-70075000D01*
X160838443Y-70075000D01*
X160717694Y-70099019D01*
X160603952Y-70146132D01*
X160501586Y-70214531D01*
X160414531Y-70301586D01*
X160346132Y-70403952D01*
X160299019Y-70517694D01*
X160285526Y-70585526D01*
X160217694Y-70599019D01*
X160103952Y-70646132D01*
X160001586Y-70714531D01*
X159914531Y-70801586D01*
X159846132Y-70903952D01*
X159799019Y-71017694D01*
X159785526Y-71085526D01*
X159717694Y-71099019D01*
X159603952Y-71146132D01*
X159501586Y-71214531D01*
X159414531Y-71301586D01*
X159346132Y-71403952D01*
X159299019Y-71517694D01*
X159285526Y-71585526D01*
X159217694Y-71599019D01*
X159103952Y-71646132D01*
X159001586Y-71714531D01*
X158914531Y-71801586D01*
X158846132Y-71903952D01*
X158799019Y-72017694D01*
X158787586Y-72075170D01*
X158667694Y-72099019D01*
X158553952Y-72146132D01*
X158451586Y-72214531D01*
X158364531Y-72301586D01*
X158296132Y-72403952D01*
X158249019Y-72517694D01*
X158235526Y-72585526D01*
X158167694Y-72599019D01*
X158053952Y-72646132D01*
X157951586Y-72714531D01*
X157864531Y-72801586D01*
X157796132Y-72903952D01*
X157749019Y-73017694D01*
X157735526Y-73085526D01*
X157667694Y-73099019D01*
X157553952Y-73146132D01*
X157451586Y-73214531D01*
X157364531Y-73301586D01*
X157296132Y-73403952D01*
X157249019Y-73517694D01*
X157235526Y-73585526D01*
X157167694Y-73599019D01*
X157053952Y-73646132D01*
X156951586Y-73714531D01*
X156864531Y-73801586D01*
X156796132Y-73903952D01*
X156749019Y-74017694D01*
X156725000Y-74138443D01*
X155419133Y-74138443D01*
X155498414Y-74085469D01*
X155585469Y-73998414D01*
X155653868Y-73896048D01*
X155700981Y-73782306D01*
X155725000Y-73661557D01*
X155725000Y-73538443D01*
X155700981Y-73417694D01*
X155653868Y-73303952D01*
X155585469Y-73201586D01*
X155498414Y-73114531D01*
X155396048Y-73046132D01*
X155282306Y-72999019D01*
X155161557Y-72975000D01*
X155038443Y-72975000D01*
X154917694Y-72999019D01*
X154803952Y-73046132D01*
X154701586Y-73114531D01*
X154614531Y-73201586D01*
X154546132Y-73303952D01*
X154499019Y-73417694D01*
X154475000Y-73538443D01*
X152815440Y-73538443D01*
X152865469Y-73488414D01*
X152933868Y-73386048D01*
X152980981Y-73272306D01*
X153005000Y-73151557D01*
X153005000Y-73028443D01*
X152980981Y-72907694D01*
X152933868Y-72793952D01*
X152876215Y-72707668D01*
X152885469Y-72698414D01*
X152953868Y-72596048D01*
X153000981Y-72482306D01*
X153025000Y-72361557D01*
X153025000Y-72238443D01*
X153000981Y-72117694D01*
X152953868Y-72003952D01*
X152885469Y-71901586D01*
X152798414Y-71814531D01*
X152779820Y-71802107D01*
X152783868Y-71796048D01*
X152830981Y-71682306D01*
X152855000Y-71561557D01*
X152855000Y-71438443D01*
X152830981Y-71317694D01*
X152783868Y-71203952D01*
X152715469Y-71101586D01*
X152628414Y-71014531D01*
X152526048Y-70946132D01*
X152412306Y-70899019D01*
X152295000Y-70875685D01*
X152295000Y-70848443D01*
X152270981Y-70727694D01*
X152223868Y-70613952D01*
X152155469Y-70511586D01*
X152068414Y-70424531D01*
X151966048Y-70356132D01*
X151852306Y-70309019D01*
X151731557Y-70285000D01*
X151608443Y-70285000D01*
X151487694Y-70309019D01*
X151373952Y-70356132D01*
X151310000Y-70398864D01*
X151246048Y-70356132D01*
X151132306Y-70309019D01*
X151011557Y-70285000D01*
X150888443Y-70285000D01*
X150767694Y-70309019D01*
X150653952Y-70356132D01*
X150551586Y-70424531D01*
X150464531Y-70511586D01*
X150396132Y-70613952D01*
X150349019Y-70727694D01*
X150325000Y-70848443D01*
X149173011Y-70848443D01*
X149150981Y-70737694D01*
X149103868Y-70623952D01*
X149035469Y-70521586D01*
X148948414Y-70434531D01*
X148846048Y-70366132D01*
X148732306Y-70319019D01*
X148611557Y-70295000D01*
X148488443Y-70295000D01*
X148367694Y-70319019D01*
X148253952Y-70366132D01*
X148151586Y-70434531D01*
X148064531Y-70521586D01*
X147996132Y-70623952D01*
X147949019Y-70737694D01*
X147925000Y-70858443D01*
X145925000Y-70858443D01*
X145925000Y-70385989D01*
X145992855Y-70453844D01*
X146177113Y-70576962D01*
X146381850Y-70661767D01*
X146599197Y-70705000D01*
X146820803Y-70705000D01*
X147038150Y-70661767D01*
X147242887Y-70576962D01*
X147427145Y-70453844D01*
X147583844Y-70297145D01*
X147706962Y-70112887D01*
X147791767Y-69908150D01*
X147835000Y-69690803D01*
X147835000Y-69469197D01*
X147795593Y-69271081D01*
X149817809Y-69271081D01*
X149836315Y-69397354D01*
X149950087Y-69457789D01*
X150073462Y-69494866D01*
X150201700Y-69507161D01*
X150329873Y-69494203D01*
X150453055Y-69456487D01*
X150563685Y-69397354D01*
X150582191Y-69271081D01*
X150817809Y-69271081D01*
X150836315Y-69397354D01*
X150950087Y-69457789D01*
X151073462Y-69494866D01*
X151201700Y-69507161D01*
X151329873Y-69494203D01*
X151453055Y-69456487D01*
X151563685Y-69397354D01*
X151582191Y-69271081D01*
X151200000Y-68888891D01*
X150817809Y-69271081D01*
X150582191Y-69271081D01*
X150200000Y-68888891D01*
X149817809Y-69271081D01*
X147795593Y-69271081D01*
X147791767Y-69251850D01*
X147706962Y-69047113D01*
X147583844Y-68862855D01*
X147572689Y-68851700D01*
X149542839Y-68851700D01*
X149555797Y-68979873D01*
X149593513Y-69103055D01*
X149652646Y-69213685D01*
X149778919Y-69232191D01*
X150161109Y-68850000D01*
X150238891Y-68850000D01*
X150621081Y-69232191D01*
X150700000Y-69220625D01*
X150778919Y-69232191D01*
X151161109Y-68850000D01*
X151238891Y-68850000D01*
X151621081Y-69232191D01*
X151747354Y-69213685D01*
X151807789Y-69099913D01*
X151844866Y-68976538D01*
X151857161Y-68848300D01*
X151844203Y-68720127D01*
X151806487Y-68596945D01*
X151747354Y-68486315D01*
X151621081Y-68467809D01*
X151238891Y-68850000D01*
X151161109Y-68850000D01*
X150778919Y-68467809D01*
X150700000Y-68479375D01*
X150621081Y-68467809D01*
X150238891Y-68850000D01*
X150161109Y-68850000D01*
X149778919Y-68467809D01*
X149652646Y-68486315D01*
X149592211Y-68600087D01*
X149555134Y-68723462D01*
X149542839Y-68851700D01*
X147572689Y-68851700D01*
X147427145Y-68706156D01*
X147242887Y-68583038D01*
X147038150Y-68498233D01*
X146820803Y-68455000D01*
X146599197Y-68455000D01*
X146381850Y-68498233D01*
X146177113Y-68583038D01*
X145992855Y-68706156D01*
X145925000Y-68774011D01*
X145925000Y-68428919D01*
X149817809Y-68428919D01*
X150200000Y-68811109D01*
X150582191Y-68428919D01*
X150817809Y-68428919D01*
X151200000Y-68811109D01*
X151582191Y-68428919D01*
X151563685Y-68302646D01*
X151449913Y-68242211D01*
X151326538Y-68205134D01*
X151198300Y-68192839D01*
X151070127Y-68205797D01*
X150946945Y-68243513D01*
X150836315Y-68302646D01*
X150817809Y-68428919D01*
X150582191Y-68428919D01*
X150563685Y-68302646D01*
X150449913Y-68242211D01*
X150326538Y-68205134D01*
X150198300Y-68192839D01*
X150070127Y-68205797D01*
X149946945Y-68243513D01*
X149836315Y-68302646D01*
X149817809Y-68428919D01*
X145925000Y-68428919D01*
X145925000Y-67885989D01*
X145992855Y-67953844D01*
X146177113Y-68076962D01*
X146381850Y-68161767D01*
X146599197Y-68205000D01*
X146820803Y-68205000D01*
X147038150Y-68161767D01*
X147242887Y-68076962D01*
X147427145Y-67953844D01*
X147583844Y-67797145D01*
X147706962Y-67612887D01*
X147717087Y-67588443D01*
X152005000Y-67588443D01*
X152005000Y-67711557D01*
X152029019Y-67832306D01*
X152076132Y-67946048D01*
X152144531Y-68048414D01*
X152231586Y-68135469D01*
X152333952Y-68203868D01*
X152447694Y-68250981D01*
X152568443Y-68275000D01*
X152691557Y-68275000D01*
X152812306Y-68250981D01*
X152926048Y-68203868D01*
X153028414Y-68135469D01*
X153115469Y-68048414D01*
X153183868Y-67946048D01*
X153230981Y-67832306D01*
X153255000Y-67711557D01*
X153255000Y-67588443D01*
X153237098Y-67498443D01*
X153275000Y-67498443D01*
X153275000Y-67621557D01*
X153299019Y-67742306D01*
X153346132Y-67856048D01*
X153414531Y-67958414D01*
X153501586Y-68045469D01*
X153603952Y-68113868D01*
X153717694Y-68160981D01*
X153838443Y-68185000D01*
X153961557Y-68185000D01*
X154082306Y-68160981D01*
X154196048Y-68113868D01*
X154298414Y-68045469D01*
X154385469Y-67958414D01*
X154453868Y-67856048D01*
X154500981Y-67742306D01*
X154525000Y-67621557D01*
X154525000Y-67498443D01*
X154500981Y-67377694D01*
X154453868Y-67263952D01*
X154385469Y-67161586D01*
X154298414Y-67074531D01*
X154196048Y-67006132D01*
X154082306Y-66959019D01*
X153961557Y-66935000D01*
X153838443Y-66935000D01*
X153717694Y-66959019D01*
X153603952Y-67006132D01*
X153501586Y-67074531D01*
X153414531Y-67161586D01*
X153346132Y-67263952D01*
X153299019Y-67377694D01*
X153275000Y-67498443D01*
X153237098Y-67498443D01*
X153230981Y-67467694D01*
X153183868Y-67353952D01*
X153115469Y-67251586D01*
X153028414Y-67164531D01*
X152926048Y-67096132D01*
X152919677Y-67093493D01*
X152932306Y-67090981D01*
X153046048Y-67043868D01*
X153148414Y-66975469D01*
X153235469Y-66888414D01*
X153303868Y-66786048D01*
X153350981Y-66672306D01*
X153375000Y-66551557D01*
X153375000Y-66428443D01*
X153350981Y-66307694D01*
X153303868Y-66193952D01*
X153235469Y-66091586D01*
X153148414Y-66004531D01*
X153046048Y-65936132D01*
X152932306Y-65889019D01*
X152811557Y-65865000D01*
X152688443Y-65865000D01*
X152567694Y-65889019D01*
X152453952Y-65936132D01*
X152351586Y-66004531D01*
X152264531Y-66091586D01*
X152196132Y-66193952D01*
X152149019Y-66307694D01*
X152125000Y-66428443D01*
X152125000Y-66551557D01*
X152149019Y-66672306D01*
X152196132Y-66786048D01*
X152264531Y-66888414D01*
X152351586Y-66975469D01*
X152453952Y-67043868D01*
X152460323Y-67046507D01*
X152447694Y-67049019D01*
X152333952Y-67096132D01*
X152231586Y-67164531D01*
X152144531Y-67251586D01*
X152076132Y-67353952D01*
X152029019Y-67467694D01*
X152005000Y-67588443D01*
X147717087Y-67588443D01*
X147791767Y-67408150D01*
X147835000Y-67190803D01*
X147835000Y-66969197D01*
X147791767Y-66751850D01*
X147706962Y-66547113D01*
X147674442Y-66498443D01*
X148355000Y-66498443D01*
X148355000Y-66621557D01*
X148379019Y-66742306D01*
X148426132Y-66856048D01*
X148494531Y-66958414D01*
X148581586Y-67045469D01*
X148683952Y-67113868D01*
X148797694Y-67160981D01*
X148918443Y-67185000D01*
X149041557Y-67185000D01*
X149162306Y-67160981D01*
X149276048Y-67113868D01*
X149378414Y-67045469D01*
X149465469Y-66958414D01*
X149533868Y-66856048D01*
X149580981Y-66742306D01*
X149605000Y-66621557D01*
X149605000Y-66498443D01*
X149580981Y-66377694D01*
X149533868Y-66263952D01*
X149465469Y-66161586D01*
X149378414Y-66074531D01*
X149276048Y-66006132D01*
X149162306Y-65959019D01*
X149041557Y-65935000D01*
X148918443Y-65935000D01*
X148797694Y-65959019D01*
X148683952Y-66006132D01*
X148581586Y-66074531D01*
X148494531Y-66161586D01*
X148426132Y-66263952D01*
X148379019Y-66377694D01*
X148355000Y-66498443D01*
X147674442Y-66498443D01*
X147583844Y-66362855D01*
X147427145Y-66206156D01*
X147242887Y-66083038D01*
X147038150Y-65998233D01*
X146820803Y-65955000D01*
X146599197Y-65955000D01*
X146381850Y-65998233D01*
X146177113Y-66083038D01*
X145992855Y-66206156D01*
X145846604Y-66352407D01*
X145801974Y-66298026D01*
X145737260Y-66244916D01*
X145663427Y-66205452D01*
X145583314Y-66181150D01*
X145520874Y-66175000D01*
X145500000Y-66172944D01*
X145479126Y-66175000D01*
X136425000Y-66175000D01*
X136425000Y-51175000D01*
X142288604Y-51175000D01*
X141297437Y-52166168D01*
G36*
X155131586Y-51214531D02*
G01*
X155044531Y-51301586D01*
X154976132Y-51403952D01*
X154929019Y-51517694D01*
X154905000Y-51638443D01*
X154905000Y-51688605D01*
X154773605Y-51820000D01*
X153113375Y-51820000D01*
X153125000Y-51761557D01*
X153125000Y-51638443D01*
X153100981Y-51517694D01*
X153053868Y-51403952D01*
X152985469Y-51301586D01*
X152898414Y-51214531D01*
X152839252Y-51175000D01*
X155190748Y-51175000D01*
X155131586Y-51214531D01*
X155131586Y-51214531D01*
G37*
X155131586Y-51214531D02*
X155044531Y-51301586D01*
X154976132Y-51403952D01*
X154929019Y-51517694D01*
X154905000Y-51638443D01*
X154905000Y-51688605D01*
X154773605Y-51820000D01*
X153113375Y-51820000D01*
X153125000Y-51761557D01*
X153125000Y-51638443D01*
X153100981Y-51517694D01*
X153053868Y-51403952D01*
X152985469Y-51301586D01*
X152898414Y-51214531D01*
X152839252Y-51175000D01*
X155190748Y-51175000D01*
X155131586Y-51214531D01*
M02*
