G04 #@! TF.GenerationSoftware,KiCad,Pcbnew,(5.1.0)-1*
G04 #@! TF.CreationDate,2020-06-02T11:39:51-04:00*
G04 #@! TF.ProjectId,ThreeDeeO,54687265-6544-4656-954f-2e6b69636164,rev?*
G04 #@! TF.SameCoordinates,Original*
G04 #@! TF.FileFunction,Copper,L2,Inr*
G04 #@! TF.FilePolarity,Positive*
%FSLAX46Y46*%
G04 Gerber Fmt 4.6, Leading zero omitted, Abs format (unit mm)*
G04 Created by KiCad (PCBNEW (5.1.0)-1) date 2020-06-02 11:39:51*
%MOMM*%
%LPD*%
G04 APERTURE LIST*
%ADD10C,0.700000*%
%ADD11C,0.600000*%
%ADD12C,1.450000*%
%ADD13C,0.450000*%
%ADD14C,0.300000*%
%ADD15C,0.200000*%
%ADD16C,0.220000*%
G04 APERTURE END LIST*
D10*
X153330000Y-57360000D03*
X152330000Y-57360000D03*
X152330000Y-56360000D03*
X153330000Y-56360000D03*
X154330000Y-56360000D03*
X154330000Y-57360000D03*
X154330000Y-58360000D03*
X153330000Y-58360000D03*
X152330000Y-58360000D03*
D11*
X151200000Y-68850000D03*
X150200000Y-68850000D03*
D12*
X146710000Y-74580000D03*
X146710000Y-72080000D03*
X146710000Y-69580000D03*
X146710000Y-67080000D03*
X146710000Y-64580000D03*
X146710000Y-62080000D03*
D13*
X161080000Y-57800000D03*
X147000000Y-58000000D03*
X169350000Y-62650000D03*
X169350000Y-62100000D03*
X166650000Y-61100000D03*
X156550000Y-68250000D03*
X153500000Y-71000000D03*
X154600000Y-71000000D03*
X153210000Y-75480000D03*
X171000000Y-71250000D03*
X171000000Y-70250000D03*
X171000000Y-69250000D03*
X171000000Y-68250000D03*
X171000000Y-67250000D03*
X171000000Y-66250000D03*
X171000000Y-61500000D03*
X171000000Y-60500000D03*
X171000000Y-59500000D03*
X171800000Y-75450000D03*
X167720000Y-58700000D03*
X156400000Y-76350000D03*
X150937500Y-64037500D03*
X153435000Y-64635000D03*
X153100000Y-68200000D03*
X155600000Y-68000000D03*
X166100000Y-61100000D03*
X159400000Y-54300000D03*
X147900000Y-57900000D03*
X149870000Y-62820000D03*
X166175000Y-58225000D03*
X167350000Y-56925000D03*
X167350000Y-56075000D03*
X168175000Y-56075000D03*
X162325000Y-59500000D03*
X161350000Y-59500000D03*
X155675000Y-65650000D03*
X148200000Y-52640000D03*
X154860000Y-51710000D03*
X163710000Y-56110000D03*
X155000000Y-75750000D03*
X163300000Y-72250000D03*
X155100000Y-73600000D03*
X164300000Y-59500000D03*
X148470000Y-61560000D03*
X168950000Y-60600000D03*
X164200000Y-76797590D03*
X151670000Y-70910000D03*
X152070000Y-75420000D03*
X163628363Y-70722590D03*
X152380000Y-73090000D03*
X163150000Y-70250000D03*
X152400000Y-72300000D03*
X169150000Y-69600000D03*
X160900000Y-70700000D03*
X169500000Y-69100000D03*
X160400000Y-71200000D03*
X159900000Y-71700000D03*
X169150000Y-68600000D03*
X159400000Y-72200000D03*
X169500000Y-68100000D03*
X158850000Y-72700000D03*
X169150000Y-67600000D03*
X158350000Y-73200000D03*
X169500000Y-67100000D03*
X157850000Y-73700000D03*
X169150000Y-66600000D03*
X157350000Y-74200000D03*
X169500000Y-66100000D03*
X159450000Y-75750000D03*
X171300000Y-73600000D03*
X159950000Y-75350000D03*
X170950000Y-73100000D03*
X160450000Y-74950000D03*
X170600000Y-72600000D03*
X160950000Y-74600000D03*
X170250000Y-72100000D03*
X161450000Y-74250000D03*
X169900000Y-71600000D03*
X161950000Y-73850000D03*
X169550000Y-71100000D03*
X162450000Y-73450000D03*
X169150000Y-70600000D03*
X168800000Y-70100000D03*
X162950000Y-73050000D03*
X169150000Y-77400000D03*
X149000000Y-74900000D03*
X167810000Y-77309990D03*
X150670000Y-75280000D03*
X149450000Y-73420000D03*
X150060000Y-74950000D03*
X148550000Y-70920000D03*
X152230000Y-71500000D03*
X153900000Y-67560000D03*
X169100000Y-64100000D03*
X169100000Y-65260000D03*
X169200000Y-59500000D03*
X169200000Y-58900000D03*
X169200000Y-58300000D03*
X166475000Y-57450000D03*
X166425000Y-56625000D03*
X169100000Y-64700000D03*
X164945175Y-65250002D03*
X166200000Y-54300000D03*
X165772590Y-65474999D03*
X167000000Y-53600000D03*
X166490822Y-65282403D03*
X167825000Y-54450000D03*
X168750000Y-53375000D03*
X150500000Y-55500000D03*
X150950000Y-70910000D03*
X151110000Y-74890000D03*
X159600000Y-56550000D03*
X159600000Y-55900000D03*
X160250000Y-55900000D03*
X160250000Y-56550000D03*
X152630000Y-67650000D03*
X152750000Y-66490000D03*
X150890000Y-65360000D03*
X152730000Y-60330000D03*
X146750000Y-59410000D03*
X147300000Y-59410000D03*
X156160000Y-57960000D03*
X149600000Y-52640000D03*
X150500000Y-56100000D03*
X152500000Y-51700000D03*
X156160000Y-57160000D03*
X156150000Y-55150000D03*
X155450000Y-54450000D03*
X147600000Y-55650000D03*
X150450000Y-56760000D03*
X149740000Y-62240000D03*
X154470000Y-63800000D03*
X150430000Y-57570000D03*
X148980000Y-66560000D03*
X150920000Y-66020000D03*
X148940000Y-52640000D03*
X156400000Y-51700000D03*
X148000000Y-75200000D03*
X151800000Y-51700000D03*
X140180000Y-53010000D03*
X151130000Y-51700000D03*
X140220000Y-54250000D03*
X150500000Y-51900000D03*
X140090000Y-55510000D03*
X155530000Y-51700000D03*
X140110000Y-56730000D03*
X154100000Y-54370000D03*
X140100000Y-58090000D03*
X153400000Y-54370000D03*
X140080000Y-59270000D03*
X152800000Y-54370000D03*
X140090000Y-60580000D03*
X152100000Y-54370000D03*
X140080000Y-61850000D03*
X151530000Y-54370000D03*
X140070000Y-63190000D03*
X150500000Y-54370000D03*
X140090000Y-64440000D03*
D14*
X147800000Y-69800000D02*
X148400000Y-69200000D01*
X147800000Y-73490000D02*
X146710000Y-74580000D01*
X147800000Y-69800000D02*
X147800000Y-73490000D01*
D15*
G36*
X150731586Y-51214531D02*
G01*
X150652939Y-51293178D01*
X150561557Y-51275000D01*
X150438443Y-51275000D01*
X150317694Y-51299019D01*
X150203952Y-51346132D01*
X150101586Y-51414531D01*
X150014531Y-51501586D01*
X149946132Y-51603952D01*
X149899019Y-51717694D01*
X149875000Y-51838443D01*
X149875000Y-51961557D01*
X149899019Y-52082306D01*
X149946132Y-52196048D01*
X150014531Y-52298414D01*
X150101586Y-52385469D01*
X150203952Y-52453868D01*
X150317694Y-52500981D01*
X150438443Y-52525000D01*
X150561557Y-52525000D01*
X150682306Y-52500981D01*
X150796048Y-52453868D01*
X150898414Y-52385469D01*
X150977061Y-52306822D01*
X151068443Y-52325000D01*
X151191557Y-52325000D01*
X151312306Y-52300981D01*
X151426048Y-52253868D01*
X151465000Y-52227841D01*
X151503952Y-52253868D01*
X151617694Y-52300981D01*
X151738443Y-52325000D01*
X151861557Y-52325000D01*
X151982306Y-52300981D01*
X152096048Y-52253868D01*
X152198414Y-52185469D01*
X152285469Y-52098414D01*
X152353868Y-51996048D01*
X152400981Y-51882306D01*
X152425000Y-51761557D01*
X152425000Y-51638443D01*
X152400981Y-51517694D01*
X152353868Y-51403952D01*
X152285469Y-51301586D01*
X152198414Y-51214531D01*
X152139252Y-51175000D01*
X154535714Y-51175000D01*
X154461586Y-51224531D01*
X154374531Y-51311586D01*
X154306132Y-51413952D01*
X154259019Y-51527694D01*
X154235000Y-51648443D01*
X154235000Y-51771557D01*
X154259019Y-51892306D01*
X154306132Y-52006048D01*
X154374531Y-52108414D01*
X154461586Y-52195469D01*
X154563952Y-52263868D01*
X154677694Y-52310981D01*
X154798443Y-52335000D01*
X154921557Y-52335000D01*
X155042306Y-52310981D01*
X155156048Y-52263868D01*
X155202483Y-52232841D01*
X155233952Y-52253868D01*
X155347694Y-52300981D01*
X155468443Y-52325000D01*
X155591557Y-52325000D01*
X155712306Y-52300981D01*
X155826048Y-52253868D01*
X155928414Y-52185469D01*
X155965000Y-52148883D01*
X156001586Y-52185469D01*
X156103952Y-52253868D01*
X156217694Y-52300981D01*
X156338443Y-52325000D01*
X156461557Y-52325000D01*
X156582306Y-52300981D01*
X156696048Y-52253868D01*
X156798414Y-52185469D01*
X156885469Y-52098414D01*
X156953868Y-51996048D01*
X157000981Y-51882306D01*
X157025000Y-51761557D01*
X157025000Y-51638443D01*
X157000981Y-51517694D01*
X156953868Y-51403952D01*
X156885469Y-51301586D01*
X156798414Y-51214531D01*
X156739252Y-51175000D01*
X163400000Y-51175000D01*
X163400000Y-55565454D01*
X163311586Y-55624531D01*
X163224531Y-55711586D01*
X163156132Y-55813952D01*
X163109019Y-55927694D01*
X163085000Y-56048443D01*
X163085000Y-56171557D01*
X163109019Y-56292306D01*
X163156132Y-56406048D01*
X163224531Y-56508414D01*
X163311586Y-56595469D01*
X163400000Y-56654546D01*
X163400000Y-64699805D01*
X154060000Y-64681669D01*
X154060000Y-64573443D01*
X154035981Y-64452694D01*
X153988868Y-64338952D01*
X153920469Y-64236586D01*
X153833414Y-64149531D01*
X153731048Y-64081132D01*
X153617306Y-64034019D01*
X153496557Y-64010000D01*
X153373443Y-64010000D01*
X153252694Y-64034019D01*
X153138952Y-64081132D01*
X153036586Y-64149531D01*
X152949531Y-64236586D01*
X152881132Y-64338952D01*
X152834019Y-64452694D01*
X152810000Y-64573443D01*
X152810000Y-64696557D01*
X152834019Y-64817306D01*
X152881132Y-64931048D01*
X152949531Y-65033414D01*
X153036586Y-65120469D01*
X153100000Y-65162841D01*
X153100000Y-67575000D01*
X153038443Y-67575000D01*
X152917694Y-67599019D01*
X152803952Y-67646132D01*
X152701586Y-67714531D01*
X152614531Y-67801586D01*
X152546132Y-67903952D01*
X152499019Y-68017694D01*
X152475000Y-68138443D01*
X152475000Y-68261557D01*
X152499019Y-68382306D01*
X152546132Y-68496048D01*
X152614531Y-68598414D01*
X152701586Y-68685469D01*
X152803952Y-68753868D01*
X152917694Y-68800981D01*
X153038443Y-68825000D01*
X153100000Y-68825000D01*
X153100000Y-69709740D01*
X147833954Y-69696062D01*
X147835000Y-69690803D01*
X147835000Y-69469197D01*
X147791767Y-69251850D01*
X147706962Y-69047113D01*
X147583844Y-68862855D01*
X147502045Y-68781056D01*
X149500000Y-68781056D01*
X149500000Y-68918944D01*
X149526901Y-69054182D01*
X149579668Y-69181574D01*
X149656274Y-69296224D01*
X149753776Y-69393726D01*
X149868426Y-69470332D01*
X149995818Y-69523099D01*
X150131056Y-69550000D01*
X150268944Y-69550000D01*
X150404182Y-69523099D01*
X150531574Y-69470332D01*
X150646224Y-69393726D01*
X150700000Y-69339950D01*
X150753776Y-69393726D01*
X150868426Y-69470332D01*
X150995818Y-69523099D01*
X151131056Y-69550000D01*
X151268944Y-69550000D01*
X151404182Y-69523099D01*
X151531574Y-69470332D01*
X151646224Y-69393726D01*
X151743726Y-69296224D01*
X151820332Y-69181574D01*
X151873099Y-69054182D01*
X151900000Y-68918944D01*
X151900000Y-68781056D01*
X151873099Y-68645818D01*
X151820332Y-68518426D01*
X151743726Y-68403776D01*
X151646224Y-68306274D01*
X151531574Y-68229668D01*
X151404182Y-68176901D01*
X151268944Y-68150000D01*
X151131056Y-68150000D01*
X150995818Y-68176901D01*
X150868426Y-68229668D01*
X150753776Y-68306274D01*
X150700000Y-68360050D01*
X150646224Y-68306274D01*
X150531574Y-68229668D01*
X150404182Y-68176901D01*
X150268944Y-68150000D01*
X150131056Y-68150000D01*
X149995818Y-68176901D01*
X149868426Y-68229668D01*
X149753776Y-68306274D01*
X149656274Y-68403776D01*
X149579668Y-68518426D01*
X149526901Y-68645818D01*
X149500000Y-68781056D01*
X147502045Y-68781056D01*
X147427145Y-68706156D01*
X147242887Y-68583038D01*
X147038150Y-68498233D01*
X146820803Y-68455000D01*
X146599197Y-68455000D01*
X146381850Y-68498233D01*
X146177113Y-68583038D01*
X145992855Y-68706156D01*
X145925000Y-68774011D01*
X145925000Y-67885989D01*
X145992855Y-67953844D01*
X146177113Y-68076962D01*
X146381850Y-68161767D01*
X146599197Y-68205000D01*
X146820803Y-68205000D01*
X147038150Y-68161767D01*
X147242887Y-68076962D01*
X147427145Y-67953844D01*
X147583844Y-67797145D01*
X147706962Y-67612887D01*
X147791767Y-67408150D01*
X147835000Y-67190803D01*
X147835000Y-66969197D01*
X147791767Y-66751850D01*
X147706962Y-66547113D01*
X147674442Y-66498443D01*
X148355000Y-66498443D01*
X148355000Y-66621557D01*
X148379019Y-66742306D01*
X148426132Y-66856048D01*
X148494531Y-66958414D01*
X148581586Y-67045469D01*
X148683952Y-67113868D01*
X148797694Y-67160981D01*
X148918443Y-67185000D01*
X149041557Y-67185000D01*
X149162306Y-67160981D01*
X149276048Y-67113868D01*
X149378414Y-67045469D01*
X149465469Y-66958414D01*
X149533868Y-66856048D01*
X149580981Y-66742306D01*
X149605000Y-66621557D01*
X149605000Y-66498443D01*
X149580981Y-66377694D01*
X149533868Y-66263952D01*
X149465469Y-66161586D01*
X149378414Y-66074531D01*
X149276048Y-66006132D01*
X149162306Y-65959019D01*
X149159411Y-65958443D01*
X150295000Y-65958443D01*
X150295000Y-66081557D01*
X150319019Y-66202306D01*
X150366132Y-66316048D01*
X150434531Y-66418414D01*
X150521586Y-66505469D01*
X150623952Y-66573868D01*
X150737694Y-66620981D01*
X150858443Y-66645000D01*
X150981557Y-66645000D01*
X151102306Y-66620981D01*
X151216048Y-66573868D01*
X151318414Y-66505469D01*
X151405469Y-66418414D01*
X151473868Y-66316048D01*
X151520981Y-66202306D01*
X151545000Y-66081557D01*
X151545000Y-65958443D01*
X151520981Y-65837694D01*
X151473868Y-65723952D01*
X151405469Y-65621586D01*
X151318414Y-65534531D01*
X151216048Y-65466132D01*
X151102306Y-65419019D01*
X150981557Y-65395000D01*
X150858443Y-65395000D01*
X150737694Y-65419019D01*
X150623952Y-65466132D01*
X150521586Y-65534531D01*
X150434531Y-65621586D01*
X150366132Y-65723952D01*
X150319019Y-65837694D01*
X150295000Y-65958443D01*
X149159411Y-65958443D01*
X149041557Y-65935000D01*
X148918443Y-65935000D01*
X148797694Y-65959019D01*
X148683952Y-66006132D01*
X148581586Y-66074531D01*
X148494531Y-66161586D01*
X148426132Y-66263952D01*
X148379019Y-66377694D01*
X148355000Y-66498443D01*
X147674442Y-66498443D01*
X147583844Y-66362855D01*
X147427145Y-66206156D01*
X147242887Y-66083038D01*
X147038150Y-65998233D01*
X146820803Y-65955000D01*
X146599197Y-65955000D01*
X146381850Y-65998233D01*
X146177113Y-66083038D01*
X145992855Y-66206156D01*
X145846604Y-66352407D01*
X145801974Y-66298026D01*
X145737260Y-66244916D01*
X145663427Y-66205452D01*
X145583314Y-66181150D01*
X145520874Y-66175000D01*
X145500000Y-66172944D01*
X145479126Y-66175000D01*
X136425000Y-66175000D01*
X136425000Y-63128443D01*
X139445000Y-63128443D01*
X139445000Y-63251557D01*
X139469019Y-63372306D01*
X139516132Y-63486048D01*
X139584531Y-63588414D01*
X139671586Y-63675469D01*
X139773952Y-63743868D01*
X139887694Y-63790981D01*
X140008443Y-63815000D01*
X140028443Y-63815000D01*
X139907694Y-63839019D01*
X139793952Y-63886132D01*
X139691586Y-63954531D01*
X139604531Y-64041586D01*
X139536132Y-64143952D01*
X139489019Y-64257694D01*
X139465000Y-64378443D01*
X139465000Y-64501557D01*
X139489019Y-64622306D01*
X139536132Y-64736048D01*
X139604531Y-64838414D01*
X139691586Y-64925469D01*
X139793952Y-64993868D01*
X139907694Y-65040981D01*
X140028443Y-65065000D01*
X140151557Y-65065000D01*
X140272306Y-65040981D01*
X140386048Y-64993868D01*
X140488414Y-64925469D01*
X140575469Y-64838414D01*
X140643868Y-64736048D01*
X140690981Y-64622306D01*
X140715000Y-64501557D01*
X140715000Y-64469197D01*
X145585000Y-64469197D01*
X145585000Y-64690803D01*
X145628233Y-64908150D01*
X145713038Y-65112887D01*
X145836156Y-65297145D01*
X145992855Y-65453844D01*
X146177113Y-65576962D01*
X146381850Y-65661767D01*
X146599197Y-65705000D01*
X146820803Y-65705000D01*
X147038150Y-65661767D01*
X147242887Y-65576962D01*
X147427145Y-65453844D01*
X147583844Y-65297145D01*
X147706962Y-65112887D01*
X147791767Y-64908150D01*
X147835000Y-64690803D01*
X147835000Y-64469197D01*
X147791767Y-64251850D01*
X147706962Y-64047113D01*
X147659408Y-63975943D01*
X150312500Y-63975943D01*
X150312500Y-64099057D01*
X150336519Y-64219806D01*
X150383632Y-64333548D01*
X150452031Y-64435914D01*
X150539086Y-64522969D01*
X150641452Y-64591368D01*
X150755194Y-64638481D01*
X150875943Y-64662500D01*
X150999057Y-64662500D01*
X151119806Y-64638481D01*
X151233548Y-64591368D01*
X151335914Y-64522969D01*
X151422969Y-64435914D01*
X151491368Y-64333548D01*
X151538481Y-64219806D01*
X151562500Y-64099057D01*
X151562500Y-63975943D01*
X151538481Y-63855194D01*
X151491368Y-63741452D01*
X151489358Y-63738443D01*
X153845000Y-63738443D01*
X153845000Y-63861557D01*
X153869019Y-63982306D01*
X153916132Y-64096048D01*
X153984531Y-64198414D01*
X154071586Y-64285469D01*
X154173952Y-64353868D01*
X154287694Y-64400981D01*
X154408443Y-64425000D01*
X154531557Y-64425000D01*
X154652306Y-64400981D01*
X154766048Y-64353868D01*
X154868414Y-64285469D01*
X154955469Y-64198414D01*
X155023868Y-64096048D01*
X155070981Y-63982306D01*
X155095000Y-63861557D01*
X155095000Y-63738443D01*
X155070981Y-63617694D01*
X155023868Y-63503952D01*
X154955469Y-63401586D01*
X154868414Y-63314531D01*
X154766048Y-63246132D01*
X154652306Y-63199019D01*
X154531557Y-63175000D01*
X154408443Y-63175000D01*
X154287694Y-63199019D01*
X154173952Y-63246132D01*
X154071586Y-63314531D01*
X153984531Y-63401586D01*
X153916132Y-63503952D01*
X153869019Y-63617694D01*
X153845000Y-63738443D01*
X151489358Y-63738443D01*
X151422969Y-63639086D01*
X151335914Y-63552031D01*
X151233548Y-63483632D01*
X151119806Y-63436519D01*
X150999057Y-63412500D01*
X150875943Y-63412500D01*
X150755194Y-63436519D01*
X150641452Y-63483632D01*
X150539086Y-63552031D01*
X150452031Y-63639086D01*
X150383632Y-63741452D01*
X150336519Y-63855194D01*
X150312500Y-63975943D01*
X147659408Y-63975943D01*
X147583844Y-63862855D01*
X147427145Y-63706156D01*
X147242887Y-63583038D01*
X147038150Y-63498233D01*
X146820803Y-63455000D01*
X146599197Y-63455000D01*
X146381850Y-63498233D01*
X146177113Y-63583038D01*
X145992855Y-63706156D01*
X145836156Y-63862855D01*
X145713038Y-64047113D01*
X145628233Y-64251850D01*
X145585000Y-64469197D01*
X140715000Y-64469197D01*
X140715000Y-64378443D01*
X140690981Y-64257694D01*
X140643868Y-64143952D01*
X140575469Y-64041586D01*
X140488414Y-63954531D01*
X140386048Y-63886132D01*
X140272306Y-63839019D01*
X140151557Y-63815000D01*
X140131557Y-63815000D01*
X140252306Y-63790981D01*
X140366048Y-63743868D01*
X140468414Y-63675469D01*
X140555469Y-63588414D01*
X140623868Y-63486048D01*
X140670981Y-63372306D01*
X140695000Y-63251557D01*
X140695000Y-63128443D01*
X140670981Y-63007694D01*
X140623868Y-62893952D01*
X140555469Y-62791586D01*
X140468414Y-62704531D01*
X140366048Y-62636132D01*
X140252306Y-62589019D01*
X140131557Y-62565000D01*
X140008443Y-62565000D01*
X139887694Y-62589019D01*
X139773952Y-62636132D01*
X139671586Y-62704531D01*
X139584531Y-62791586D01*
X139516132Y-62893952D01*
X139469019Y-63007694D01*
X139445000Y-63128443D01*
X136425000Y-63128443D01*
X136425000Y-61788443D01*
X139455000Y-61788443D01*
X139455000Y-61911557D01*
X139479019Y-62032306D01*
X139526132Y-62146048D01*
X139594531Y-62248414D01*
X139681586Y-62335469D01*
X139783952Y-62403868D01*
X139897694Y-62450981D01*
X140018443Y-62475000D01*
X140141557Y-62475000D01*
X140262306Y-62450981D01*
X140376048Y-62403868D01*
X140478414Y-62335469D01*
X140565469Y-62248414D01*
X140633868Y-62146048D01*
X140680981Y-62032306D01*
X140693534Y-61969197D01*
X145585000Y-61969197D01*
X145585000Y-62190803D01*
X145628233Y-62408150D01*
X145713038Y-62612887D01*
X145836156Y-62797145D01*
X145992855Y-62953844D01*
X146177113Y-63076962D01*
X146381850Y-63161767D01*
X146599197Y-63205000D01*
X146820803Y-63205000D01*
X147038150Y-63161767D01*
X147242887Y-63076962D01*
X147427145Y-62953844D01*
X147583844Y-62797145D01*
X147706962Y-62612887D01*
X147791767Y-62408150D01*
X147835000Y-62190803D01*
X147835000Y-61969197D01*
X147791767Y-61751850D01*
X147706962Y-61547113D01*
X147674442Y-61498443D01*
X147845000Y-61498443D01*
X147845000Y-61621557D01*
X147869019Y-61742306D01*
X147916132Y-61856048D01*
X147984531Y-61958414D01*
X148071586Y-62045469D01*
X148173952Y-62113868D01*
X148287694Y-62160981D01*
X148408443Y-62185000D01*
X148531557Y-62185000D01*
X148564520Y-62178443D01*
X149115000Y-62178443D01*
X149115000Y-62301557D01*
X149139019Y-62422306D01*
X149186132Y-62536048D01*
X149254531Y-62638414D01*
X149266496Y-62650379D01*
X149245000Y-62758443D01*
X149245000Y-62881557D01*
X149269019Y-63002306D01*
X149316132Y-63116048D01*
X149384531Y-63218414D01*
X149471586Y-63305469D01*
X149573952Y-63373868D01*
X149687694Y-63420981D01*
X149808443Y-63445000D01*
X149931557Y-63445000D01*
X150052306Y-63420981D01*
X150166048Y-63373868D01*
X150268414Y-63305469D01*
X150355469Y-63218414D01*
X150423868Y-63116048D01*
X150470981Y-63002306D01*
X150495000Y-62881557D01*
X150495000Y-62758443D01*
X150470981Y-62637694D01*
X150423868Y-62523952D01*
X150355469Y-62421586D01*
X150343504Y-62409621D01*
X150365000Y-62301557D01*
X150365000Y-62178443D01*
X150340981Y-62057694D01*
X150293868Y-61943952D01*
X150225469Y-61841586D01*
X150138414Y-61754531D01*
X150036048Y-61686132D01*
X149922306Y-61639019D01*
X149801557Y-61615000D01*
X149678443Y-61615000D01*
X149557694Y-61639019D01*
X149443952Y-61686132D01*
X149341586Y-61754531D01*
X149254531Y-61841586D01*
X149186132Y-61943952D01*
X149139019Y-62057694D01*
X149115000Y-62178443D01*
X148564520Y-62178443D01*
X148652306Y-62160981D01*
X148766048Y-62113868D01*
X148868414Y-62045469D01*
X148955469Y-61958414D01*
X149023868Y-61856048D01*
X149070981Y-61742306D01*
X149095000Y-61621557D01*
X149095000Y-61498443D01*
X149070981Y-61377694D01*
X149023868Y-61263952D01*
X148955469Y-61161586D01*
X148868414Y-61074531D01*
X148766048Y-61006132D01*
X148652306Y-60959019D01*
X148531557Y-60935000D01*
X148408443Y-60935000D01*
X148287694Y-60959019D01*
X148173952Y-61006132D01*
X148071586Y-61074531D01*
X147984531Y-61161586D01*
X147916132Y-61263952D01*
X147869019Y-61377694D01*
X147845000Y-61498443D01*
X147674442Y-61498443D01*
X147583844Y-61362855D01*
X147427145Y-61206156D01*
X147242887Y-61083038D01*
X147038150Y-60998233D01*
X146820803Y-60955000D01*
X146599197Y-60955000D01*
X146381850Y-60998233D01*
X146177113Y-61083038D01*
X145992855Y-61206156D01*
X145836156Y-61362855D01*
X145713038Y-61547113D01*
X145628233Y-61751850D01*
X145585000Y-61969197D01*
X140693534Y-61969197D01*
X140705000Y-61911557D01*
X140705000Y-61788443D01*
X140680981Y-61667694D01*
X140633868Y-61553952D01*
X140565469Y-61451586D01*
X140478414Y-61364531D01*
X140376048Y-61296132D01*
X140262306Y-61249019D01*
X140141557Y-61225000D01*
X140018443Y-61225000D01*
X139897694Y-61249019D01*
X139783952Y-61296132D01*
X139681586Y-61364531D01*
X139594531Y-61451586D01*
X139526132Y-61553952D01*
X139479019Y-61667694D01*
X139455000Y-61788443D01*
X136425000Y-61788443D01*
X136425000Y-60518443D01*
X139465000Y-60518443D01*
X139465000Y-60641557D01*
X139489019Y-60762306D01*
X139536132Y-60876048D01*
X139604531Y-60978414D01*
X139691586Y-61065469D01*
X139793952Y-61133868D01*
X139907694Y-61180981D01*
X140028443Y-61205000D01*
X140151557Y-61205000D01*
X140272306Y-61180981D01*
X140386048Y-61133868D01*
X140488414Y-61065469D01*
X140575469Y-60978414D01*
X140643868Y-60876048D01*
X140690981Y-60762306D01*
X140715000Y-60641557D01*
X140715000Y-60518443D01*
X140690981Y-60397694D01*
X140643868Y-60283952D01*
X140575469Y-60181586D01*
X140488414Y-60094531D01*
X140386048Y-60026132D01*
X140272306Y-59979019D01*
X140151557Y-59955000D01*
X140028443Y-59955000D01*
X139907694Y-59979019D01*
X139793952Y-60026132D01*
X139691586Y-60094531D01*
X139604531Y-60181586D01*
X139536132Y-60283952D01*
X139489019Y-60397694D01*
X139465000Y-60518443D01*
X136425000Y-60518443D01*
X136425000Y-59208443D01*
X139455000Y-59208443D01*
X139455000Y-59331557D01*
X139479019Y-59452306D01*
X139526132Y-59566048D01*
X139594531Y-59668414D01*
X139681586Y-59755469D01*
X139783952Y-59823868D01*
X139897694Y-59870981D01*
X140018443Y-59895000D01*
X140141557Y-59895000D01*
X140262306Y-59870981D01*
X140376048Y-59823868D01*
X140478414Y-59755469D01*
X140565469Y-59668414D01*
X140633868Y-59566048D01*
X140680981Y-59452306D01*
X140683738Y-59438443D01*
X160725000Y-59438443D01*
X160725000Y-59561557D01*
X160749019Y-59682306D01*
X160796132Y-59796048D01*
X160864531Y-59898414D01*
X160951586Y-59985469D01*
X161053952Y-60053868D01*
X161167694Y-60100981D01*
X161288443Y-60125000D01*
X161411557Y-60125000D01*
X161532306Y-60100981D01*
X161646048Y-60053868D01*
X161748414Y-59985469D01*
X161835469Y-59898414D01*
X161837500Y-59895374D01*
X161839531Y-59898414D01*
X161926586Y-59985469D01*
X162028952Y-60053868D01*
X162142694Y-60100981D01*
X162263443Y-60125000D01*
X162386557Y-60125000D01*
X162507306Y-60100981D01*
X162621048Y-60053868D01*
X162723414Y-59985469D01*
X162810469Y-59898414D01*
X162878868Y-59796048D01*
X162925981Y-59682306D01*
X162950000Y-59561557D01*
X162950000Y-59438443D01*
X162925981Y-59317694D01*
X162878868Y-59203952D01*
X162810469Y-59101586D01*
X162723414Y-59014531D01*
X162621048Y-58946132D01*
X162507306Y-58899019D01*
X162386557Y-58875000D01*
X162263443Y-58875000D01*
X162142694Y-58899019D01*
X162028952Y-58946132D01*
X161926586Y-59014531D01*
X161839531Y-59101586D01*
X161837500Y-59104626D01*
X161835469Y-59101586D01*
X161748414Y-59014531D01*
X161646048Y-58946132D01*
X161532306Y-58899019D01*
X161411557Y-58875000D01*
X161288443Y-58875000D01*
X161167694Y-58899019D01*
X161053952Y-58946132D01*
X160951586Y-59014531D01*
X160864531Y-59101586D01*
X160796132Y-59203952D01*
X160749019Y-59317694D01*
X160725000Y-59438443D01*
X140683738Y-59438443D01*
X140705000Y-59331557D01*
X140705000Y-59208443D01*
X140680981Y-59087694D01*
X140633868Y-58973952D01*
X140565469Y-58871586D01*
X140478414Y-58784531D01*
X140376048Y-58716132D01*
X140298817Y-58684142D01*
X140396048Y-58643868D01*
X140498414Y-58575469D01*
X140585469Y-58488414D01*
X140653868Y-58386048D01*
X140700981Y-58272306D01*
X140725000Y-58151557D01*
X140725000Y-58028443D01*
X140707098Y-57938443D01*
X146375000Y-57938443D01*
X146375000Y-58061557D01*
X146399019Y-58182306D01*
X146446132Y-58296048D01*
X146514531Y-58398414D01*
X146601586Y-58485469D01*
X146703952Y-58553868D01*
X146817694Y-58600981D01*
X146938443Y-58625000D01*
X147061557Y-58625000D01*
X147182306Y-58600981D01*
X147296048Y-58553868D01*
X147398414Y-58485469D01*
X147485469Y-58398414D01*
X147497110Y-58380993D01*
X147501586Y-58385469D01*
X147603952Y-58453868D01*
X147717694Y-58500981D01*
X147838443Y-58525000D01*
X147961557Y-58525000D01*
X148082306Y-58500981D01*
X148196048Y-58453868D01*
X148298414Y-58385469D01*
X148385469Y-58298414D01*
X148453868Y-58196048D01*
X148500981Y-58082306D01*
X148525000Y-57961557D01*
X148525000Y-57838443D01*
X148500981Y-57717694D01*
X148453868Y-57603952D01*
X148390051Y-57508443D01*
X149805000Y-57508443D01*
X149805000Y-57631557D01*
X149829019Y-57752306D01*
X149876132Y-57866048D01*
X149944531Y-57968414D01*
X150031586Y-58055469D01*
X150133952Y-58123868D01*
X150247694Y-58170981D01*
X150368443Y-58195000D01*
X150491557Y-58195000D01*
X150612306Y-58170981D01*
X150726048Y-58123868D01*
X150828414Y-58055469D01*
X150915469Y-57968414D01*
X150983868Y-57866048D01*
X151030981Y-57752306D01*
X151055000Y-57631557D01*
X151055000Y-57508443D01*
X151030981Y-57387694D01*
X150983868Y-57273952D01*
X150918204Y-57175679D01*
X150935469Y-57158414D01*
X151003868Y-57056048D01*
X151050981Y-56942306D01*
X151075000Y-56821557D01*
X151075000Y-56698443D01*
X151050981Y-56577694D01*
X151003868Y-56463952D01*
X150935469Y-56361586D01*
X150860014Y-56286131D01*
X151580000Y-56286131D01*
X151580000Y-56433869D01*
X151608822Y-56578767D01*
X151665359Y-56715258D01*
X151747437Y-56838097D01*
X151769340Y-56860000D01*
X151747437Y-56881903D01*
X151665359Y-57004742D01*
X151608822Y-57141233D01*
X151580000Y-57286131D01*
X151580000Y-57433869D01*
X151608822Y-57578767D01*
X151665359Y-57715258D01*
X151747437Y-57838097D01*
X151769340Y-57860000D01*
X151747437Y-57881903D01*
X151665359Y-58004742D01*
X151608822Y-58141233D01*
X151580000Y-58286131D01*
X151580000Y-58433869D01*
X151608822Y-58578767D01*
X151665359Y-58715258D01*
X151747437Y-58838097D01*
X151851903Y-58942563D01*
X151974742Y-59024641D01*
X152111233Y-59081178D01*
X152256131Y-59110000D01*
X152403869Y-59110000D01*
X152548767Y-59081178D01*
X152685258Y-59024641D01*
X152808097Y-58942563D01*
X152830000Y-58920660D01*
X152851903Y-58942563D01*
X152974742Y-59024641D01*
X153111233Y-59081178D01*
X153256131Y-59110000D01*
X153403869Y-59110000D01*
X153548767Y-59081178D01*
X153685258Y-59024641D01*
X153808097Y-58942563D01*
X153830000Y-58920660D01*
X153851903Y-58942563D01*
X153974742Y-59024641D01*
X154111233Y-59081178D01*
X154256131Y-59110000D01*
X154403869Y-59110000D01*
X154548767Y-59081178D01*
X154685258Y-59024641D01*
X154808097Y-58942563D01*
X154912563Y-58838097D01*
X154994641Y-58715258D01*
X155051178Y-58578767D01*
X155080000Y-58433869D01*
X155080000Y-58286131D01*
X155051178Y-58141233D01*
X154994641Y-58004742D01*
X154912563Y-57881903D01*
X154890660Y-57860000D01*
X154912563Y-57838097D01*
X154994641Y-57715258D01*
X155051178Y-57578767D01*
X155080000Y-57433869D01*
X155080000Y-57286131D01*
X155051178Y-57141233D01*
X155033454Y-57098443D01*
X155535000Y-57098443D01*
X155535000Y-57221557D01*
X155559019Y-57342306D01*
X155606132Y-57456048D01*
X155674531Y-57558414D01*
X155761586Y-57645469D01*
X155863952Y-57713868D01*
X155977694Y-57760981D01*
X156098443Y-57785000D01*
X156221557Y-57785000D01*
X156342306Y-57760981D01*
X156396718Y-57738443D01*
X160455000Y-57738443D01*
X160455000Y-57861557D01*
X160479019Y-57982306D01*
X160526132Y-58096048D01*
X160594531Y-58198414D01*
X160681586Y-58285469D01*
X160783952Y-58353868D01*
X160897694Y-58400981D01*
X161018443Y-58425000D01*
X161141557Y-58425000D01*
X161262306Y-58400981D01*
X161376048Y-58353868D01*
X161478414Y-58285469D01*
X161565469Y-58198414D01*
X161633868Y-58096048D01*
X161680981Y-57982306D01*
X161705000Y-57861557D01*
X161705000Y-57738443D01*
X161680981Y-57617694D01*
X161633868Y-57503952D01*
X161565469Y-57401586D01*
X161478414Y-57314531D01*
X161376048Y-57246132D01*
X161262306Y-57199019D01*
X161141557Y-57175000D01*
X161018443Y-57175000D01*
X160897694Y-57199019D01*
X160783952Y-57246132D01*
X160681586Y-57314531D01*
X160594531Y-57401586D01*
X160526132Y-57503952D01*
X160479019Y-57617694D01*
X160455000Y-57738443D01*
X156396718Y-57738443D01*
X156456048Y-57713868D01*
X156558414Y-57645469D01*
X156645469Y-57558414D01*
X156713868Y-57456048D01*
X156760981Y-57342306D01*
X156785000Y-57221557D01*
X156785000Y-57098443D01*
X156760981Y-56977694D01*
X156713868Y-56863952D01*
X156645469Y-56761586D01*
X156558414Y-56674531D01*
X156456048Y-56606132D01*
X156342306Y-56559019D01*
X156221557Y-56535000D01*
X156098443Y-56535000D01*
X155977694Y-56559019D01*
X155863952Y-56606132D01*
X155761586Y-56674531D01*
X155674531Y-56761586D01*
X155606132Y-56863952D01*
X155559019Y-56977694D01*
X155535000Y-57098443D01*
X155033454Y-57098443D01*
X154994641Y-57004742D01*
X154912563Y-56881903D01*
X154890660Y-56860000D01*
X154912563Y-56838097D01*
X154994641Y-56715258D01*
X155051178Y-56578767D01*
X155080000Y-56433869D01*
X155080000Y-56286131D01*
X155051178Y-56141233D01*
X154994641Y-56004742D01*
X154912563Y-55881903D01*
X154808097Y-55777437D01*
X154685258Y-55695359D01*
X154548767Y-55638822D01*
X154403869Y-55610000D01*
X154256131Y-55610000D01*
X154111233Y-55638822D01*
X153974742Y-55695359D01*
X153851903Y-55777437D01*
X153830000Y-55799340D01*
X153808097Y-55777437D01*
X153685258Y-55695359D01*
X153548767Y-55638822D01*
X153403869Y-55610000D01*
X153256131Y-55610000D01*
X153111233Y-55638822D01*
X152974742Y-55695359D01*
X152851903Y-55777437D01*
X152830000Y-55799340D01*
X152808097Y-55777437D01*
X152685258Y-55695359D01*
X152548767Y-55638822D01*
X152403869Y-55610000D01*
X152256131Y-55610000D01*
X152111233Y-55638822D01*
X151974742Y-55695359D01*
X151851903Y-55777437D01*
X151747437Y-55881903D01*
X151665359Y-56004742D01*
X151608822Y-56141233D01*
X151580000Y-56286131D01*
X150860014Y-56286131D01*
X150848414Y-56274531D01*
X150746048Y-56206132D01*
X150632306Y-56159019D01*
X150511557Y-56135000D01*
X150388443Y-56135000D01*
X150267694Y-56159019D01*
X150153952Y-56206132D01*
X150051586Y-56274531D01*
X149964531Y-56361586D01*
X149896132Y-56463952D01*
X149849019Y-56577694D01*
X149825000Y-56698443D01*
X149825000Y-56821557D01*
X149849019Y-56942306D01*
X149896132Y-57056048D01*
X149961796Y-57154321D01*
X149944531Y-57171586D01*
X149876132Y-57273952D01*
X149829019Y-57387694D01*
X149805000Y-57508443D01*
X148390051Y-57508443D01*
X148385469Y-57501586D01*
X148298414Y-57414531D01*
X148196048Y-57346132D01*
X148082306Y-57299019D01*
X147961557Y-57275000D01*
X147838443Y-57275000D01*
X147717694Y-57299019D01*
X147603952Y-57346132D01*
X147501586Y-57414531D01*
X147414531Y-57501586D01*
X147402890Y-57519007D01*
X147398414Y-57514531D01*
X147296048Y-57446132D01*
X147182306Y-57399019D01*
X147061557Y-57375000D01*
X146938443Y-57375000D01*
X146817694Y-57399019D01*
X146703952Y-57446132D01*
X146601586Y-57514531D01*
X146514531Y-57601586D01*
X146446132Y-57703952D01*
X146399019Y-57817694D01*
X146375000Y-57938443D01*
X140707098Y-57938443D01*
X140700981Y-57907694D01*
X140653868Y-57793952D01*
X140585469Y-57691586D01*
X140498414Y-57604531D01*
X140396048Y-57536132D01*
X140282306Y-57489019D01*
X140161557Y-57465000D01*
X140038443Y-57465000D01*
X139917694Y-57489019D01*
X139803952Y-57536132D01*
X139701586Y-57604531D01*
X139614531Y-57691586D01*
X139546132Y-57793952D01*
X139499019Y-57907694D01*
X139475000Y-58028443D01*
X139475000Y-58151557D01*
X139499019Y-58272306D01*
X139546132Y-58386048D01*
X139614531Y-58488414D01*
X139701586Y-58575469D01*
X139803952Y-58643868D01*
X139881183Y-58675858D01*
X139783952Y-58716132D01*
X139681586Y-58784531D01*
X139594531Y-58871586D01*
X139526132Y-58973952D01*
X139479019Y-59087694D01*
X139455000Y-59208443D01*
X136425000Y-59208443D01*
X136425000Y-55448443D01*
X139465000Y-55448443D01*
X139465000Y-55571557D01*
X139489019Y-55692306D01*
X139536132Y-55806048D01*
X139604531Y-55908414D01*
X139691586Y-55995469D01*
X139793952Y-56063868D01*
X139907694Y-56110981D01*
X139963035Y-56121989D01*
X139927694Y-56129019D01*
X139813952Y-56176132D01*
X139711586Y-56244531D01*
X139624531Y-56331586D01*
X139556132Y-56433952D01*
X139509019Y-56547694D01*
X139485000Y-56668443D01*
X139485000Y-56791557D01*
X139509019Y-56912306D01*
X139556132Y-57026048D01*
X139624531Y-57128414D01*
X139711586Y-57215469D01*
X139813952Y-57283868D01*
X139927694Y-57330981D01*
X140048443Y-57355000D01*
X140171557Y-57355000D01*
X140292306Y-57330981D01*
X140406048Y-57283868D01*
X140508414Y-57215469D01*
X140595469Y-57128414D01*
X140663868Y-57026048D01*
X140710981Y-56912306D01*
X140735000Y-56791557D01*
X140735000Y-56668443D01*
X140710981Y-56547694D01*
X140663868Y-56433952D01*
X140595469Y-56331586D01*
X140508414Y-56244531D01*
X140406048Y-56176132D01*
X140292306Y-56129019D01*
X140236965Y-56118011D01*
X140272306Y-56110981D01*
X140386048Y-56063868D01*
X140488414Y-55995469D01*
X140575469Y-55908414D01*
X140643868Y-55806048D01*
X140690981Y-55692306D01*
X140711641Y-55588443D01*
X146975000Y-55588443D01*
X146975000Y-55711557D01*
X146999019Y-55832306D01*
X147046132Y-55946048D01*
X147114531Y-56048414D01*
X147201586Y-56135469D01*
X147303952Y-56203868D01*
X147417694Y-56250981D01*
X147538443Y-56275000D01*
X147661557Y-56275000D01*
X147782306Y-56250981D01*
X147896048Y-56203868D01*
X147998414Y-56135469D01*
X148085469Y-56048414D01*
X148153868Y-55946048D01*
X148200981Y-55832306D01*
X148225000Y-55711557D01*
X148225000Y-55588443D01*
X148200981Y-55467694D01*
X148153868Y-55353952D01*
X148085469Y-55251586D01*
X147998414Y-55164531D01*
X147896048Y-55096132D01*
X147782306Y-55049019D01*
X147661557Y-55025000D01*
X147538443Y-55025000D01*
X147417694Y-55049019D01*
X147303952Y-55096132D01*
X147201586Y-55164531D01*
X147114531Y-55251586D01*
X147046132Y-55353952D01*
X146999019Y-55467694D01*
X146975000Y-55588443D01*
X140711641Y-55588443D01*
X140715000Y-55571557D01*
X140715000Y-55448443D01*
X140690981Y-55327694D01*
X140643868Y-55213952D01*
X140575469Y-55111586D01*
X140488414Y-55024531D01*
X140386048Y-54956132D01*
X140272306Y-54909019D01*
X140151557Y-54885000D01*
X140028443Y-54885000D01*
X139907694Y-54909019D01*
X139793952Y-54956132D01*
X139691586Y-55024531D01*
X139604531Y-55111586D01*
X139536132Y-55213952D01*
X139489019Y-55327694D01*
X139465000Y-55448443D01*
X136425000Y-55448443D01*
X136425000Y-52948443D01*
X139555000Y-52948443D01*
X139555000Y-53071557D01*
X139579019Y-53192306D01*
X139626132Y-53306048D01*
X139694531Y-53408414D01*
X139781586Y-53495469D01*
X139883952Y-53563868D01*
X139997694Y-53610981D01*
X140113307Y-53633978D01*
X140037694Y-53649019D01*
X139923952Y-53696132D01*
X139821586Y-53764531D01*
X139734531Y-53851586D01*
X139666132Y-53953952D01*
X139619019Y-54067694D01*
X139595000Y-54188443D01*
X139595000Y-54311557D01*
X139619019Y-54432306D01*
X139666132Y-54546048D01*
X139734531Y-54648414D01*
X139821586Y-54735469D01*
X139923952Y-54803868D01*
X140037694Y-54850981D01*
X140158443Y-54875000D01*
X140281557Y-54875000D01*
X140402306Y-54850981D01*
X140516048Y-54803868D01*
X140618414Y-54735469D01*
X140705469Y-54648414D01*
X140773868Y-54546048D01*
X140820981Y-54432306D01*
X140845000Y-54311557D01*
X140845000Y-54308443D01*
X149875000Y-54308443D01*
X149875000Y-54431557D01*
X149899019Y-54552306D01*
X149946132Y-54666048D01*
X150014531Y-54768414D01*
X150101586Y-54855469D01*
X150203952Y-54923868D01*
X150230827Y-54935000D01*
X150203952Y-54946132D01*
X150101586Y-55014531D01*
X150014531Y-55101586D01*
X149946132Y-55203952D01*
X149899019Y-55317694D01*
X149875000Y-55438443D01*
X149875000Y-55561557D01*
X149899019Y-55682306D01*
X149946132Y-55796048D01*
X150014531Y-55898414D01*
X150101586Y-55985469D01*
X150203952Y-56053868D01*
X150317694Y-56100981D01*
X150438443Y-56125000D01*
X150561557Y-56125000D01*
X150682306Y-56100981D01*
X150796048Y-56053868D01*
X150898414Y-55985469D01*
X150985469Y-55898414D01*
X151053868Y-55796048D01*
X151100981Y-55682306D01*
X151125000Y-55561557D01*
X151125000Y-55438443D01*
X151100981Y-55317694D01*
X151053868Y-55203952D01*
X150985469Y-55101586D01*
X150898414Y-55014531D01*
X150796048Y-54946132D01*
X150769173Y-54935000D01*
X150796048Y-54923868D01*
X150898414Y-54855469D01*
X150985469Y-54768414D01*
X151015000Y-54724218D01*
X151044531Y-54768414D01*
X151131586Y-54855469D01*
X151233952Y-54923868D01*
X151347694Y-54970981D01*
X151468443Y-54995000D01*
X151591557Y-54995000D01*
X151712306Y-54970981D01*
X151815000Y-54928444D01*
X151917694Y-54970981D01*
X152038443Y-54995000D01*
X152161557Y-54995000D01*
X152282306Y-54970981D01*
X152396048Y-54923868D01*
X152450000Y-54887818D01*
X152503952Y-54923868D01*
X152617694Y-54970981D01*
X152738443Y-54995000D01*
X152861557Y-54995000D01*
X152982306Y-54970981D01*
X153096048Y-54923868D01*
X153100000Y-54921227D01*
X153103952Y-54923868D01*
X153217694Y-54970981D01*
X153338443Y-54995000D01*
X153461557Y-54995000D01*
X153582306Y-54970981D01*
X153696048Y-54923868D01*
X153750000Y-54887818D01*
X153803952Y-54923868D01*
X153917694Y-54970981D01*
X154038443Y-54995000D01*
X154161557Y-54995000D01*
X154282306Y-54970981D01*
X154396048Y-54923868D01*
X154498414Y-54855469D01*
X154585469Y-54768414D01*
X154653868Y-54666048D01*
X154700981Y-54552306D01*
X154725000Y-54431557D01*
X154725000Y-54388443D01*
X154825000Y-54388443D01*
X154825000Y-54511557D01*
X154849019Y-54632306D01*
X154896132Y-54746048D01*
X154964531Y-54848414D01*
X155051586Y-54935469D01*
X155153952Y-55003868D01*
X155267694Y-55050981D01*
X155388443Y-55075000D01*
X155511557Y-55075000D01*
X155528338Y-55071662D01*
X155525000Y-55088443D01*
X155525000Y-55211557D01*
X155549019Y-55332306D01*
X155596132Y-55446048D01*
X155664531Y-55548414D01*
X155751586Y-55635469D01*
X155853952Y-55703868D01*
X155967694Y-55750981D01*
X156088443Y-55775000D01*
X156211557Y-55775000D01*
X156332306Y-55750981D01*
X156446048Y-55703868D01*
X156548414Y-55635469D01*
X156635469Y-55548414D01*
X156703868Y-55446048D01*
X156750981Y-55332306D01*
X156775000Y-55211557D01*
X156775000Y-55088443D01*
X156750981Y-54967694D01*
X156703868Y-54853952D01*
X156635469Y-54751586D01*
X156548414Y-54664531D01*
X156446048Y-54596132D01*
X156332306Y-54549019D01*
X156211557Y-54525000D01*
X156088443Y-54525000D01*
X156071662Y-54528338D01*
X156075000Y-54511557D01*
X156075000Y-54388443D01*
X156050981Y-54267694D01*
X156038865Y-54238443D01*
X158775000Y-54238443D01*
X158775000Y-54361557D01*
X158799019Y-54482306D01*
X158846132Y-54596048D01*
X158914531Y-54698414D01*
X159001586Y-54785469D01*
X159103952Y-54853868D01*
X159217694Y-54900981D01*
X159338443Y-54925000D01*
X159461557Y-54925000D01*
X159582306Y-54900981D01*
X159696048Y-54853868D01*
X159798414Y-54785469D01*
X159885469Y-54698414D01*
X159953868Y-54596048D01*
X160000981Y-54482306D01*
X160025000Y-54361557D01*
X160025000Y-54238443D01*
X160000981Y-54117694D01*
X159953868Y-54003952D01*
X159885469Y-53901586D01*
X159798414Y-53814531D01*
X159696048Y-53746132D01*
X159582306Y-53699019D01*
X159461557Y-53675000D01*
X159338443Y-53675000D01*
X159217694Y-53699019D01*
X159103952Y-53746132D01*
X159001586Y-53814531D01*
X158914531Y-53901586D01*
X158846132Y-54003952D01*
X158799019Y-54117694D01*
X158775000Y-54238443D01*
X156038865Y-54238443D01*
X156003868Y-54153952D01*
X155935469Y-54051586D01*
X155848414Y-53964531D01*
X155746048Y-53896132D01*
X155632306Y-53849019D01*
X155511557Y-53825000D01*
X155388443Y-53825000D01*
X155267694Y-53849019D01*
X155153952Y-53896132D01*
X155051586Y-53964531D01*
X154964531Y-54051586D01*
X154896132Y-54153952D01*
X154849019Y-54267694D01*
X154825000Y-54388443D01*
X154725000Y-54388443D01*
X154725000Y-54308443D01*
X154700981Y-54187694D01*
X154653868Y-54073952D01*
X154585469Y-53971586D01*
X154498414Y-53884531D01*
X154396048Y-53816132D01*
X154282306Y-53769019D01*
X154161557Y-53745000D01*
X154038443Y-53745000D01*
X153917694Y-53769019D01*
X153803952Y-53816132D01*
X153750000Y-53852182D01*
X153696048Y-53816132D01*
X153582306Y-53769019D01*
X153461557Y-53745000D01*
X153338443Y-53745000D01*
X153217694Y-53769019D01*
X153103952Y-53816132D01*
X153100000Y-53818773D01*
X153096048Y-53816132D01*
X152982306Y-53769019D01*
X152861557Y-53745000D01*
X152738443Y-53745000D01*
X152617694Y-53769019D01*
X152503952Y-53816132D01*
X152450000Y-53852182D01*
X152396048Y-53816132D01*
X152282306Y-53769019D01*
X152161557Y-53745000D01*
X152038443Y-53745000D01*
X151917694Y-53769019D01*
X151815000Y-53811556D01*
X151712306Y-53769019D01*
X151591557Y-53745000D01*
X151468443Y-53745000D01*
X151347694Y-53769019D01*
X151233952Y-53816132D01*
X151131586Y-53884531D01*
X151044531Y-53971586D01*
X151015000Y-54015782D01*
X150985469Y-53971586D01*
X150898414Y-53884531D01*
X150796048Y-53816132D01*
X150682306Y-53769019D01*
X150561557Y-53745000D01*
X150438443Y-53745000D01*
X150317694Y-53769019D01*
X150203952Y-53816132D01*
X150101586Y-53884531D01*
X150014531Y-53971586D01*
X149946132Y-54073952D01*
X149899019Y-54187694D01*
X149875000Y-54308443D01*
X140845000Y-54308443D01*
X140845000Y-54188443D01*
X140820981Y-54067694D01*
X140773868Y-53953952D01*
X140705469Y-53851586D01*
X140618414Y-53764531D01*
X140516048Y-53696132D01*
X140402306Y-53649019D01*
X140286693Y-53626022D01*
X140362306Y-53610981D01*
X140476048Y-53563868D01*
X140578414Y-53495469D01*
X140665469Y-53408414D01*
X140733868Y-53306048D01*
X140780981Y-53192306D01*
X140805000Y-53071557D01*
X140805000Y-52948443D01*
X140780981Y-52827694D01*
X140733868Y-52713952D01*
X140665469Y-52611586D01*
X140632326Y-52578443D01*
X147575000Y-52578443D01*
X147575000Y-52701557D01*
X147599019Y-52822306D01*
X147646132Y-52936048D01*
X147714531Y-53038414D01*
X147801586Y-53125469D01*
X147903952Y-53193868D01*
X148017694Y-53240981D01*
X148138443Y-53265000D01*
X148261557Y-53265000D01*
X148382306Y-53240981D01*
X148496048Y-53193868D01*
X148570000Y-53144455D01*
X148643952Y-53193868D01*
X148757694Y-53240981D01*
X148878443Y-53265000D01*
X149001557Y-53265000D01*
X149122306Y-53240981D01*
X149236048Y-53193868D01*
X149338414Y-53125469D01*
X149425469Y-53038414D01*
X149493868Y-52936048D01*
X149540981Y-52822306D01*
X149565000Y-52701557D01*
X149565000Y-52578443D01*
X149540981Y-52457694D01*
X149493868Y-52343952D01*
X149425469Y-52241586D01*
X149338414Y-52154531D01*
X149236048Y-52086132D01*
X149122306Y-52039019D01*
X149001557Y-52015000D01*
X148878443Y-52015000D01*
X148757694Y-52039019D01*
X148643952Y-52086132D01*
X148570000Y-52135545D01*
X148496048Y-52086132D01*
X148382306Y-52039019D01*
X148261557Y-52015000D01*
X148138443Y-52015000D01*
X148017694Y-52039019D01*
X147903952Y-52086132D01*
X147801586Y-52154531D01*
X147714531Y-52241586D01*
X147646132Y-52343952D01*
X147599019Y-52457694D01*
X147575000Y-52578443D01*
X140632326Y-52578443D01*
X140578414Y-52524531D01*
X140476048Y-52456132D01*
X140362306Y-52409019D01*
X140241557Y-52385000D01*
X140118443Y-52385000D01*
X139997694Y-52409019D01*
X139883952Y-52456132D01*
X139781586Y-52524531D01*
X139694531Y-52611586D01*
X139626132Y-52713952D01*
X139579019Y-52827694D01*
X139555000Y-52948443D01*
X136425000Y-52948443D01*
X136425000Y-51175000D01*
X150790748Y-51175000D01*
X150731586Y-51214531D01*
X150731586Y-51214531D01*
G37*
X150731586Y-51214531D02*
X150652939Y-51293178D01*
X150561557Y-51275000D01*
X150438443Y-51275000D01*
X150317694Y-51299019D01*
X150203952Y-51346132D01*
X150101586Y-51414531D01*
X150014531Y-51501586D01*
X149946132Y-51603952D01*
X149899019Y-51717694D01*
X149875000Y-51838443D01*
X149875000Y-51961557D01*
X149899019Y-52082306D01*
X149946132Y-52196048D01*
X150014531Y-52298414D01*
X150101586Y-52385469D01*
X150203952Y-52453868D01*
X150317694Y-52500981D01*
X150438443Y-52525000D01*
X150561557Y-52525000D01*
X150682306Y-52500981D01*
X150796048Y-52453868D01*
X150898414Y-52385469D01*
X150977061Y-52306822D01*
X151068443Y-52325000D01*
X151191557Y-52325000D01*
X151312306Y-52300981D01*
X151426048Y-52253868D01*
X151465000Y-52227841D01*
X151503952Y-52253868D01*
X151617694Y-52300981D01*
X151738443Y-52325000D01*
X151861557Y-52325000D01*
X151982306Y-52300981D01*
X152096048Y-52253868D01*
X152198414Y-52185469D01*
X152285469Y-52098414D01*
X152353868Y-51996048D01*
X152400981Y-51882306D01*
X152425000Y-51761557D01*
X152425000Y-51638443D01*
X152400981Y-51517694D01*
X152353868Y-51403952D01*
X152285469Y-51301586D01*
X152198414Y-51214531D01*
X152139252Y-51175000D01*
X154535714Y-51175000D01*
X154461586Y-51224531D01*
X154374531Y-51311586D01*
X154306132Y-51413952D01*
X154259019Y-51527694D01*
X154235000Y-51648443D01*
X154235000Y-51771557D01*
X154259019Y-51892306D01*
X154306132Y-52006048D01*
X154374531Y-52108414D01*
X154461586Y-52195469D01*
X154563952Y-52263868D01*
X154677694Y-52310981D01*
X154798443Y-52335000D01*
X154921557Y-52335000D01*
X155042306Y-52310981D01*
X155156048Y-52263868D01*
X155202483Y-52232841D01*
X155233952Y-52253868D01*
X155347694Y-52300981D01*
X155468443Y-52325000D01*
X155591557Y-52325000D01*
X155712306Y-52300981D01*
X155826048Y-52253868D01*
X155928414Y-52185469D01*
X155965000Y-52148883D01*
X156001586Y-52185469D01*
X156103952Y-52253868D01*
X156217694Y-52300981D01*
X156338443Y-52325000D01*
X156461557Y-52325000D01*
X156582306Y-52300981D01*
X156696048Y-52253868D01*
X156798414Y-52185469D01*
X156885469Y-52098414D01*
X156953868Y-51996048D01*
X157000981Y-51882306D01*
X157025000Y-51761557D01*
X157025000Y-51638443D01*
X157000981Y-51517694D01*
X156953868Y-51403952D01*
X156885469Y-51301586D01*
X156798414Y-51214531D01*
X156739252Y-51175000D01*
X163400000Y-51175000D01*
X163400000Y-55565454D01*
X163311586Y-55624531D01*
X163224531Y-55711586D01*
X163156132Y-55813952D01*
X163109019Y-55927694D01*
X163085000Y-56048443D01*
X163085000Y-56171557D01*
X163109019Y-56292306D01*
X163156132Y-56406048D01*
X163224531Y-56508414D01*
X163311586Y-56595469D01*
X163400000Y-56654546D01*
X163400000Y-64699805D01*
X154060000Y-64681669D01*
X154060000Y-64573443D01*
X154035981Y-64452694D01*
X153988868Y-64338952D01*
X153920469Y-64236586D01*
X153833414Y-64149531D01*
X153731048Y-64081132D01*
X153617306Y-64034019D01*
X153496557Y-64010000D01*
X153373443Y-64010000D01*
X153252694Y-64034019D01*
X153138952Y-64081132D01*
X153036586Y-64149531D01*
X152949531Y-64236586D01*
X152881132Y-64338952D01*
X152834019Y-64452694D01*
X152810000Y-64573443D01*
X152810000Y-64696557D01*
X152834019Y-64817306D01*
X152881132Y-64931048D01*
X152949531Y-65033414D01*
X153036586Y-65120469D01*
X153100000Y-65162841D01*
X153100000Y-67575000D01*
X153038443Y-67575000D01*
X152917694Y-67599019D01*
X152803952Y-67646132D01*
X152701586Y-67714531D01*
X152614531Y-67801586D01*
X152546132Y-67903952D01*
X152499019Y-68017694D01*
X152475000Y-68138443D01*
X152475000Y-68261557D01*
X152499019Y-68382306D01*
X152546132Y-68496048D01*
X152614531Y-68598414D01*
X152701586Y-68685469D01*
X152803952Y-68753868D01*
X152917694Y-68800981D01*
X153038443Y-68825000D01*
X153100000Y-68825000D01*
X153100000Y-69709740D01*
X147833954Y-69696062D01*
X147835000Y-69690803D01*
X147835000Y-69469197D01*
X147791767Y-69251850D01*
X147706962Y-69047113D01*
X147583844Y-68862855D01*
X147502045Y-68781056D01*
X149500000Y-68781056D01*
X149500000Y-68918944D01*
X149526901Y-69054182D01*
X149579668Y-69181574D01*
X149656274Y-69296224D01*
X149753776Y-69393726D01*
X149868426Y-69470332D01*
X149995818Y-69523099D01*
X150131056Y-69550000D01*
X150268944Y-69550000D01*
X150404182Y-69523099D01*
X150531574Y-69470332D01*
X150646224Y-69393726D01*
X150700000Y-69339950D01*
X150753776Y-69393726D01*
X150868426Y-69470332D01*
X150995818Y-69523099D01*
X151131056Y-69550000D01*
X151268944Y-69550000D01*
X151404182Y-69523099D01*
X151531574Y-69470332D01*
X151646224Y-69393726D01*
X151743726Y-69296224D01*
X151820332Y-69181574D01*
X151873099Y-69054182D01*
X151900000Y-68918944D01*
X151900000Y-68781056D01*
X151873099Y-68645818D01*
X151820332Y-68518426D01*
X151743726Y-68403776D01*
X151646224Y-68306274D01*
X151531574Y-68229668D01*
X151404182Y-68176901D01*
X151268944Y-68150000D01*
X151131056Y-68150000D01*
X150995818Y-68176901D01*
X150868426Y-68229668D01*
X150753776Y-68306274D01*
X150700000Y-68360050D01*
X150646224Y-68306274D01*
X150531574Y-68229668D01*
X150404182Y-68176901D01*
X150268944Y-68150000D01*
X150131056Y-68150000D01*
X149995818Y-68176901D01*
X149868426Y-68229668D01*
X149753776Y-68306274D01*
X149656274Y-68403776D01*
X149579668Y-68518426D01*
X149526901Y-68645818D01*
X149500000Y-68781056D01*
X147502045Y-68781056D01*
X147427145Y-68706156D01*
X147242887Y-68583038D01*
X147038150Y-68498233D01*
X146820803Y-68455000D01*
X146599197Y-68455000D01*
X146381850Y-68498233D01*
X146177113Y-68583038D01*
X145992855Y-68706156D01*
X145925000Y-68774011D01*
X145925000Y-67885989D01*
X145992855Y-67953844D01*
X146177113Y-68076962D01*
X146381850Y-68161767D01*
X146599197Y-68205000D01*
X146820803Y-68205000D01*
X147038150Y-68161767D01*
X147242887Y-68076962D01*
X147427145Y-67953844D01*
X147583844Y-67797145D01*
X147706962Y-67612887D01*
X147791767Y-67408150D01*
X147835000Y-67190803D01*
X147835000Y-66969197D01*
X147791767Y-66751850D01*
X147706962Y-66547113D01*
X147674442Y-66498443D01*
X148355000Y-66498443D01*
X148355000Y-66621557D01*
X148379019Y-66742306D01*
X148426132Y-66856048D01*
X148494531Y-66958414D01*
X148581586Y-67045469D01*
X148683952Y-67113868D01*
X148797694Y-67160981D01*
X148918443Y-67185000D01*
X149041557Y-67185000D01*
X149162306Y-67160981D01*
X149276048Y-67113868D01*
X149378414Y-67045469D01*
X149465469Y-66958414D01*
X149533868Y-66856048D01*
X149580981Y-66742306D01*
X149605000Y-66621557D01*
X149605000Y-66498443D01*
X149580981Y-66377694D01*
X149533868Y-66263952D01*
X149465469Y-66161586D01*
X149378414Y-66074531D01*
X149276048Y-66006132D01*
X149162306Y-65959019D01*
X149159411Y-65958443D01*
X150295000Y-65958443D01*
X150295000Y-66081557D01*
X150319019Y-66202306D01*
X150366132Y-66316048D01*
X150434531Y-66418414D01*
X150521586Y-66505469D01*
X150623952Y-66573868D01*
X150737694Y-66620981D01*
X150858443Y-66645000D01*
X150981557Y-66645000D01*
X151102306Y-66620981D01*
X151216048Y-66573868D01*
X151318414Y-66505469D01*
X151405469Y-66418414D01*
X151473868Y-66316048D01*
X151520981Y-66202306D01*
X151545000Y-66081557D01*
X151545000Y-65958443D01*
X151520981Y-65837694D01*
X151473868Y-65723952D01*
X151405469Y-65621586D01*
X151318414Y-65534531D01*
X151216048Y-65466132D01*
X151102306Y-65419019D01*
X150981557Y-65395000D01*
X150858443Y-65395000D01*
X150737694Y-65419019D01*
X150623952Y-65466132D01*
X150521586Y-65534531D01*
X150434531Y-65621586D01*
X150366132Y-65723952D01*
X150319019Y-65837694D01*
X150295000Y-65958443D01*
X149159411Y-65958443D01*
X149041557Y-65935000D01*
X148918443Y-65935000D01*
X148797694Y-65959019D01*
X148683952Y-66006132D01*
X148581586Y-66074531D01*
X148494531Y-66161586D01*
X148426132Y-66263952D01*
X148379019Y-66377694D01*
X148355000Y-66498443D01*
X147674442Y-66498443D01*
X147583844Y-66362855D01*
X147427145Y-66206156D01*
X147242887Y-66083038D01*
X147038150Y-65998233D01*
X146820803Y-65955000D01*
X146599197Y-65955000D01*
X146381850Y-65998233D01*
X146177113Y-66083038D01*
X145992855Y-66206156D01*
X145846604Y-66352407D01*
X145801974Y-66298026D01*
X145737260Y-66244916D01*
X145663427Y-66205452D01*
X145583314Y-66181150D01*
X145520874Y-66175000D01*
X145500000Y-66172944D01*
X145479126Y-66175000D01*
X136425000Y-66175000D01*
X136425000Y-63128443D01*
X139445000Y-63128443D01*
X139445000Y-63251557D01*
X139469019Y-63372306D01*
X139516132Y-63486048D01*
X139584531Y-63588414D01*
X139671586Y-63675469D01*
X139773952Y-63743868D01*
X139887694Y-63790981D01*
X140008443Y-63815000D01*
X140028443Y-63815000D01*
X139907694Y-63839019D01*
X139793952Y-63886132D01*
X139691586Y-63954531D01*
X139604531Y-64041586D01*
X139536132Y-64143952D01*
X139489019Y-64257694D01*
X139465000Y-64378443D01*
X139465000Y-64501557D01*
X139489019Y-64622306D01*
X139536132Y-64736048D01*
X139604531Y-64838414D01*
X139691586Y-64925469D01*
X139793952Y-64993868D01*
X139907694Y-65040981D01*
X140028443Y-65065000D01*
X140151557Y-65065000D01*
X140272306Y-65040981D01*
X140386048Y-64993868D01*
X140488414Y-64925469D01*
X140575469Y-64838414D01*
X140643868Y-64736048D01*
X140690981Y-64622306D01*
X140715000Y-64501557D01*
X140715000Y-64469197D01*
X145585000Y-64469197D01*
X145585000Y-64690803D01*
X145628233Y-64908150D01*
X145713038Y-65112887D01*
X145836156Y-65297145D01*
X145992855Y-65453844D01*
X146177113Y-65576962D01*
X146381850Y-65661767D01*
X146599197Y-65705000D01*
X146820803Y-65705000D01*
X147038150Y-65661767D01*
X147242887Y-65576962D01*
X147427145Y-65453844D01*
X147583844Y-65297145D01*
X147706962Y-65112887D01*
X147791767Y-64908150D01*
X147835000Y-64690803D01*
X147835000Y-64469197D01*
X147791767Y-64251850D01*
X147706962Y-64047113D01*
X147659408Y-63975943D01*
X150312500Y-63975943D01*
X150312500Y-64099057D01*
X150336519Y-64219806D01*
X150383632Y-64333548D01*
X150452031Y-64435914D01*
X150539086Y-64522969D01*
X150641452Y-64591368D01*
X150755194Y-64638481D01*
X150875943Y-64662500D01*
X150999057Y-64662500D01*
X151119806Y-64638481D01*
X151233548Y-64591368D01*
X151335914Y-64522969D01*
X151422969Y-64435914D01*
X151491368Y-64333548D01*
X151538481Y-64219806D01*
X151562500Y-64099057D01*
X151562500Y-63975943D01*
X151538481Y-63855194D01*
X151491368Y-63741452D01*
X151489358Y-63738443D01*
X153845000Y-63738443D01*
X153845000Y-63861557D01*
X153869019Y-63982306D01*
X153916132Y-64096048D01*
X153984531Y-64198414D01*
X154071586Y-64285469D01*
X154173952Y-64353868D01*
X154287694Y-64400981D01*
X154408443Y-64425000D01*
X154531557Y-64425000D01*
X154652306Y-64400981D01*
X154766048Y-64353868D01*
X154868414Y-64285469D01*
X154955469Y-64198414D01*
X155023868Y-64096048D01*
X155070981Y-63982306D01*
X155095000Y-63861557D01*
X155095000Y-63738443D01*
X155070981Y-63617694D01*
X155023868Y-63503952D01*
X154955469Y-63401586D01*
X154868414Y-63314531D01*
X154766048Y-63246132D01*
X154652306Y-63199019D01*
X154531557Y-63175000D01*
X154408443Y-63175000D01*
X154287694Y-63199019D01*
X154173952Y-63246132D01*
X154071586Y-63314531D01*
X153984531Y-63401586D01*
X153916132Y-63503952D01*
X153869019Y-63617694D01*
X153845000Y-63738443D01*
X151489358Y-63738443D01*
X151422969Y-63639086D01*
X151335914Y-63552031D01*
X151233548Y-63483632D01*
X151119806Y-63436519D01*
X150999057Y-63412500D01*
X150875943Y-63412500D01*
X150755194Y-63436519D01*
X150641452Y-63483632D01*
X150539086Y-63552031D01*
X150452031Y-63639086D01*
X150383632Y-63741452D01*
X150336519Y-63855194D01*
X150312500Y-63975943D01*
X147659408Y-63975943D01*
X147583844Y-63862855D01*
X147427145Y-63706156D01*
X147242887Y-63583038D01*
X147038150Y-63498233D01*
X146820803Y-63455000D01*
X146599197Y-63455000D01*
X146381850Y-63498233D01*
X146177113Y-63583038D01*
X145992855Y-63706156D01*
X145836156Y-63862855D01*
X145713038Y-64047113D01*
X145628233Y-64251850D01*
X145585000Y-64469197D01*
X140715000Y-64469197D01*
X140715000Y-64378443D01*
X140690981Y-64257694D01*
X140643868Y-64143952D01*
X140575469Y-64041586D01*
X140488414Y-63954531D01*
X140386048Y-63886132D01*
X140272306Y-63839019D01*
X140151557Y-63815000D01*
X140131557Y-63815000D01*
X140252306Y-63790981D01*
X140366048Y-63743868D01*
X140468414Y-63675469D01*
X140555469Y-63588414D01*
X140623868Y-63486048D01*
X140670981Y-63372306D01*
X140695000Y-63251557D01*
X140695000Y-63128443D01*
X140670981Y-63007694D01*
X140623868Y-62893952D01*
X140555469Y-62791586D01*
X140468414Y-62704531D01*
X140366048Y-62636132D01*
X140252306Y-62589019D01*
X140131557Y-62565000D01*
X140008443Y-62565000D01*
X139887694Y-62589019D01*
X139773952Y-62636132D01*
X139671586Y-62704531D01*
X139584531Y-62791586D01*
X139516132Y-62893952D01*
X139469019Y-63007694D01*
X139445000Y-63128443D01*
X136425000Y-63128443D01*
X136425000Y-61788443D01*
X139455000Y-61788443D01*
X139455000Y-61911557D01*
X139479019Y-62032306D01*
X139526132Y-62146048D01*
X139594531Y-62248414D01*
X139681586Y-62335469D01*
X139783952Y-62403868D01*
X139897694Y-62450981D01*
X140018443Y-62475000D01*
X140141557Y-62475000D01*
X140262306Y-62450981D01*
X140376048Y-62403868D01*
X140478414Y-62335469D01*
X140565469Y-62248414D01*
X140633868Y-62146048D01*
X140680981Y-62032306D01*
X140693534Y-61969197D01*
X145585000Y-61969197D01*
X145585000Y-62190803D01*
X145628233Y-62408150D01*
X145713038Y-62612887D01*
X145836156Y-62797145D01*
X145992855Y-62953844D01*
X146177113Y-63076962D01*
X146381850Y-63161767D01*
X146599197Y-63205000D01*
X146820803Y-63205000D01*
X147038150Y-63161767D01*
X147242887Y-63076962D01*
X147427145Y-62953844D01*
X147583844Y-62797145D01*
X147706962Y-62612887D01*
X147791767Y-62408150D01*
X147835000Y-62190803D01*
X147835000Y-61969197D01*
X147791767Y-61751850D01*
X147706962Y-61547113D01*
X147674442Y-61498443D01*
X147845000Y-61498443D01*
X147845000Y-61621557D01*
X147869019Y-61742306D01*
X147916132Y-61856048D01*
X147984531Y-61958414D01*
X148071586Y-62045469D01*
X148173952Y-62113868D01*
X148287694Y-62160981D01*
X148408443Y-62185000D01*
X148531557Y-62185000D01*
X148564520Y-62178443D01*
X149115000Y-62178443D01*
X149115000Y-62301557D01*
X149139019Y-62422306D01*
X149186132Y-62536048D01*
X149254531Y-62638414D01*
X149266496Y-62650379D01*
X149245000Y-62758443D01*
X149245000Y-62881557D01*
X149269019Y-63002306D01*
X149316132Y-63116048D01*
X149384531Y-63218414D01*
X149471586Y-63305469D01*
X149573952Y-63373868D01*
X149687694Y-63420981D01*
X149808443Y-63445000D01*
X149931557Y-63445000D01*
X150052306Y-63420981D01*
X150166048Y-63373868D01*
X150268414Y-63305469D01*
X150355469Y-63218414D01*
X150423868Y-63116048D01*
X150470981Y-63002306D01*
X150495000Y-62881557D01*
X150495000Y-62758443D01*
X150470981Y-62637694D01*
X150423868Y-62523952D01*
X150355469Y-62421586D01*
X150343504Y-62409621D01*
X150365000Y-62301557D01*
X150365000Y-62178443D01*
X150340981Y-62057694D01*
X150293868Y-61943952D01*
X150225469Y-61841586D01*
X150138414Y-61754531D01*
X150036048Y-61686132D01*
X149922306Y-61639019D01*
X149801557Y-61615000D01*
X149678443Y-61615000D01*
X149557694Y-61639019D01*
X149443952Y-61686132D01*
X149341586Y-61754531D01*
X149254531Y-61841586D01*
X149186132Y-61943952D01*
X149139019Y-62057694D01*
X149115000Y-62178443D01*
X148564520Y-62178443D01*
X148652306Y-62160981D01*
X148766048Y-62113868D01*
X148868414Y-62045469D01*
X148955469Y-61958414D01*
X149023868Y-61856048D01*
X149070981Y-61742306D01*
X149095000Y-61621557D01*
X149095000Y-61498443D01*
X149070981Y-61377694D01*
X149023868Y-61263952D01*
X148955469Y-61161586D01*
X148868414Y-61074531D01*
X148766048Y-61006132D01*
X148652306Y-60959019D01*
X148531557Y-60935000D01*
X148408443Y-60935000D01*
X148287694Y-60959019D01*
X148173952Y-61006132D01*
X148071586Y-61074531D01*
X147984531Y-61161586D01*
X147916132Y-61263952D01*
X147869019Y-61377694D01*
X147845000Y-61498443D01*
X147674442Y-61498443D01*
X147583844Y-61362855D01*
X147427145Y-61206156D01*
X147242887Y-61083038D01*
X147038150Y-60998233D01*
X146820803Y-60955000D01*
X146599197Y-60955000D01*
X146381850Y-60998233D01*
X146177113Y-61083038D01*
X145992855Y-61206156D01*
X145836156Y-61362855D01*
X145713038Y-61547113D01*
X145628233Y-61751850D01*
X145585000Y-61969197D01*
X140693534Y-61969197D01*
X140705000Y-61911557D01*
X140705000Y-61788443D01*
X140680981Y-61667694D01*
X140633868Y-61553952D01*
X140565469Y-61451586D01*
X140478414Y-61364531D01*
X140376048Y-61296132D01*
X140262306Y-61249019D01*
X140141557Y-61225000D01*
X140018443Y-61225000D01*
X139897694Y-61249019D01*
X139783952Y-61296132D01*
X139681586Y-61364531D01*
X139594531Y-61451586D01*
X139526132Y-61553952D01*
X139479019Y-61667694D01*
X139455000Y-61788443D01*
X136425000Y-61788443D01*
X136425000Y-60518443D01*
X139465000Y-60518443D01*
X139465000Y-60641557D01*
X139489019Y-60762306D01*
X139536132Y-60876048D01*
X139604531Y-60978414D01*
X139691586Y-61065469D01*
X139793952Y-61133868D01*
X139907694Y-61180981D01*
X140028443Y-61205000D01*
X140151557Y-61205000D01*
X140272306Y-61180981D01*
X140386048Y-61133868D01*
X140488414Y-61065469D01*
X140575469Y-60978414D01*
X140643868Y-60876048D01*
X140690981Y-60762306D01*
X140715000Y-60641557D01*
X140715000Y-60518443D01*
X140690981Y-60397694D01*
X140643868Y-60283952D01*
X140575469Y-60181586D01*
X140488414Y-60094531D01*
X140386048Y-60026132D01*
X140272306Y-59979019D01*
X140151557Y-59955000D01*
X140028443Y-59955000D01*
X139907694Y-59979019D01*
X139793952Y-60026132D01*
X139691586Y-60094531D01*
X139604531Y-60181586D01*
X139536132Y-60283952D01*
X139489019Y-60397694D01*
X139465000Y-60518443D01*
X136425000Y-60518443D01*
X136425000Y-59208443D01*
X139455000Y-59208443D01*
X139455000Y-59331557D01*
X139479019Y-59452306D01*
X139526132Y-59566048D01*
X139594531Y-59668414D01*
X139681586Y-59755469D01*
X139783952Y-59823868D01*
X139897694Y-59870981D01*
X140018443Y-59895000D01*
X140141557Y-59895000D01*
X140262306Y-59870981D01*
X140376048Y-59823868D01*
X140478414Y-59755469D01*
X140565469Y-59668414D01*
X140633868Y-59566048D01*
X140680981Y-59452306D01*
X140683738Y-59438443D01*
X160725000Y-59438443D01*
X160725000Y-59561557D01*
X160749019Y-59682306D01*
X160796132Y-59796048D01*
X160864531Y-59898414D01*
X160951586Y-59985469D01*
X161053952Y-60053868D01*
X161167694Y-60100981D01*
X161288443Y-60125000D01*
X161411557Y-60125000D01*
X161532306Y-60100981D01*
X161646048Y-60053868D01*
X161748414Y-59985469D01*
X161835469Y-59898414D01*
X161837500Y-59895374D01*
X161839531Y-59898414D01*
X161926586Y-59985469D01*
X162028952Y-60053868D01*
X162142694Y-60100981D01*
X162263443Y-60125000D01*
X162386557Y-60125000D01*
X162507306Y-60100981D01*
X162621048Y-60053868D01*
X162723414Y-59985469D01*
X162810469Y-59898414D01*
X162878868Y-59796048D01*
X162925981Y-59682306D01*
X162950000Y-59561557D01*
X162950000Y-59438443D01*
X162925981Y-59317694D01*
X162878868Y-59203952D01*
X162810469Y-59101586D01*
X162723414Y-59014531D01*
X162621048Y-58946132D01*
X162507306Y-58899019D01*
X162386557Y-58875000D01*
X162263443Y-58875000D01*
X162142694Y-58899019D01*
X162028952Y-58946132D01*
X161926586Y-59014531D01*
X161839531Y-59101586D01*
X161837500Y-59104626D01*
X161835469Y-59101586D01*
X161748414Y-59014531D01*
X161646048Y-58946132D01*
X161532306Y-58899019D01*
X161411557Y-58875000D01*
X161288443Y-58875000D01*
X161167694Y-58899019D01*
X161053952Y-58946132D01*
X160951586Y-59014531D01*
X160864531Y-59101586D01*
X160796132Y-59203952D01*
X160749019Y-59317694D01*
X160725000Y-59438443D01*
X140683738Y-59438443D01*
X140705000Y-59331557D01*
X140705000Y-59208443D01*
X140680981Y-59087694D01*
X140633868Y-58973952D01*
X140565469Y-58871586D01*
X140478414Y-58784531D01*
X140376048Y-58716132D01*
X140298817Y-58684142D01*
X140396048Y-58643868D01*
X140498414Y-58575469D01*
X140585469Y-58488414D01*
X140653868Y-58386048D01*
X140700981Y-58272306D01*
X140725000Y-58151557D01*
X140725000Y-58028443D01*
X140707098Y-57938443D01*
X146375000Y-57938443D01*
X146375000Y-58061557D01*
X146399019Y-58182306D01*
X146446132Y-58296048D01*
X146514531Y-58398414D01*
X146601586Y-58485469D01*
X146703952Y-58553868D01*
X146817694Y-58600981D01*
X146938443Y-58625000D01*
X147061557Y-58625000D01*
X147182306Y-58600981D01*
X147296048Y-58553868D01*
X147398414Y-58485469D01*
X147485469Y-58398414D01*
X147497110Y-58380993D01*
X147501586Y-58385469D01*
X147603952Y-58453868D01*
X147717694Y-58500981D01*
X147838443Y-58525000D01*
X147961557Y-58525000D01*
X148082306Y-58500981D01*
X148196048Y-58453868D01*
X148298414Y-58385469D01*
X148385469Y-58298414D01*
X148453868Y-58196048D01*
X148500981Y-58082306D01*
X148525000Y-57961557D01*
X148525000Y-57838443D01*
X148500981Y-57717694D01*
X148453868Y-57603952D01*
X148390051Y-57508443D01*
X149805000Y-57508443D01*
X149805000Y-57631557D01*
X149829019Y-57752306D01*
X149876132Y-57866048D01*
X149944531Y-57968414D01*
X150031586Y-58055469D01*
X150133952Y-58123868D01*
X150247694Y-58170981D01*
X150368443Y-58195000D01*
X150491557Y-58195000D01*
X150612306Y-58170981D01*
X150726048Y-58123868D01*
X150828414Y-58055469D01*
X150915469Y-57968414D01*
X150983868Y-57866048D01*
X151030981Y-57752306D01*
X151055000Y-57631557D01*
X151055000Y-57508443D01*
X151030981Y-57387694D01*
X150983868Y-57273952D01*
X150918204Y-57175679D01*
X150935469Y-57158414D01*
X151003868Y-57056048D01*
X151050981Y-56942306D01*
X151075000Y-56821557D01*
X151075000Y-56698443D01*
X151050981Y-56577694D01*
X151003868Y-56463952D01*
X150935469Y-56361586D01*
X150860014Y-56286131D01*
X151580000Y-56286131D01*
X151580000Y-56433869D01*
X151608822Y-56578767D01*
X151665359Y-56715258D01*
X151747437Y-56838097D01*
X151769340Y-56860000D01*
X151747437Y-56881903D01*
X151665359Y-57004742D01*
X151608822Y-57141233D01*
X151580000Y-57286131D01*
X151580000Y-57433869D01*
X151608822Y-57578767D01*
X151665359Y-57715258D01*
X151747437Y-57838097D01*
X151769340Y-57860000D01*
X151747437Y-57881903D01*
X151665359Y-58004742D01*
X151608822Y-58141233D01*
X151580000Y-58286131D01*
X151580000Y-58433869D01*
X151608822Y-58578767D01*
X151665359Y-58715258D01*
X151747437Y-58838097D01*
X151851903Y-58942563D01*
X151974742Y-59024641D01*
X152111233Y-59081178D01*
X152256131Y-59110000D01*
X152403869Y-59110000D01*
X152548767Y-59081178D01*
X152685258Y-59024641D01*
X152808097Y-58942563D01*
X152830000Y-58920660D01*
X152851903Y-58942563D01*
X152974742Y-59024641D01*
X153111233Y-59081178D01*
X153256131Y-59110000D01*
X153403869Y-59110000D01*
X153548767Y-59081178D01*
X153685258Y-59024641D01*
X153808097Y-58942563D01*
X153830000Y-58920660D01*
X153851903Y-58942563D01*
X153974742Y-59024641D01*
X154111233Y-59081178D01*
X154256131Y-59110000D01*
X154403869Y-59110000D01*
X154548767Y-59081178D01*
X154685258Y-59024641D01*
X154808097Y-58942563D01*
X154912563Y-58838097D01*
X154994641Y-58715258D01*
X155051178Y-58578767D01*
X155080000Y-58433869D01*
X155080000Y-58286131D01*
X155051178Y-58141233D01*
X154994641Y-58004742D01*
X154912563Y-57881903D01*
X154890660Y-57860000D01*
X154912563Y-57838097D01*
X154994641Y-57715258D01*
X155051178Y-57578767D01*
X155080000Y-57433869D01*
X155080000Y-57286131D01*
X155051178Y-57141233D01*
X155033454Y-57098443D01*
X155535000Y-57098443D01*
X155535000Y-57221557D01*
X155559019Y-57342306D01*
X155606132Y-57456048D01*
X155674531Y-57558414D01*
X155761586Y-57645469D01*
X155863952Y-57713868D01*
X155977694Y-57760981D01*
X156098443Y-57785000D01*
X156221557Y-57785000D01*
X156342306Y-57760981D01*
X156396718Y-57738443D01*
X160455000Y-57738443D01*
X160455000Y-57861557D01*
X160479019Y-57982306D01*
X160526132Y-58096048D01*
X160594531Y-58198414D01*
X160681586Y-58285469D01*
X160783952Y-58353868D01*
X160897694Y-58400981D01*
X161018443Y-58425000D01*
X161141557Y-58425000D01*
X161262306Y-58400981D01*
X161376048Y-58353868D01*
X161478414Y-58285469D01*
X161565469Y-58198414D01*
X161633868Y-58096048D01*
X161680981Y-57982306D01*
X161705000Y-57861557D01*
X161705000Y-57738443D01*
X161680981Y-57617694D01*
X161633868Y-57503952D01*
X161565469Y-57401586D01*
X161478414Y-57314531D01*
X161376048Y-57246132D01*
X161262306Y-57199019D01*
X161141557Y-57175000D01*
X161018443Y-57175000D01*
X160897694Y-57199019D01*
X160783952Y-57246132D01*
X160681586Y-57314531D01*
X160594531Y-57401586D01*
X160526132Y-57503952D01*
X160479019Y-57617694D01*
X160455000Y-57738443D01*
X156396718Y-57738443D01*
X156456048Y-57713868D01*
X156558414Y-57645469D01*
X156645469Y-57558414D01*
X156713868Y-57456048D01*
X156760981Y-57342306D01*
X156785000Y-57221557D01*
X156785000Y-57098443D01*
X156760981Y-56977694D01*
X156713868Y-56863952D01*
X156645469Y-56761586D01*
X156558414Y-56674531D01*
X156456048Y-56606132D01*
X156342306Y-56559019D01*
X156221557Y-56535000D01*
X156098443Y-56535000D01*
X155977694Y-56559019D01*
X155863952Y-56606132D01*
X155761586Y-56674531D01*
X155674531Y-56761586D01*
X155606132Y-56863952D01*
X155559019Y-56977694D01*
X155535000Y-57098443D01*
X155033454Y-57098443D01*
X154994641Y-57004742D01*
X154912563Y-56881903D01*
X154890660Y-56860000D01*
X154912563Y-56838097D01*
X154994641Y-56715258D01*
X155051178Y-56578767D01*
X155080000Y-56433869D01*
X155080000Y-56286131D01*
X155051178Y-56141233D01*
X154994641Y-56004742D01*
X154912563Y-55881903D01*
X154808097Y-55777437D01*
X154685258Y-55695359D01*
X154548767Y-55638822D01*
X154403869Y-55610000D01*
X154256131Y-55610000D01*
X154111233Y-55638822D01*
X153974742Y-55695359D01*
X153851903Y-55777437D01*
X153830000Y-55799340D01*
X153808097Y-55777437D01*
X153685258Y-55695359D01*
X153548767Y-55638822D01*
X153403869Y-55610000D01*
X153256131Y-55610000D01*
X153111233Y-55638822D01*
X152974742Y-55695359D01*
X152851903Y-55777437D01*
X152830000Y-55799340D01*
X152808097Y-55777437D01*
X152685258Y-55695359D01*
X152548767Y-55638822D01*
X152403869Y-55610000D01*
X152256131Y-55610000D01*
X152111233Y-55638822D01*
X151974742Y-55695359D01*
X151851903Y-55777437D01*
X151747437Y-55881903D01*
X151665359Y-56004742D01*
X151608822Y-56141233D01*
X151580000Y-56286131D01*
X150860014Y-56286131D01*
X150848414Y-56274531D01*
X150746048Y-56206132D01*
X150632306Y-56159019D01*
X150511557Y-56135000D01*
X150388443Y-56135000D01*
X150267694Y-56159019D01*
X150153952Y-56206132D01*
X150051586Y-56274531D01*
X149964531Y-56361586D01*
X149896132Y-56463952D01*
X149849019Y-56577694D01*
X149825000Y-56698443D01*
X149825000Y-56821557D01*
X149849019Y-56942306D01*
X149896132Y-57056048D01*
X149961796Y-57154321D01*
X149944531Y-57171586D01*
X149876132Y-57273952D01*
X149829019Y-57387694D01*
X149805000Y-57508443D01*
X148390051Y-57508443D01*
X148385469Y-57501586D01*
X148298414Y-57414531D01*
X148196048Y-57346132D01*
X148082306Y-57299019D01*
X147961557Y-57275000D01*
X147838443Y-57275000D01*
X147717694Y-57299019D01*
X147603952Y-57346132D01*
X147501586Y-57414531D01*
X147414531Y-57501586D01*
X147402890Y-57519007D01*
X147398414Y-57514531D01*
X147296048Y-57446132D01*
X147182306Y-57399019D01*
X147061557Y-57375000D01*
X146938443Y-57375000D01*
X146817694Y-57399019D01*
X146703952Y-57446132D01*
X146601586Y-57514531D01*
X146514531Y-57601586D01*
X146446132Y-57703952D01*
X146399019Y-57817694D01*
X146375000Y-57938443D01*
X140707098Y-57938443D01*
X140700981Y-57907694D01*
X140653868Y-57793952D01*
X140585469Y-57691586D01*
X140498414Y-57604531D01*
X140396048Y-57536132D01*
X140282306Y-57489019D01*
X140161557Y-57465000D01*
X140038443Y-57465000D01*
X139917694Y-57489019D01*
X139803952Y-57536132D01*
X139701586Y-57604531D01*
X139614531Y-57691586D01*
X139546132Y-57793952D01*
X139499019Y-57907694D01*
X139475000Y-58028443D01*
X139475000Y-58151557D01*
X139499019Y-58272306D01*
X139546132Y-58386048D01*
X139614531Y-58488414D01*
X139701586Y-58575469D01*
X139803952Y-58643868D01*
X139881183Y-58675858D01*
X139783952Y-58716132D01*
X139681586Y-58784531D01*
X139594531Y-58871586D01*
X139526132Y-58973952D01*
X139479019Y-59087694D01*
X139455000Y-59208443D01*
X136425000Y-59208443D01*
X136425000Y-55448443D01*
X139465000Y-55448443D01*
X139465000Y-55571557D01*
X139489019Y-55692306D01*
X139536132Y-55806048D01*
X139604531Y-55908414D01*
X139691586Y-55995469D01*
X139793952Y-56063868D01*
X139907694Y-56110981D01*
X139963035Y-56121989D01*
X139927694Y-56129019D01*
X139813952Y-56176132D01*
X139711586Y-56244531D01*
X139624531Y-56331586D01*
X139556132Y-56433952D01*
X139509019Y-56547694D01*
X139485000Y-56668443D01*
X139485000Y-56791557D01*
X139509019Y-56912306D01*
X139556132Y-57026048D01*
X139624531Y-57128414D01*
X139711586Y-57215469D01*
X139813952Y-57283868D01*
X139927694Y-57330981D01*
X140048443Y-57355000D01*
X140171557Y-57355000D01*
X140292306Y-57330981D01*
X140406048Y-57283868D01*
X140508414Y-57215469D01*
X140595469Y-57128414D01*
X140663868Y-57026048D01*
X140710981Y-56912306D01*
X140735000Y-56791557D01*
X140735000Y-56668443D01*
X140710981Y-56547694D01*
X140663868Y-56433952D01*
X140595469Y-56331586D01*
X140508414Y-56244531D01*
X140406048Y-56176132D01*
X140292306Y-56129019D01*
X140236965Y-56118011D01*
X140272306Y-56110981D01*
X140386048Y-56063868D01*
X140488414Y-55995469D01*
X140575469Y-55908414D01*
X140643868Y-55806048D01*
X140690981Y-55692306D01*
X140711641Y-55588443D01*
X146975000Y-55588443D01*
X146975000Y-55711557D01*
X146999019Y-55832306D01*
X147046132Y-55946048D01*
X147114531Y-56048414D01*
X147201586Y-56135469D01*
X147303952Y-56203868D01*
X147417694Y-56250981D01*
X147538443Y-56275000D01*
X147661557Y-56275000D01*
X147782306Y-56250981D01*
X147896048Y-56203868D01*
X147998414Y-56135469D01*
X148085469Y-56048414D01*
X148153868Y-55946048D01*
X148200981Y-55832306D01*
X148225000Y-55711557D01*
X148225000Y-55588443D01*
X148200981Y-55467694D01*
X148153868Y-55353952D01*
X148085469Y-55251586D01*
X147998414Y-55164531D01*
X147896048Y-55096132D01*
X147782306Y-55049019D01*
X147661557Y-55025000D01*
X147538443Y-55025000D01*
X147417694Y-55049019D01*
X147303952Y-55096132D01*
X147201586Y-55164531D01*
X147114531Y-55251586D01*
X147046132Y-55353952D01*
X146999019Y-55467694D01*
X146975000Y-55588443D01*
X140711641Y-55588443D01*
X140715000Y-55571557D01*
X140715000Y-55448443D01*
X140690981Y-55327694D01*
X140643868Y-55213952D01*
X140575469Y-55111586D01*
X140488414Y-55024531D01*
X140386048Y-54956132D01*
X140272306Y-54909019D01*
X140151557Y-54885000D01*
X140028443Y-54885000D01*
X139907694Y-54909019D01*
X139793952Y-54956132D01*
X139691586Y-55024531D01*
X139604531Y-55111586D01*
X139536132Y-55213952D01*
X139489019Y-55327694D01*
X139465000Y-55448443D01*
X136425000Y-55448443D01*
X136425000Y-52948443D01*
X139555000Y-52948443D01*
X139555000Y-53071557D01*
X139579019Y-53192306D01*
X139626132Y-53306048D01*
X139694531Y-53408414D01*
X139781586Y-53495469D01*
X139883952Y-53563868D01*
X139997694Y-53610981D01*
X140113307Y-53633978D01*
X140037694Y-53649019D01*
X139923952Y-53696132D01*
X139821586Y-53764531D01*
X139734531Y-53851586D01*
X139666132Y-53953952D01*
X139619019Y-54067694D01*
X139595000Y-54188443D01*
X139595000Y-54311557D01*
X139619019Y-54432306D01*
X139666132Y-54546048D01*
X139734531Y-54648414D01*
X139821586Y-54735469D01*
X139923952Y-54803868D01*
X140037694Y-54850981D01*
X140158443Y-54875000D01*
X140281557Y-54875000D01*
X140402306Y-54850981D01*
X140516048Y-54803868D01*
X140618414Y-54735469D01*
X140705469Y-54648414D01*
X140773868Y-54546048D01*
X140820981Y-54432306D01*
X140845000Y-54311557D01*
X140845000Y-54308443D01*
X149875000Y-54308443D01*
X149875000Y-54431557D01*
X149899019Y-54552306D01*
X149946132Y-54666048D01*
X150014531Y-54768414D01*
X150101586Y-54855469D01*
X150203952Y-54923868D01*
X150230827Y-54935000D01*
X150203952Y-54946132D01*
X150101586Y-55014531D01*
X150014531Y-55101586D01*
X149946132Y-55203952D01*
X149899019Y-55317694D01*
X149875000Y-55438443D01*
X149875000Y-55561557D01*
X149899019Y-55682306D01*
X149946132Y-55796048D01*
X150014531Y-55898414D01*
X150101586Y-55985469D01*
X150203952Y-56053868D01*
X150317694Y-56100981D01*
X150438443Y-56125000D01*
X150561557Y-56125000D01*
X150682306Y-56100981D01*
X150796048Y-56053868D01*
X150898414Y-55985469D01*
X150985469Y-55898414D01*
X151053868Y-55796048D01*
X151100981Y-55682306D01*
X151125000Y-55561557D01*
X151125000Y-55438443D01*
X151100981Y-55317694D01*
X151053868Y-55203952D01*
X150985469Y-55101586D01*
X150898414Y-55014531D01*
X150796048Y-54946132D01*
X150769173Y-54935000D01*
X150796048Y-54923868D01*
X150898414Y-54855469D01*
X150985469Y-54768414D01*
X151015000Y-54724218D01*
X151044531Y-54768414D01*
X151131586Y-54855469D01*
X151233952Y-54923868D01*
X151347694Y-54970981D01*
X151468443Y-54995000D01*
X151591557Y-54995000D01*
X151712306Y-54970981D01*
X151815000Y-54928444D01*
X151917694Y-54970981D01*
X152038443Y-54995000D01*
X152161557Y-54995000D01*
X152282306Y-54970981D01*
X152396048Y-54923868D01*
X152450000Y-54887818D01*
X152503952Y-54923868D01*
X152617694Y-54970981D01*
X152738443Y-54995000D01*
X152861557Y-54995000D01*
X152982306Y-54970981D01*
X153096048Y-54923868D01*
X153100000Y-54921227D01*
X153103952Y-54923868D01*
X153217694Y-54970981D01*
X153338443Y-54995000D01*
X153461557Y-54995000D01*
X153582306Y-54970981D01*
X153696048Y-54923868D01*
X153750000Y-54887818D01*
X153803952Y-54923868D01*
X153917694Y-54970981D01*
X154038443Y-54995000D01*
X154161557Y-54995000D01*
X154282306Y-54970981D01*
X154396048Y-54923868D01*
X154498414Y-54855469D01*
X154585469Y-54768414D01*
X154653868Y-54666048D01*
X154700981Y-54552306D01*
X154725000Y-54431557D01*
X154725000Y-54388443D01*
X154825000Y-54388443D01*
X154825000Y-54511557D01*
X154849019Y-54632306D01*
X154896132Y-54746048D01*
X154964531Y-54848414D01*
X155051586Y-54935469D01*
X155153952Y-55003868D01*
X155267694Y-55050981D01*
X155388443Y-55075000D01*
X155511557Y-55075000D01*
X155528338Y-55071662D01*
X155525000Y-55088443D01*
X155525000Y-55211557D01*
X155549019Y-55332306D01*
X155596132Y-55446048D01*
X155664531Y-55548414D01*
X155751586Y-55635469D01*
X155853952Y-55703868D01*
X155967694Y-55750981D01*
X156088443Y-55775000D01*
X156211557Y-55775000D01*
X156332306Y-55750981D01*
X156446048Y-55703868D01*
X156548414Y-55635469D01*
X156635469Y-55548414D01*
X156703868Y-55446048D01*
X156750981Y-55332306D01*
X156775000Y-55211557D01*
X156775000Y-55088443D01*
X156750981Y-54967694D01*
X156703868Y-54853952D01*
X156635469Y-54751586D01*
X156548414Y-54664531D01*
X156446048Y-54596132D01*
X156332306Y-54549019D01*
X156211557Y-54525000D01*
X156088443Y-54525000D01*
X156071662Y-54528338D01*
X156075000Y-54511557D01*
X156075000Y-54388443D01*
X156050981Y-54267694D01*
X156038865Y-54238443D01*
X158775000Y-54238443D01*
X158775000Y-54361557D01*
X158799019Y-54482306D01*
X158846132Y-54596048D01*
X158914531Y-54698414D01*
X159001586Y-54785469D01*
X159103952Y-54853868D01*
X159217694Y-54900981D01*
X159338443Y-54925000D01*
X159461557Y-54925000D01*
X159582306Y-54900981D01*
X159696048Y-54853868D01*
X159798414Y-54785469D01*
X159885469Y-54698414D01*
X159953868Y-54596048D01*
X160000981Y-54482306D01*
X160025000Y-54361557D01*
X160025000Y-54238443D01*
X160000981Y-54117694D01*
X159953868Y-54003952D01*
X159885469Y-53901586D01*
X159798414Y-53814531D01*
X159696048Y-53746132D01*
X159582306Y-53699019D01*
X159461557Y-53675000D01*
X159338443Y-53675000D01*
X159217694Y-53699019D01*
X159103952Y-53746132D01*
X159001586Y-53814531D01*
X158914531Y-53901586D01*
X158846132Y-54003952D01*
X158799019Y-54117694D01*
X158775000Y-54238443D01*
X156038865Y-54238443D01*
X156003868Y-54153952D01*
X155935469Y-54051586D01*
X155848414Y-53964531D01*
X155746048Y-53896132D01*
X155632306Y-53849019D01*
X155511557Y-53825000D01*
X155388443Y-53825000D01*
X155267694Y-53849019D01*
X155153952Y-53896132D01*
X155051586Y-53964531D01*
X154964531Y-54051586D01*
X154896132Y-54153952D01*
X154849019Y-54267694D01*
X154825000Y-54388443D01*
X154725000Y-54388443D01*
X154725000Y-54308443D01*
X154700981Y-54187694D01*
X154653868Y-54073952D01*
X154585469Y-53971586D01*
X154498414Y-53884531D01*
X154396048Y-53816132D01*
X154282306Y-53769019D01*
X154161557Y-53745000D01*
X154038443Y-53745000D01*
X153917694Y-53769019D01*
X153803952Y-53816132D01*
X153750000Y-53852182D01*
X153696048Y-53816132D01*
X153582306Y-53769019D01*
X153461557Y-53745000D01*
X153338443Y-53745000D01*
X153217694Y-53769019D01*
X153103952Y-53816132D01*
X153100000Y-53818773D01*
X153096048Y-53816132D01*
X152982306Y-53769019D01*
X152861557Y-53745000D01*
X152738443Y-53745000D01*
X152617694Y-53769019D01*
X152503952Y-53816132D01*
X152450000Y-53852182D01*
X152396048Y-53816132D01*
X152282306Y-53769019D01*
X152161557Y-53745000D01*
X152038443Y-53745000D01*
X151917694Y-53769019D01*
X151815000Y-53811556D01*
X151712306Y-53769019D01*
X151591557Y-53745000D01*
X151468443Y-53745000D01*
X151347694Y-53769019D01*
X151233952Y-53816132D01*
X151131586Y-53884531D01*
X151044531Y-53971586D01*
X151015000Y-54015782D01*
X150985469Y-53971586D01*
X150898414Y-53884531D01*
X150796048Y-53816132D01*
X150682306Y-53769019D01*
X150561557Y-53745000D01*
X150438443Y-53745000D01*
X150317694Y-53769019D01*
X150203952Y-53816132D01*
X150101586Y-53884531D01*
X150014531Y-53971586D01*
X149946132Y-54073952D01*
X149899019Y-54187694D01*
X149875000Y-54308443D01*
X140845000Y-54308443D01*
X140845000Y-54188443D01*
X140820981Y-54067694D01*
X140773868Y-53953952D01*
X140705469Y-53851586D01*
X140618414Y-53764531D01*
X140516048Y-53696132D01*
X140402306Y-53649019D01*
X140286693Y-53626022D01*
X140362306Y-53610981D01*
X140476048Y-53563868D01*
X140578414Y-53495469D01*
X140665469Y-53408414D01*
X140733868Y-53306048D01*
X140780981Y-53192306D01*
X140805000Y-53071557D01*
X140805000Y-52948443D01*
X140780981Y-52827694D01*
X140733868Y-52713952D01*
X140665469Y-52611586D01*
X140632326Y-52578443D01*
X147575000Y-52578443D01*
X147575000Y-52701557D01*
X147599019Y-52822306D01*
X147646132Y-52936048D01*
X147714531Y-53038414D01*
X147801586Y-53125469D01*
X147903952Y-53193868D01*
X148017694Y-53240981D01*
X148138443Y-53265000D01*
X148261557Y-53265000D01*
X148382306Y-53240981D01*
X148496048Y-53193868D01*
X148570000Y-53144455D01*
X148643952Y-53193868D01*
X148757694Y-53240981D01*
X148878443Y-53265000D01*
X149001557Y-53265000D01*
X149122306Y-53240981D01*
X149236048Y-53193868D01*
X149338414Y-53125469D01*
X149425469Y-53038414D01*
X149493868Y-52936048D01*
X149540981Y-52822306D01*
X149565000Y-52701557D01*
X149565000Y-52578443D01*
X149540981Y-52457694D01*
X149493868Y-52343952D01*
X149425469Y-52241586D01*
X149338414Y-52154531D01*
X149236048Y-52086132D01*
X149122306Y-52039019D01*
X149001557Y-52015000D01*
X148878443Y-52015000D01*
X148757694Y-52039019D01*
X148643952Y-52086132D01*
X148570000Y-52135545D01*
X148496048Y-52086132D01*
X148382306Y-52039019D01*
X148261557Y-52015000D01*
X148138443Y-52015000D01*
X148017694Y-52039019D01*
X147903952Y-52086132D01*
X147801586Y-52154531D01*
X147714531Y-52241586D01*
X147646132Y-52343952D01*
X147599019Y-52457694D01*
X147575000Y-52578443D01*
X140632326Y-52578443D01*
X140578414Y-52524531D01*
X140476048Y-52456132D01*
X140362306Y-52409019D01*
X140241557Y-52385000D01*
X140118443Y-52385000D01*
X139997694Y-52409019D01*
X139883952Y-52456132D01*
X139781586Y-52524531D01*
X139694531Y-52611586D01*
X139626132Y-52713952D01*
X139579019Y-52827694D01*
X139555000Y-52948443D01*
X136425000Y-52948443D01*
X136425000Y-51175000D01*
X150790748Y-51175000D01*
X150731586Y-51214531D01*
D16*
G36*
X172565000Y-77815000D02*
G01*
X169633025Y-77815000D01*
X169643236Y-77804789D01*
X169712729Y-77700785D01*
X169760597Y-77585223D01*
X169785000Y-77462542D01*
X169785000Y-77337458D01*
X169760597Y-77214777D01*
X169712729Y-77099215D01*
X169643236Y-76995211D01*
X169554789Y-76906764D01*
X169450785Y-76837271D01*
X169335223Y-76789403D01*
X169212542Y-76765000D01*
X169087458Y-76765000D01*
X168964777Y-76789403D01*
X168849215Y-76837271D01*
X168745211Y-76906764D01*
X168656764Y-76995211D01*
X168587271Y-77099215D01*
X168539403Y-77214777D01*
X168515000Y-77337458D01*
X168515000Y-77462542D01*
X168539403Y-77585223D01*
X168587271Y-77700785D01*
X168656764Y-77804789D01*
X168666975Y-77815000D01*
X168197168Y-77815000D01*
X168214789Y-77803226D01*
X168303236Y-77714779D01*
X168372729Y-77610775D01*
X168420597Y-77495213D01*
X168445000Y-77372532D01*
X168445000Y-77247448D01*
X168420597Y-77124767D01*
X168372729Y-77009205D01*
X168303236Y-76905201D01*
X168214789Y-76816754D01*
X168110785Y-76747261D01*
X167995223Y-76699393D01*
X167872542Y-76674990D01*
X167747458Y-76674990D01*
X167624777Y-76699393D01*
X167509215Y-76747261D01*
X167405211Y-76816754D01*
X167316764Y-76905201D01*
X167247271Y-77009205D01*
X167199403Y-77124767D01*
X167175000Y-77247448D01*
X167175000Y-77372532D01*
X167199403Y-77495213D01*
X167247271Y-77610775D01*
X167316764Y-77714779D01*
X167405211Y-77803226D01*
X167422832Y-77815000D01*
X145935000Y-77815000D01*
X145935000Y-75410132D01*
X145986480Y-75461612D01*
X146172376Y-75585824D01*
X146378933Y-75671383D01*
X146598212Y-75715000D01*
X146821788Y-75715000D01*
X147041067Y-75671383D01*
X147247624Y-75585824D01*
X147423749Y-75468141D01*
X147437271Y-75500785D01*
X147506764Y-75604789D01*
X147595211Y-75693236D01*
X147699215Y-75762729D01*
X147814777Y-75810597D01*
X147937458Y-75835000D01*
X148062542Y-75835000D01*
X148185223Y-75810597D01*
X148300785Y-75762729D01*
X148404789Y-75693236D01*
X148493236Y-75604789D01*
X148562729Y-75500785D01*
X148604662Y-75399551D01*
X148699215Y-75462729D01*
X148814777Y-75510597D01*
X148937458Y-75535000D01*
X149062542Y-75535000D01*
X149185223Y-75510597D01*
X149300785Y-75462729D01*
X149404789Y-75393236D01*
X149493236Y-75304789D01*
X149551588Y-75217458D01*
X150035000Y-75217458D01*
X150035000Y-75342542D01*
X150059403Y-75465223D01*
X150107271Y-75580785D01*
X150176764Y-75684789D01*
X150265211Y-75773236D01*
X150369215Y-75842729D01*
X150484777Y-75890597D01*
X150607458Y-75915000D01*
X150732542Y-75915000D01*
X150855223Y-75890597D01*
X150970785Y-75842729D01*
X151074789Y-75773236D01*
X151163236Y-75684789D01*
X151232729Y-75580785D01*
X151263315Y-75506944D01*
X151295223Y-75500597D01*
X151410785Y-75452729D01*
X151435000Y-75436549D01*
X151435000Y-75482542D01*
X151459403Y-75605223D01*
X151507271Y-75720785D01*
X151576764Y-75824789D01*
X151665211Y-75913236D01*
X151769215Y-75982729D01*
X151884777Y-76030597D01*
X152007458Y-76055000D01*
X152132542Y-76055000D01*
X152255223Y-76030597D01*
X152370785Y-75982729D01*
X152474789Y-75913236D01*
X152563236Y-75824789D01*
X152626364Y-75730311D01*
X152647271Y-75780785D01*
X152716764Y-75884789D01*
X152805211Y-75973236D01*
X152909215Y-76042729D01*
X153024777Y-76090597D01*
X153147458Y-76115000D01*
X153272542Y-76115000D01*
X153395223Y-76090597D01*
X153510785Y-76042729D01*
X153614789Y-75973236D01*
X153703236Y-75884789D01*
X153772729Y-75780785D01*
X153811386Y-75687458D01*
X154365000Y-75687458D01*
X154365000Y-75812542D01*
X154389403Y-75935223D01*
X154437271Y-76050785D01*
X154506764Y-76154789D01*
X154595211Y-76243236D01*
X154699215Y-76312729D01*
X154814777Y-76360597D01*
X154937458Y-76385000D01*
X155062542Y-76385000D01*
X155185223Y-76360597D01*
X155300785Y-76312729D01*
X155338605Y-76287458D01*
X155765000Y-76287458D01*
X155765000Y-76412542D01*
X155789403Y-76535223D01*
X155837271Y-76650785D01*
X155906764Y-76754789D01*
X155995211Y-76843236D01*
X156099215Y-76912729D01*
X156214777Y-76960597D01*
X156337458Y-76985000D01*
X156462542Y-76985000D01*
X156585223Y-76960597D01*
X156700785Y-76912729D01*
X156804789Y-76843236D01*
X156893236Y-76754789D01*
X156906426Y-76735048D01*
X163565000Y-76735048D01*
X163565000Y-76860132D01*
X163589403Y-76982813D01*
X163637271Y-77098375D01*
X163706764Y-77202379D01*
X163795211Y-77290826D01*
X163899215Y-77360319D01*
X164014777Y-77408187D01*
X164137458Y-77432590D01*
X164262542Y-77432590D01*
X164385223Y-77408187D01*
X164500785Y-77360319D01*
X164604789Y-77290826D01*
X164693236Y-77202379D01*
X164762729Y-77098375D01*
X164810597Y-76982813D01*
X164835000Y-76860132D01*
X164835000Y-76735048D01*
X164810597Y-76612367D01*
X164762729Y-76496805D01*
X164693236Y-76392801D01*
X164604789Y-76304354D01*
X164500785Y-76234861D01*
X164385223Y-76186993D01*
X164262542Y-76162590D01*
X164137458Y-76162590D01*
X164014777Y-76186993D01*
X163899215Y-76234861D01*
X163795211Y-76304354D01*
X163706764Y-76392801D01*
X163637271Y-76496805D01*
X163589403Y-76612367D01*
X163565000Y-76735048D01*
X156906426Y-76735048D01*
X156962729Y-76650785D01*
X157010597Y-76535223D01*
X157035000Y-76412542D01*
X157035000Y-76287458D01*
X157010597Y-76164777D01*
X156962729Y-76049215D01*
X156893236Y-75945211D01*
X156804789Y-75856764D01*
X156700785Y-75787271D01*
X156585223Y-75739403D01*
X156462542Y-75715000D01*
X156337458Y-75715000D01*
X156214777Y-75739403D01*
X156099215Y-75787271D01*
X155995211Y-75856764D01*
X155906764Y-75945211D01*
X155837271Y-76049215D01*
X155789403Y-76164777D01*
X155765000Y-76287458D01*
X155338605Y-76287458D01*
X155404789Y-76243236D01*
X155493236Y-76154789D01*
X155562729Y-76050785D01*
X155610597Y-75935223D01*
X155635000Y-75812542D01*
X155635000Y-75687458D01*
X158815000Y-75687458D01*
X158815000Y-75812542D01*
X158839403Y-75935223D01*
X158887271Y-76050785D01*
X158956764Y-76154789D01*
X159045211Y-76243236D01*
X159149215Y-76312729D01*
X159264777Y-76360597D01*
X159387458Y-76385000D01*
X159512542Y-76385000D01*
X159635223Y-76360597D01*
X159750785Y-76312729D01*
X159854789Y-76243236D01*
X159943236Y-76154789D01*
X160012729Y-76050785D01*
X160042442Y-75979052D01*
X160135223Y-75960597D01*
X160250785Y-75912729D01*
X160354789Y-75843236D01*
X160443236Y-75754789D01*
X160512729Y-75650785D01*
X160542442Y-75579052D01*
X160635223Y-75560597D01*
X160750785Y-75512729D01*
X160854789Y-75443236D01*
X160910567Y-75387458D01*
X171165000Y-75387458D01*
X171165000Y-75512542D01*
X171189403Y-75635223D01*
X171237271Y-75750785D01*
X171306764Y-75854789D01*
X171395211Y-75943236D01*
X171499215Y-76012729D01*
X171614777Y-76060597D01*
X171737458Y-76085000D01*
X171862542Y-76085000D01*
X171985223Y-76060597D01*
X172100785Y-76012729D01*
X172204789Y-75943236D01*
X172293236Y-75854789D01*
X172362729Y-75750785D01*
X172410597Y-75635223D01*
X172435000Y-75512542D01*
X172435000Y-75387458D01*
X172410597Y-75264777D01*
X172362729Y-75149215D01*
X172293236Y-75045211D01*
X172204789Y-74956764D01*
X172100785Y-74887271D01*
X171985223Y-74839403D01*
X171862542Y-74815000D01*
X171737458Y-74815000D01*
X171614777Y-74839403D01*
X171499215Y-74887271D01*
X171395211Y-74956764D01*
X171306764Y-75045211D01*
X171237271Y-75149215D01*
X171189403Y-75264777D01*
X171165000Y-75387458D01*
X160910567Y-75387458D01*
X160943236Y-75354789D01*
X161012729Y-75250785D01*
X161019871Y-75233542D01*
X161135223Y-75210597D01*
X161250785Y-75162729D01*
X161354789Y-75093236D01*
X161443236Y-75004789D01*
X161512729Y-74900785D01*
X161519871Y-74883542D01*
X161635223Y-74860597D01*
X161750785Y-74812729D01*
X161854789Y-74743236D01*
X161943236Y-74654789D01*
X162012729Y-74550785D01*
X162042442Y-74479052D01*
X162135223Y-74460597D01*
X162250785Y-74412729D01*
X162354789Y-74343236D01*
X162443236Y-74254789D01*
X162512729Y-74150785D01*
X162542442Y-74079052D01*
X162635223Y-74060597D01*
X162750785Y-74012729D01*
X162854789Y-73943236D01*
X162943236Y-73854789D01*
X163012729Y-73750785D01*
X163042442Y-73679052D01*
X163135223Y-73660597D01*
X163250785Y-73612729D01*
X163354789Y-73543236D01*
X163443236Y-73454789D01*
X163512729Y-73350785D01*
X163560597Y-73235223D01*
X163585000Y-73112542D01*
X163585000Y-72987458D01*
X163560597Y-72864777D01*
X163548081Y-72834560D01*
X163600785Y-72812729D01*
X163704789Y-72743236D01*
X163793236Y-72654789D01*
X163862729Y-72550785D01*
X163910597Y-72435223D01*
X163935000Y-72312542D01*
X163935000Y-72187458D01*
X163910597Y-72064777D01*
X163862729Y-71949215D01*
X163793236Y-71845211D01*
X163704789Y-71756764D01*
X163600785Y-71687271D01*
X163485223Y-71639403D01*
X163362542Y-71615000D01*
X163237458Y-71615000D01*
X163114777Y-71639403D01*
X162999215Y-71687271D01*
X162895211Y-71756764D01*
X162806764Y-71845211D01*
X162737271Y-71949215D01*
X162689403Y-72064777D01*
X162665000Y-72187458D01*
X162665000Y-72312542D01*
X162689403Y-72435223D01*
X162701919Y-72465440D01*
X162649215Y-72487271D01*
X162545211Y-72556764D01*
X162456764Y-72645211D01*
X162387271Y-72749215D01*
X162357558Y-72820948D01*
X162264777Y-72839403D01*
X162149215Y-72887271D01*
X162045211Y-72956764D01*
X161956764Y-73045211D01*
X161887271Y-73149215D01*
X161857558Y-73220948D01*
X161764777Y-73239403D01*
X161649215Y-73287271D01*
X161545211Y-73356764D01*
X161456764Y-73445211D01*
X161387271Y-73549215D01*
X161357558Y-73620948D01*
X161264777Y-73639403D01*
X161149215Y-73687271D01*
X161045211Y-73756764D01*
X160956764Y-73845211D01*
X160887271Y-73949215D01*
X160880129Y-73966458D01*
X160764777Y-73989403D01*
X160649215Y-74037271D01*
X160545211Y-74106764D01*
X160456764Y-74195211D01*
X160387271Y-74299215D01*
X160380129Y-74316458D01*
X160264777Y-74339403D01*
X160149215Y-74387271D01*
X160045211Y-74456764D01*
X159956764Y-74545211D01*
X159887271Y-74649215D01*
X159857558Y-74720948D01*
X159764777Y-74739403D01*
X159649215Y-74787271D01*
X159545211Y-74856764D01*
X159456764Y-74945211D01*
X159387271Y-75049215D01*
X159357558Y-75120948D01*
X159264777Y-75139403D01*
X159149215Y-75187271D01*
X159045211Y-75256764D01*
X158956764Y-75345211D01*
X158887271Y-75449215D01*
X158839403Y-75564777D01*
X158815000Y-75687458D01*
X155635000Y-75687458D01*
X155610597Y-75564777D01*
X155562729Y-75449215D01*
X155493236Y-75345211D01*
X155404789Y-75256764D01*
X155300785Y-75187271D01*
X155185223Y-75139403D01*
X155062542Y-75115000D01*
X154937458Y-75115000D01*
X154814777Y-75139403D01*
X154699215Y-75187271D01*
X154595211Y-75256764D01*
X154506764Y-75345211D01*
X154437271Y-75449215D01*
X154389403Y-75564777D01*
X154365000Y-75687458D01*
X153811386Y-75687458D01*
X153820597Y-75665223D01*
X153845000Y-75542542D01*
X153845000Y-75417458D01*
X153820597Y-75294777D01*
X153772729Y-75179215D01*
X153703236Y-75075211D01*
X153614789Y-74986764D01*
X153510785Y-74917271D01*
X153395223Y-74869403D01*
X153272542Y-74845000D01*
X153147458Y-74845000D01*
X153024777Y-74869403D01*
X152909215Y-74917271D01*
X152805211Y-74986764D01*
X152716764Y-75075211D01*
X152653636Y-75169689D01*
X152632729Y-75119215D01*
X152563236Y-75015211D01*
X152474789Y-74926764D01*
X152370785Y-74857271D01*
X152255223Y-74809403D01*
X152132542Y-74785000D01*
X152007458Y-74785000D01*
X151884777Y-74809403D01*
X151769215Y-74857271D01*
X151745000Y-74873451D01*
X151745000Y-74827458D01*
X151720597Y-74704777D01*
X151672729Y-74589215D01*
X151603236Y-74485211D01*
X151514789Y-74396764D01*
X151410785Y-74327271D01*
X151295223Y-74279403D01*
X151172542Y-74255000D01*
X151047458Y-74255000D01*
X150924777Y-74279403D01*
X150809215Y-74327271D01*
X150705211Y-74396764D01*
X150616764Y-74485211D01*
X150547271Y-74589215D01*
X150516685Y-74663056D01*
X150484777Y-74669403D01*
X150369215Y-74717271D01*
X150265211Y-74786764D01*
X150176764Y-74875211D01*
X150107271Y-74979215D01*
X150059403Y-75094777D01*
X150035000Y-75217458D01*
X149551588Y-75217458D01*
X149562729Y-75200785D01*
X149610597Y-75085223D01*
X149635000Y-74962542D01*
X149635000Y-74837458D01*
X149610597Y-74714777D01*
X149562729Y-74599215D01*
X149493236Y-74495211D01*
X149404789Y-74406764D01*
X149300785Y-74337271D01*
X149185223Y-74289403D01*
X149062542Y-74265000D01*
X148937458Y-74265000D01*
X148814777Y-74289403D01*
X148699215Y-74337271D01*
X148595211Y-74406764D01*
X148506764Y-74495211D01*
X148437271Y-74599215D01*
X148395338Y-74700449D01*
X148300785Y-74637271D01*
X148185223Y-74589403D01*
X148062542Y-74565000D01*
X147937458Y-74565000D01*
X147845000Y-74583391D01*
X147845000Y-74468212D01*
X147806633Y-74275326D01*
X148176531Y-73905428D01*
X148197895Y-73887895D01*
X148223677Y-73856480D01*
X148267875Y-73802625D01*
X148309366Y-73725000D01*
X148319875Y-73705339D01*
X148351897Y-73599779D01*
X148360000Y-73517506D01*
X148360000Y-73517496D01*
X148362708Y-73490000D01*
X148360000Y-73462504D01*
X148360000Y-73027458D01*
X151745000Y-73027458D01*
X151745000Y-73152542D01*
X151769403Y-73275223D01*
X151817271Y-73390785D01*
X151886764Y-73494789D01*
X151975211Y-73583236D01*
X152079215Y-73652729D01*
X152194777Y-73700597D01*
X152317458Y-73725000D01*
X152442542Y-73725000D01*
X152565223Y-73700597D01*
X152680785Y-73652729D01*
X152784789Y-73583236D01*
X152830567Y-73537458D01*
X154465000Y-73537458D01*
X154465000Y-73662542D01*
X154489403Y-73785223D01*
X154537271Y-73900785D01*
X154606764Y-74004789D01*
X154695211Y-74093236D01*
X154799215Y-74162729D01*
X154914777Y-74210597D01*
X155037458Y-74235000D01*
X155162542Y-74235000D01*
X155285223Y-74210597D01*
X155400785Y-74162729D01*
X155438605Y-74137458D01*
X156715000Y-74137458D01*
X156715000Y-74262542D01*
X156739403Y-74385223D01*
X156787271Y-74500785D01*
X156856764Y-74604789D01*
X156945211Y-74693236D01*
X157049215Y-74762729D01*
X157164777Y-74810597D01*
X157287458Y-74835000D01*
X157412542Y-74835000D01*
X157535223Y-74810597D01*
X157650785Y-74762729D01*
X157754789Y-74693236D01*
X157843236Y-74604789D01*
X157912729Y-74500785D01*
X157960597Y-74385223D01*
X157972978Y-74322978D01*
X158035223Y-74310597D01*
X158150785Y-74262729D01*
X158254789Y-74193236D01*
X158343236Y-74104789D01*
X158412729Y-74000785D01*
X158460597Y-73885223D01*
X158472978Y-73822978D01*
X158535223Y-73810597D01*
X158650785Y-73762729D01*
X158754789Y-73693236D01*
X158843236Y-73604789D01*
X158912729Y-73500785D01*
X158960597Y-73385223D01*
X158972978Y-73322978D01*
X159035223Y-73310597D01*
X159150785Y-73262729D01*
X159254789Y-73193236D01*
X159343236Y-73104789D01*
X159412729Y-73000785D01*
X159460597Y-72885223D01*
X159470919Y-72833334D01*
X159585223Y-72810597D01*
X159700785Y-72762729D01*
X159804789Y-72693236D01*
X159893236Y-72604789D01*
X159962729Y-72500785D01*
X160010597Y-72385223D01*
X160022978Y-72322978D01*
X160085223Y-72310597D01*
X160200785Y-72262729D01*
X160304789Y-72193236D01*
X160393236Y-72104789D01*
X160462729Y-72000785D01*
X160510597Y-71885223D01*
X160522978Y-71822978D01*
X160585223Y-71810597D01*
X160700785Y-71762729D01*
X160804789Y-71693236D01*
X160893236Y-71604789D01*
X160962729Y-71500785D01*
X161010597Y-71385223D01*
X161022978Y-71322978D01*
X161085223Y-71310597D01*
X161200785Y-71262729D01*
X161304789Y-71193236D01*
X161393236Y-71104789D01*
X161462729Y-71000785D01*
X161510597Y-70885223D01*
X161535000Y-70762542D01*
X161535000Y-70637458D01*
X161510597Y-70514777D01*
X161462729Y-70399215D01*
X161393236Y-70295211D01*
X161304789Y-70206764D01*
X161275896Y-70187458D01*
X162515000Y-70187458D01*
X162515000Y-70312542D01*
X162539403Y-70435223D01*
X162587271Y-70550785D01*
X162656764Y-70654789D01*
X162745211Y-70743236D01*
X162849215Y-70812729D01*
X162964777Y-70860597D01*
X163010170Y-70869626D01*
X163017766Y-70907813D01*
X163065634Y-71023375D01*
X163135127Y-71127379D01*
X163223574Y-71215826D01*
X163327578Y-71285319D01*
X163443140Y-71333187D01*
X163565821Y-71357590D01*
X163690905Y-71357590D01*
X163813586Y-71333187D01*
X163929148Y-71285319D01*
X164033152Y-71215826D01*
X164121599Y-71127379D01*
X164191092Y-71023375D01*
X164238960Y-70907813D01*
X164263363Y-70785132D01*
X164263363Y-70660048D01*
X164238960Y-70537367D01*
X164191092Y-70421805D01*
X164121599Y-70317801D01*
X164033152Y-70229354D01*
X163929148Y-70159861D01*
X163813586Y-70111993D01*
X163768193Y-70102964D01*
X163760597Y-70064777D01*
X163749281Y-70037458D01*
X168165000Y-70037458D01*
X168165000Y-70162542D01*
X168189403Y-70285223D01*
X168237271Y-70400785D01*
X168306764Y-70504789D01*
X168395211Y-70593236D01*
X168499215Y-70662729D01*
X168516458Y-70669871D01*
X168539403Y-70785223D01*
X168587271Y-70900785D01*
X168656764Y-71004789D01*
X168745211Y-71093236D01*
X168849215Y-71162729D01*
X168920948Y-71192442D01*
X168939403Y-71285223D01*
X168987271Y-71400785D01*
X169056764Y-71504789D01*
X169145211Y-71593236D01*
X169249215Y-71662729D01*
X169266458Y-71669871D01*
X169289403Y-71785223D01*
X169337271Y-71900785D01*
X169406764Y-72004789D01*
X169495211Y-72093236D01*
X169599215Y-72162729D01*
X169616458Y-72169871D01*
X169639403Y-72285223D01*
X169687271Y-72400785D01*
X169756764Y-72504789D01*
X169845211Y-72593236D01*
X169949215Y-72662729D01*
X169966458Y-72669871D01*
X169989403Y-72785223D01*
X170037271Y-72900785D01*
X170106764Y-73004789D01*
X170195211Y-73093236D01*
X170299215Y-73162729D01*
X170316458Y-73169871D01*
X170339403Y-73285223D01*
X170387271Y-73400785D01*
X170456764Y-73504789D01*
X170545211Y-73593236D01*
X170649215Y-73662729D01*
X170666458Y-73669871D01*
X170689403Y-73785223D01*
X170737271Y-73900785D01*
X170806764Y-74004789D01*
X170895211Y-74093236D01*
X170999215Y-74162729D01*
X171114777Y-74210597D01*
X171237458Y-74235000D01*
X171362542Y-74235000D01*
X171485223Y-74210597D01*
X171600785Y-74162729D01*
X171704789Y-74093236D01*
X171793236Y-74004789D01*
X171862729Y-73900785D01*
X171910597Y-73785223D01*
X171935000Y-73662542D01*
X171935000Y-73537458D01*
X171910597Y-73414777D01*
X171862729Y-73299215D01*
X171793236Y-73195211D01*
X171704789Y-73106764D01*
X171600785Y-73037271D01*
X171583542Y-73030129D01*
X171560597Y-72914777D01*
X171512729Y-72799215D01*
X171443236Y-72695211D01*
X171354789Y-72606764D01*
X171250785Y-72537271D01*
X171233542Y-72530129D01*
X171210597Y-72414777D01*
X171162729Y-72299215D01*
X171093236Y-72195211D01*
X171004789Y-72106764D01*
X170900785Y-72037271D01*
X170883542Y-72030129D01*
X170860597Y-71914777D01*
X170840254Y-71865665D01*
X170937458Y-71885000D01*
X171062542Y-71885000D01*
X171185223Y-71860597D01*
X171300785Y-71812729D01*
X171404789Y-71743236D01*
X171493236Y-71654789D01*
X171562729Y-71550785D01*
X171610597Y-71435223D01*
X171635000Y-71312542D01*
X171635000Y-71187458D01*
X171610597Y-71064777D01*
X171562729Y-70949215D01*
X171493236Y-70845211D01*
X171404789Y-70756764D01*
X171394666Y-70750000D01*
X171404789Y-70743236D01*
X171493236Y-70654789D01*
X171562729Y-70550785D01*
X171610597Y-70435223D01*
X171635000Y-70312542D01*
X171635000Y-70187458D01*
X171610597Y-70064777D01*
X171562729Y-69949215D01*
X171493236Y-69845211D01*
X171404789Y-69756764D01*
X171394666Y-69750000D01*
X171404789Y-69743236D01*
X171493236Y-69654789D01*
X171562729Y-69550785D01*
X171610597Y-69435223D01*
X171635000Y-69312542D01*
X171635000Y-69187458D01*
X171610597Y-69064777D01*
X171562729Y-68949215D01*
X171493236Y-68845211D01*
X171404789Y-68756764D01*
X171394666Y-68750000D01*
X171404789Y-68743236D01*
X171493236Y-68654789D01*
X171562729Y-68550785D01*
X171610597Y-68435223D01*
X171635000Y-68312542D01*
X171635000Y-68187458D01*
X171610597Y-68064777D01*
X171562729Y-67949215D01*
X171493236Y-67845211D01*
X171404789Y-67756764D01*
X171394666Y-67750000D01*
X171404789Y-67743236D01*
X171493236Y-67654789D01*
X171562729Y-67550785D01*
X171610597Y-67435223D01*
X171635000Y-67312542D01*
X171635000Y-67187458D01*
X171610597Y-67064777D01*
X171562729Y-66949215D01*
X171493236Y-66845211D01*
X171404789Y-66756764D01*
X171394666Y-66750000D01*
X171404789Y-66743236D01*
X171493236Y-66654789D01*
X171562729Y-66550785D01*
X171610597Y-66435223D01*
X171635000Y-66312542D01*
X171635000Y-66187458D01*
X171610597Y-66064777D01*
X171562729Y-65949215D01*
X171493236Y-65845211D01*
X171404789Y-65756764D01*
X171300785Y-65687271D01*
X171185223Y-65639403D01*
X171062542Y-65615000D01*
X170937458Y-65615000D01*
X170814777Y-65639403D01*
X170699215Y-65687271D01*
X170595211Y-65756764D01*
X170506764Y-65845211D01*
X170437271Y-65949215D01*
X170389403Y-66064777D01*
X170365000Y-66187458D01*
X170365000Y-66312542D01*
X170389403Y-66435223D01*
X170437271Y-66550785D01*
X170506764Y-66654789D01*
X170595211Y-66743236D01*
X170605334Y-66750000D01*
X170595211Y-66756764D01*
X170506764Y-66845211D01*
X170437271Y-66949215D01*
X170389403Y-67064777D01*
X170365000Y-67187458D01*
X170365000Y-67312542D01*
X170389403Y-67435223D01*
X170437271Y-67550785D01*
X170506764Y-67654789D01*
X170595211Y-67743236D01*
X170605334Y-67750000D01*
X170595211Y-67756764D01*
X170506764Y-67845211D01*
X170437271Y-67949215D01*
X170389403Y-68064777D01*
X170365000Y-68187458D01*
X170365000Y-68312542D01*
X170389403Y-68435223D01*
X170437271Y-68550785D01*
X170506764Y-68654789D01*
X170595211Y-68743236D01*
X170605334Y-68750000D01*
X170595211Y-68756764D01*
X170506764Y-68845211D01*
X170437271Y-68949215D01*
X170389403Y-69064777D01*
X170365000Y-69187458D01*
X170365000Y-69312542D01*
X170389403Y-69435223D01*
X170437271Y-69550785D01*
X170506764Y-69654789D01*
X170595211Y-69743236D01*
X170605334Y-69750000D01*
X170595211Y-69756764D01*
X170506764Y-69845211D01*
X170437271Y-69949215D01*
X170389403Y-70064777D01*
X170365000Y-70187458D01*
X170365000Y-70312542D01*
X170389403Y-70435223D01*
X170437271Y-70550785D01*
X170506764Y-70654789D01*
X170595211Y-70743236D01*
X170605334Y-70750000D01*
X170595211Y-70756764D01*
X170506764Y-70845211D01*
X170437271Y-70949215D01*
X170389403Y-71064777D01*
X170368398Y-71170373D01*
X170304789Y-71106764D01*
X170200785Y-71037271D01*
X170183542Y-71030129D01*
X170160597Y-70914777D01*
X170112729Y-70799215D01*
X170043236Y-70695211D01*
X169954789Y-70606764D01*
X169850785Y-70537271D01*
X169779052Y-70507558D01*
X169760597Y-70414777D01*
X169712729Y-70299215D01*
X169643236Y-70195211D01*
X169554789Y-70106764D01*
X169544666Y-70100000D01*
X169554789Y-70093236D01*
X169643236Y-70004789D01*
X169712729Y-69900785D01*
X169760597Y-69785223D01*
X169783542Y-69669871D01*
X169800785Y-69662729D01*
X169904789Y-69593236D01*
X169993236Y-69504789D01*
X170062729Y-69400785D01*
X170110597Y-69285223D01*
X170135000Y-69162542D01*
X170135000Y-69037458D01*
X170110597Y-68914777D01*
X170062729Y-68799215D01*
X169993236Y-68695211D01*
X169904789Y-68606764D01*
X169894666Y-68600000D01*
X169904789Y-68593236D01*
X169993236Y-68504789D01*
X170062729Y-68400785D01*
X170110597Y-68285223D01*
X170135000Y-68162542D01*
X170135000Y-68037458D01*
X170110597Y-67914777D01*
X170062729Y-67799215D01*
X169993236Y-67695211D01*
X169904789Y-67606764D01*
X169894666Y-67600000D01*
X169904789Y-67593236D01*
X169993236Y-67504789D01*
X170062729Y-67400785D01*
X170110597Y-67285223D01*
X170135000Y-67162542D01*
X170135000Y-67037458D01*
X170110597Y-66914777D01*
X170062729Y-66799215D01*
X169993236Y-66695211D01*
X169904789Y-66606764D01*
X169894666Y-66600000D01*
X169904789Y-66593236D01*
X169993236Y-66504789D01*
X170062729Y-66400785D01*
X170110597Y-66285223D01*
X170135000Y-66162542D01*
X170135000Y-66037458D01*
X170110597Y-65914777D01*
X170062729Y-65799215D01*
X169993236Y-65695211D01*
X169904789Y-65606764D01*
X169800785Y-65537271D01*
X169685223Y-65489403D01*
X169562542Y-65465000D01*
X169437458Y-65465000D01*
X169314777Y-65489403D01*
X169199215Y-65537271D01*
X169095211Y-65606764D01*
X169006764Y-65695211D01*
X168937271Y-65799215D01*
X168889403Y-65914777D01*
X168866458Y-66030129D01*
X168849215Y-66037271D01*
X168745211Y-66106764D01*
X168656764Y-66195211D01*
X168587271Y-66299215D01*
X168539403Y-66414777D01*
X168515000Y-66537458D01*
X168515000Y-66662542D01*
X168539403Y-66785223D01*
X168587271Y-66900785D01*
X168656764Y-67004789D01*
X168745211Y-67093236D01*
X168755334Y-67100000D01*
X168745211Y-67106764D01*
X168656764Y-67195211D01*
X168587271Y-67299215D01*
X168539403Y-67414777D01*
X168515000Y-67537458D01*
X168515000Y-67662542D01*
X168539403Y-67785223D01*
X168587271Y-67900785D01*
X168656764Y-68004789D01*
X168745211Y-68093236D01*
X168755334Y-68100000D01*
X168745211Y-68106764D01*
X168656764Y-68195211D01*
X168587271Y-68299215D01*
X168539403Y-68414777D01*
X168515000Y-68537458D01*
X168515000Y-68662542D01*
X168539403Y-68785223D01*
X168587271Y-68900785D01*
X168656764Y-69004789D01*
X168745211Y-69093236D01*
X168755334Y-69100000D01*
X168745211Y-69106764D01*
X168656764Y-69195211D01*
X168587271Y-69299215D01*
X168539403Y-69414777D01*
X168516458Y-69530129D01*
X168499215Y-69537271D01*
X168395211Y-69606764D01*
X168306764Y-69695211D01*
X168237271Y-69799215D01*
X168189403Y-69914777D01*
X168165000Y-70037458D01*
X163749281Y-70037458D01*
X163712729Y-69949215D01*
X163643236Y-69845211D01*
X163554789Y-69756764D01*
X163450785Y-69687271D01*
X163335223Y-69639403D01*
X163212542Y-69615000D01*
X163087458Y-69615000D01*
X162964777Y-69639403D01*
X162849215Y-69687271D01*
X162745211Y-69756764D01*
X162656764Y-69845211D01*
X162587271Y-69949215D01*
X162539403Y-70064777D01*
X162515000Y-70187458D01*
X161275896Y-70187458D01*
X161200785Y-70137271D01*
X161085223Y-70089403D01*
X160962542Y-70065000D01*
X160837458Y-70065000D01*
X160714777Y-70089403D01*
X160599215Y-70137271D01*
X160495211Y-70206764D01*
X160406764Y-70295211D01*
X160337271Y-70399215D01*
X160289403Y-70514777D01*
X160277022Y-70577022D01*
X160214777Y-70589403D01*
X160099215Y-70637271D01*
X159995211Y-70706764D01*
X159906764Y-70795211D01*
X159837271Y-70899215D01*
X159789403Y-71014777D01*
X159777022Y-71077022D01*
X159714777Y-71089403D01*
X159599215Y-71137271D01*
X159495211Y-71206764D01*
X159406764Y-71295211D01*
X159337271Y-71399215D01*
X159289403Y-71514777D01*
X159277022Y-71577022D01*
X159214777Y-71589403D01*
X159099215Y-71637271D01*
X158995211Y-71706764D01*
X158906764Y-71795211D01*
X158837271Y-71899215D01*
X158789403Y-72014777D01*
X158779081Y-72066666D01*
X158664777Y-72089403D01*
X158549215Y-72137271D01*
X158445211Y-72206764D01*
X158356764Y-72295211D01*
X158287271Y-72399215D01*
X158239403Y-72514777D01*
X158227022Y-72577022D01*
X158164777Y-72589403D01*
X158049215Y-72637271D01*
X157945211Y-72706764D01*
X157856764Y-72795211D01*
X157787271Y-72899215D01*
X157739403Y-73014777D01*
X157727022Y-73077022D01*
X157664777Y-73089403D01*
X157549215Y-73137271D01*
X157445211Y-73206764D01*
X157356764Y-73295211D01*
X157287271Y-73399215D01*
X157239403Y-73514777D01*
X157227022Y-73577022D01*
X157164777Y-73589403D01*
X157049215Y-73637271D01*
X156945211Y-73706764D01*
X156856764Y-73795211D01*
X156787271Y-73899215D01*
X156739403Y-74014777D01*
X156715000Y-74137458D01*
X155438605Y-74137458D01*
X155504789Y-74093236D01*
X155593236Y-74004789D01*
X155662729Y-73900785D01*
X155710597Y-73785223D01*
X155735000Y-73662542D01*
X155735000Y-73537458D01*
X155710597Y-73414777D01*
X155662729Y-73299215D01*
X155593236Y-73195211D01*
X155504789Y-73106764D01*
X155400785Y-73037271D01*
X155285223Y-72989403D01*
X155162542Y-72965000D01*
X155037458Y-72965000D01*
X154914777Y-72989403D01*
X154799215Y-73037271D01*
X154695211Y-73106764D01*
X154606764Y-73195211D01*
X154537271Y-73299215D01*
X154489403Y-73414777D01*
X154465000Y-73537458D01*
X152830567Y-73537458D01*
X152873236Y-73494789D01*
X152942729Y-73390785D01*
X152990597Y-73275223D01*
X153015000Y-73152542D01*
X153015000Y-73027458D01*
X152990597Y-72904777D01*
X152942729Y-72789215D01*
X152889089Y-72708936D01*
X152893236Y-72704789D01*
X152962729Y-72600785D01*
X153010597Y-72485223D01*
X153035000Y-72362542D01*
X153035000Y-72237458D01*
X153010597Y-72114777D01*
X152962729Y-71999215D01*
X152893236Y-71895211D01*
X152804789Y-71806764D01*
X152700785Y-71737271D01*
X152585223Y-71689403D01*
X152462542Y-71665000D01*
X152337458Y-71665000D01*
X152214777Y-71689403D01*
X152099215Y-71737271D01*
X151995211Y-71806764D01*
X151906764Y-71895211D01*
X151837271Y-71999215D01*
X151789403Y-72114777D01*
X151765000Y-72237458D01*
X151765000Y-72362542D01*
X151789403Y-72485223D01*
X151837271Y-72600785D01*
X151890911Y-72681064D01*
X151886764Y-72685211D01*
X151817271Y-72789215D01*
X151769403Y-72904777D01*
X151745000Y-73027458D01*
X148360000Y-73027458D01*
X148360000Y-70310000D01*
X150739194Y-70310000D01*
X150649215Y-70347271D01*
X150545211Y-70416764D01*
X150456764Y-70505211D01*
X150387271Y-70609215D01*
X150339403Y-70724777D01*
X150315000Y-70847458D01*
X150315000Y-70972542D01*
X150339403Y-71095223D01*
X150387271Y-71210785D01*
X150456764Y-71314789D01*
X150545211Y-71403236D01*
X150649215Y-71472729D01*
X150764777Y-71520597D01*
X150887458Y-71545000D01*
X151012542Y-71545000D01*
X151135223Y-71520597D01*
X151250785Y-71472729D01*
X151310000Y-71433163D01*
X151369215Y-71472729D01*
X151484777Y-71520597D01*
X151607458Y-71545000D01*
X151732542Y-71545000D01*
X151855223Y-71520597D01*
X151970785Y-71472729D01*
X152074789Y-71403236D01*
X152163236Y-71314789D01*
X152232729Y-71210785D01*
X152280597Y-71095223D01*
X152305000Y-70972542D01*
X152305000Y-70937458D01*
X152865000Y-70937458D01*
X152865000Y-71062542D01*
X152889403Y-71185223D01*
X152937271Y-71300785D01*
X153006764Y-71404789D01*
X153095211Y-71493236D01*
X153199215Y-71562729D01*
X153314777Y-71610597D01*
X153437458Y-71635000D01*
X153562542Y-71635000D01*
X153685223Y-71610597D01*
X153800785Y-71562729D01*
X153904789Y-71493236D01*
X153993236Y-71404789D01*
X154050000Y-71319835D01*
X154106764Y-71404789D01*
X154195211Y-71493236D01*
X154299215Y-71562729D01*
X154414777Y-71610597D01*
X154537458Y-71635000D01*
X154662542Y-71635000D01*
X154785223Y-71610597D01*
X154900785Y-71562729D01*
X155004789Y-71493236D01*
X155093236Y-71404789D01*
X155162729Y-71300785D01*
X155210597Y-71185223D01*
X155235000Y-71062542D01*
X155235000Y-70937458D01*
X155210597Y-70814777D01*
X155162729Y-70699215D01*
X155093236Y-70595211D01*
X155004789Y-70506764D01*
X154900785Y-70437271D01*
X154785223Y-70389403D01*
X154662542Y-70365000D01*
X154537458Y-70365000D01*
X154414777Y-70389403D01*
X154299215Y-70437271D01*
X154195211Y-70506764D01*
X154106764Y-70595211D01*
X154050000Y-70680165D01*
X153993236Y-70595211D01*
X153904789Y-70506764D01*
X153800785Y-70437271D01*
X153685223Y-70389403D01*
X153562542Y-70365000D01*
X153437458Y-70365000D01*
X153314777Y-70389403D01*
X153199215Y-70437271D01*
X153095211Y-70506764D01*
X153006764Y-70595211D01*
X152937271Y-70699215D01*
X152889403Y-70814777D01*
X152865000Y-70937458D01*
X152305000Y-70937458D01*
X152305000Y-70847458D01*
X152280597Y-70724777D01*
X152232729Y-70609215D01*
X152163236Y-70505211D01*
X152074789Y-70416764D01*
X151970785Y-70347271D01*
X151880806Y-70310000D01*
X153600000Y-70310000D01*
X153621460Y-70307886D01*
X153642095Y-70301627D01*
X153661113Y-70291462D01*
X153677782Y-70277782D01*
X153691462Y-70261113D01*
X153701627Y-70242095D01*
X153707886Y-70221460D01*
X153710000Y-70200000D01*
X153710000Y-68386664D01*
X153710597Y-68385223D01*
X153735000Y-68262542D01*
X153735000Y-68137458D01*
X153710597Y-68014777D01*
X153710000Y-68013336D01*
X153710000Y-67937458D01*
X154965000Y-67937458D01*
X154965000Y-68062542D01*
X154989403Y-68185223D01*
X155037271Y-68300785D01*
X155106764Y-68404789D01*
X155195211Y-68493236D01*
X155299215Y-68562729D01*
X155414777Y-68610597D01*
X155537458Y-68635000D01*
X155662542Y-68635000D01*
X155785223Y-68610597D01*
X155900785Y-68562729D01*
X155972398Y-68514879D01*
X155987271Y-68550785D01*
X156056764Y-68654789D01*
X156145211Y-68743236D01*
X156249215Y-68812729D01*
X156364777Y-68860597D01*
X156487458Y-68885000D01*
X156612542Y-68885000D01*
X156735223Y-68860597D01*
X156850785Y-68812729D01*
X156954789Y-68743236D01*
X157043236Y-68654789D01*
X157112729Y-68550785D01*
X157160597Y-68435223D01*
X157185000Y-68312542D01*
X157185000Y-68187458D01*
X157160597Y-68064777D01*
X157112729Y-67949215D01*
X157043236Y-67845211D01*
X156954789Y-67756764D01*
X156850785Y-67687271D01*
X156735223Y-67639403D01*
X156612542Y-67615000D01*
X156487458Y-67615000D01*
X156364777Y-67639403D01*
X156249215Y-67687271D01*
X156177602Y-67735121D01*
X156162729Y-67699215D01*
X156093236Y-67595211D01*
X156004789Y-67506764D01*
X155900785Y-67437271D01*
X155785223Y-67389403D01*
X155662542Y-67365000D01*
X155537458Y-67365000D01*
X155414777Y-67389403D01*
X155299215Y-67437271D01*
X155195211Y-67506764D01*
X155106764Y-67595211D01*
X155037271Y-67699215D01*
X154989403Y-67814777D01*
X154965000Y-67937458D01*
X153710000Y-67937458D01*
X153710000Y-65310000D01*
X155138474Y-65310000D01*
X155112271Y-65349215D01*
X155064403Y-65464777D01*
X155040000Y-65587458D01*
X155040000Y-65712542D01*
X155064403Y-65835223D01*
X155112271Y-65950785D01*
X155181764Y-66054789D01*
X155270211Y-66143236D01*
X155374215Y-66212729D01*
X155489777Y-66260597D01*
X155612458Y-66285000D01*
X155737542Y-66285000D01*
X155860223Y-66260597D01*
X155975785Y-66212729D01*
X156079789Y-66143236D01*
X156168236Y-66054789D01*
X156237729Y-65950785D01*
X156285597Y-65835223D01*
X156310000Y-65712542D01*
X156310000Y-65587458D01*
X156285597Y-65464777D01*
X156237729Y-65349215D01*
X156211526Y-65310000D01*
X163900000Y-65310000D01*
X163921460Y-65307886D01*
X163942095Y-65301627D01*
X163961113Y-65291462D01*
X163977782Y-65277782D01*
X163991462Y-65261113D01*
X164001627Y-65242095D01*
X164007886Y-65221460D01*
X164010000Y-65200000D01*
X164010000Y-65187460D01*
X164310175Y-65187460D01*
X164310175Y-65312544D01*
X164334578Y-65435225D01*
X164382446Y-65550787D01*
X164451939Y-65654791D01*
X164540386Y-65743238D01*
X164644390Y-65812731D01*
X164759952Y-65860599D01*
X164882633Y-65885002D01*
X165007717Y-65885002D01*
X165130398Y-65860599D01*
X165237022Y-65816433D01*
X165279354Y-65879788D01*
X165367801Y-65968235D01*
X165471805Y-66037728D01*
X165587367Y-66085596D01*
X165710048Y-66109999D01*
X165835132Y-66109999D01*
X165957813Y-66085596D01*
X166073375Y-66037728D01*
X166177379Y-65968235D01*
X166265826Y-65879788D01*
X166267533Y-65877233D01*
X166305599Y-65893000D01*
X166428280Y-65917403D01*
X166553364Y-65917403D01*
X166676045Y-65893000D01*
X166791607Y-65845132D01*
X166895611Y-65775639D01*
X166984058Y-65687192D01*
X167053551Y-65583188D01*
X167101419Y-65467626D01*
X167125822Y-65344945D01*
X167125822Y-65219861D01*
X167101419Y-65097180D01*
X167053551Y-64981618D01*
X166984058Y-64877614D01*
X166895611Y-64789167D01*
X166791607Y-64719674D01*
X166676045Y-64671806D01*
X166553364Y-64647403D01*
X166428280Y-64647403D01*
X166305599Y-64671806D01*
X166190037Y-64719674D01*
X166086033Y-64789167D01*
X165997586Y-64877614D01*
X165995879Y-64880169D01*
X165957813Y-64864402D01*
X165835132Y-64839999D01*
X165710048Y-64839999D01*
X165587367Y-64864402D01*
X165480743Y-64908568D01*
X165438411Y-64845213D01*
X165349964Y-64756766D01*
X165245960Y-64687273D01*
X165130398Y-64639405D01*
X165007717Y-64615002D01*
X164882633Y-64615002D01*
X164759952Y-64639405D01*
X164644390Y-64687273D01*
X164540386Y-64756766D01*
X164451939Y-64845213D01*
X164382446Y-64949217D01*
X164334578Y-65064779D01*
X164310175Y-65187460D01*
X164010000Y-65187460D01*
X164010000Y-62037458D01*
X168715000Y-62037458D01*
X168715000Y-62162542D01*
X168739403Y-62285223D01*
X168776590Y-62375000D01*
X168739403Y-62464777D01*
X168715000Y-62587458D01*
X168715000Y-62712542D01*
X168739403Y-62835223D01*
X168787271Y-62950785D01*
X168856764Y-63054789D01*
X168945211Y-63143236D01*
X169049215Y-63212729D01*
X169164777Y-63260597D01*
X169287458Y-63285000D01*
X169412542Y-63285000D01*
X169535223Y-63260597D01*
X169650785Y-63212729D01*
X169754789Y-63143236D01*
X169843236Y-63054789D01*
X169912729Y-62950785D01*
X169960597Y-62835223D01*
X169985000Y-62712542D01*
X169985000Y-62587458D01*
X169960597Y-62464777D01*
X169923410Y-62375000D01*
X169960597Y-62285223D01*
X169985000Y-62162542D01*
X169985000Y-62037458D01*
X169960597Y-61914777D01*
X169912729Y-61799215D01*
X169843236Y-61695211D01*
X169754789Y-61606764D01*
X169650785Y-61537271D01*
X169535223Y-61489403D01*
X169412542Y-61465000D01*
X169287458Y-61465000D01*
X169164777Y-61489403D01*
X169049215Y-61537271D01*
X168945211Y-61606764D01*
X168856764Y-61695211D01*
X168787271Y-61799215D01*
X168739403Y-61914777D01*
X168715000Y-62037458D01*
X164010000Y-62037458D01*
X164010000Y-61037458D01*
X165465000Y-61037458D01*
X165465000Y-61162542D01*
X165489403Y-61285223D01*
X165537271Y-61400785D01*
X165606764Y-61504789D01*
X165695211Y-61593236D01*
X165799215Y-61662729D01*
X165914777Y-61710597D01*
X166037458Y-61735000D01*
X166162542Y-61735000D01*
X166285223Y-61710597D01*
X166375000Y-61673410D01*
X166464777Y-61710597D01*
X166587458Y-61735000D01*
X166712542Y-61735000D01*
X166835223Y-61710597D01*
X166950785Y-61662729D01*
X167054789Y-61593236D01*
X167143236Y-61504789D01*
X167212729Y-61400785D01*
X167260597Y-61285223D01*
X167285000Y-61162542D01*
X167285000Y-61037458D01*
X167260597Y-60914777D01*
X167212729Y-60799215D01*
X167143236Y-60695211D01*
X167054789Y-60606764D01*
X166951065Y-60537458D01*
X168315000Y-60537458D01*
X168315000Y-60662542D01*
X168339403Y-60785223D01*
X168387271Y-60900785D01*
X168456764Y-61004789D01*
X168545211Y-61093236D01*
X168649215Y-61162729D01*
X168764777Y-61210597D01*
X168887458Y-61235000D01*
X169012542Y-61235000D01*
X169135223Y-61210597D01*
X169250785Y-61162729D01*
X169354789Y-61093236D01*
X169443236Y-61004789D01*
X169512729Y-60900785D01*
X169560597Y-60785223D01*
X169585000Y-60662542D01*
X169585000Y-60537458D01*
X169560597Y-60414777D01*
X169512729Y-60299215D01*
X169443236Y-60195211D01*
X169354789Y-60106764D01*
X169250785Y-60037271D01*
X169135223Y-59989403D01*
X169012542Y-59965000D01*
X168887458Y-59965000D01*
X168764777Y-59989403D01*
X168649215Y-60037271D01*
X168545211Y-60106764D01*
X168456764Y-60195211D01*
X168387271Y-60299215D01*
X168339403Y-60414777D01*
X168315000Y-60537458D01*
X166951065Y-60537458D01*
X166950785Y-60537271D01*
X166835223Y-60489403D01*
X166712542Y-60465000D01*
X166587458Y-60465000D01*
X166464777Y-60489403D01*
X166375000Y-60526590D01*
X166285223Y-60489403D01*
X166162542Y-60465000D01*
X166037458Y-60465000D01*
X165914777Y-60489403D01*
X165799215Y-60537271D01*
X165695211Y-60606764D01*
X165606764Y-60695211D01*
X165537271Y-60799215D01*
X165489403Y-60914777D01*
X165465000Y-61037458D01*
X164010000Y-61037458D01*
X164010000Y-60067196D01*
X164114777Y-60110597D01*
X164237458Y-60135000D01*
X164362542Y-60135000D01*
X164485223Y-60110597D01*
X164600785Y-60062729D01*
X164704789Y-59993236D01*
X164793236Y-59904789D01*
X164862729Y-59800785D01*
X164910597Y-59685223D01*
X164935000Y-59562542D01*
X164935000Y-59437458D01*
X170365000Y-59437458D01*
X170365000Y-59562542D01*
X170389403Y-59685223D01*
X170437271Y-59800785D01*
X170506764Y-59904789D01*
X170595211Y-59993236D01*
X170605334Y-60000000D01*
X170595211Y-60006764D01*
X170506764Y-60095211D01*
X170437271Y-60199215D01*
X170389403Y-60314777D01*
X170365000Y-60437458D01*
X170365000Y-60562542D01*
X170389403Y-60685223D01*
X170437271Y-60800785D01*
X170506764Y-60904789D01*
X170595211Y-60993236D01*
X170605334Y-61000000D01*
X170595211Y-61006764D01*
X170506764Y-61095211D01*
X170437271Y-61199215D01*
X170389403Y-61314777D01*
X170365000Y-61437458D01*
X170365000Y-61562542D01*
X170389403Y-61685223D01*
X170437271Y-61800785D01*
X170506764Y-61904789D01*
X170595211Y-61993236D01*
X170699215Y-62062729D01*
X170814777Y-62110597D01*
X170937458Y-62135000D01*
X171062542Y-62135000D01*
X171185223Y-62110597D01*
X171300785Y-62062729D01*
X171404789Y-61993236D01*
X171493236Y-61904789D01*
X171562729Y-61800785D01*
X171610597Y-61685223D01*
X171635000Y-61562542D01*
X171635000Y-61437458D01*
X171610597Y-61314777D01*
X171562729Y-61199215D01*
X171493236Y-61095211D01*
X171404789Y-61006764D01*
X171394666Y-61000000D01*
X171404789Y-60993236D01*
X171493236Y-60904789D01*
X171562729Y-60800785D01*
X171610597Y-60685223D01*
X171635000Y-60562542D01*
X171635000Y-60437458D01*
X171610597Y-60314777D01*
X171562729Y-60199215D01*
X171493236Y-60095211D01*
X171404789Y-60006764D01*
X171394666Y-60000000D01*
X171404789Y-59993236D01*
X171493236Y-59904789D01*
X171562729Y-59800785D01*
X171610597Y-59685223D01*
X171635000Y-59562542D01*
X171635000Y-59437458D01*
X171610597Y-59314777D01*
X171562729Y-59199215D01*
X171493236Y-59095211D01*
X171404789Y-59006764D01*
X171300785Y-58937271D01*
X171185223Y-58889403D01*
X171062542Y-58865000D01*
X170937458Y-58865000D01*
X170814777Y-58889403D01*
X170699215Y-58937271D01*
X170595211Y-59006764D01*
X170506764Y-59095211D01*
X170437271Y-59199215D01*
X170389403Y-59314777D01*
X170365000Y-59437458D01*
X164935000Y-59437458D01*
X164910597Y-59314777D01*
X164862729Y-59199215D01*
X164793236Y-59095211D01*
X164704789Y-59006764D01*
X164600785Y-58937271D01*
X164485223Y-58889403D01*
X164362542Y-58865000D01*
X164237458Y-58865000D01*
X164114777Y-58889403D01*
X164010000Y-58932804D01*
X164010000Y-58162458D01*
X165540000Y-58162458D01*
X165540000Y-58287542D01*
X165564403Y-58410223D01*
X165612271Y-58525785D01*
X165681764Y-58629789D01*
X165770211Y-58718236D01*
X165874215Y-58787729D01*
X165989777Y-58835597D01*
X166112458Y-58860000D01*
X166237542Y-58860000D01*
X166360223Y-58835597D01*
X166475785Y-58787729D01*
X166579789Y-58718236D01*
X166660567Y-58637458D01*
X167085000Y-58637458D01*
X167085000Y-58762542D01*
X167109403Y-58885223D01*
X167157271Y-59000785D01*
X167226764Y-59104789D01*
X167315211Y-59193236D01*
X167419215Y-59262729D01*
X167534777Y-59310597D01*
X167657458Y-59335000D01*
X167782542Y-59335000D01*
X167905223Y-59310597D01*
X168020785Y-59262729D01*
X168124789Y-59193236D01*
X168213236Y-59104789D01*
X168282729Y-59000785D01*
X168330597Y-58885223D01*
X168355000Y-58762542D01*
X168355000Y-58637458D01*
X168330597Y-58514777D01*
X168282729Y-58399215D01*
X168213236Y-58295211D01*
X168124789Y-58206764D01*
X168020785Y-58137271D01*
X167905223Y-58089403D01*
X167782542Y-58065000D01*
X167657458Y-58065000D01*
X167534777Y-58089403D01*
X167419215Y-58137271D01*
X167315211Y-58206764D01*
X167226764Y-58295211D01*
X167157271Y-58399215D01*
X167109403Y-58514777D01*
X167085000Y-58637458D01*
X166660567Y-58637458D01*
X166668236Y-58629789D01*
X166737729Y-58525785D01*
X166785597Y-58410223D01*
X166810000Y-58287542D01*
X166810000Y-58162458D01*
X166785597Y-58039777D01*
X166737729Y-57924215D01*
X166668236Y-57820211D01*
X166579789Y-57731764D01*
X166475785Y-57662271D01*
X166360223Y-57614403D01*
X166237542Y-57590000D01*
X166112458Y-57590000D01*
X165989777Y-57614403D01*
X165874215Y-57662271D01*
X165770211Y-57731764D01*
X165681764Y-57820211D01*
X165612271Y-57924215D01*
X165564403Y-58039777D01*
X165540000Y-58162458D01*
X164010000Y-58162458D01*
X164010000Y-56673054D01*
X164010785Y-56672729D01*
X164114789Y-56603236D01*
X164203236Y-56514789D01*
X164272729Y-56410785D01*
X164320597Y-56295223D01*
X164345000Y-56172542D01*
X164345000Y-56047458D01*
X164338039Y-56012458D01*
X166715000Y-56012458D01*
X166715000Y-56137542D01*
X166739403Y-56260223D01*
X166787271Y-56375785D01*
X166856764Y-56479789D01*
X166876975Y-56500000D01*
X166856764Y-56520211D01*
X166787271Y-56624215D01*
X166739403Y-56739777D01*
X166715000Y-56862458D01*
X166715000Y-56987542D01*
X166739403Y-57110223D01*
X166787271Y-57225785D01*
X166856764Y-57329789D01*
X166945211Y-57418236D01*
X167049215Y-57487729D01*
X167164777Y-57535597D01*
X167287458Y-57560000D01*
X167412542Y-57560000D01*
X167535223Y-57535597D01*
X167650785Y-57487729D01*
X167754789Y-57418236D01*
X167843236Y-57329789D01*
X167912729Y-57225785D01*
X167960597Y-57110223D01*
X167985000Y-56987542D01*
X167985000Y-56862458D01*
X167960597Y-56739777D01*
X167927463Y-56659785D01*
X167989777Y-56685597D01*
X168112458Y-56710000D01*
X168237542Y-56710000D01*
X168360223Y-56685597D01*
X168475785Y-56637729D01*
X168579789Y-56568236D01*
X168668236Y-56479789D01*
X168737729Y-56375785D01*
X168785597Y-56260223D01*
X168810000Y-56137542D01*
X168810000Y-56012458D01*
X168785597Y-55889777D01*
X168737729Y-55774215D01*
X168668236Y-55670211D01*
X168579789Y-55581764D01*
X168475785Y-55512271D01*
X168360223Y-55464403D01*
X168237542Y-55440000D01*
X168112458Y-55440000D01*
X167989777Y-55464403D01*
X167874215Y-55512271D01*
X167770211Y-55581764D01*
X167762500Y-55589475D01*
X167754789Y-55581764D01*
X167650785Y-55512271D01*
X167535223Y-55464403D01*
X167412542Y-55440000D01*
X167287458Y-55440000D01*
X167164777Y-55464403D01*
X167049215Y-55512271D01*
X166945211Y-55581764D01*
X166856764Y-55670211D01*
X166787271Y-55774215D01*
X166739403Y-55889777D01*
X166715000Y-56012458D01*
X164338039Y-56012458D01*
X164320597Y-55924777D01*
X164272729Y-55809215D01*
X164203236Y-55705211D01*
X164114789Y-55616764D01*
X164010785Y-55547271D01*
X164010000Y-55546946D01*
X164010000Y-54237458D01*
X165565000Y-54237458D01*
X165565000Y-54362542D01*
X165589403Y-54485223D01*
X165637271Y-54600785D01*
X165706764Y-54704789D01*
X165795211Y-54793236D01*
X165899215Y-54862729D01*
X166014777Y-54910597D01*
X166137458Y-54935000D01*
X166262542Y-54935000D01*
X166385223Y-54910597D01*
X166500785Y-54862729D01*
X166604789Y-54793236D01*
X166693236Y-54704789D01*
X166762729Y-54600785D01*
X166810597Y-54485223D01*
X166835000Y-54362542D01*
X166835000Y-54237458D01*
X166830270Y-54213679D01*
X166937458Y-54235000D01*
X167062542Y-54235000D01*
X167185223Y-54210597D01*
X167247537Y-54184785D01*
X167214403Y-54264777D01*
X167190000Y-54387458D01*
X167190000Y-54512542D01*
X167214403Y-54635223D01*
X167262271Y-54750785D01*
X167331764Y-54854789D01*
X167420211Y-54943236D01*
X167524215Y-55012729D01*
X167639777Y-55060597D01*
X167762458Y-55085000D01*
X167887542Y-55085000D01*
X168010223Y-55060597D01*
X168125785Y-55012729D01*
X168229789Y-54943236D01*
X168318236Y-54854789D01*
X168387729Y-54750785D01*
X168435597Y-54635223D01*
X168460000Y-54512542D01*
X168460000Y-54387458D01*
X168435597Y-54264777D01*
X168387729Y-54149215D01*
X168318236Y-54045211D01*
X168229789Y-53956764D01*
X168125785Y-53887271D01*
X168010223Y-53839403D01*
X167887542Y-53815000D01*
X167762458Y-53815000D01*
X167639777Y-53839403D01*
X167577463Y-53865215D01*
X167610597Y-53785223D01*
X167635000Y-53662542D01*
X167635000Y-53537458D01*
X167610597Y-53414777D01*
X167568215Y-53312458D01*
X168115000Y-53312458D01*
X168115000Y-53437542D01*
X168139403Y-53560223D01*
X168187271Y-53675785D01*
X168256764Y-53779789D01*
X168345211Y-53868236D01*
X168449215Y-53937729D01*
X168564777Y-53985597D01*
X168687458Y-54010000D01*
X168812542Y-54010000D01*
X168935223Y-53985597D01*
X169050785Y-53937729D01*
X169154789Y-53868236D01*
X169243236Y-53779789D01*
X169312729Y-53675785D01*
X169360597Y-53560223D01*
X169385000Y-53437542D01*
X169385000Y-53312458D01*
X169360597Y-53189777D01*
X169312729Y-53074215D01*
X169243236Y-52970211D01*
X169154789Y-52881764D01*
X169050785Y-52812271D01*
X168935223Y-52764403D01*
X168812542Y-52740000D01*
X168687458Y-52740000D01*
X168564777Y-52764403D01*
X168449215Y-52812271D01*
X168345211Y-52881764D01*
X168256764Y-52970211D01*
X168187271Y-53074215D01*
X168139403Y-53189777D01*
X168115000Y-53312458D01*
X167568215Y-53312458D01*
X167562729Y-53299215D01*
X167493236Y-53195211D01*
X167404789Y-53106764D01*
X167300785Y-53037271D01*
X167185223Y-52989403D01*
X167062542Y-52965000D01*
X166937458Y-52965000D01*
X166814777Y-52989403D01*
X166699215Y-53037271D01*
X166595211Y-53106764D01*
X166506764Y-53195211D01*
X166437271Y-53299215D01*
X166389403Y-53414777D01*
X166365000Y-53537458D01*
X166365000Y-53662542D01*
X166369730Y-53686321D01*
X166262542Y-53665000D01*
X166137458Y-53665000D01*
X166014777Y-53689403D01*
X165899215Y-53737271D01*
X165795211Y-53806764D01*
X165706764Y-53895211D01*
X165637271Y-53999215D01*
X165589403Y-54114777D01*
X165565000Y-54237458D01*
X164010000Y-54237458D01*
X164010000Y-51185000D01*
X172565001Y-51185000D01*
X172565000Y-77815000D01*
X172565000Y-77815000D01*
G37*
X172565000Y-77815000D02*
X169633025Y-77815000D01*
X169643236Y-77804789D01*
X169712729Y-77700785D01*
X169760597Y-77585223D01*
X169785000Y-77462542D01*
X169785000Y-77337458D01*
X169760597Y-77214777D01*
X169712729Y-77099215D01*
X169643236Y-76995211D01*
X169554789Y-76906764D01*
X169450785Y-76837271D01*
X169335223Y-76789403D01*
X169212542Y-76765000D01*
X169087458Y-76765000D01*
X168964777Y-76789403D01*
X168849215Y-76837271D01*
X168745211Y-76906764D01*
X168656764Y-76995211D01*
X168587271Y-77099215D01*
X168539403Y-77214777D01*
X168515000Y-77337458D01*
X168515000Y-77462542D01*
X168539403Y-77585223D01*
X168587271Y-77700785D01*
X168656764Y-77804789D01*
X168666975Y-77815000D01*
X168197168Y-77815000D01*
X168214789Y-77803226D01*
X168303236Y-77714779D01*
X168372729Y-77610775D01*
X168420597Y-77495213D01*
X168445000Y-77372532D01*
X168445000Y-77247448D01*
X168420597Y-77124767D01*
X168372729Y-77009205D01*
X168303236Y-76905201D01*
X168214789Y-76816754D01*
X168110785Y-76747261D01*
X167995223Y-76699393D01*
X167872542Y-76674990D01*
X167747458Y-76674990D01*
X167624777Y-76699393D01*
X167509215Y-76747261D01*
X167405211Y-76816754D01*
X167316764Y-76905201D01*
X167247271Y-77009205D01*
X167199403Y-77124767D01*
X167175000Y-77247448D01*
X167175000Y-77372532D01*
X167199403Y-77495213D01*
X167247271Y-77610775D01*
X167316764Y-77714779D01*
X167405211Y-77803226D01*
X167422832Y-77815000D01*
X145935000Y-77815000D01*
X145935000Y-75410132D01*
X145986480Y-75461612D01*
X146172376Y-75585824D01*
X146378933Y-75671383D01*
X146598212Y-75715000D01*
X146821788Y-75715000D01*
X147041067Y-75671383D01*
X147247624Y-75585824D01*
X147423749Y-75468141D01*
X147437271Y-75500785D01*
X147506764Y-75604789D01*
X147595211Y-75693236D01*
X147699215Y-75762729D01*
X147814777Y-75810597D01*
X147937458Y-75835000D01*
X148062542Y-75835000D01*
X148185223Y-75810597D01*
X148300785Y-75762729D01*
X148404789Y-75693236D01*
X148493236Y-75604789D01*
X148562729Y-75500785D01*
X148604662Y-75399551D01*
X148699215Y-75462729D01*
X148814777Y-75510597D01*
X148937458Y-75535000D01*
X149062542Y-75535000D01*
X149185223Y-75510597D01*
X149300785Y-75462729D01*
X149404789Y-75393236D01*
X149493236Y-75304789D01*
X149551588Y-75217458D01*
X150035000Y-75217458D01*
X150035000Y-75342542D01*
X150059403Y-75465223D01*
X150107271Y-75580785D01*
X150176764Y-75684789D01*
X150265211Y-75773236D01*
X150369215Y-75842729D01*
X150484777Y-75890597D01*
X150607458Y-75915000D01*
X150732542Y-75915000D01*
X150855223Y-75890597D01*
X150970785Y-75842729D01*
X151074789Y-75773236D01*
X151163236Y-75684789D01*
X151232729Y-75580785D01*
X151263315Y-75506944D01*
X151295223Y-75500597D01*
X151410785Y-75452729D01*
X151435000Y-75436549D01*
X151435000Y-75482542D01*
X151459403Y-75605223D01*
X151507271Y-75720785D01*
X151576764Y-75824789D01*
X151665211Y-75913236D01*
X151769215Y-75982729D01*
X151884777Y-76030597D01*
X152007458Y-76055000D01*
X152132542Y-76055000D01*
X152255223Y-76030597D01*
X152370785Y-75982729D01*
X152474789Y-75913236D01*
X152563236Y-75824789D01*
X152626364Y-75730311D01*
X152647271Y-75780785D01*
X152716764Y-75884789D01*
X152805211Y-75973236D01*
X152909215Y-76042729D01*
X153024777Y-76090597D01*
X153147458Y-76115000D01*
X153272542Y-76115000D01*
X153395223Y-76090597D01*
X153510785Y-76042729D01*
X153614789Y-75973236D01*
X153703236Y-75884789D01*
X153772729Y-75780785D01*
X153811386Y-75687458D01*
X154365000Y-75687458D01*
X154365000Y-75812542D01*
X154389403Y-75935223D01*
X154437271Y-76050785D01*
X154506764Y-76154789D01*
X154595211Y-76243236D01*
X154699215Y-76312729D01*
X154814777Y-76360597D01*
X154937458Y-76385000D01*
X155062542Y-76385000D01*
X155185223Y-76360597D01*
X155300785Y-76312729D01*
X155338605Y-76287458D01*
X155765000Y-76287458D01*
X155765000Y-76412542D01*
X155789403Y-76535223D01*
X155837271Y-76650785D01*
X155906764Y-76754789D01*
X155995211Y-76843236D01*
X156099215Y-76912729D01*
X156214777Y-76960597D01*
X156337458Y-76985000D01*
X156462542Y-76985000D01*
X156585223Y-76960597D01*
X156700785Y-76912729D01*
X156804789Y-76843236D01*
X156893236Y-76754789D01*
X156906426Y-76735048D01*
X163565000Y-76735048D01*
X163565000Y-76860132D01*
X163589403Y-76982813D01*
X163637271Y-77098375D01*
X163706764Y-77202379D01*
X163795211Y-77290826D01*
X163899215Y-77360319D01*
X164014777Y-77408187D01*
X164137458Y-77432590D01*
X164262542Y-77432590D01*
X164385223Y-77408187D01*
X164500785Y-77360319D01*
X164604789Y-77290826D01*
X164693236Y-77202379D01*
X164762729Y-77098375D01*
X164810597Y-76982813D01*
X164835000Y-76860132D01*
X164835000Y-76735048D01*
X164810597Y-76612367D01*
X164762729Y-76496805D01*
X164693236Y-76392801D01*
X164604789Y-76304354D01*
X164500785Y-76234861D01*
X164385223Y-76186993D01*
X164262542Y-76162590D01*
X164137458Y-76162590D01*
X164014777Y-76186993D01*
X163899215Y-76234861D01*
X163795211Y-76304354D01*
X163706764Y-76392801D01*
X163637271Y-76496805D01*
X163589403Y-76612367D01*
X163565000Y-76735048D01*
X156906426Y-76735048D01*
X156962729Y-76650785D01*
X157010597Y-76535223D01*
X157035000Y-76412542D01*
X157035000Y-76287458D01*
X157010597Y-76164777D01*
X156962729Y-76049215D01*
X156893236Y-75945211D01*
X156804789Y-75856764D01*
X156700785Y-75787271D01*
X156585223Y-75739403D01*
X156462542Y-75715000D01*
X156337458Y-75715000D01*
X156214777Y-75739403D01*
X156099215Y-75787271D01*
X155995211Y-75856764D01*
X155906764Y-75945211D01*
X155837271Y-76049215D01*
X155789403Y-76164777D01*
X155765000Y-76287458D01*
X155338605Y-76287458D01*
X155404789Y-76243236D01*
X155493236Y-76154789D01*
X155562729Y-76050785D01*
X155610597Y-75935223D01*
X155635000Y-75812542D01*
X155635000Y-75687458D01*
X158815000Y-75687458D01*
X158815000Y-75812542D01*
X158839403Y-75935223D01*
X158887271Y-76050785D01*
X158956764Y-76154789D01*
X159045211Y-76243236D01*
X159149215Y-76312729D01*
X159264777Y-76360597D01*
X159387458Y-76385000D01*
X159512542Y-76385000D01*
X159635223Y-76360597D01*
X159750785Y-76312729D01*
X159854789Y-76243236D01*
X159943236Y-76154789D01*
X160012729Y-76050785D01*
X160042442Y-75979052D01*
X160135223Y-75960597D01*
X160250785Y-75912729D01*
X160354789Y-75843236D01*
X160443236Y-75754789D01*
X160512729Y-75650785D01*
X160542442Y-75579052D01*
X160635223Y-75560597D01*
X160750785Y-75512729D01*
X160854789Y-75443236D01*
X160910567Y-75387458D01*
X171165000Y-75387458D01*
X171165000Y-75512542D01*
X171189403Y-75635223D01*
X171237271Y-75750785D01*
X171306764Y-75854789D01*
X171395211Y-75943236D01*
X171499215Y-76012729D01*
X171614777Y-76060597D01*
X171737458Y-76085000D01*
X171862542Y-76085000D01*
X171985223Y-76060597D01*
X172100785Y-76012729D01*
X172204789Y-75943236D01*
X172293236Y-75854789D01*
X172362729Y-75750785D01*
X172410597Y-75635223D01*
X172435000Y-75512542D01*
X172435000Y-75387458D01*
X172410597Y-75264777D01*
X172362729Y-75149215D01*
X172293236Y-75045211D01*
X172204789Y-74956764D01*
X172100785Y-74887271D01*
X171985223Y-74839403D01*
X171862542Y-74815000D01*
X171737458Y-74815000D01*
X171614777Y-74839403D01*
X171499215Y-74887271D01*
X171395211Y-74956764D01*
X171306764Y-75045211D01*
X171237271Y-75149215D01*
X171189403Y-75264777D01*
X171165000Y-75387458D01*
X160910567Y-75387458D01*
X160943236Y-75354789D01*
X161012729Y-75250785D01*
X161019871Y-75233542D01*
X161135223Y-75210597D01*
X161250785Y-75162729D01*
X161354789Y-75093236D01*
X161443236Y-75004789D01*
X161512729Y-74900785D01*
X161519871Y-74883542D01*
X161635223Y-74860597D01*
X161750785Y-74812729D01*
X161854789Y-74743236D01*
X161943236Y-74654789D01*
X162012729Y-74550785D01*
X162042442Y-74479052D01*
X162135223Y-74460597D01*
X162250785Y-74412729D01*
X162354789Y-74343236D01*
X162443236Y-74254789D01*
X162512729Y-74150785D01*
X162542442Y-74079052D01*
X162635223Y-74060597D01*
X162750785Y-74012729D01*
X162854789Y-73943236D01*
X162943236Y-73854789D01*
X163012729Y-73750785D01*
X163042442Y-73679052D01*
X163135223Y-73660597D01*
X163250785Y-73612729D01*
X163354789Y-73543236D01*
X163443236Y-73454789D01*
X163512729Y-73350785D01*
X163560597Y-73235223D01*
X163585000Y-73112542D01*
X163585000Y-72987458D01*
X163560597Y-72864777D01*
X163548081Y-72834560D01*
X163600785Y-72812729D01*
X163704789Y-72743236D01*
X163793236Y-72654789D01*
X163862729Y-72550785D01*
X163910597Y-72435223D01*
X163935000Y-72312542D01*
X163935000Y-72187458D01*
X163910597Y-72064777D01*
X163862729Y-71949215D01*
X163793236Y-71845211D01*
X163704789Y-71756764D01*
X163600785Y-71687271D01*
X163485223Y-71639403D01*
X163362542Y-71615000D01*
X163237458Y-71615000D01*
X163114777Y-71639403D01*
X162999215Y-71687271D01*
X162895211Y-71756764D01*
X162806764Y-71845211D01*
X162737271Y-71949215D01*
X162689403Y-72064777D01*
X162665000Y-72187458D01*
X162665000Y-72312542D01*
X162689403Y-72435223D01*
X162701919Y-72465440D01*
X162649215Y-72487271D01*
X162545211Y-72556764D01*
X162456764Y-72645211D01*
X162387271Y-72749215D01*
X162357558Y-72820948D01*
X162264777Y-72839403D01*
X162149215Y-72887271D01*
X162045211Y-72956764D01*
X161956764Y-73045211D01*
X161887271Y-73149215D01*
X161857558Y-73220948D01*
X161764777Y-73239403D01*
X161649215Y-73287271D01*
X161545211Y-73356764D01*
X161456764Y-73445211D01*
X161387271Y-73549215D01*
X161357558Y-73620948D01*
X161264777Y-73639403D01*
X161149215Y-73687271D01*
X161045211Y-73756764D01*
X160956764Y-73845211D01*
X160887271Y-73949215D01*
X160880129Y-73966458D01*
X160764777Y-73989403D01*
X160649215Y-74037271D01*
X160545211Y-74106764D01*
X160456764Y-74195211D01*
X160387271Y-74299215D01*
X160380129Y-74316458D01*
X160264777Y-74339403D01*
X160149215Y-74387271D01*
X160045211Y-74456764D01*
X159956764Y-74545211D01*
X159887271Y-74649215D01*
X159857558Y-74720948D01*
X159764777Y-74739403D01*
X159649215Y-74787271D01*
X159545211Y-74856764D01*
X159456764Y-74945211D01*
X159387271Y-75049215D01*
X159357558Y-75120948D01*
X159264777Y-75139403D01*
X159149215Y-75187271D01*
X159045211Y-75256764D01*
X158956764Y-75345211D01*
X158887271Y-75449215D01*
X158839403Y-75564777D01*
X158815000Y-75687458D01*
X155635000Y-75687458D01*
X155610597Y-75564777D01*
X155562729Y-75449215D01*
X155493236Y-75345211D01*
X155404789Y-75256764D01*
X155300785Y-75187271D01*
X155185223Y-75139403D01*
X155062542Y-75115000D01*
X154937458Y-75115000D01*
X154814777Y-75139403D01*
X154699215Y-75187271D01*
X154595211Y-75256764D01*
X154506764Y-75345211D01*
X154437271Y-75449215D01*
X154389403Y-75564777D01*
X154365000Y-75687458D01*
X153811386Y-75687458D01*
X153820597Y-75665223D01*
X153845000Y-75542542D01*
X153845000Y-75417458D01*
X153820597Y-75294777D01*
X153772729Y-75179215D01*
X153703236Y-75075211D01*
X153614789Y-74986764D01*
X153510785Y-74917271D01*
X153395223Y-74869403D01*
X153272542Y-74845000D01*
X153147458Y-74845000D01*
X153024777Y-74869403D01*
X152909215Y-74917271D01*
X152805211Y-74986764D01*
X152716764Y-75075211D01*
X152653636Y-75169689D01*
X152632729Y-75119215D01*
X152563236Y-75015211D01*
X152474789Y-74926764D01*
X152370785Y-74857271D01*
X152255223Y-74809403D01*
X152132542Y-74785000D01*
X152007458Y-74785000D01*
X151884777Y-74809403D01*
X151769215Y-74857271D01*
X151745000Y-74873451D01*
X151745000Y-74827458D01*
X151720597Y-74704777D01*
X151672729Y-74589215D01*
X151603236Y-74485211D01*
X151514789Y-74396764D01*
X151410785Y-74327271D01*
X151295223Y-74279403D01*
X151172542Y-74255000D01*
X151047458Y-74255000D01*
X150924777Y-74279403D01*
X150809215Y-74327271D01*
X150705211Y-74396764D01*
X150616764Y-74485211D01*
X150547271Y-74589215D01*
X150516685Y-74663056D01*
X150484777Y-74669403D01*
X150369215Y-74717271D01*
X150265211Y-74786764D01*
X150176764Y-74875211D01*
X150107271Y-74979215D01*
X150059403Y-75094777D01*
X150035000Y-75217458D01*
X149551588Y-75217458D01*
X149562729Y-75200785D01*
X149610597Y-75085223D01*
X149635000Y-74962542D01*
X149635000Y-74837458D01*
X149610597Y-74714777D01*
X149562729Y-74599215D01*
X149493236Y-74495211D01*
X149404789Y-74406764D01*
X149300785Y-74337271D01*
X149185223Y-74289403D01*
X149062542Y-74265000D01*
X148937458Y-74265000D01*
X148814777Y-74289403D01*
X148699215Y-74337271D01*
X148595211Y-74406764D01*
X148506764Y-74495211D01*
X148437271Y-74599215D01*
X148395338Y-74700449D01*
X148300785Y-74637271D01*
X148185223Y-74589403D01*
X148062542Y-74565000D01*
X147937458Y-74565000D01*
X147845000Y-74583391D01*
X147845000Y-74468212D01*
X147806633Y-74275326D01*
X148176531Y-73905428D01*
X148197895Y-73887895D01*
X148223677Y-73856480D01*
X148267875Y-73802625D01*
X148309366Y-73725000D01*
X148319875Y-73705339D01*
X148351897Y-73599779D01*
X148360000Y-73517506D01*
X148360000Y-73517496D01*
X148362708Y-73490000D01*
X148360000Y-73462504D01*
X148360000Y-73027458D01*
X151745000Y-73027458D01*
X151745000Y-73152542D01*
X151769403Y-73275223D01*
X151817271Y-73390785D01*
X151886764Y-73494789D01*
X151975211Y-73583236D01*
X152079215Y-73652729D01*
X152194777Y-73700597D01*
X152317458Y-73725000D01*
X152442542Y-73725000D01*
X152565223Y-73700597D01*
X152680785Y-73652729D01*
X152784789Y-73583236D01*
X152830567Y-73537458D01*
X154465000Y-73537458D01*
X154465000Y-73662542D01*
X154489403Y-73785223D01*
X154537271Y-73900785D01*
X154606764Y-74004789D01*
X154695211Y-74093236D01*
X154799215Y-74162729D01*
X154914777Y-74210597D01*
X155037458Y-74235000D01*
X155162542Y-74235000D01*
X155285223Y-74210597D01*
X155400785Y-74162729D01*
X155438605Y-74137458D01*
X156715000Y-74137458D01*
X156715000Y-74262542D01*
X156739403Y-74385223D01*
X156787271Y-74500785D01*
X156856764Y-74604789D01*
X156945211Y-74693236D01*
X157049215Y-74762729D01*
X157164777Y-74810597D01*
X157287458Y-74835000D01*
X157412542Y-74835000D01*
X157535223Y-74810597D01*
X157650785Y-74762729D01*
X157754789Y-74693236D01*
X157843236Y-74604789D01*
X157912729Y-74500785D01*
X157960597Y-74385223D01*
X157972978Y-74322978D01*
X158035223Y-74310597D01*
X158150785Y-74262729D01*
X158254789Y-74193236D01*
X158343236Y-74104789D01*
X158412729Y-74000785D01*
X158460597Y-73885223D01*
X158472978Y-73822978D01*
X158535223Y-73810597D01*
X158650785Y-73762729D01*
X158754789Y-73693236D01*
X158843236Y-73604789D01*
X158912729Y-73500785D01*
X158960597Y-73385223D01*
X158972978Y-73322978D01*
X159035223Y-73310597D01*
X159150785Y-73262729D01*
X159254789Y-73193236D01*
X159343236Y-73104789D01*
X159412729Y-73000785D01*
X159460597Y-72885223D01*
X159470919Y-72833334D01*
X159585223Y-72810597D01*
X159700785Y-72762729D01*
X159804789Y-72693236D01*
X159893236Y-72604789D01*
X159962729Y-72500785D01*
X160010597Y-72385223D01*
X160022978Y-72322978D01*
X160085223Y-72310597D01*
X160200785Y-72262729D01*
X160304789Y-72193236D01*
X160393236Y-72104789D01*
X160462729Y-72000785D01*
X160510597Y-71885223D01*
X160522978Y-71822978D01*
X160585223Y-71810597D01*
X160700785Y-71762729D01*
X160804789Y-71693236D01*
X160893236Y-71604789D01*
X160962729Y-71500785D01*
X161010597Y-71385223D01*
X161022978Y-71322978D01*
X161085223Y-71310597D01*
X161200785Y-71262729D01*
X161304789Y-71193236D01*
X161393236Y-71104789D01*
X161462729Y-71000785D01*
X161510597Y-70885223D01*
X161535000Y-70762542D01*
X161535000Y-70637458D01*
X161510597Y-70514777D01*
X161462729Y-70399215D01*
X161393236Y-70295211D01*
X161304789Y-70206764D01*
X161275896Y-70187458D01*
X162515000Y-70187458D01*
X162515000Y-70312542D01*
X162539403Y-70435223D01*
X162587271Y-70550785D01*
X162656764Y-70654789D01*
X162745211Y-70743236D01*
X162849215Y-70812729D01*
X162964777Y-70860597D01*
X163010170Y-70869626D01*
X163017766Y-70907813D01*
X163065634Y-71023375D01*
X163135127Y-71127379D01*
X163223574Y-71215826D01*
X163327578Y-71285319D01*
X163443140Y-71333187D01*
X163565821Y-71357590D01*
X163690905Y-71357590D01*
X163813586Y-71333187D01*
X163929148Y-71285319D01*
X164033152Y-71215826D01*
X164121599Y-71127379D01*
X164191092Y-71023375D01*
X164238960Y-70907813D01*
X164263363Y-70785132D01*
X164263363Y-70660048D01*
X164238960Y-70537367D01*
X164191092Y-70421805D01*
X164121599Y-70317801D01*
X164033152Y-70229354D01*
X163929148Y-70159861D01*
X163813586Y-70111993D01*
X163768193Y-70102964D01*
X163760597Y-70064777D01*
X163749281Y-70037458D01*
X168165000Y-70037458D01*
X168165000Y-70162542D01*
X168189403Y-70285223D01*
X168237271Y-70400785D01*
X168306764Y-70504789D01*
X168395211Y-70593236D01*
X168499215Y-70662729D01*
X168516458Y-70669871D01*
X168539403Y-70785223D01*
X168587271Y-70900785D01*
X168656764Y-71004789D01*
X168745211Y-71093236D01*
X168849215Y-71162729D01*
X168920948Y-71192442D01*
X168939403Y-71285223D01*
X168987271Y-71400785D01*
X169056764Y-71504789D01*
X169145211Y-71593236D01*
X169249215Y-71662729D01*
X169266458Y-71669871D01*
X169289403Y-71785223D01*
X169337271Y-71900785D01*
X169406764Y-72004789D01*
X169495211Y-72093236D01*
X169599215Y-72162729D01*
X169616458Y-72169871D01*
X169639403Y-72285223D01*
X169687271Y-72400785D01*
X169756764Y-72504789D01*
X169845211Y-72593236D01*
X169949215Y-72662729D01*
X169966458Y-72669871D01*
X169989403Y-72785223D01*
X170037271Y-72900785D01*
X170106764Y-73004789D01*
X170195211Y-73093236D01*
X170299215Y-73162729D01*
X170316458Y-73169871D01*
X170339403Y-73285223D01*
X170387271Y-73400785D01*
X170456764Y-73504789D01*
X170545211Y-73593236D01*
X170649215Y-73662729D01*
X170666458Y-73669871D01*
X170689403Y-73785223D01*
X170737271Y-73900785D01*
X170806764Y-74004789D01*
X170895211Y-74093236D01*
X170999215Y-74162729D01*
X171114777Y-74210597D01*
X171237458Y-74235000D01*
X171362542Y-74235000D01*
X171485223Y-74210597D01*
X171600785Y-74162729D01*
X171704789Y-74093236D01*
X171793236Y-74004789D01*
X171862729Y-73900785D01*
X171910597Y-73785223D01*
X171935000Y-73662542D01*
X171935000Y-73537458D01*
X171910597Y-73414777D01*
X171862729Y-73299215D01*
X171793236Y-73195211D01*
X171704789Y-73106764D01*
X171600785Y-73037271D01*
X171583542Y-73030129D01*
X171560597Y-72914777D01*
X171512729Y-72799215D01*
X171443236Y-72695211D01*
X171354789Y-72606764D01*
X171250785Y-72537271D01*
X171233542Y-72530129D01*
X171210597Y-72414777D01*
X171162729Y-72299215D01*
X171093236Y-72195211D01*
X171004789Y-72106764D01*
X170900785Y-72037271D01*
X170883542Y-72030129D01*
X170860597Y-71914777D01*
X170840254Y-71865665D01*
X170937458Y-71885000D01*
X171062542Y-71885000D01*
X171185223Y-71860597D01*
X171300785Y-71812729D01*
X171404789Y-71743236D01*
X171493236Y-71654789D01*
X171562729Y-71550785D01*
X171610597Y-71435223D01*
X171635000Y-71312542D01*
X171635000Y-71187458D01*
X171610597Y-71064777D01*
X171562729Y-70949215D01*
X171493236Y-70845211D01*
X171404789Y-70756764D01*
X171394666Y-70750000D01*
X171404789Y-70743236D01*
X171493236Y-70654789D01*
X171562729Y-70550785D01*
X171610597Y-70435223D01*
X171635000Y-70312542D01*
X171635000Y-70187458D01*
X171610597Y-70064777D01*
X171562729Y-69949215D01*
X171493236Y-69845211D01*
X171404789Y-69756764D01*
X171394666Y-69750000D01*
X171404789Y-69743236D01*
X171493236Y-69654789D01*
X171562729Y-69550785D01*
X171610597Y-69435223D01*
X171635000Y-69312542D01*
X171635000Y-69187458D01*
X171610597Y-69064777D01*
X171562729Y-68949215D01*
X171493236Y-68845211D01*
X171404789Y-68756764D01*
X171394666Y-68750000D01*
X171404789Y-68743236D01*
X171493236Y-68654789D01*
X171562729Y-68550785D01*
X171610597Y-68435223D01*
X171635000Y-68312542D01*
X171635000Y-68187458D01*
X171610597Y-68064777D01*
X171562729Y-67949215D01*
X171493236Y-67845211D01*
X171404789Y-67756764D01*
X171394666Y-67750000D01*
X171404789Y-67743236D01*
X171493236Y-67654789D01*
X171562729Y-67550785D01*
X171610597Y-67435223D01*
X171635000Y-67312542D01*
X171635000Y-67187458D01*
X171610597Y-67064777D01*
X171562729Y-66949215D01*
X171493236Y-66845211D01*
X171404789Y-66756764D01*
X171394666Y-66750000D01*
X171404789Y-66743236D01*
X171493236Y-66654789D01*
X171562729Y-66550785D01*
X171610597Y-66435223D01*
X171635000Y-66312542D01*
X171635000Y-66187458D01*
X171610597Y-66064777D01*
X171562729Y-65949215D01*
X171493236Y-65845211D01*
X171404789Y-65756764D01*
X171300785Y-65687271D01*
X171185223Y-65639403D01*
X171062542Y-65615000D01*
X170937458Y-65615000D01*
X170814777Y-65639403D01*
X170699215Y-65687271D01*
X170595211Y-65756764D01*
X170506764Y-65845211D01*
X170437271Y-65949215D01*
X170389403Y-66064777D01*
X170365000Y-66187458D01*
X170365000Y-66312542D01*
X170389403Y-66435223D01*
X170437271Y-66550785D01*
X170506764Y-66654789D01*
X170595211Y-66743236D01*
X170605334Y-66750000D01*
X170595211Y-66756764D01*
X170506764Y-66845211D01*
X170437271Y-66949215D01*
X170389403Y-67064777D01*
X170365000Y-67187458D01*
X170365000Y-67312542D01*
X170389403Y-67435223D01*
X170437271Y-67550785D01*
X170506764Y-67654789D01*
X170595211Y-67743236D01*
X170605334Y-67750000D01*
X170595211Y-67756764D01*
X170506764Y-67845211D01*
X170437271Y-67949215D01*
X170389403Y-68064777D01*
X170365000Y-68187458D01*
X170365000Y-68312542D01*
X170389403Y-68435223D01*
X170437271Y-68550785D01*
X170506764Y-68654789D01*
X170595211Y-68743236D01*
X170605334Y-68750000D01*
X170595211Y-68756764D01*
X170506764Y-68845211D01*
X170437271Y-68949215D01*
X170389403Y-69064777D01*
X170365000Y-69187458D01*
X170365000Y-69312542D01*
X170389403Y-69435223D01*
X170437271Y-69550785D01*
X170506764Y-69654789D01*
X170595211Y-69743236D01*
X170605334Y-69750000D01*
X170595211Y-69756764D01*
X170506764Y-69845211D01*
X170437271Y-69949215D01*
X170389403Y-70064777D01*
X170365000Y-70187458D01*
X170365000Y-70312542D01*
X170389403Y-70435223D01*
X170437271Y-70550785D01*
X170506764Y-70654789D01*
X170595211Y-70743236D01*
X170605334Y-70750000D01*
X170595211Y-70756764D01*
X170506764Y-70845211D01*
X170437271Y-70949215D01*
X170389403Y-71064777D01*
X170368398Y-71170373D01*
X170304789Y-71106764D01*
X170200785Y-71037271D01*
X170183542Y-71030129D01*
X170160597Y-70914777D01*
X170112729Y-70799215D01*
X170043236Y-70695211D01*
X169954789Y-70606764D01*
X169850785Y-70537271D01*
X169779052Y-70507558D01*
X169760597Y-70414777D01*
X169712729Y-70299215D01*
X169643236Y-70195211D01*
X169554789Y-70106764D01*
X169544666Y-70100000D01*
X169554789Y-70093236D01*
X169643236Y-70004789D01*
X169712729Y-69900785D01*
X169760597Y-69785223D01*
X169783542Y-69669871D01*
X169800785Y-69662729D01*
X169904789Y-69593236D01*
X169993236Y-69504789D01*
X170062729Y-69400785D01*
X170110597Y-69285223D01*
X170135000Y-69162542D01*
X170135000Y-69037458D01*
X170110597Y-68914777D01*
X170062729Y-68799215D01*
X169993236Y-68695211D01*
X169904789Y-68606764D01*
X169894666Y-68600000D01*
X169904789Y-68593236D01*
X169993236Y-68504789D01*
X170062729Y-68400785D01*
X170110597Y-68285223D01*
X170135000Y-68162542D01*
X170135000Y-68037458D01*
X170110597Y-67914777D01*
X170062729Y-67799215D01*
X169993236Y-67695211D01*
X169904789Y-67606764D01*
X169894666Y-67600000D01*
X169904789Y-67593236D01*
X169993236Y-67504789D01*
X170062729Y-67400785D01*
X170110597Y-67285223D01*
X170135000Y-67162542D01*
X170135000Y-67037458D01*
X170110597Y-66914777D01*
X170062729Y-66799215D01*
X169993236Y-66695211D01*
X169904789Y-66606764D01*
X169894666Y-66600000D01*
X169904789Y-66593236D01*
X169993236Y-66504789D01*
X170062729Y-66400785D01*
X170110597Y-66285223D01*
X170135000Y-66162542D01*
X170135000Y-66037458D01*
X170110597Y-65914777D01*
X170062729Y-65799215D01*
X169993236Y-65695211D01*
X169904789Y-65606764D01*
X169800785Y-65537271D01*
X169685223Y-65489403D01*
X169562542Y-65465000D01*
X169437458Y-65465000D01*
X169314777Y-65489403D01*
X169199215Y-65537271D01*
X169095211Y-65606764D01*
X169006764Y-65695211D01*
X168937271Y-65799215D01*
X168889403Y-65914777D01*
X168866458Y-66030129D01*
X168849215Y-66037271D01*
X168745211Y-66106764D01*
X168656764Y-66195211D01*
X168587271Y-66299215D01*
X168539403Y-66414777D01*
X168515000Y-66537458D01*
X168515000Y-66662542D01*
X168539403Y-66785223D01*
X168587271Y-66900785D01*
X168656764Y-67004789D01*
X168745211Y-67093236D01*
X168755334Y-67100000D01*
X168745211Y-67106764D01*
X168656764Y-67195211D01*
X168587271Y-67299215D01*
X168539403Y-67414777D01*
X168515000Y-67537458D01*
X168515000Y-67662542D01*
X168539403Y-67785223D01*
X168587271Y-67900785D01*
X168656764Y-68004789D01*
X168745211Y-68093236D01*
X168755334Y-68100000D01*
X168745211Y-68106764D01*
X168656764Y-68195211D01*
X168587271Y-68299215D01*
X168539403Y-68414777D01*
X168515000Y-68537458D01*
X168515000Y-68662542D01*
X168539403Y-68785223D01*
X168587271Y-68900785D01*
X168656764Y-69004789D01*
X168745211Y-69093236D01*
X168755334Y-69100000D01*
X168745211Y-69106764D01*
X168656764Y-69195211D01*
X168587271Y-69299215D01*
X168539403Y-69414777D01*
X168516458Y-69530129D01*
X168499215Y-69537271D01*
X168395211Y-69606764D01*
X168306764Y-69695211D01*
X168237271Y-69799215D01*
X168189403Y-69914777D01*
X168165000Y-70037458D01*
X163749281Y-70037458D01*
X163712729Y-69949215D01*
X163643236Y-69845211D01*
X163554789Y-69756764D01*
X163450785Y-69687271D01*
X163335223Y-69639403D01*
X163212542Y-69615000D01*
X163087458Y-69615000D01*
X162964777Y-69639403D01*
X162849215Y-69687271D01*
X162745211Y-69756764D01*
X162656764Y-69845211D01*
X162587271Y-69949215D01*
X162539403Y-70064777D01*
X162515000Y-70187458D01*
X161275896Y-70187458D01*
X161200785Y-70137271D01*
X161085223Y-70089403D01*
X160962542Y-70065000D01*
X160837458Y-70065000D01*
X160714777Y-70089403D01*
X160599215Y-70137271D01*
X160495211Y-70206764D01*
X160406764Y-70295211D01*
X160337271Y-70399215D01*
X160289403Y-70514777D01*
X160277022Y-70577022D01*
X160214777Y-70589403D01*
X160099215Y-70637271D01*
X159995211Y-70706764D01*
X159906764Y-70795211D01*
X159837271Y-70899215D01*
X159789403Y-71014777D01*
X159777022Y-71077022D01*
X159714777Y-71089403D01*
X159599215Y-71137271D01*
X159495211Y-71206764D01*
X159406764Y-71295211D01*
X159337271Y-71399215D01*
X159289403Y-71514777D01*
X159277022Y-71577022D01*
X159214777Y-71589403D01*
X159099215Y-71637271D01*
X158995211Y-71706764D01*
X158906764Y-71795211D01*
X158837271Y-71899215D01*
X158789403Y-72014777D01*
X158779081Y-72066666D01*
X158664777Y-72089403D01*
X158549215Y-72137271D01*
X158445211Y-72206764D01*
X158356764Y-72295211D01*
X158287271Y-72399215D01*
X158239403Y-72514777D01*
X158227022Y-72577022D01*
X158164777Y-72589403D01*
X158049215Y-72637271D01*
X157945211Y-72706764D01*
X157856764Y-72795211D01*
X157787271Y-72899215D01*
X157739403Y-73014777D01*
X157727022Y-73077022D01*
X157664777Y-73089403D01*
X157549215Y-73137271D01*
X157445211Y-73206764D01*
X157356764Y-73295211D01*
X157287271Y-73399215D01*
X157239403Y-73514777D01*
X157227022Y-73577022D01*
X157164777Y-73589403D01*
X157049215Y-73637271D01*
X156945211Y-73706764D01*
X156856764Y-73795211D01*
X156787271Y-73899215D01*
X156739403Y-74014777D01*
X156715000Y-74137458D01*
X155438605Y-74137458D01*
X155504789Y-74093236D01*
X155593236Y-74004789D01*
X155662729Y-73900785D01*
X155710597Y-73785223D01*
X155735000Y-73662542D01*
X155735000Y-73537458D01*
X155710597Y-73414777D01*
X155662729Y-73299215D01*
X155593236Y-73195211D01*
X155504789Y-73106764D01*
X155400785Y-73037271D01*
X155285223Y-72989403D01*
X155162542Y-72965000D01*
X155037458Y-72965000D01*
X154914777Y-72989403D01*
X154799215Y-73037271D01*
X154695211Y-73106764D01*
X154606764Y-73195211D01*
X154537271Y-73299215D01*
X154489403Y-73414777D01*
X154465000Y-73537458D01*
X152830567Y-73537458D01*
X152873236Y-73494789D01*
X152942729Y-73390785D01*
X152990597Y-73275223D01*
X153015000Y-73152542D01*
X153015000Y-73027458D01*
X152990597Y-72904777D01*
X152942729Y-72789215D01*
X152889089Y-72708936D01*
X152893236Y-72704789D01*
X152962729Y-72600785D01*
X153010597Y-72485223D01*
X153035000Y-72362542D01*
X153035000Y-72237458D01*
X153010597Y-72114777D01*
X152962729Y-71999215D01*
X152893236Y-71895211D01*
X152804789Y-71806764D01*
X152700785Y-71737271D01*
X152585223Y-71689403D01*
X152462542Y-71665000D01*
X152337458Y-71665000D01*
X152214777Y-71689403D01*
X152099215Y-71737271D01*
X151995211Y-71806764D01*
X151906764Y-71895211D01*
X151837271Y-71999215D01*
X151789403Y-72114777D01*
X151765000Y-72237458D01*
X151765000Y-72362542D01*
X151789403Y-72485223D01*
X151837271Y-72600785D01*
X151890911Y-72681064D01*
X151886764Y-72685211D01*
X151817271Y-72789215D01*
X151769403Y-72904777D01*
X151745000Y-73027458D01*
X148360000Y-73027458D01*
X148360000Y-70310000D01*
X150739194Y-70310000D01*
X150649215Y-70347271D01*
X150545211Y-70416764D01*
X150456764Y-70505211D01*
X150387271Y-70609215D01*
X150339403Y-70724777D01*
X150315000Y-70847458D01*
X150315000Y-70972542D01*
X150339403Y-71095223D01*
X150387271Y-71210785D01*
X150456764Y-71314789D01*
X150545211Y-71403236D01*
X150649215Y-71472729D01*
X150764777Y-71520597D01*
X150887458Y-71545000D01*
X151012542Y-71545000D01*
X151135223Y-71520597D01*
X151250785Y-71472729D01*
X151310000Y-71433163D01*
X151369215Y-71472729D01*
X151484777Y-71520597D01*
X151607458Y-71545000D01*
X151732542Y-71545000D01*
X151855223Y-71520597D01*
X151970785Y-71472729D01*
X152074789Y-71403236D01*
X152163236Y-71314789D01*
X152232729Y-71210785D01*
X152280597Y-71095223D01*
X152305000Y-70972542D01*
X152305000Y-70937458D01*
X152865000Y-70937458D01*
X152865000Y-71062542D01*
X152889403Y-71185223D01*
X152937271Y-71300785D01*
X153006764Y-71404789D01*
X153095211Y-71493236D01*
X153199215Y-71562729D01*
X153314777Y-71610597D01*
X153437458Y-71635000D01*
X153562542Y-71635000D01*
X153685223Y-71610597D01*
X153800785Y-71562729D01*
X153904789Y-71493236D01*
X153993236Y-71404789D01*
X154050000Y-71319835D01*
X154106764Y-71404789D01*
X154195211Y-71493236D01*
X154299215Y-71562729D01*
X154414777Y-71610597D01*
X154537458Y-71635000D01*
X154662542Y-71635000D01*
X154785223Y-71610597D01*
X154900785Y-71562729D01*
X155004789Y-71493236D01*
X155093236Y-71404789D01*
X155162729Y-71300785D01*
X155210597Y-71185223D01*
X155235000Y-71062542D01*
X155235000Y-70937458D01*
X155210597Y-70814777D01*
X155162729Y-70699215D01*
X155093236Y-70595211D01*
X155004789Y-70506764D01*
X154900785Y-70437271D01*
X154785223Y-70389403D01*
X154662542Y-70365000D01*
X154537458Y-70365000D01*
X154414777Y-70389403D01*
X154299215Y-70437271D01*
X154195211Y-70506764D01*
X154106764Y-70595211D01*
X154050000Y-70680165D01*
X153993236Y-70595211D01*
X153904789Y-70506764D01*
X153800785Y-70437271D01*
X153685223Y-70389403D01*
X153562542Y-70365000D01*
X153437458Y-70365000D01*
X153314777Y-70389403D01*
X153199215Y-70437271D01*
X153095211Y-70506764D01*
X153006764Y-70595211D01*
X152937271Y-70699215D01*
X152889403Y-70814777D01*
X152865000Y-70937458D01*
X152305000Y-70937458D01*
X152305000Y-70847458D01*
X152280597Y-70724777D01*
X152232729Y-70609215D01*
X152163236Y-70505211D01*
X152074789Y-70416764D01*
X151970785Y-70347271D01*
X151880806Y-70310000D01*
X153600000Y-70310000D01*
X153621460Y-70307886D01*
X153642095Y-70301627D01*
X153661113Y-70291462D01*
X153677782Y-70277782D01*
X153691462Y-70261113D01*
X153701627Y-70242095D01*
X153707886Y-70221460D01*
X153710000Y-70200000D01*
X153710000Y-68386664D01*
X153710597Y-68385223D01*
X153735000Y-68262542D01*
X153735000Y-68137458D01*
X153710597Y-68014777D01*
X153710000Y-68013336D01*
X153710000Y-67937458D01*
X154965000Y-67937458D01*
X154965000Y-68062542D01*
X154989403Y-68185223D01*
X155037271Y-68300785D01*
X155106764Y-68404789D01*
X155195211Y-68493236D01*
X155299215Y-68562729D01*
X155414777Y-68610597D01*
X155537458Y-68635000D01*
X155662542Y-68635000D01*
X155785223Y-68610597D01*
X155900785Y-68562729D01*
X155972398Y-68514879D01*
X155987271Y-68550785D01*
X156056764Y-68654789D01*
X156145211Y-68743236D01*
X156249215Y-68812729D01*
X156364777Y-68860597D01*
X156487458Y-68885000D01*
X156612542Y-68885000D01*
X156735223Y-68860597D01*
X156850785Y-68812729D01*
X156954789Y-68743236D01*
X157043236Y-68654789D01*
X157112729Y-68550785D01*
X157160597Y-68435223D01*
X157185000Y-68312542D01*
X157185000Y-68187458D01*
X157160597Y-68064777D01*
X157112729Y-67949215D01*
X157043236Y-67845211D01*
X156954789Y-67756764D01*
X156850785Y-67687271D01*
X156735223Y-67639403D01*
X156612542Y-67615000D01*
X156487458Y-67615000D01*
X156364777Y-67639403D01*
X156249215Y-67687271D01*
X156177602Y-67735121D01*
X156162729Y-67699215D01*
X156093236Y-67595211D01*
X156004789Y-67506764D01*
X155900785Y-67437271D01*
X155785223Y-67389403D01*
X155662542Y-67365000D01*
X155537458Y-67365000D01*
X155414777Y-67389403D01*
X155299215Y-67437271D01*
X155195211Y-67506764D01*
X155106764Y-67595211D01*
X155037271Y-67699215D01*
X154989403Y-67814777D01*
X154965000Y-67937458D01*
X153710000Y-67937458D01*
X153710000Y-65310000D01*
X155138474Y-65310000D01*
X155112271Y-65349215D01*
X155064403Y-65464777D01*
X155040000Y-65587458D01*
X155040000Y-65712542D01*
X155064403Y-65835223D01*
X155112271Y-65950785D01*
X155181764Y-66054789D01*
X155270211Y-66143236D01*
X155374215Y-66212729D01*
X155489777Y-66260597D01*
X155612458Y-66285000D01*
X155737542Y-66285000D01*
X155860223Y-66260597D01*
X155975785Y-66212729D01*
X156079789Y-66143236D01*
X156168236Y-66054789D01*
X156237729Y-65950785D01*
X156285597Y-65835223D01*
X156310000Y-65712542D01*
X156310000Y-65587458D01*
X156285597Y-65464777D01*
X156237729Y-65349215D01*
X156211526Y-65310000D01*
X163900000Y-65310000D01*
X163921460Y-65307886D01*
X163942095Y-65301627D01*
X163961113Y-65291462D01*
X163977782Y-65277782D01*
X163991462Y-65261113D01*
X164001627Y-65242095D01*
X164007886Y-65221460D01*
X164010000Y-65200000D01*
X164010000Y-65187460D01*
X164310175Y-65187460D01*
X164310175Y-65312544D01*
X164334578Y-65435225D01*
X164382446Y-65550787D01*
X164451939Y-65654791D01*
X164540386Y-65743238D01*
X164644390Y-65812731D01*
X164759952Y-65860599D01*
X164882633Y-65885002D01*
X165007717Y-65885002D01*
X165130398Y-65860599D01*
X165237022Y-65816433D01*
X165279354Y-65879788D01*
X165367801Y-65968235D01*
X165471805Y-66037728D01*
X165587367Y-66085596D01*
X165710048Y-66109999D01*
X165835132Y-66109999D01*
X165957813Y-66085596D01*
X166073375Y-66037728D01*
X166177379Y-65968235D01*
X166265826Y-65879788D01*
X166267533Y-65877233D01*
X166305599Y-65893000D01*
X166428280Y-65917403D01*
X166553364Y-65917403D01*
X166676045Y-65893000D01*
X166791607Y-65845132D01*
X166895611Y-65775639D01*
X166984058Y-65687192D01*
X167053551Y-65583188D01*
X167101419Y-65467626D01*
X167125822Y-65344945D01*
X167125822Y-65219861D01*
X167101419Y-65097180D01*
X167053551Y-64981618D01*
X166984058Y-64877614D01*
X166895611Y-64789167D01*
X166791607Y-64719674D01*
X166676045Y-64671806D01*
X166553364Y-64647403D01*
X166428280Y-64647403D01*
X166305599Y-64671806D01*
X166190037Y-64719674D01*
X166086033Y-64789167D01*
X165997586Y-64877614D01*
X165995879Y-64880169D01*
X165957813Y-64864402D01*
X165835132Y-64839999D01*
X165710048Y-64839999D01*
X165587367Y-64864402D01*
X165480743Y-64908568D01*
X165438411Y-64845213D01*
X165349964Y-64756766D01*
X165245960Y-64687273D01*
X165130398Y-64639405D01*
X165007717Y-64615002D01*
X164882633Y-64615002D01*
X164759952Y-64639405D01*
X164644390Y-64687273D01*
X164540386Y-64756766D01*
X164451939Y-64845213D01*
X164382446Y-64949217D01*
X164334578Y-65064779D01*
X164310175Y-65187460D01*
X164010000Y-65187460D01*
X164010000Y-62037458D01*
X168715000Y-62037458D01*
X168715000Y-62162542D01*
X168739403Y-62285223D01*
X168776590Y-62375000D01*
X168739403Y-62464777D01*
X168715000Y-62587458D01*
X168715000Y-62712542D01*
X168739403Y-62835223D01*
X168787271Y-62950785D01*
X168856764Y-63054789D01*
X168945211Y-63143236D01*
X169049215Y-63212729D01*
X169164777Y-63260597D01*
X169287458Y-63285000D01*
X169412542Y-63285000D01*
X169535223Y-63260597D01*
X169650785Y-63212729D01*
X169754789Y-63143236D01*
X169843236Y-63054789D01*
X169912729Y-62950785D01*
X169960597Y-62835223D01*
X169985000Y-62712542D01*
X169985000Y-62587458D01*
X169960597Y-62464777D01*
X169923410Y-62375000D01*
X169960597Y-62285223D01*
X169985000Y-62162542D01*
X169985000Y-62037458D01*
X169960597Y-61914777D01*
X169912729Y-61799215D01*
X169843236Y-61695211D01*
X169754789Y-61606764D01*
X169650785Y-61537271D01*
X169535223Y-61489403D01*
X169412542Y-61465000D01*
X169287458Y-61465000D01*
X169164777Y-61489403D01*
X169049215Y-61537271D01*
X168945211Y-61606764D01*
X168856764Y-61695211D01*
X168787271Y-61799215D01*
X168739403Y-61914777D01*
X168715000Y-62037458D01*
X164010000Y-62037458D01*
X164010000Y-61037458D01*
X165465000Y-61037458D01*
X165465000Y-61162542D01*
X165489403Y-61285223D01*
X165537271Y-61400785D01*
X165606764Y-61504789D01*
X165695211Y-61593236D01*
X165799215Y-61662729D01*
X165914777Y-61710597D01*
X166037458Y-61735000D01*
X166162542Y-61735000D01*
X166285223Y-61710597D01*
X166375000Y-61673410D01*
X166464777Y-61710597D01*
X166587458Y-61735000D01*
X166712542Y-61735000D01*
X166835223Y-61710597D01*
X166950785Y-61662729D01*
X167054789Y-61593236D01*
X167143236Y-61504789D01*
X167212729Y-61400785D01*
X167260597Y-61285223D01*
X167285000Y-61162542D01*
X167285000Y-61037458D01*
X167260597Y-60914777D01*
X167212729Y-60799215D01*
X167143236Y-60695211D01*
X167054789Y-60606764D01*
X166951065Y-60537458D01*
X168315000Y-60537458D01*
X168315000Y-60662542D01*
X168339403Y-60785223D01*
X168387271Y-60900785D01*
X168456764Y-61004789D01*
X168545211Y-61093236D01*
X168649215Y-61162729D01*
X168764777Y-61210597D01*
X168887458Y-61235000D01*
X169012542Y-61235000D01*
X169135223Y-61210597D01*
X169250785Y-61162729D01*
X169354789Y-61093236D01*
X169443236Y-61004789D01*
X169512729Y-60900785D01*
X169560597Y-60785223D01*
X169585000Y-60662542D01*
X169585000Y-60537458D01*
X169560597Y-60414777D01*
X169512729Y-60299215D01*
X169443236Y-60195211D01*
X169354789Y-60106764D01*
X169250785Y-60037271D01*
X169135223Y-59989403D01*
X169012542Y-59965000D01*
X168887458Y-59965000D01*
X168764777Y-59989403D01*
X168649215Y-60037271D01*
X168545211Y-60106764D01*
X168456764Y-60195211D01*
X168387271Y-60299215D01*
X168339403Y-60414777D01*
X168315000Y-60537458D01*
X166951065Y-60537458D01*
X166950785Y-60537271D01*
X166835223Y-60489403D01*
X166712542Y-60465000D01*
X166587458Y-60465000D01*
X166464777Y-60489403D01*
X166375000Y-60526590D01*
X166285223Y-60489403D01*
X166162542Y-60465000D01*
X166037458Y-60465000D01*
X165914777Y-60489403D01*
X165799215Y-60537271D01*
X165695211Y-60606764D01*
X165606764Y-60695211D01*
X165537271Y-60799215D01*
X165489403Y-60914777D01*
X165465000Y-61037458D01*
X164010000Y-61037458D01*
X164010000Y-60067196D01*
X164114777Y-60110597D01*
X164237458Y-60135000D01*
X164362542Y-60135000D01*
X164485223Y-60110597D01*
X164600785Y-60062729D01*
X164704789Y-59993236D01*
X164793236Y-59904789D01*
X164862729Y-59800785D01*
X164910597Y-59685223D01*
X164935000Y-59562542D01*
X164935000Y-59437458D01*
X170365000Y-59437458D01*
X170365000Y-59562542D01*
X170389403Y-59685223D01*
X170437271Y-59800785D01*
X170506764Y-59904789D01*
X170595211Y-59993236D01*
X170605334Y-60000000D01*
X170595211Y-60006764D01*
X170506764Y-60095211D01*
X170437271Y-60199215D01*
X170389403Y-60314777D01*
X170365000Y-60437458D01*
X170365000Y-60562542D01*
X170389403Y-60685223D01*
X170437271Y-60800785D01*
X170506764Y-60904789D01*
X170595211Y-60993236D01*
X170605334Y-61000000D01*
X170595211Y-61006764D01*
X170506764Y-61095211D01*
X170437271Y-61199215D01*
X170389403Y-61314777D01*
X170365000Y-61437458D01*
X170365000Y-61562542D01*
X170389403Y-61685223D01*
X170437271Y-61800785D01*
X170506764Y-61904789D01*
X170595211Y-61993236D01*
X170699215Y-62062729D01*
X170814777Y-62110597D01*
X170937458Y-62135000D01*
X171062542Y-62135000D01*
X171185223Y-62110597D01*
X171300785Y-62062729D01*
X171404789Y-61993236D01*
X171493236Y-61904789D01*
X171562729Y-61800785D01*
X171610597Y-61685223D01*
X171635000Y-61562542D01*
X171635000Y-61437458D01*
X171610597Y-61314777D01*
X171562729Y-61199215D01*
X171493236Y-61095211D01*
X171404789Y-61006764D01*
X171394666Y-61000000D01*
X171404789Y-60993236D01*
X171493236Y-60904789D01*
X171562729Y-60800785D01*
X171610597Y-60685223D01*
X171635000Y-60562542D01*
X171635000Y-60437458D01*
X171610597Y-60314777D01*
X171562729Y-60199215D01*
X171493236Y-60095211D01*
X171404789Y-60006764D01*
X171394666Y-60000000D01*
X171404789Y-59993236D01*
X171493236Y-59904789D01*
X171562729Y-59800785D01*
X171610597Y-59685223D01*
X171635000Y-59562542D01*
X171635000Y-59437458D01*
X171610597Y-59314777D01*
X171562729Y-59199215D01*
X171493236Y-59095211D01*
X171404789Y-59006764D01*
X171300785Y-58937271D01*
X171185223Y-58889403D01*
X171062542Y-58865000D01*
X170937458Y-58865000D01*
X170814777Y-58889403D01*
X170699215Y-58937271D01*
X170595211Y-59006764D01*
X170506764Y-59095211D01*
X170437271Y-59199215D01*
X170389403Y-59314777D01*
X170365000Y-59437458D01*
X164935000Y-59437458D01*
X164910597Y-59314777D01*
X164862729Y-59199215D01*
X164793236Y-59095211D01*
X164704789Y-59006764D01*
X164600785Y-58937271D01*
X164485223Y-58889403D01*
X164362542Y-58865000D01*
X164237458Y-58865000D01*
X164114777Y-58889403D01*
X164010000Y-58932804D01*
X164010000Y-58162458D01*
X165540000Y-58162458D01*
X165540000Y-58287542D01*
X165564403Y-58410223D01*
X165612271Y-58525785D01*
X165681764Y-58629789D01*
X165770211Y-58718236D01*
X165874215Y-58787729D01*
X165989777Y-58835597D01*
X166112458Y-58860000D01*
X166237542Y-58860000D01*
X166360223Y-58835597D01*
X166475785Y-58787729D01*
X166579789Y-58718236D01*
X166660567Y-58637458D01*
X167085000Y-58637458D01*
X167085000Y-58762542D01*
X167109403Y-58885223D01*
X167157271Y-59000785D01*
X167226764Y-59104789D01*
X167315211Y-59193236D01*
X167419215Y-59262729D01*
X167534777Y-59310597D01*
X167657458Y-59335000D01*
X167782542Y-59335000D01*
X167905223Y-59310597D01*
X168020785Y-59262729D01*
X168124789Y-59193236D01*
X168213236Y-59104789D01*
X168282729Y-59000785D01*
X168330597Y-58885223D01*
X168355000Y-58762542D01*
X168355000Y-58637458D01*
X168330597Y-58514777D01*
X168282729Y-58399215D01*
X168213236Y-58295211D01*
X168124789Y-58206764D01*
X168020785Y-58137271D01*
X167905223Y-58089403D01*
X167782542Y-58065000D01*
X167657458Y-58065000D01*
X167534777Y-58089403D01*
X167419215Y-58137271D01*
X167315211Y-58206764D01*
X167226764Y-58295211D01*
X167157271Y-58399215D01*
X167109403Y-58514777D01*
X167085000Y-58637458D01*
X166660567Y-58637458D01*
X166668236Y-58629789D01*
X166737729Y-58525785D01*
X166785597Y-58410223D01*
X166810000Y-58287542D01*
X166810000Y-58162458D01*
X166785597Y-58039777D01*
X166737729Y-57924215D01*
X166668236Y-57820211D01*
X166579789Y-57731764D01*
X166475785Y-57662271D01*
X166360223Y-57614403D01*
X166237542Y-57590000D01*
X166112458Y-57590000D01*
X165989777Y-57614403D01*
X165874215Y-57662271D01*
X165770211Y-57731764D01*
X165681764Y-57820211D01*
X165612271Y-57924215D01*
X165564403Y-58039777D01*
X165540000Y-58162458D01*
X164010000Y-58162458D01*
X164010000Y-56673054D01*
X164010785Y-56672729D01*
X164114789Y-56603236D01*
X164203236Y-56514789D01*
X164272729Y-56410785D01*
X164320597Y-56295223D01*
X164345000Y-56172542D01*
X164345000Y-56047458D01*
X164338039Y-56012458D01*
X166715000Y-56012458D01*
X166715000Y-56137542D01*
X166739403Y-56260223D01*
X166787271Y-56375785D01*
X166856764Y-56479789D01*
X166876975Y-56500000D01*
X166856764Y-56520211D01*
X166787271Y-56624215D01*
X166739403Y-56739777D01*
X166715000Y-56862458D01*
X166715000Y-56987542D01*
X166739403Y-57110223D01*
X166787271Y-57225785D01*
X166856764Y-57329789D01*
X166945211Y-57418236D01*
X167049215Y-57487729D01*
X167164777Y-57535597D01*
X167287458Y-57560000D01*
X167412542Y-57560000D01*
X167535223Y-57535597D01*
X167650785Y-57487729D01*
X167754789Y-57418236D01*
X167843236Y-57329789D01*
X167912729Y-57225785D01*
X167960597Y-57110223D01*
X167985000Y-56987542D01*
X167985000Y-56862458D01*
X167960597Y-56739777D01*
X167927463Y-56659785D01*
X167989777Y-56685597D01*
X168112458Y-56710000D01*
X168237542Y-56710000D01*
X168360223Y-56685597D01*
X168475785Y-56637729D01*
X168579789Y-56568236D01*
X168668236Y-56479789D01*
X168737729Y-56375785D01*
X168785597Y-56260223D01*
X168810000Y-56137542D01*
X168810000Y-56012458D01*
X168785597Y-55889777D01*
X168737729Y-55774215D01*
X168668236Y-55670211D01*
X168579789Y-55581764D01*
X168475785Y-55512271D01*
X168360223Y-55464403D01*
X168237542Y-55440000D01*
X168112458Y-55440000D01*
X167989777Y-55464403D01*
X167874215Y-55512271D01*
X167770211Y-55581764D01*
X167762500Y-55589475D01*
X167754789Y-55581764D01*
X167650785Y-55512271D01*
X167535223Y-55464403D01*
X167412542Y-55440000D01*
X167287458Y-55440000D01*
X167164777Y-55464403D01*
X167049215Y-55512271D01*
X166945211Y-55581764D01*
X166856764Y-55670211D01*
X166787271Y-55774215D01*
X166739403Y-55889777D01*
X166715000Y-56012458D01*
X164338039Y-56012458D01*
X164320597Y-55924777D01*
X164272729Y-55809215D01*
X164203236Y-55705211D01*
X164114789Y-55616764D01*
X164010785Y-55547271D01*
X164010000Y-55546946D01*
X164010000Y-54237458D01*
X165565000Y-54237458D01*
X165565000Y-54362542D01*
X165589403Y-54485223D01*
X165637271Y-54600785D01*
X165706764Y-54704789D01*
X165795211Y-54793236D01*
X165899215Y-54862729D01*
X166014777Y-54910597D01*
X166137458Y-54935000D01*
X166262542Y-54935000D01*
X166385223Y-54910597D01*
X166500785Y-54862729D01*
X166604789Y-54793236D01*
X166693236Y-54704789D01*
X166762729Y-54600785D01*
X166810597Y-54485223D01*
X166835000Y-54362542D01*
X166835000Y-54237458D01*
X166830270Y-54213679D01*
X166937458Y-54235000D01*
X167062542Y-54235000D01*
X167185223Y-54210597D01*
X167247537Y-54184785D01*
X167214403Y-54264777D01*
X167190000Y-54387458D01*
X167190000Y-54512542D01*
X167214403Y-54635223D01*
X167262271Y-54750785D01*
X167331764Y-54854789D01*
X167420211Y-54943236D01*
X167524215Y-55012729D01*
X167639777Y-55060597D01*
X167762458Y-55085000D01*
X167887542Y-55085000D01*
X168010223Y-55060597D01*
X168125785Y-55012729D01*
X168229789Y-54943236D01*
X168318236Y-54854789D01*
X168387729Y-54750785D01*
X168435597Y-54635223D01*
X168460000Y-54512542D01*
X168460000Y-54387458D01*
X168435597Y-54264777D01*
X168387729Y-54149215D01*
X168318236Y-54045211D01*
X168229789Y-53956764D01*
X168125785Y-53887271D01*
X168010223Y-53839403D01*
X167887542Y-53815000D01*
X167762458Y-53815000D01*
X167639777Y-53839403D01*
X167577463Y-53865215D01*
X167610597Y-53785223D01*
X167635000Y-53662542D01*
X167635000Y-53537458D01*
X167610597Y-53414777D01*
X167568215Y-53312458D01*
X168115000Y-53312458D01*
X168115000Y-53437542D01*
X168139403Y-53560223D01*
X168187271Y-53675785D01*
X168256764Y-53779789D01*
X168345211Y-53868236D01*
X168449215Y-53937729D01*
X168564777Y-53985597D01*
X168687458Y-54010000D01*
X168812542Y-54010000D01*
X168935223Y-53985597D01*
X169050785Y-53937729D01*
X169154789Y-53868236D01*
X169243236Y-53779789D01*
X169312729Y-53675785D01*
X169360597Y-53560223D01*
X169385000Y-53437542D01*
X169385000Y-53312458D01*
X169360597Y-53189777D01*
X169312729Y-53074215D01*
X169243236Y-52970211D01*
X169154789Y-52881764D01*
X169050785Y-52812271D01*
X168935223Y-52764403D01*
X168812542Y-52740000D01*
X168687458Y-52740000D01*
X168564777Y-52764403D01*
X168449215Y-52812271D01*
X168345211Y-52881764D01*
X168256764Y-52970211D01*
X168187271Y-53074215D01*
X168139403Y-53189777D01*
X168115000Y-53312458D01*
X167568215Y-53312458D01*
X167562729Y-53299215D01*
X167493236Y-53195211D01*
X167404789Y-53106764D01*
X167300785Y-53037271D01*
X167185223Y-52989403D01*
X167062542Y-52965000D01*
X166937458Y-52965000D01*
X166814777Y-52989403D01*
X166699215Y-53037271D01*
X166595211Y-53106764D01*
X166506764Y-53195211D01*
X166437271Y-53299215D01*
X166389403Y-53414777D01*
X166365000Y-53537458D01*
X166365000Y-53662542D01*
X166369730Y-53686321D01*
X166262542Y-53665000D01*
X166137458Y-53665000D01*
X166014777Y-53689403D01*
X165899215Y-53737271D01*
X165795211Y-53806764D01*
X165706764Y-53895211D01*
X165637271Y-53999215D01*
X165589403Y-54114777D01*
X165565000Y-54237458D01*
X164010000Y-54237458D01*
X164010000Y-51185000D01*
X172565001Y-51185000D01*
X172565000Y-77815000D01*
M02*
