G04 #@! TF.GenerationSoftware,KiCad,Pcbnew,(5.1.0)-1*
G04 #@! TF.CreationDate,2020-06-02T11:39:52-04:00*
G04 #@! TF.ProjectId,ThreeDeeO,54687265-6544-4656-954f-2e6b69636164,rev?*
G04 #@! TF.SameCoordinates,Original*
G04 #@! TF.FileFunction,Soldermask,Bot*
G04 #@! TF.FilePolarity,Negative*
%FSLAX46Y46*%
G04 Gerber Fmt 4.6, Leading zero omitted, Abs format (unit mm)*
G04 Created by KiCad (PCBNEW (5.1.0)-1) date 2020-06-02 11:39:52*
%MOMM*%
%LPD*%
G04 APERTURE LIST*
%ADD10C,0.100000*%
G04 APERTURE END LIST*
D10*
G36*
X146936348Y-73833820D02*
G01*
X146936350Y-73833821D01*
X146936351Y-73833821D01*
X147077574Y-73892317D01*
X147077577Y-73892319D01*
X147204669Y-73977239D01*
X147312761Y-74085331D01*
X147397681Y-74212423D01*
X147397683Y-74212426D01*
X147456179Y-74353649D01*
X147486000Y-74503571D01*
X147486000Y-74656429D01*
X147456179Y-74806351D01*
X147397683Y-74947574D01*
X147397681Y-74947577D01*
X147312761Y-75074669D01*
X147204669Y-75182761D01*
X147077577Y-75267681D01*
X147077574Y-75267683D01*
X146936351Y-75326179D01*
X146936350Y-75326179D01*
X146936348Y-75326180D01*
X146786431Y-75356000D01*
X146633569Y-75356000D01*
X146483652Y-75326180D01*
X146483650Y-75326179D01*
X146483649Y-75326179D01*
X146342426Y-75267683D01*
X146342423Y-75267681D01*
X146215331Y-75182761D01*
X146107239Y-75074669D01*
X146022319Y-74947577D01*
X146022317Y-74947574D01*
X145963821Y-74806351D01*
X145934000Y-74656429D01*
X145934000Y-74503571D01*
X145963821Y-74353649D01*
X146022317Y-74212426D01*
X146022319Y-74212423D01*
X146107239Y-74085331D01*
X146215331Y-73977239D01*
X146342423Y-73892319D01*
X146342426Y-73892317D01*
X146483649Y-73833821D01*
X146483650Y-73833821D01*
X146483652Y-73833820D01*
X146633569Y-73804000D01*
X146786431Y-73804000D01*
X146936348Y-73833820D01*
X146936348Y-73833820D01*
G37*
G36*
X146936348Y-71333820D02*
G01*
X146936350Y-71333821D01*
X146936351Y-71333821D01*
X147077574Y-71392317D01*
X147077577Y-71392319D01*
X147204669Y-71477239D01*
X147312761Y-71585331D01*
X147397681Y-71712423D01*
X147397683Y-71712426D01*
X147456179Y-71853649D01*
X147486000Y-72003571D01*
X147486000Y-72156429D01*
X147456179Y-72306351D01*
X147397683Y-72447574D01*
X147397681Y-72447577D01*
X147312761Y-72574669D01*
X147204669Y-72682761D01*
X147077577Y-72767681D01*
X147077574Y-72767683D01*
X146936351Y-72826179D01*
X146936350Y-72826179D01*
X146936348Y-72826180D01*
X146786431Y-72856000D01*
X146633569Y-72856000D01*
X146483652Y-72826180D01*
X146483650Y-72826179D01*
X146483649Y-72826179D01*
X146342426Y-72767683D01*
X146342423Y-72767681D01*
X146215331Y-72682761D01*
X146107239Y-72574669D01*
X146022319Y-72447577D01*
X146022317Y-72447574D01*
X145963821Y-72306351D01*
X145934000Y-72156429D01*
X145934000Y-72003571D01*
X145963821Y-71853649D01*
X146022317Y-71712426D01*
X146022319Y-71712423D01*
X146107239Y-71585331D01*
X146215331Y-71477239D01*
X146342423Y-71392319D01*
X146342426Y-71392317D01*
X146483649Y-71333821D01*
X146483650Y-71333821D01*
X146483652Y-71333820D01*
X146633569Y-71304000D01*
X146786431Y-71304000D01*
X146936348Y-71333820D01*
X146936348Y-71333820D01*
G37*
G36*
X146936348Y-68833820D02*
G01*
X146936350Y-68833821D01*
X146936351Y-68833821D01*
X147077574Y-68892317D01*
X147077577Y-68892319D01*
X147204669Y-68977239D01*
X147312761Y-69085331D01*
X147397681Y-69212423D01*
X147397683Y-69212426D01*
X147456179Y-69353649D01*
X147486000Y-69503571D01*
X147486000Y-69656429D01*
X147456179Y-69806351D01*
X147397683Y-69947574D01*
X147397681Y-69947577D01*
X147312761Y-70074669D01*
X147204669Y-70182761D01*
X147077577Y-70267681D01*
X147077574Y-70267683D01*
X146936351Y-70326179D01*
X146936350Y-70326179D01*
X146936348Y-70326180D01*
X146786431Y-70356000D01*
X146633569Y-70356000D01*
X146483652Y-70326180D01*
X146483650Y-70326179D01*
X146483649Y-70326179D01*
X146342426Y-70267683D01*
X146342423Y-70267681D01*
X146215331Y-70182761D01*
X146107239Y-70074669D01*
X146022319Y-69947577D01*
X146022317Y-69947574D01*
X145963821Y-69806351D01*
X145934000Y-69656429D01*
X145934000Y-69503571D01*
X145963821Y-69353649D01*
X146022317Y-69212426D01*
X146022319Y-69212423D01*
X146107239Y-69085331D01*
X146215331Y-68977239D01*
X146342423Y-68892319D01*
X146342426Y-68892317D01*
X146483649Y-68833821D01*
X146483650Y-68833821D01*
X146483652Y-68833820D01*
X146633569Y-68804000D01*
X146786431Y-68804000D01*
X146936348Y-68833820D01*
X146936348Y-68833820D01*
G37*
G36*
X146936348Y-66333820D02*
G01*
X146936350Y-66333821D01*
X146936351Y-66333821D01*
X147077574Y-66392317D01*
X147077577Y-66392319D01*
X147204669Y-66477239D01*
X147312761Y-66585331D01*
X147397681Y-66712423D01*
X147397683Y-66712426D01*
X147456179Y-66853649D01*
X147486000Y-67003571D01*
X147486000Y-67156429D01*
X147456179Y-67306351D01*
X147397683Y-67447574D01*
X147397681Y-67447577D01*
X147312761Y-67574669D01*
X147204669Y-67682761D01*
X147077577Y-67767681D01*
X147077574Y-67767683D01*
X146936351Y-67826179D01*
X146936350Y-67826179D01*
X146936348Y-67826180D01*
X146786431Y-67856000D01*
X146633569Y-67856000D01*
X146483652Y-67826180D01*
X146483650Y-67826179D01*
X146483649Y-67826179D01*
X146342426Y-67767683D01*
X146342423Y-67767681D01*
X146215331Y-67682761D01*
X146107239Y-67574669D01*
X146022319Y-67447577D01*
X146022317Y-67447574D01*
X145963821Y-67306351D01*
X145934000Y-67156429D01*
X145934000Y-67003571D01*
X145963821Y-66853649D01*
X146022317Y-66712426D01*
X146022319Y-66712423D01*
X146107239Y-66585331D01*
X146215331Y-66477239D01*
X146342423Y-66392319D01*
X146342426Y-66392317D01*
X146483649Y-66333821D01*
X146483650Y-66333821D01*
X146483652Y-66333820D01*
X146633569Y-66304000D01*
X146786431Y-66304000D01*
X146936348Y-66333820D01*
X146936348Y-66333820D01*
G37*
G36*
X146936348Y-63833820D02*
G01*
X146936350Y-63833821D01*
X146936351Y-63833821D01*
X147077574Y-63892317D01*
X147077577Y-63892319D01*
X147204669Y-63977239D01*
X147312761Y-64085331D01*
X147397681Y-64212423D01*
X147397683Y-64212426D01*
X147456179Y-64353649D01*
X147486000Y-64503571D01*
X147486000Y-64656429D01*
X147456179Y-64806351D01*
X147397683Y-64947574D01*
X147397681Y-64947577D01*
X147312761Y-65074669D01*
X147204669Y-65182761D01*
X147077577Y-65267681D01*
X147077574Y-65267683D01*
X146936351Y-65326179D01*
X146936350Y-65326179D01*
X146936348Y-65326180D01*
X146786431Y-65356000D01*
X146633569Y-65356000D01*
X146483652Y-65326180D01*
X146483650Y-65326179D01*
X146483649Y-65326179D01*
X146342426Y-65267683D01*
X146342423Y-65267681D01*
X146215331Y-65182761D01*
X146107239Y-65074669D01*
X146022319Y-64947577D01*
X146022317Y-64947574D01*
X145963821Y-64806351D01*
X145934000Y-64656429D01*
X145934000Y-64503571D01*
X145963821Y-64353649D01*
X146022317Y-64212426D01*
X146022319Y-64212423D01*
X146107239Y-64085331D01*
X146215331Y-63977239D01*
X146342423Y-63892319D01*
X146342426Y-63892317D01*
X146483649Y-63833821D01*
X146483650Y-63833821D01*
X146483652Y-63833820D01*
X146633569Y-63804000D01*
X146786431Y-63804000D01*
X146936348Y-63833820D01*
X146936348Y-63833820D01*
G37*
G36*
X146936348Y-61333820D02*
G01*
X146936350Y-61333821D01*
X146936351Y-61333821D01*
X147077574Y-61392317D01*
X147077577Y-61392319D01*
X147204669Y-61477239D01*
X147312761Y-61585331D01*
X147397681Y-61712423D01*
X147397683Y-61712426D01*
X147456179Y-61853649D01*
X147486000Y-62003571D01*
X147486000Y-62156429D01*
X147456179Y-62306351D01*
X147397683Y-62447574D01*
X147397681Y-62447577D01*
X147312761Y-62574669D01*
X147204669Y-62682761D01*
X147077577Y-62767681D01*
X147077574Y-62767683D01*
X146936351Y-62826179D01*
X146936350Y-62826179D01*
X146936348Y-62826180D01*
X146786431Y-62856000D01*
X146633569Y-62856000D01*
X146483652Y-62826180D01*
X146483650Y-62826179D01*
X146483649Y-62826179D01*
X146342426Y-62767683D01*
X146342423Y-62767681D01*
X146215331Y-62682761D01*
X146107239Y-62574669D01*
X146022319Y-62447577D01*
X146022317Y-62447574D01*
X145963821Y-62306351D01*
X145934000Y-62156429D01*
X145934000Y-62003571D01*
X145963821Y-61853649D01*
X146022317Y-61712426D01*
X146022319Y-61712423D01*
X146107239Y-61585331D01*
X146215331Y-61477239D01*
X146342423Y-61392319D01*
X146342426Y-61392317D01*
X146483649Y-61333821D01*
X146483650Y-61333821D01*
X146483652Y-61333820D01*
X146633569Y-61304000D01*
X146786431Y-61304000D01*
X146936348Y-61333820D01*
X146936348Y-61333820D01*
G37*
M02*
