G04 #@! TF.GenerationSoftware,KiCad,Pcbnew,(5.1.0)-1*
G04 #@! TF.CreationDate,2019-11-22T10:29:24-05:00*
G04 #@! TF.ProjectId,ThreeDeeO,54687265-6544-4656-954f-2e6b69636164,rev?*
G04 #@! TF.SameCoordinates,Original*
G04 #@! TF.FileFunction,Legend,Bot*
G04 #@! TF.FilePolarity,Positive*
%FSLAX46Y46*%
G04 Gerber Fmt 4.6, Leading zero omitted, Abs format (unit mm)*
G04 Created by KiCad (PCBNEW (5.1.0)-1) date 2019-11-22 10:29:24*
%MOMM*%
%LPD*%
G04 APERTURE LIST*
%ADD10C,0.150000*%
G04 APERTURE END LIST*
D10*
X151531428Y-74721428D02*
X150769523Y-74721428D01*
X151150476Y-75102380D02*
X151150476Y-74340476D01*
X150388571Y-74102380D02*
X149769523Y-74102380D01*
X150102857Y-74483333D01*
X149960000Y-74483333D01*
X149864761Y-74530952D01*
X149817142Y-74578571D01*
X149769523Y-74673809D01*
X149769523Y-74911904D01*
X149817142Y-75007142D01*
X149864761Y-75054761D01*
X149960000Y-75102380D01*
X150245714Y-75102380D01*
X150340952Y-75054761D01*
X150388571Y-75007142D01*
X149340952Y-75007142D02*
X149293333Y-75054761D01*
X149340952Y-75102380D01*
X149388571Y-75054761D01*
X149340952Y-75007142D01*
X149340952Y-75102380D01*
X148960000Y-74102380D02*
X148340952Y-74102380D01*
X148674285Y-74483333D01*
X148531428Y-74483333D01*
X148436190Y-74530952D01*
X148388571Y-74578571D01*
X148340952Y-74673809D01*
X148340952Y-74911904D01*
X148388571Y-75007142D01*
X148436190Y-75054761D01*
X148531428Y-75102380D01*
X148817142Y-75102380D01*
X148912380Y-75054761D01*
X148960000Y-75007142D01*
X150311904Y-71650000D02*
X150407142Y-71602380D01*
X150550000Y-71602380D01*
X150692857Y-71650000D01*
X150788095Y-71745238D01*
X150835714Y-71840476D01*
X150883333Y-72030952D01*
X150883333Y-72173809D01*
X150835714Y-72364285D01*
X150788095Y-72459523D01*
X150692857Y-72554761D01*
X150550000Y-72602380D01*
X150454761Y-72602380D01*
X150311904Y-72554761D01*
X150264285Y-72507142D01*
X150264285Y-72173809D01*
X150454761Y-72173809D01*
X149835714Y-72602380D02*
X149835714Y-71602380D01*
X149264285Y-72602380D01*
X149264285Y-71602380D01*
X148788095Y-72602380D02*
X148788095Y-71602380D01*
X148550000Y-71602380D01*
X148407142Y-71650000D01*
X148311904Y-71745238D01*
X148264285Y-71840476D01*
X148216666Y-72030952D01*
X148216666Y-72173809D01*
X148264285Y-72364285D01*
X148311904Y-72459523D01*
X148407142Y-72554761D01*
X148550000Y-72602380D01*
X148788095Y-72602380D01*
X150799523Y-69092380D02*
X150228095Y-69092380D01*
X150513809Y-70092380D02*
X150513809Y-69092380D01*
X149894761Y-70092380D02*
X149894761Y-69092380D01*
X149656666Y-69092380D01*
X149513809Y-69140000D01*
X149418571Y-69235238D01*
X149370952Y-69330476D01*
X149323333Y-69520952D01*
X149323333Y-69663809D01*
X149370952Y-69854285D01*
X149418571Y-69949523D01*
X149513809Y-70044761D01*
X149656666Y-70092380D01*
X149894761Y-70092380D01*
X148704285Y-69092380D02*
X148513809Y-69092380D01*
X148418571Y-69140000D01*
X148323333Y-69235238D01*
X148275714Y-69425714D01*
X148275714Y-69759047D01*
X148323333Y-69949523D01*
X148418571Y-70044761D01*
X148513809Y-70092380D01*
X148704285Y-70092380D01*
X148799523Y-70044761D01*
X148894761Y-69949523D01*
X148942380Y-69759047D01*
X148942380Y-69425714D01*
X148894761Y-69235238D01*
X148799523Y-69140000D01*
X148704285Y-69092380D01*
X150795714Y-66612380D02*
X150224285Y-66612380D01*
X150510000Y-67612380D02*
X150510000Y-66612380D01*
X149319523Y-67517142D02*
X149367142Y-67564761D01*
X149510000Y-67612380D01*
X149605238Y-67612380D01*
X149748095Y-67564761D01*
X149843333Y-67469523D01*
X149890952Y-67374285D01*
X149938571Y-67183809D01*
X149938571Y-67040952D01*
X149890952Y-66850476D01*
X149843333Y-66755238D01*
X149748095Y-66660000D01*
X149605238Y-66612380D01*
X149510000Y-66612380D01*
X149367142Y-66660000D01*
X149319523Y-66707619D01*
X148890952Y-67612380D02*
X148890952Y-66612380D01*
X148319523Y-67612380D02*
X148748095Y-67040952D01*
X148319523Y-66612380D02*
X148890952Y-67183809D01*
X150233809Y-64132380D02*
X149662380Y-64132380D01*
X149948095Y-65132380D02*
X149948095Y-64132380D01*
X149329047Y-65132380D02*
X149329047Y-64132380D01*
X149090952Y-64132380D01*
X148948095Y-64180000D01*
X148852857Y-64275238D01*
X148805238Y-64370476D01*
X148757619Y-64560952D01*
X148757619Y-64703809D01*
X148805238Y-64894285D01*
X148852857Y-64989523D01*
X148948095Y-65084761D01*
X149090952Y-65132380D01*
X149329047Y-65132380D01*
X148329047Y-65132380D02*
X148329047Y-64132380D01*
X150643333Y-61472380D02*
X150071904Y-61472380D01*
X150357619Y-62472380D02*
X150357619Y-61472380D01*
X149738571Y-62472380D02*
X149738571Y-61472380D01*
X149405238Y-62186666D01*
X149071904Y-61472380D01*
X149071904Y-62472380D01*
X148643333Y-62424761D02*
X148500476Y-62472380D01*
X148262380Y-62472380D01*
X148167142Y-62424761D01*
X148119523Y-62377142D01*
X148071904Y-62281904D01*
X148071904Y-62186666D01*
X148119523Y-62091428D01*
X148167142Y-62043809D01*
X148262380Y-61996190D01*
X148452857Y-61948571D01*
X148548095Y-61900952D01*
X148595714Y-61853333D01*
X148643333Y-61758095D01*
X148643333Y-61662857D01*
X148595714Y-61567619D01*
X148548095Y-61520000D01*
X148452857Y-61472380D01*
X148214761Y-61472380D01*
X148071904Y-61520000D01*
M02*
